<svg width="64" height="64" viewBox="0 0 64 64" fill="none" xmlns="http://www.w3.org/2000/svg">
    <path fill-rule="evenodd" clip-rule="evenodd"
        d="M12 31.9128C12 42.9622 20.955 51.9128 32 51.9128C43.045 51.9128 52 42.9578 52 31.9128C52 20.8677 43.045 11.9128 32 11.9128C20.955 11.9128 12 20.8677 12 31.9128Z"
        fill="url(#paint0_linear_1218_57)" />
    <path fill-rule="evenodd" clip-rule="evenodd"
        d="M31.9999 19.0705H41.0747C41.443 19.0705 41.7403 19.3634 41.7403 19.7317V24.9991C41.7403 25.3674 41.443 25.6647 41.0747 25.6647H32.741C32.1774 25.6647 31.7204 26.1218 31.7204 26.6853V31.2161C31.7204 31.5844 31.423 31.8817 31.0547 31.8817H25.7874C25.419 31.8817 25.1217 31.5844 25.1217 31.2161V25.9487C25.1217 25.5804 25.419 25.2831 25.7874 25.2831H30.3181C30.8817 25.2831 31.3387 24.8305 31.3387 24.2669V19.7362C31.3387 19.3678 31.636 19.0705 32.0044 19.0705H31.9999ZM31.9289 44.6796H22.8497C22.4814 44.6796 22.1841 44.3867 22.1841 44.0184V38.751C22.1841 38.3827 22.4814 38.0854 22.8497 38.0854H31.1878C31.7514 38.0854 32.2085 37.6283 32.2085 37.0648V32.534C32.2085 32.1657 32.5058 31.8684 32.8741 31.8684H38.1415C38.5098 31.8684 38.8071 32.1657 38.8071 32.534V37.8014C38.8071 38.1697 38.5098 38.467 38.1415 38.467H33.6107C33.0472 38.467 32.5901 38.9196 32.5901 39.4832V44.0139C32.5901 44.3823 32.2928 44.6796 31.9245 44.6796H31.9289Z"
        fill="#060B21" />
    <defs>
        <linearGradient id="paint0_linear_1218_57" x1="12" y1="31.9128" x2="52" y2="31.9128"
            gradientUnits="userSpaceOnUse">
            <stop stop-color="#6F4FF2" />
            <stop offset="1" stop-color="#AD99FF" />
        </linearGradient>
    </defs>
</svg>