<svg width="320" height="150" viewBox="0 0 320 150" fill="none" xmlns="http://www.w3.org/2000/svg">
    <g clip-path="url(#clip0_1298_5929)">
        <rect width="320" height="150" fill="#010412" />
        <path
            d="M65.4687 44.085V59.4919H62.6777V44.085H65.4687ZM70.8821 52.7213V59.4919H68.1588V47.9367H70.7618V49.9002H70.8972C71.163 49.2532 71.5868 48.7391 72.1686 48.358C72.7554 47.9768 73.4801 47.7862 74.3427 47.7862C75.1401 47.7862 75.8347 47.9568 76.4266 48.2978C77.0234 48.6388 77.4848 49.1328 77.8108 49.7798C78.1418 50.4268 78.3048 51.2117 78.2998 52.1345V59.4919H75.5765V52.5558C75.5765 51.7834 75.3758 51.1791 74.9746 50.7428C74.5784 50.3064 74.0292 50.0883 73.3271 50.0883C72.8506 50.0883 72.4269 50.1936 72.0557 50.4042C71.6896 50.6099 71.4012 50.9083 71.1906 51.2995C70.985 51.6906 70.8821 52.1646 70.8821 52.7213ZM86.6265 47.9367V50.0431H79.9837V47.9367H86.6265ZM81.6237 45.1683H84.347V56.0163C84.347 56.3825 84.4022 56.6633 84.5125 56.8589C84.6279 57.0495 84.7783 57.1799 84.9639 57.2501C85.1495 57.3203 85.3551 57.3554 85.5808 57.3554C85.7513 57.3554 85.9068 57.3429 86.0472 57.3178C86.1926 57.2927 86.303 57.2702 86.3782 57.2501L86.8371 59.3791C86.6917 59.4293 86.4835 59.4844 86.2127 59.5446C85.9469 59.6048 85.6209 59.6399 85.2347 59.6499C84.5526 59.67 83.9383 59.5672 83.3916 59.3415C82.8449 59.1108 82.4111 58.7547 82.0901 58.2732C81.7742 57.7918 81.6187 57.1899 81.6237 56.4677V45.1683ZM88.6922 59.4919V47.9367H91.3327V49.8626H91.4531C91.6638 49.1955 92.0249 48.6815 92.5364 48.3204C93.053 47.9543 93.6423 47.7712 94.3043 47.7712C94.4548 47.7712 94.6228 47.7787 94.8083 47.7938C94.9989 47.8038 95.1569 47.8213 95.2823 47.8464V50.3516C95.1669 50.3114 94.9839 50.2763 94.7331 50.2462C94.4874 50.2111 94.2491 50.1936 94.0184 50.1936C93.5219 50.1936 93.0756 50.3014 92.6793 50.5171C92.2882 50.7277 91.9797 51.0211 91.754 51.3973C91.5283 51.7734 91.4155 52.2072 91.4155 52.6987V59.4919H88.6922ZM101.444 59.7176C100.316 59.7176 99.3378 59.4694 98.5103 58.9729C97.6828 58.4763 97.0408 57.7817 96.5844 56.889C96.1331 55.9963 95.9074 54.9531 95.9074 53.7595C95.9074 52.5658 96.1331 51.5201 96.5844 50.6224C97.0408 49.7247 97.6828 49.0275 98.5103 48.531C99.3378 48.0345 100.316 47.7862 101.444 47.7862C102.573 47.7862 103.551 48.0345 104.378 48.531C105.206 49.0275 105.845 49.7247 106.297 50.6224C106.753 51.5201 106.981 52.5658 106.981 53.7595C106.981 54.9531 106.753 55.9963 106.297 56.889C105.845 57.7817 105.206 58.4763 104.378 58.9729C103.551 59.4694 102.573 59.7176 101.444 59.7176ZM101.459 57.536C102.071 57.536 102.583 57.368 102.994 57.0319C103.405 56.6909 103.711 56.2345 103.912 55.6628C104.117 55.091 104.22 54.4541 104.22 53.7519C104.22 53.0448 104.117 52.4053 103.912 51.8336C103.711 51.2568 103.405 50.7979 102.994 50.4569C102.583 50.1158 102.071 49.9453 101.459 49.9453C100.832 49.9453 100.311 50.1158 99.8945 50.4569C99.4833 50.7979 99.1748 51.2568 98.9692 51.8336C98.7686 52.4053 98.6683 53.0448 98.6683 53.7519C98.6683 54.4541 98.7686 55.091 98.9692 55.6628C99.1748 56.2345 99.4833 56.6909 99.8945 57.0319C100.311 57.368 100.832 57.536 101.459 57.536ZM113.369 59.6951C112.461 59.6951 111.649 59.4619 110.931 58.9954C110.214 58.529 109.647 57.8519 109.231 56.9642C108.815 56.0765 108.607 54.9982 108.607 53.7294C108.607 52.4455 108.817 51.3621 109.239 50.4795C109.665 49.5917 110.239 48.9222 110.961 48.4708C111.684 48.0144 112.489 47.7862 113.376 47.7862C114.053 47.7862 114.61 47.9016 115.046 48.1323C115.483 48.358 115.829 48.6313 116.085 48.9523C116.34 49.2683 116.538 49.5667 116.679 49.8475H116.792V44.085H119.523V59.4919H116.844V57.6714H116.679C116.538 57.9522 116.335 58.2507 116.07 58.5666C115.804 58.8776 115.453 59.1434 115.016 59.3641C114.58 59.5847 114.031 59.6951 113.369 59.6951ZM114.129 57.4607C114.705 57.4607 115.197 57.3053 115.603 56.9943C116.009 56.6784 116.318 56.2395 116.528 55.6778C116.739 55.1161 116.844 54.4616 116.844 53.7143C116.844 52.967 116.739 52.3176 116.528 51.7659C116.323 51.2142 116.017 50.7854 115.611 50.4795C115.209 50.1735 114.715 50.0206 114.129 50.0206C113.522 50.0206 113.015 50.1785 112.609 50.4945C112.203 50.8105 111.897 51.2468 111.691 51.8035C111.486 52.3602 111.383 52.9971 111.383 53.7143C111.383 54.4365 111.486 55.081 111.691 55.6477C111.902 56.2094 112.21 56.6533 112.617 56.9793C113.028 57.3003 113.532 57.4607 114.129 57.4607ZM129.578 54.6321V47.9367H132.301V59.4919H129.66V57.4382H129.54C129.279 58.0852 128.85 58.6143 128.254 59.0255C127.662 59.4368 126.932 59.6424 126.064 59.6424C125.307 59.6424 124.638 59.4744 124.056 59.1384C123.479 58.7973 123.028 58.3033 122.702 57.6563C122.376 57.0044 122.213 56.217 122.213 55.2941V47.9367H124.936V54.8729C124.936 55.6051 125.137 56.1869 125.538 56.6182C125.939 57.0495 126.466 57.2652 127.118 57.2652C127.519 57.2652 127.908 57.1674 128.284 56.9718C128.66 56.7762 128.968 56.4853 129.209 56.0991C129.455 55.7079 129.578 55.2189 129.578 54.6321ZM139.93 59.7176C138.776 59.7176 137.786 59.4644 136.958 58.9578C136.136 58.4513 135.501 57.7516 135.055 56.8589C134.614 55.9612 134.393 54.928 134.393 53.7595C134.393 52.5859 134.619 51.5502 135.07 50.6525C135.521 49.7497 136.158 49.0476 136.981 48.5461C137.808 48.0395 138.786 47.7862 139.915 47.7862C140.853 47.7862 141.683 47.9593 142.405 48.3053C143.132 48.6464 143.711 49.1303 144.143 49.7573C144.574 50.3791 144.82 51.1064 144.88 51.9389H142.277C142.172 51.3822 141.921 50.9183 141.525 50.5472C141.134 50.171 140.609 49.9829 139.952 49.9829C139.396 49.9829 138.907 50.1334 138.486 50.4343C138.064 50.7302 137.736 51.1565 137.5 51.7132C137.269 52.2699 137.154 52.937 137.154 53.7143C137.154 54.5017 137.269 55.1788 137.5 55.7455C137.731 56.3072 138.054 56.7411 138.47 57.047C138.892 57.3479 139.386 57.4984 139.952 57.4984C140.354 57.4984 140.712 57.4231 141.028 57.2727C141.349 57.1172 141.618 56.894 141.833 56.6031C142.049 56.3122 142.197 55.9587 142.277 55.5424H144.88C144.815 56.3599 144.574 57.0846 144.158 57.7165C143.742 58.3434 143.175 58.8349 142.458 59.191C141.74 59.5421 140.898 59.7176 139.93 59.7176ZM146.904 59.4919V47.9367H149.628V59.4919H146.904ZM148.274 46.2967C147.842 46.2967 147.471 46.1538 147.16 45.8679C146.849 45.577 146.694 45.2284 146.694 44.8222C146.694 44.4109 146.849 44.0624 147.16 43.7765C147.471 43.4856 147.842 43.3402 148.274 43.3402C148.71 43.3402 149.081 43.4856 149.387 43.7765C149.698 44.0624 149.853 44.4109 149.853 44.8222C149.853 45.2284 149.698 45.577 149.387 45.8679C149.081 46.1538 148.71 46.2967 148.274 46.2967ZM154.94 52.7213V59.4919H152.216V47.9367H154.819V49.9002H154.955C155.22 49.2532 155.644 48.7391 156.226 48.358C156.813 47.9768 157.537 47.7862 158.4 47.7862C159.198 47.7862 159.892 47.9568 160.484 48.2978C161.081 48.6388 161.542 49.1328 161.868 49.7798C162.199 50.4268 162.362 51.2117 162.357 52.1345V59.4919H159.634V52.5558C159.634 51.7834 159.433 51.1791 159.032 50.7428C158.636 50.3064 158.087 50.0883 157.384 50.0883C156.908 50.0883 156.484 50.1936 156.113 50.4042C155.747 50.6099 155.459 50.9083 155.248 51.2995C155.042 51.6906 154.94 52.1646 154.94 52.7213ZM169.939 64.0659C168.961 64.0659 168.121 63.933 167.419 63.6672C166.717 63.4064 166.153 63.0553 165.726 62.614C165.3 62.1726 165.004 61.6836 164.839 61.147L167.291 60.5527C167.401 60.7784 167.562 61.0015 167.772 61.2222C167.983 61.4479 168.266 61.6335 168.623 61.7789C168.984 61.9294 169.438 62.0046 169.984 62.0046C170.757 62.0046 171.396 61.8165 171.903 61.4404C172.409 61.0693 172.662 60.4574 172.662 59.6048V57.4156H172.527C172.387 57.6965 172.181 57.9848 171.91 58.2807C171.644 58.5767 171.291 58.8249 170.849 59.0255C170.413 59.2261 169.864 59.3264 169.202 59.3264C168.314 59.3264 167.509 59.1183 166.787 58.702C166.07 58.2807 165.498 57.6538 165.072 56.8213C164.65 55.9837 164.44 54.9355 164.44 53.6767C164.44 52.4078 164.65 51.3371 165.072 50.4644C165.498 49.5867 166.072 48.9222 166.794 48.4708C167.517 48.0144 168.322 47.7862 169.209 47.7862C169.886 47.7862 170.443 47.9016 170.879 48.1323C171.321 48.358 171.672 48.6313 171.933 48.9523C172.193 49.2683 172.392 49.5667 172.527 49.8475H172.677V47.9367H175.363V59.68C175.363 60.668 175.127 61.4855 174.656 62.1325C174.185 62.7795 173.54 63.2634 172.723 63.5844C171.905 63.9054 170.977 64.0659 169.939 64.0659ZM169.962 57.1899C170.538 57.1899 171.03 57.0495 171.436 56.7686C171.842 56.4878 172.151 56.084 172.361 55.5574C172.572 55.0308 172.677 54.3989 172.677 53.6617C172.677 52.9344 172.572 52.2975 172.361 51.7508C172.156 51.2042 171.85 50.7804 171.444 50.4795C171.042 50.1735 170.548 50.0206 169.962 50.0206C169.355 50.0206 168.848 50.1785 168.442 50.4945C168.036 50.8105 167.73 51.2443 167.524 51.796C167.319 52.3426 167.216 52.9645 167.216 53.6617C167.216 54.3688 167.319 54.9882 167.524 55.5198C167.735 56.0464 168.043 56.4577 168.45 56.7536C168.861 57.0445 169.365 57.1899 169.962 57.1899ZM27.7367 70.3434V68.5263H37.2835V70.3434H33.5851V80.4919H31.4351V70.3434H27.7367ZM40.9809 75.2336V80.4919H38.8659V68.5263H40.9342V73.0427H41.0393C41.2497 72.5363 41.5749 72.1371 42.015 71.8449C42.4591 71.5489 43.0239 71.4009 43.7094 71.4009C44.3326 71.4009 44.876 71.5314 45.3395 71.7923C45.803 72.0533 46.1613 72.435 46.4145 72.9375C46.6716 73.4399 46.8001 74.0534 46.8001 74.7779V80.4919H44.6851V75.1051C44.6851 74.5013 44.5293 74.032 44.2177 73.697C43.91 73.3582 43.4776 73.1887 42.9206 73.1887C42.5467 73.1887 42.2117 73.2705 41.9157 73.4341C41.6236 73.5938 41.3938 73.8256 41.2263 74.1294C41.0627 74.4332 40.9809 74.8013 40.9809 75.2336ZM52.7645 80.6672C51.8647 80.6672 51.0876 80.4803 50.4333 80.1063C49.7828 79.7285 49.2823 79.1949 48.9317 78.5055C48.5812 77.8121 48.4059 76.9961 48.4059 76.0574C48.4059 75.1343 48.5812 74.3241 48.9317 73.6269C49.2862 72.9258 49.7808 72.3805 50.4157 71.991C51.0506 71.5976 51.7965 71.4009 52.6534 71.4009C53.2065 71.4009 53.7285 71.4905 54.2193 71.6696C54.7139 71.8449 55.1502 72.1176 55.528 72.4876C55.9097 72.8576 56.2096 73.3289 56.4278 73.9015C56.6459 74.4702 56.7549 75.1479 56.7549 75.9347V76.5833H49.3991V75.1577H54.7276C54.7237 74.7526 54.636 74.3923 54.4646 74.0768C54.2933 73.7574 54.0537 73.5062 53.746 73.3231C53.4422 73.14 53.0877 73.0485 52.6827 73.0485C52.2503 73.0485 51.8705 73.1537 51.5434 73.364C51.2162 73.5704 50.961 73.8431 50.778 74.182C50.5988 74.5169 50.5073 74.885 50.5034 75.2862V76.5307C50.5034 77.0526 50.5988 77.5005 50.7897 77.8745C50.9805 78.2445 51.2473 78.5288 51.5901 78.7275C51.9329 78.9222 52.3341 79.0196 52.7937 79.0196C53.1014 79.0196 53.3799 78.9768 53.6292 78.8911C53.8784 78.8015 54.0946 78.671 54.2777 78.4996C54.4608 78.3282 54.599 78.116 54.6925 77.8628L56.6673 78.0848C56.5427 78.6067 56.3051 79.0625 55.9545 79.452C55.6078 79.8376 55.1638 80.1375 54.6224 80.3517C54.081 80.5621 53.4617 80.6672 52.7645 80.6672ZM62.3897 80.4919V68.5263H64.5573V78.6749H69.8273V80.4919H62.3897ZM71.4506 80.4919V71.5177H73.5656V80.4919H71.4506ZM72.514 70.2441C72.179 70.2441 71.8908 70.133 71.6493 69.911C71.4078 69.6851 71.287 69.4144 71.287 69.0989C71.287 68.7795 71.4078 68.5088 71.6493 68.2868C71.8908 68.0609 72.179 67.9479 72.514 67.9479C72.8528 67.9479 73.1411 68.0609 73.3787 68.2868C73.6202 68.5088 73.7409 68.7795 73.7409 69.0989C73.7409 69.4144 73.6202 69.6851 73.3787 69.911C73.1411 70.133 72.8528 70.2441 72.514 70.2441ZM81.5646 83.8573V79.078H81.477C81.3679 79.2962 81.2102 79.5279 81.0038 79.7733C80.7973 80.0148 80.5247 80.2212 80.1858 80.3926C79.8469 80.564 79.4204 80.6497 78.9063 80.6497C78.2013 80.6497 77.5703 80.4686 77.0133 80.1063C76.4563 79.7441 76.0161 79.2183 75.6929 78.5288C75.3696 77.8394 75.2079 77.002 75.2079 76.0165C75.2079 75.0194 75.3715 74.1781 75.6987 73.4925C76.0298 72.8031 76.4758 72.2831 77.0366 71.9326C77.5975 71.5781 78.2227 71.4009 78.9121 71.4009C79.4379 71.4009 79.8703 71.4905 80.2092 71.6696C80.548 71.8449 80.8168 72.0572 81.0154 72.3065C81.2141 72.5519 81.3679 72.7836 81.477 73.0018H81.6055V71.5177H83.6855V83.8573H81.5646ZM79.4964 78.9144C79.9443 78.9144 80.326 78.7937 80.6415 78.5522C80.957 78.3068 81.1966 77.966 81.3602 77.5298C81.5237 77.0935 81.6055 76.5852 81.6055 76.0048C81.6055 75.4245 81.5237 74.9201 81.3602 74.4916C81.2005 74.0632 80.9629 73.7301 80.6474 73.4925C80.3358 73.2549 79.9521 73.1361 79.4964 73.1361C79.0251 73.1361 78.6317 73.2588 78.3162 73.5042C78.0007 73.7496 77.7631 74.0885 77.6034 74.5208C77.4437 74.9532 77.3638 75.4478 77.3638 76.0048C77.3638 76.5657 77.4437 77.0662 77.6034 77.5064C77.767 77.9426 78.0065 78.2873 78.322 78.5405C78.6414 78.7898 79.0329 78.9144 79.4964 78.9144ZM91.4143 76.7176V71.5177H93.5293V80.4919H91.4786V78.8969H91.3851C91.1826 79.3994 90.8495 79.8103 90.386 80.1297C89.9264 80.4491 89.3597 80.6088 88.6858 80.6088C88.0977 80.6088 87.5777 80.4783 87.1259 80.2173C86.6779 79.9525 86.3274 79.5688 86.0742 79.0664C85.821 78.56 85.6944 77.9485 85.6944 77.2318V71.5177H87.8094V76.9046C87.8094 77.4733 87.9652 77.9251 88.2768 78.2601C88.5884 78.5951 88.9974 78.7625 89.5038 78.7625C89.8154 78.7625 90.1173 78.6866 90.4094 78.5347C90.7015 78.3828 90.9411 78.1569 91.128 77.8569C91.3189 77.5531 91.4143 77.1734 91.4143 76.7176ZM95.5397 80.4919V71.5177H97.6547V80.4919H95.5397ZM96.603 70.2441C96.2681 70.2441 95.9798 70.133 95.7383 69.911C95.4968 69.6851 95.3761 69.4144 95.3761 69.0989C95.3761 68.7795 95.4968 68.5088 95.7383 68.2868C95.9798 68.0609 96.2681 67.9479 96.603 67.9479C96.9419 67.9479 97.2301 68.0609 97.4677 68.2868C97.7092 68.5088 97.83 68.7795 97.83 69.0989C97.83 69.4144 97.7092 69.6851 97.4677 69.911C97.2301 70.133 96.9419 70.2441 96.603 70.2441ZM102.995 80.6497C102.29 80.6497 101.659 80.4686 101.102 80.1063C100.545 79.7441 100.105 79.2183 99.7819 78.5288C99.4586 77.8394 99.297 77.002 99.297 76.0165C99.297 75.0194 99.4606 74.1781 99.7878 73.4925C100.119 72.8031 100.565 72.2831 101.126 71.9326C101.687 71.5781 102.312 71.4009 103.001 71.4009C103.527 71.4009 103.959 71.4905 104.298 71.6696C104.637 71.8449 104.906 72.0572 105.105 72.3065C105.303 72.5519 105.457 72.7836 105.566 73.0018H105.654V68.5263H107.775V80.4919H105.695V79.078H105.566C105.457 79.2962 105.299 79.5279 105.093 79.7733C104.886 80.0148 104.614 80.2212 104.275 80.3926C103.936 80.564 103.51 80.6497 102.995 80.6497ZM103.585 78.9144C104.033 78.9144 104.415 78.7937 104.731 78.5522C105.046 78.3068 105.286 77.966 105.449 77.5298C105.613 77.0935 105.695 76.5852 105.695 76.0048C105.695 75.4245 105.613 74.9201 105.449 74.4916C105.29 74.0632 105.052 73.7301 104.736 73.4925C104.425 73.2549 104.041 73.1361 103.585 73.1361C103.114 73.1361 102.721 73.2588 102.405 73.5042C102.09 73.7496 101.852 74.0885 101.692 74.5208C101.533 74.9532 101.453 75.4478 101.453 76.0048C101.453 76.5657 101.533 77.0662 101.692 77.5064C101.856 77.9426 102.096 78.2873 102.411 78.5405C102.73 78.7898 103.122 78.9144 103.585 78.9144ZM120.377 71.8157C120.322 71.3055 120.092 70.9082 119.687 70.6238C119.286 70.3395 118.764 70.1973 118.121 70.1973C117.67 70.1973 117.282 70.2655 116.959 70.4018C116.635 70.5381 116.388 70.7231 116.217 70.9568C116.045 71.1906 115.958 71.4574 115.954 71.7573C115.954 72.0066 116.01 72.2227 116.123 72.4058C116.24 72.5889 116.398 72.7447 116.596 72.8732C116.795 72.9979 117.015 73.103 117.257 73.1887C117.498 73.2744 117.742 73.3465 117.987 73.4049L119.109 73.6853C119.561 73.7905 119.995 73.9327 120.412 74.1118C120.832 74.291 121.208 74.5169 121.539 74.7896C121.874 75.0622 122.139 75.3914 122.334 75.777C122.529 76.1626 122.626 76.6144 122.626 77.1325C122.626 77.8336 122.447 78.4509 122.089 78.9846C121.73 79.5143 121.212 79.9291 120.534 80.229C119.861 80.5251 119.045 80.6731 118.086 80.6731C117.155 80.6731 116.347 80.5289 115.662 80.2407C114.98 79.9525 114.446 79.5318 114.061 78.9787C113.679 78.4256 113.473 77.7518 113.441 76.9572H115.574C115.605 77.374 115.734 77.7206 115.96 77.9972C116.186 78.2737 116.48 78.4801 116.842 78.6165C117.208 78.7528 117.617 78.821 118.069 78.821C118.54 78.821 118.953 78.7509 119.307 78.6106C119.666 78.4665 119.946 78.2679 120.149 78.0147C120.351 77.7576 120.455 77.4577 120.458 77.1149C120.455 76.8033 120.363 76.5463 120.184 76.3437C120.005 76.1373 119.753 75.9659 119.43 75.8296C119.111 75.6893 118.737 75.5647 118.308 75.4556L116.947 75.1051C115.962 74.8519 115.183 74.4682 114.61 73.9541C114.041 73.4361 113.757 72.7486 113.757 71.8917C113.757 71.1867 113.948 70.5693 114.33 70.0396C114.715 69.5098 115.239 69.0989 115.901 68.8068C116.563 68.5108 117.313 68.3627 118.151 68.3627C119 68.3627 119.744 68.5108 120.382 68.8068C121.025 69.0989 121.53 69.5059 121.896 70.0279C122.262 70.5459 122.451 71.1419 122.462 71.8157H120.377ZM128.782 71.5177V73.1537H123.623V71.5177H128.782ZM124.896 69.3677H127.011V77.7927C127.011 78.077 127.054 78.2951 127.14 78.447C127.23 78.5951 127.346 78.6963 127.491 78.7509C127.635 78.8054 127.794 78.8327 127.97 78.8327C128.102 78.8327 128.223 78.8229 128.332 78.8034C128.445 78.784 128.53 78.7664 128.589 78.7509L128.945 80.4043C128.832 80.4433 128.671 80.4861 128.46 80.5328C128.254 80.5796 128.001 80.6068 127.701 80.6146C127.171 80.6302 126.694 80.5504 126.269 80.3751C125.845 80.1959 125.508 79.9194 125.259 79.5454C125.013 79.1715 124.892 78.7041 124.896 78.1432V69.3677ZM132.968 80.6731C132.4 80.6731 131.888 80.5718 131.432 80.3692C130.98 80.1628 130.622 79.859 130.357 79.4578C130.096 79.0566 129.965 78.5619 129.965 77.9738C129.965 77.4674 130.059 77.0487 130.246 76.7176C130.433 76.3866 130.688 76.1217 131.011 75.923C131.334 75.7244 131.699 75.5744 132.104 75.4732C132.513 75.368 132.935 75.292 133.372 75.2453C133.897 75.1908 134.324 75.1421 134.651 75.0992C134.978 75.0525 135.216 74.9824 135.364 74.8889C135.516 74.7915 135.592 74.6416 135.592 74.439V74.404C135.592 73.9638 135.461 73.623 135.2 73.3815C134.939 73.14 134.563 73.0193 134.073 73.0193C133.555 73.0193 133.144 73.1322 132.84 73.3582C132.54 73.5841 132.337 73.8509 132.232 74.1586L130.257 73.8781C130.413 73.3328 130.67 72.8771 131.029 72.511C131.387 72.1409 131.825 71.8644 132.343 71.6813C132.861 71.4944 133.434 71.4009 134.061 71.4009C134.493 71.4009 134.924 71.4515 135.352 71.5528C135.781 71.6541 136.172 71.8216 136.527 72.0553C136.881 72.2851 137.165 72.5986 137.38 72.9959C137.598 73.3932 137.707 73.8898 137.707 74.4858V80.4919H135.674V79.2592H135.603C135.475 79.5084 135.294 79.7421 135.06 79.9603C134.83 80.1745 134.54 80.3478 134.19 80.4803C133.843 80.6088 133.436 80.6731 132.968 80.6731ZM133.518 79.1189C133.942 79.1189 134.31 79.0352 134.622 78.8677C134.933 78.6963 135.173 78.4704 135.341 78.19C135.512 77.9095 135.598 77.6038 135.598 77.2727V76.2152C135.531 76.2697 135.418 76.3203 135.259 76.3671C135.103 76.4138 134.928 76.4547 134.733 76.4898C134.538 76.5248 134.345 76.556 134.154 76.5833C133.964 76.6105 133.798 76.6339 133.658 76.6534C133.342 76.6962 133.06 76.7663 132.811 76.8637C132.561 76.9611 132.365 77.0974 132.221 77.2727C132.076 77.4441 132.004 77.6661 132.004 77.9387C132.004 78.3282 132.147 78.6223 132.431 78.821C132.715 79.0196 133.078 79.1189 133.518 79.1189ZM141.597 77.6758L141.591 75.1226H141.93L145.155 71.5177H147.627L143.659 75.9347H143.221L141.597 77.6758ZM139.669 80.4919V68.5263H141.784V80.4919H139.669ZM145.301 80.4919L142.38 76.408L143.805 74.9181L147.831 80.4919H145.301ZM148.872 80.4919V71.5177H150.987V80.4919H148.872ZM149.935 70.2441C149.6 70.2441 149.312 70.133 149.07 69.911C148.829 69.6851 148.708 69.4144 148.708 69.0989C148.708 68.7795 148.829 68.5088 149.07 68.2868C149.312 68.0609 149.6 67.9479 149.935 67.9479C150.274 67.9479 150.562 68.0609 150.8 68.2868C151.041 68.5088 151.162 68.7795 151.162 69.0989C151.162 69.4144 151.041 69.6851 150.8 69.911C150.562 70.133 150.274 70.2441 149.935 70.2441ZM155.112 75.2336V80.4919H152.997V71.5177H155.018V73.0427H155.124C155.33 72.5402 155.659 72.1409 156.111 71.8449C156.567 71.5489 157.13 71.4009 157.8 71.4009C158.419 71.4009 158.958 71.5333 159.418 71.7982C159.881 72.063 160.24 72.4467 160.493 72.9492C160.75 73.4516 160.877 74.0612 160.873 74.7779V80.4919H158.758V75.1051C158.758 74.5052 158.602 74.0359 158.29 73.697C157.983 73.3582 157.556 73.1887 157.011 73.1887C156.641 73.1887 156.312 73.2705 156.023 73.4341C155.739 73.5938 155.515 73.8256 155.351 74.1294C155.192 74.4332 155.112 74.8013 155.112 75.2336ZM166.761 84.0442C166.002 84.0442 165.349 83.941 164.804 83.7346C164.259 83.532 163.82 83.2594 163.489 82.9166C163.158 82.5739 162.928 82.1941 162.8 81.7773L164.705 81.3157C164.79 81.491 164.915 81.6644 165.078 81.8357C165.242 82.011 165.462 82.1551 165.739 82.2681C166.019 82.3849 166.372 82.4434 166.796 82.4434C167.396 82.4434 167.893 82.2973 168.286 82.0052C168.679 81.7169 168.876 81.2417 168.876 80.5796V78.8794H168.771C168.662 79.0975 168.502 79.3215 168.292 79.5513C168.085 79.7811 167.811 79.9739 167.468 80.1297C167.129 80.2855 166.703 80.3634 166.189 80.3634C165.499 80.3634 164.874 80.2018 164.313 79.8785C163.756 79.5513 163.312 79.0644 162.981 78.4178C162.654 77.7674 162.49 76.9533 162.49 75.9756C162.49 74.9902 162.654 74.1586 162.981 73.4808C163.312 72.7992 163.758 72.2831 164.319 71.9326C164.88 71.5781 165.505 71.4009 166.194 71.4009C166.72 71.4009 167.153 71.4905 167.491 71.6696C167.834 71.8449 168.107 72.0572 168.309 72.3065C168.512 72.5519 168.666 72.7836 168.771 73.0018H168.888V71.5177H170.974V80.638C170.974 81.4053 170.791 82.0402 170.424 82.5427C170.058 83.0452 169.558 83.421 168.923 83.6703C168.288 83.9196 167.567 84.0442 166.761 84.0442ZM166.779 78.7041C167.227 78.7041 167.608 78.5951 167.924 78.3769C168.239 78.1588 168.479 77.8453 168.642 77.4363C168.806 77.0273 168.888 76.5365 168.888 75.9639C168.888 75.3992 168.806 74.9045 168.642 74.4799C168.483 74.0554 168.245 73.7262 167.93 73.4925C167.618 73.2549 167.234 73.1361 166.779 73.1361C166.307 73.1361 165.914 73.2588 165.598 73.5042C165.283 73.7496 165.045 74.0865 164.886 74.515C164.726 74.9395 164.646 75.4225 164.646 75.9639C164.646 76.5131 164.726 76.9942 164.886 77.4071C165.049 77.816 165.289 78.1354 165.604 78.3652C165.924 78.5912 166.315 78.7041 166.779 78.7041ZM183.489 71.8157C183.435 71.3055 183.205 70.9082 182.8 70.6238C182.399 70.3395 181.877 70.1973 181.234 70.1973C180.782 70.1973 180.395 70.2655 180.072 70.4018C179.748 70.5381 179.501 70.7231 179.33 70.9568C179.158 71.1906 179.071 71.4574 179.067 71.7573C179.067 72.0066 179.123 72.2227 179.236 72.4058C179.353 72.5889 179.511 72.7447 179.709 72.8732C179.908 72.9979 180.128 73.103 180.37 73.1887C180.611 73.2744 180.854 73.3465 181.1 73.4049L182.222 73.6853C182.673 73.7905 183.108 73.9327 183.525 74.1118C183.945 74.291 184.321 74.5169 184.652 74.7896C184.987 75.0622 185.252 75.3914 185.447 75.777C185.642 76.1626 185.739 76.6144 185.739 77.1325C185.739 77.8336 185.56 78.4509 185.201 78.9846C184.843 79.5143 184.325 79.9291 183.647 80.229C182.973 80.5251 182.157 80.6731 181.199 80.6731C180.268 80.6731 179.46 80.5289 178.775 80.2407C178.093 79.9525 177.559 79.5318 177.174 78.9787C176.792 78.4256 176.585 77.7518 176.554 76.9572H178.687C178.718 77.374 178.847 77.7206 179.072 77.9972C179.298 78.2737 179.592 78.4801 179.955 78.6165C180.321 78.7528 180.73 78.821 181.182 78.821C181.653 78.821 182.066 78.7509 182.42 78.6106C182.779 78.4665 183.059 78.2679 183.262 78.0147C183.464 77.7576 183.567 77.4577 183.571 77.1149C183.567 76.8033 183.476 76.5463 183.297 76.3437C183.118 76.1373 182.866 75.9659 182.543 75.8296C182.224 75.6893 181.85 75.5647 181.421 75.4556L180.06 75.1051C179.074 74.8519 178.295 74.4682 177.723 73.9541C177.154 73.4361 176.87 72.7486 176.87 71.8917C176.87 71.1867 177.061 70.5693 177.442 70.0396C177.828 69.5098 178.352 69.0989 179.014 68.8068C179.676 68.5108 180.426 68.3627 181.263 68.3627C182.113 68.3627 182.857 68.5108 183.495 68.8068C184.138 69.0989 184.642 69.5059 185.009 70.0279C185.375 70.5459 185.564 71.1419 185.575 71.8157H183.489ZM186.981 70.3434V68.5263H196.528V70.3434H192.829V80.4919H190.679V70.3434H186.981ZM198.204 80.4919V68.5263H202.691C203.61 68.5263 204.381 68.686 205.004 69.0054C205.631 69.3248 206.105 69.7728 206.424 70.3492C206.747 70.9218 206.909 71.5898 206.909 72.3532C206.909 73.1206 206.745 73.7866 206.418 74.3514C206.095 74.9123 205.618 75.3466 204.987 75.6543C204.356 75.9581 203.581 76.11 202.662 76.11H199.466V74.3105H202.369C202.907 74.3105 203.347 74.2365 203.69 74.0885C204.033 73.9366 204.286 73.7165 204.449 73.4283C204.617 73.1361 204.701 72.7778 204.701 72.3532C204.701 71.9287 204.617 71.5664 204.449 71.2665C204.282 70.9627 204.027 70.7329 203.684 70.5771C203.341 70.4174 202.899 70.3375 202.358 70.3375H200.371V80.4919H198.204ZM204.385 75.07L207.347 80.4919H204.928L202.019 75.07H204.385ZM208.74 80.4919V68.5263H210.907V74.0242H211.053L215.722 68.5263H218.368L213.741 73.8957L218.409 80.4919H215.803L212.234 75.3622L210.907 76.928V80.4919H208.74ZM223.626 80.4919V68.5263H228.113C229.033 68.5263 229.804 68.6977 230.427 69.0405C231.054 69.3832 231.527 69.8545 231.847 70.4544C232.17 71.0503 232.332 71.7281 232.332 72.4876C232.332 73.2549 232.17 73.9366 231.847 74.5325C231.524 75.1285 231.046 75.5978 230.415 75.9406C229.784 76.2794 229.007 76.4489 228.084 76.4489H225.11V74.6669H227.792C228.33 74.6669 228.77 74.5734 229.112 74.3864C229.455 74.1995 229.708 73.9424 229.872 73.6152C230.039 73.288 230.123 72.9122 230.123 72.4876C230.123 72.063 230.039 71.6891 229.872 71.3658C229.708 71.0425 229.453 70.7913 229.107 70.6121C228.764 70.4291 228.322 70.3375 227.78 70.3375H225.794V80.4919H223.626ZM233.956 80.4919V71.5177H236.007V73.0134H236.101C236.264 72.4954 236.545 72.0962 236.942 71.8157C237.343 71.5314 237.801 71.3892 238.315 71.3892C238.432 71.3892 238.562 71.395 238.707 71.4067C238.855 71.4145 238.977 71.4282 239.075 71.4476V73.3932C238.985 73.362 238.843 73.3348 238.648 73.3114C238.457 73.2841 238.272 73.2705 238.093 73.2705C237.707 73.2705 237.361 73.3543 237.053 73.5217C236.749 73.6853 236.51 73.9132 236.334 74.2053C236.159 74.4975 236.072 74.8344 236.072 75.2161V80.4919H233.956ZM243.86 80.6672C242.984 80.6672 242.224 80.4744 241.582 80.0888C240.939 79.7032 240.44 79.1637 240.086 78.4704C239.735 77.7771 239.56 76.9669 239.56 76.0399C239.56 75.1129 239.735 74.3008 240.086 73.6035C240.44 72.9063 240.939 72.3649 241.582 71.9793C242.224 71.5937 242.984 71.4009 243.86 71.4009C244.737 71.4009 245.496 71.5937 246.139 71.9793C246.781 72.3649 247.278 72.9063 247.629 73.6035C247.983 74.3008 248.16 75.1129 248.16 76.0399C248.16 76.9669 247.983 77.7771 247.629 78.4704C247.278 79.1637 246.781 79.7032 246.139 80.0888C245.496 80.4744 244.737 80.6672 243.86 80.6672ZM243.872 78.9729C244.347 78.9729 244.744 78.8424 245.064 78.5814C245.383 78.3166 245.621 77.9621 245.777 77.5181C245.936 77.074 246.016 76.5794 246.016 76.0341C246.016 75.4849 245.936 74.9882 245.777 74.5442C245.621 74.0963 245.383 73.7399 245.064 73.475C244.744 73.2101 244.347 73.0777 243.872 73.0777C243.385 73.0777 242.98 73.2101 242.657 73.475C242.337 73.7399 242.098 74.0963 241.938 74.5442C241.782 74.9882 241.704 75.4849 241.704 76.0341C241.704 76.5794 241.782 77.074 241.938 77.5181C242.098 77.9621 242.337 78.3166 242.657 78.5814C242.98 78.8424 243.385 78.9729 243.872 78.9729ZM254.272 71.5177V73.1537H249.113V71.5177H254.272ZM250.387 69.3677H252.502V77.7927C252.502 78.077 252.545 78.2951 252.63 78.447C252.72 78.5951 252.837 78.6963 252.981 78.7509C253.125 78.8054 253.285 78.8327 253.46 78.8327C253.593 78.8327 253.713 78.8229 253.822 78.8034C253.935 78.784 254.021 78.7664 254.079 78.7509L254.436 80.4043C254.323 80.4433 254.161 80.4861 253.951 80.5328C253.744 80.5796 253.491 80.6068 253.191 80.6146C252.662 80.6302 252.184 80.5504 251.76 80.3751C251.335 80.1959 250.998 79.9194 250.749 79.5454C250.504 79.1715 250.383 78.7041 250.387 78.1432V69.3677ZM259.695 80.6672C258.818 80.6672 258.059 80.4744 257.416 80.0888C256.773 79.7032 256.275 79.1637 255.92 78.4704C255.57 77.7771 255.394 76.9669 255.394 76.0399C255.394 75.1129 255.57 74.3008 255.92 73.6035C256.275 72.9063 256.773 72.3649 257.416 71.9793C258.059 71.5937 258.818 71.4009 259.695 71.4009C260.571 71.4009 261.331 71.5937 261.973 71.9793C262.616 72.3649 263.113 72.9063 263.463 73.6035C263.818 74.3008 263.995 75.1129 263.995 76.0399C263.995 76.9669 263.818 77.7771 263.463 78.4704C263.113 79.1637 262.616 79.7032 261.973 80.0888C261.331 80.4744 260.571 80.6672 259.695 80.6672ZM259.706 78.9729C260.182 78.9729 260.579 78.8424 260.898 78.5814C261.218 78.3166 261.455 77.9621 261.611 77.5181C261.771 77.074 261.851 76.5794 261.851 76.0341C261.851 75.4849 261.771 74.9882 261.611 74.5442C261.455 74.0963 261.218 73.7399 260.898 73.475C260.579 73.2101 260.182 73.0777 259.706 73.0777C259.219 73.0777 258.814 73.2101 258.491 73.475C258.172 73.7399 257.932 74.0963 257.772 74.5442C257.617 74.9882 257.539 75.4849 257.539 76.0341C257.539 76.5794 257.617 77.074 257.772 77.5181C257.932 77.9621 258.172 78.3166 258.491 78.5814C258.814 78.8424 259.219 78.9729 259.706 78.9729ZM269.54 80.6672C268.644 80.6672 267.875 80.4705 267.232 80.0771C266.593 79.6837 266.101 79.1404 265.754 78.447C265.411 77.7498 265.24 76.9474 265.24 76.0399C265.24 75.1285 265.415 74.3241 265.766 73.6269C266.116 72.9258 266.611 72.3805 267.25 71.991C267.892 71.5976 268.652 71.4009 269.528 71.4009C270.257 71.4009 270.901 71.5353 271.462 71.804C272.027 72.0689 272.477 72.4448 272.812 72.9316C273.147 73.4146 273.338 73.9794 273.384 74.626H271.363C271.281 74.1936 271.086 73.8333 270.779 73.5451C270.475 73.253 270.068 73.1069 269.557 73.1069C269.125 73.1069 268.745 73.2238 268.418 73.4575C268.091 73.6873 267.836 74.0184 267.653 74.4507C267.474 74.8831 267.384 75.4011 267.384 76.0048C267.384 76.6164 267.474 77.1422 267.653 77.5823C267.832 78.0186 268.083 78.3555 268.406 78.5931C268.734 78.8268 269.117 78.9437 269.557 78.9437C269.869 78.9437 270.148 78.8852 270.393 78.7684C270.642 78.6476 270.851 78.4743 271.018 78.2484C271.186 78.0225 271.3 77.7479 271.363 77.4246H273.384C273.334 78.0595 273.147 78.6223 272.823 79.1131C272.5 79.6 272.06 79.9817 271.503 80.2582C270.946 80.5309 270.292 80.6672 269.54 80.6672ZM278.871 80.6672C277.995 80.6672 277.235 80.4744 276.592 80.0888C275.95 79.7032 275.451 79.1637 275.097 78.4704C274.746 77.7771 274.571 76.9669 274.571 76.0399C274.571 75.1129 274.746 74.3008 275.097 73.6035C275.451 72.9063 275.95 72.3649 276.592 71.9793C277.235 71.5937 277.995 71.4009 278.871 71.4009C279.747 71.4009 280.507 71.5937 281.15 71.9793C281.792 72.3649 282.289 72.9063 282.64 73.6035C282.994 74.3008 283.171 75.1129 283.171 76.0399C283.171 76.9669 282.994 77.7771 282.64 78.4704C282.289 79.1637 281.792 79.7032 281.15 80.0888C280.507 80.4744 279.747 80.6672 278.871 80.6672ZM278.883 78.9729C279.358 78.9729 279.755 78.8424 280.075 78.5814C280.394 78.3166 280.632 77.9621 280.787 77.5181C280.947 77.074 281.027 76.5794 281.027 76.0341C281.027 75.4849 280.947 74.9882 280.787 74.5442C280.632 74.0963 280.394 73.7399 280.075 73.475C279.755 73.2101 279.358 73.0777 278.883 73.0777C278.396 73.0777 277.991 73.2101 277.667 73.475C277.348 73.7399 277.109 74.0963 276.949 74.5442C276.793 74.9882 276.715 75.4849 276.715 76.0341C276.715 76.5794 276.793 77.074 276.949 77.5181C277.109 77.9621 277.348 78.3166 277.667 78.5814C277.991 78.8424 278.396 78.9729 278.883 78.9729ZM286.917 68.5263V80.4919H284.802V68.5263H286.917ZM291.515 68.5263L291.323 76.9747H289.441L289.254 68.5263H291.515ZM290.382 80.6205C290.028 80.6205 289.724 80.4958 289.471 80.2466C289.221 79.9973 289.097 79.6935 289.097 79.3351C289.097 78.9846 289.221 78.6846 289.471 78.4354C289.724 78.1861 290.028 78.0614 290.382 78.0614C290.729 78.0614 291.029 78.1861 291.282 78.4354C291.539 78.6846 291.667 78.9846 291.667 79.3351C291.667 79.5727 291.607 79.7889 291.486 79.9836C291.369 80.1784 291.214 80.3342 291.019 80.451C290.828 80.564 290.616 80.6205 290.382 80.6205Z"
            fill="#7249C6" />
        <path
            d="M183.106 59.4919V44.085H193.126V46.4246H185.897V50.6073H192.607V52.947H185.897V57.1523H193.186V59.4919H183.106ZM198.365 52.7213V59.4919H195.641V47.9367H198.244V49.9002H198.38C198.646 49.2532 199.069 48.7391 199.651 48.358C200.238 47.9768 200.963 47.7862 201.825 47.7862C202.623 47.7862 203.317 47.9568 203.909 48.2978C204.506 48.6388 204.967 49.1328 205.293 49.7798C205.624 50.4268 205.787 51.2117 205.782 52.1345V59.4919H203.059V52.5558C203.059 51.7834 202.858 51.1791 202.457 50.7428C202.061 50.3064 201.512 50.0883 200.81 50.0883C200.333 50.0883 199.909 50.1936 199.538 50.4042C199.172 50.6099 198.884 50.9083 198.673 51.2995C198.468 51.6906 198.365 52.1646 198.365 52.7213ZM212.627 59.6951C211.719 59.6951 210.907 59.4619 210.19 58.9954C209.472 58.529 208.906 57.8519 208.489 56.9642C208.073 56.0765 207.865 54.9982 207.865 53.7294C207.865 52.4455 208.076 51.3621 208.497 50.4795C208.923 49.5917 209.497 48.9222 210.22 48.4708C210.942 48.0144 211.747 47.7862 212.635 47.7862C213.312 47.7862 213.868 47.9016 214.305 48.1323C214.741 48.358 215.087 48.6313 215.343 48.9523C215.599 49.2683 215.797 49.5667 215.937 49.8475H216.05V44.085H218.781V59.4919H216.103V57.6714H215.937C215.797 57.9522 215.594 58.2507 215.328 58.5666C215.062 58.8776 214.711 59.1434 214.275 59.3641C213.838 59.5847 213.289 59.6951 212.627 59.6951ZM213.387 57.4607C213.964 57.4607 214.455 57.3053 214.861 56.9943C215.268 56.6784 215.576 56.2395 215.787 55.6778C215.997 55.1161 216.103 54.4616 216.103 53.7143C216.103 52.967 215.997 52.3176 215.787 51.7659C215.581 51.2142 215.275 50.7854 214.869 50.4795C214.468 50.1735 213.974 50.0206 213.387 50.0206C212.78 50.0206 212.273 50.1785 211.867 50.4945C211.461 50.8105 211.155 51.2468 210.949 51.8035C210.744 52.3602 210.641 52.9971 210.641 53.7143C210.641 54.4365 210.744 55.081 210.949 55.6477C211.16 56.2094 211.468 56.6533 211.875 56.9793C212.286 57.3003 212.79 57.4607 213.387 57.4607ZM228.836 54.6321V47.9367H231.559V59.4919H228.919V57.4382H228.798C228.537 58.0852 228.109 58.6143 227.512 59.0255C226.92 59.4368 226.19 59.6424 225.323 59.6424C224.565 59.6424 223.896 59.4744 223.314 59.1384C222.737 58.7973 222.286 58.3033 221.96 57.6563C221.634 57.0044 221.471 56.217 221.471 55.2941V47.9367H224.194V54.8729C224.194 55.6051 224.395 56.1869 224.796 56.6182C225.197 57.0495 225.724 57.2652 226.376 57.2652C226.777 57.2652 227.166 57.1674 227.542 56.9718C227.918 56.7762 228.226 56.4853 228.467 56.0991C228.713 55.7079 228.836 55.2189 228.836 54.6321ZM234.148 59.4919V47.9367H236.788V49.8626H236.909C237.119 49.1955 237.48 48.6815 237.992 48.3204C238.509 47.9543 239.098 47.7712 239.76 47.7712C239.91 47.7712 240.078 47.7787 240.264 47.7938C240.454 47.8038 240.612 47.8213 240.738 47.8464V50.3516C240.622 50.3114 240.439 50.2763 240.189 50.2462C239.943 50.2111 239.705 50.1936 239.474 50.1936C238.977 50.1936 238.531 50.3014 238.135 50.5171C237.744 50.7277 237.435 51.0211 237.21 51.3973C236.984 51.7734 236.871 52.2072 236.871 52.6987V59.4919H234.148ZM242.689 59.6574C242.232 59.6574 241.841 59.497 241.515 59.176C241.189 58.855 241.029 58.4638 241.034 58.0024C241.029 57.551 241.189 57.1648 241.515 56.8439C241.841 56.5229 242.232 56.3624 242.689 56.3624C243.13 56.3624 243.514 56.5229 243.84 56.8439C244.171 57.1648 244.339 57.551 244.344 58.0024C244.339 58.3083 244.259 58.5867 244.103 58.8374C243.953 59.0882 243.752 59.2888 243.501 59.4393C243.256 59.5847 242.985 59.6574 242.689 59.6574ZM252.797 47.9367V50.0431H245.966V47.9367H252.797ZM247.673 59.4919V46.8459C247.673 46.0685 247.834 45.4215 248.155 44.905C248.481 44.3884 248.917 44.0022 249.464 43.7464C250.011 43.4906 250.617 43.3627 251.284 43.3627C251.756 43.3627 252.175 43.4004 252.541 43.4756C252.907 43.5508 253.178 43.6185 253.353 43.6787L252.812 45.7851C252.696 45.75 252.551 45.7149 252.375 45.6798C252.2 45.6397 252.004 45.6196 251.789 45.6196C251.282 45.6196 250.923 45.7425 250.713 45.9883C250.507 46.229 250.404 46.575 250.404 47.0264V59.4919H247.673ZM254.717 59.4919V47.9367H257.441V59.4919H254.717ZM256.087 46.2967C255.655 46.2967 255.284 46.1538 254.973 45.8679C254.662 45.577 254.507 45.2284 254.507 44.8222C254.507 44.4109 254.662 44.0624 254.973 43.7765C255.284 43.4856 255.655 43.3402 256.087 43.3402C256.523 43.3402 256.894 43.4856 257.2 43.7765C257.511 44.0624 257.666 44.4109 257.666 44.8222C257.666 45.2284 257.511 45.577 257.2 45.8679C256.894 46.1538 256.523 46.2967 256.087 46.2967Z"
            fill="#22F3DF" />
        <rect x="123.5" y="94.4919" width="73" height="28" rx="6" fill="url(#paint0_linear_1298_5929)" />
        <path
            d="M143.294 107.207C143.267 106.955 143.154 106.759 142.954 106.619C142.756 106.478 142.498 106.408 142.18 106.408C141.957 106.408 141.766 106.442 141.606 106.509C141.447 106.576 141.324 106.668 141.24 106.783C141.155 106.899 141.112 107.03 141.11 107.178C141.11 107.302 141.138 107.408 141.194 107.499C141.251 107.589 141.329 107.666 141.427 107.73C141.525 107.791 141.634 107.843 141.753 107.885C141.873 107.928 141.993 107.963 142.114 107.992L142.668 108.131C142.891 108.183 143.106 108.253 143.311 108.341C143.519 108.43 143.705 108.541 143.868 108.676C144.034 108.811 144.165 108.973 144.261 109.164C144.357 109.354 144.405 109.577 144.405 109.833C144.405 110.179 144.317 110.484 144.14 110.748C143.963 111.009 143.707 111.214 143.372 111.362C143.039 111.508 142.636 111.581 142.163 111.581C141.703 111.581 141.304 111.51 140.966 111.368C140.629 111.226 140.366 111.018 140.175 110.745C139.987 110.472 139.885 110.139 139.869 109.746H140.922C140.938 109.952 141.001 110.123 141.113 110.26C141.224 110.396 141.37 110.498 141.549 110.566C141.729 110.633 141.931 110.667 142.154 110.667C142.387 110.667 142.591 110.632 142.766 110.563C142.943 110.492 143.082 110.394 143.182 110.269C143.282 110.142 143.333 109.994 143.335 109.824C143.333 109.67 143.287 109.543 143.199 109.443C143.11 109.341 142.986 109.257 142.827 109.189C142.669 109.12 142.484 109.059 142.273 109.005L141.6 108.832C141.114 108.707 140.729 108.517 140.446 108.263C140.166 108.007 140.025 107.668 140.025 107.245C140.025 106.897 140.119 106.592 140.308 106.33C140.498 106.069 140.757 105.866 141.084 105.721C141.411 105.575 141.781 105.502 142.195 105.502C142.614 105.502 142.982 105.575 143.297 105.721C143.614 105.866 143.864 106.067 144.044 106.324C144.225 106.58 144.318 106.875 144.324 107.207H143.294ZM147.445 107.06V107.868H144.897V107.06H147.445ZM145.526 105.998H146.571V110.159C146.571 110.299 146.592 110.407 146.634 110.482C146.678 110.555 146.736 110.605 146.807 110.632C146.878 110.659 146.957 110.673 147.044 110.673C147.109 110.673 147.169 110.668 147.223 110.658C147.279 110.648 147.321 110.64 147.35 110.632L147.526 111.449C147.47 111.468 147.39 111.489 147.286 111.512C147.184 111.535 147.059 111.549 146.911 111.553C146.65 111.56 146.414 111.521 146.204 111.434C145.995 111.346 145.828 111.209 145.705 111.025C145.584 110.84 145.524 110.609 145.526 110.332V105.998ZM149.513 111.581C149.232 111.581 148.979 111.531 148.754 111.431C148.531 111.329 148.354 111.179 148.223 110.981C148.094 110.783 148.029 110.539 148.029 110.248C148.029 109.998 148.076 109.792 148.168 109.628C148.26 109.465 148.386 109.334 148.546 109.236C148.706 109.138 148.885 109.063 149.085 109.013C149.287 108.962 149.496 108.924 149.712 108.901C149.971 108.874 150.182 108.85 150.343 108.829C150.505 108.806 150.622 108.771 150.695 108.725C150.77 108.677 150.808 108.603 150.808 108.503V108.485C150.808 108.268 150.744 108.1 150.615 107.981C150.486 107.861 150.3 107.802 150.058 107.802C149.802 107.802 149.599 107.857 149.449 107.969C149.301 108.081 149.201 108.212 149.149 108.364L148.174 108.226C148.251 107.956 148.378 107.731 148.555 107.551C148.732 107.368 148.948 107.231 149.204 107.141C149.46 107.049 149.742 107.002 150.052 107.002C150.266 107.002 150.478 107.027 150.69 107.077C150.901 107.127 151.095 107.21 151.27 107.326C151.445 107.439 151.585 107.594 151.691 107.79C151.799 107.986 151.852 108.232 151.852 108.526V111.492H150.848V110.883H150.814C150.75 111.006 150.661 111.122 150.545 111.229C150.432 111.335 150.289 111.421 150.116 111.486C149.944 111.55 149.743 111.581 149.513 111.581ZM149.784 110.814C149.993 110.814 150.175 110.773 150.329 110.69C150.483 110.605 150.601 110.494 150.684 110.355C150.769 110.217 150.811 110.066 150.811 109.902V109.38C150.778 109.407 150.722 109.432 150.644 109.455C150.567 109.478 150.48 109.498 150.384 109.516C150.288 109.533 150.192 109.548 150.098 109.562C150.004 109.575 149.922 109.587 149.853 109.596C149.697 109.617 149.558 109.652 149.435 109.7C149.311 109.748 149.214 109.816 149.143 109.902C149.072 109.987 149.036 110.096 149.036 110.231C149.036 110.423 149.107 110.569 149.247 110.667C149.387 110.765 149.566 110.814 149.784 110.814ZM153.774 110.101L153.771 108.84H153.938L155.531 107.06H156.751L154.792 109.241H154.576L153.774 110.101ZM152.821 111.492V105.583H153.866V111.492H152.821ZM155.603 111.492L154.16 109.475L154.864 108.739L156.852 111.492H155.603ZM159.146 111.579C158.701 111.579 158.318 111.486 157.994 111.302C157.673 111.115 157.426 110.851 157.253 110.511C157.08 110.169 156.993 109.766 156.993 109.302C156.993 108.846 157.08 108.446 157.253 108.102C157.428 107.755 157.672 107.486 157.986 107.294C158.299 107.1 158.668 107.002 159.091 107.002C159.364 107.002 159.622 107.047 159.864 107.135C160.108 107.222 160.324 107.356 160.51 107.539C160.699 107.722 160.847 107.955 160.955 108.237C161.062 108.518 161.116 108.853 161.116 109.241V109.562H157.484V108.858H160.115C160.113 108.658 160.07 108.48 159.985 108.324C159.901 108.166 159.782 108.042 159.63 107.952C159.48 107.861 159.305 107.816 159.105 107.816C158.892 107.816 158.704 107.868 158.543 107.972C158.381 108.074 158.255 108.208 158.165 108.376C158.076 108.541 158.031 108.723 158.029 108.921V109.536C158.029 109.793 158.076 110.015 158.17 110.199C158.265 110.382 158.396 110.522 158.566 110.621C158.735 110.717 158.933 110.765 159.16 110.765C159.312 110.765 159.45 110.744 159.573 110.701C159.696 110.657 159.802 110.593 159.893 110.508C159.983 110.423 160.052 110.319 160.098 110.194L161.073 110.303C161.011 110.561 160.894 110.786 160.721 110.978C160.55 111.169 160.33 111.317 160.063 111.423C159.796 111.527 159.49 111.579 159.146 111.579ZM164.897 108.895V111.492H163.853V107.06H164.851V107.813H164.903C165.005 107.565 165.167 107.368 165.391 107.222C165.616 107.076 165.894 107.002 166.224 107.002C166.53 107.002 166.797 107.068 167.024 107.199C167.253 107.329 167.43 107.519 167.555 107.767C167.682 108.015 167.744 108.316 167.742 108.67V111.492H166.698V108.832C166.698 108.535 166.621 108.304 166.467 108.136C166.315 107.969 166.104 107.885 165.835 107.885C165.652 107.885 165.49 107.926 165.347 108.007C165.207 108.085 165.096 108.2 165.016 108.35C164.937 108.5 164.897 108.682 164.897 108.895ZM170.656 111.579C170.223 111.579 169.848 111.483 169.531 111.293C169.213 111.102 168.967 110.836 168.792 110.494C168.619 110.151 168.532 109.751 168.532 109.293C168.532 108.836 168.619 108.434 168.792 108.09C168.967 107.746 169.213 107.478 169.531 107.288C169.848 107.098 170.223 107.002 170.656 107.002C171.089 107.002 171.464 107.098 171.781 107.288C172.098 107.478 172.344 107.746 172.517 108.09C172.692 108.434 172.779 108.836 172.779 109.293C172.779 109.751 172.692 110.151 172.517 110.494C172.344 110.836 172.098 111.102 171.781 111.293C171.464 111.483 171.089 111.579 170.656 111.579ZM170.662 110.742C170.896 110.742 171.092 110.677 171.25 110.548C171.408 110.418 171.525 110.243 171.602 110.023C171.681 109.804 171.721 109.56 171.721 109.29C171.721 109.019 171.681 108.774 171.602 108.555C171.525 108.334 171.408 108.158 171.25 108.027C171.092 107.896 170.896 107.83 170.662 107.83C170.421 107.83 170.221 107.896 170.061 108.027C169.904 108.158 169.785 108.334 169.707 108.555C169.63 108.774 169.591 109.019 169.591 109.29C169.591 109.56 169.63 109.804 169.707 110.023C169.785 110.243 169.904 110.418 170.061 110.548C170.221 110.677 170.421 110.742 170.662 110.742ZM174.372 111.492L173.12 107.06H174.185L174.964 110.176H175.004L175.801 107.06H176.854L177.65 110.159H177.693L178.461 107.06H179.528L178.273 111.492H177.186L176.355 108.497H176.294L175.463 111.492H174.372Z"
            fill="#010412" />
        <path
            d="M-16.4673 138.352C-2.44611 152.332 29.9442 167.965 55.8335 173.249C60.6286 174.227 64.8724 174.778 68.5233 174.944C76.3556 175.309 81.3899 173.863 83.1582 170.95L87.4436 159.228C85.6754 162.14 80.641 163.576 72.7879 163.222C69.1474 163.056 64.9036 162.504 60.0981 161.527C34.1983 156.243 1.82892 140.599 -12.2027 126.619C-18.1003 120.732 -19.8686 116.051 -18.0068 112.993L-22.2922 124.716C-24.154 127.774 -22.3858 132.444 -16.4777 138.342L-16.4673 138.352Z"
            stroke="url(#paint1_linear_1298_5929)" stroke-opacity="0.1" stroke-width="1.3" />
        <path
            d="M-16.4673 138.352C-2.44611 152.332 29.9442 167.965 55.8335 173.249C60.6286 174.227 64.8724 174.778 68.5233 174.944C76.3556 175.309 81.3899 173.863 83.1582 170.95L87.4436 159.228C85.6754 162.14 80.641 163.576 72.7879 163.222C69.1474 163.056 64.9036 162.504 60.0981 161.527C34.1983 156.243 1.82892 140.599 -12.2027 126.619C-18.1003 120.732 -19.8686 116.051 -18.0068 112.993L-22.2922 124.716C-24.154 127.774 -22.3858 132.444 -16.4777 138.342L-16.4673 138.352Z"
            stroke="url(#paint2_linear_1298_5929)" stroke-opacity="0.1" stroke-width="1.3" />
        <path d="M23.7449 149.315L18.825 159.956" stroke="url(#paint3_linear_1298_5929)" stroke-opacity="0.1"
            stroke-width="1.3" />
        <path
            d="M-12.8583 126.328C0.507626 140.027 32.7314 155.598 59.0992 161.09C63.9879 162.109 68.3358 162.702 72.1011 162.921C88.6291 163.867 93.653 157.356 82.7626 146.154C69.3551 132.361 37.1313 116.79 10.6595 111.288C5.78117 110.279 1.45416 109.676 -2.30078 109.468C-18.86 108.521 -23.8735 115.053 -12.8583 126.339V126.328Z"
            stroke="url(#paint4_linear_1298_5929)" stroke-opacity="0.1" stroke-width="1.3" />
        <path
            d="M3.07713 115.376C6.12477 115.771 9.68208 116.457 13.6971 117.466C35.4882 122.927 62.6257 135.627 74.4106 145.862C83.98 154.184 80.3706 158.271 66.9215 156.555C63.8635 156.16 60.3061 155.473 56.2704 154.464C34.5624 149.014 7.42493 136.324 -4.32876 126.151C-14.0021 117.768 -10.3824 113.659 3.07713 115.386V115.376Z"
            stroke="url(#paint5_linear_1298_5929)" stroke-opacity="0.1" stroke-width="1.3" />
        <path
            d="M21.8106 120.574C29.9893 128.728 48.8828 137.847 63.9843 140.929C66.7813 141.5 69.2567 141.821 71.3863 141.918C75.955 142.131 78.8916 141.287 79.923 139.588L82.4227 132.751C81.3913 134.449 78.4547 135.287 73.8739 135.08C71.7504 134.983 69.2749 134.662 66.4718 134.091C51.3643 131.009 32.4829 121.884 24.2982 113.73C20.858 110.296 19.8266 107.565 20.9126 105.781L18.4129 112.619C17.3268 114.403 18.3583 117.127 21.8045 120.567L21.8106 120.574Z"
            stroke="url(#paint6_linear_1298_5929)" stroke-opacity="0.3" stroke-width="1.3" />
        <path
            d="M21.8106 120.574C29.9893 128.728 48.8828 137.847 63.9843 140.929C66.7813 141.5 69.2567 141.821 71.3863 141.918C75.955 142.131 78.8916 141.287 79.923 139.588L82.4227 132.751C81.3913 134.449 78.4547 135.287 73.8739 135.08C71.7504 134.983 69.2749 134.662 66.4718 134.091C51.3643 131.009 32.4829 121.884 24.2982 113.73C20.858 110.296 19.8266 107.565 20.9126 105.781L18.4129 112.619C17.3268 114.403 18.3583 117.127 21.8045 120.567L21.8106 120.574Z"
            fill="#010412" stroke="url(#paint7_linear_1298_5929)" stroke-opacity="0.3" stroke-width="1.3" />
        <path d="M73.8798 135.08L70.9796 141.268" stroke="url(#paint8_linear_1298_5929)" stroke-opacity="0.3"
            stroke-width="1.3" />
        <path d="M45.2668 126.968L42.397 133.175" stroke="url(#paint9_linear_1298_5929)" stroke-opacity="0.3"
            stroke-width="1.3" />
        <path d="M59.6518 132.368L56.9579 138.623" stroke="url(#paint10_linear_1298_5929)" stroke-opacity="0.3"
            stroke-width="1.3" />
        <path d="M30.936 119.378L28.3332 125.451" stroke="url(#paint11_linear_1298_5929)" stroke-opacity="0.3"
            stroke-width="1.3" />
        <path d="M23.4364 112.819L20.7122 119.196" stroke="url(#paint12_linear_1298_5929)" stroke-opacity="0.3"
            stroke-width="1.3" />
        <path
            d="M23.9157 113.56C31.7122 121.55 50.5086 130.633 65.8892 133.837C68.7408 134.431 71.2769 134.777 73.4733 134.904C83.1142 135.457 86.0447 131.658 79.6922 125.124C71.8715 117.079 53.0751 107.996 37.6338 104.786C34.7883 104.198 32.2643 103.846 30.074 103.725C20.4149 103.173 17.4905 106.983 23.9157 113.566V113.56Z"
            fill="#010412" stroke="url(#paint13_linear_1298_5929)" stroke-opacity="0.3" stroke-width="1.3" />
        <path
            d="M33.211 107.171C34.9887 107.401 37.0637 107.802 39.4057 108.39C52.1166 111.576 67.9462 118.984 74.8204 124.954C80.4023 129.808 78.2969 132.192 70.452 131.191C68.6682 130.961 66.5932 130.56 64.2391 129.972C51.5766 126.792 35.7471 119.39 28.8911 113.456C23.2485 108.566 25.3599 106.17 33.211 107.177V107.171Z"
            stroke="url(#paint14_linear_1298_5929)" stroke-opacity="0.3" stroke-width="1.3" />
        <g opacity="0.6">
            <path
                d="M84.5845 -23.311C69.9991 -21.0186 46.337 -8.39355 31.7663 4.87013C29.0682 7.32717 26.8693 9.63988 25.163 11.7649C21.4983 16.3207 20.1541 19.9879 21.1298 22.3338L26.3028 30.071C25.3271 27.7251 26.6775 24.0625 30.3452 19.4896C32.0469 17.3708 34.2458 15.0581 36.9485 12.5948C51.5237 -0.675146 75.1829 -13.2831 89.7729 -15.5818C95.9121 -16.5429 99.5083 -15.5485 100.53 -13.0821L95.3575 -20.8194C94.3353 -23.2857 90.7454 -24.2755 84.5953 -23.3127L84.5845 -23.311Z"
                stroke="url(#paint15_linear_1298_5929)" stroke-opacity="0.2" stroke-width="1.3" />
            <path
                d="M84.5845 -23.311C69.9991 -21.0186 46.337 -8.39355 31.7663 4.87013C29.0682 7.32717 26.8693 9.63988 25.163 11.7649C21.4983 16.3207 20.1541 19.9879 21.1298 22.3338L26.3028 30.071C25.3271 27.7251 26.6775 24.0625 30.3452 19.4896C32.0469 17.3708 34.2458 15.0581 36.9485 12.5948C51.5237 -0.675148 75.1829 -13.2831 89.7729 -15.5818C95.9121 -16.5429 99.5083 -15.5485 100.53 -13.0821L95.3575 -20.8194C94.3353 -23.2857 90.7454 -24.2755 84.5953 -23.3127L84.5845 -23.311Z"
                fill="#010412" stroke="url(#paint16_linear_1298_5929)" stroke-opacity="0.2" stroke-width="1.3" />
            <path d="M30.341 19.4958L26.1401 11.8349" stroke="url(#paint17_linear_1298_5929)" stroke-opacity="0.2"
                stroke-width="1.3" />
            <path d="M43.8706 6.85443L39.4452 -0.643913" stroke="url(#paint18_linear_1298_5929)" stroke-opacity="0.2"
                stroke-width="1.3" />
            <path
                d="M90.2365 -15.8483C76.1085 -13.8269 52.5572 -1.27458 37.6508 12.1857C34.8864 14.6808 32.6167 17.0378 30.8288 19.2089C22.9879 28.7441 24.6983 34.6335 36.2343 33.0045C50.437 30.9992 73.9882 18.4469 88.9467 4.92857C91.7002 2.43515 93.967 0.095213 95.7441 -2.07415C103.599 -11.6282 101.871 -17.5205 90.2302 -15.8529L90.2365 -15.8483Z"
                fill="#010412" stroke="url(#paint19_linear_1298_5929)" stroke-opacity="0.2" stroke-width="1.3" />
            <path
                d="M89.8214 -1.43543C88.2427 0.225695 86.2644 2.06557 83.8906 4.03918C71.0164 14.7575 51.4312 25.5102 40.0842 28.1034C30.8642 30.2046 29.9907 26.2331 36.9406 18.8902C38.5238 17.2228 40.5021 15.383 42.885 13.3968C55.7164 2.72403 75.2953 -8.03324 86.591 -10.6351C95.8944 -12.7715 96.7758 -8.78453 89.8151 -1.44001L89.8214 -1.43543Z"
                stroke="url(#paint20_linear_1298_5929)" stroke-opacity="0.2" stroke-width="1.3" />
        </g>
        <g opacity="0.6">
            <path
                d="M233.682 131.96C239.801 133.614 251.287 132.807 259.321 130.158C260.808 129.667 262.075 129.145 263.116 128.611C265.35 127.466 266.519 126.264 266.547 125.173L265.874 121.235C265.845 122.325 264.675 123.525 262.437 124.675C261.399 125.208 260.132 125.73 258.641 126.222C250.605 128.873 239.123 129.674 233.001 128.022C230.426 127.324 229.191 126.305 229.222 125.159L229.895 129.097C229.864 130.243 231.098 131.26 233.678 131.959L233.682 131.96Z"
                stroke="url(#paint21_linear_1298_5929)" stroke-opacity="0.3" stroke-width="0.581218" />
            <path
                d="M233.682 131.96C239.801 133.614 251.287 132.807 259.321 130.158C260.808 129.667 262.075 129.145 263.116 128.611C265.35 127.466 266.519 126.264 266.547 125.173L265.874 121.235C265.845 122.325 264.675 123.525 262.437 124.675C261.399 125.208 260.132 125.73 258.641 126.222C250.605 128.873 239.123 129.674 233.001 128.022C230.426 127.324 229.191 126.305 229.222 125.159L229.895 129.097C229.864 130.243 231.098 131.26 233.678 131.959L233.682 131.96Z"
                fill="#010412" stroke="url(#paint22_linear_1298_5929)" stroke-opacity="0.3" stroke-width="0.581218" />
            <path d="M262.44 124.673L262.745 128.412" stroke="url(#paint23_linear_1298_5929)" stroke-opacity="0.3"
                stroke-width="0.581218" />
            <path d="M246.598 128.61L246.924 132.349" stroke="url(#paint24_linear_1298_5929)" stroke-opacity="0.3"
                stroke-width="0.581218" />
            <path d="M254.923 127.261L255.345 130.975" stroke="url(#paint25_linear_1298_5929)" stroke-opacity="0.3"
                stroke-width="0.581218" />
            <path d="M237.703 128.902L238.119 132.505" stroke="url(#paint26_linear_1298_5929)" stroke-opacity="0.3"
                stroke-width="0.581218" />
            <path d="M232.342 127.823L232.783 131.603" stroke="url(#paint27_linear_1298_5929)" stroke-opacity="0.3"
                stroke-width="0.581218" />
            <path
                d="M232.773 128.045C238.665 129.725 250.095 128.927 258.294 126.26C259.815 125.765 261.117 125.239 262.198 124.701C266.941 122.335 267.301 119.727 262.494 118.346C256.575 116.646 245.145 117.445 236.915 120.126C235.399 120.621 234.101 121.142 233.025 121.681C228.273 124.052 227.919 126.664 232.774 128.048L232.773 128.045Z"
                fill="#010412" stroke="url(#paint28_linear_1298_5929)" stroke-opacity="0.3" stroke-width="0.581218" />
            <path
                d="M235.458 122.468C236.368 122.093 237.466 121.718 238.742 121.36C245.665 119.411 255.224 118.624 260.127 119.594C264.109 120.384 263.756 122.094 259.746 123.756C258.834 124.132 257.736 124.507 256.454 124.869C249.556 126.807 239.998 127.597 235.114 126.639C231.093 125.848 231.446 124.131 235.46 122.47L235.458 122.468Z"
                stroke="url(#paint29_linear_1298_5929)" stroke-opacity="0.3" stroke-width="0.581218" />
        </g>
        <path
            d="M299.173 45.0461C321.974 45.8859 347.673 27.7666 356.491 4.55588C358.118 0.251762 359.063 -3.92639 359.368 -7.89458C360.029 -16.4083 357.74 -23.9038 353.037 -29.4362L346.466 -37.1731C351.169 -31.6407 353.457 -24.1453 352.796 -15.621C352.492 -11.6633 351.557 -7.48516 349.92 -3.17054C341.101 20.0402 315.413 38.149 292.591 37.3092C282.975 36.9418 275.374 33.32 270.44 27.5042L277.012 35.2411C281.956 41.0464 289.546 44.6787 299.173 45.0461Z"
            stroke="url(#paint30_linear_1298_5929)" stroke-opacity="0.3" stroke-width="1.06801" />
        <path d="M308.411 36.0181L314.678 42.9256" stroke="url(#paint31_linear_1298_5929)" stroke-opacity="0.3"
            stroke-width="1.06801" />
        <path d="M290.05 37.1313L297.168 44.9208" stroke="url(#paint32_linear_1298_5929)" stroke-opacity="0.3"
            stroke-width="1.06801" />
        <path
            d="M292.591 37.2986C315.403 38.1489 341.08 20.0297 349.909 -3.18111C351.547 -7.48523 352.481 -11.6634 352.796 -15.6316C354.14 -33.0685 343.138 -46.2118 324.473 -46.9677C301.514 -47.8705 275.826 -29.7617 266.976 -6.44594C265.349 -2.15232 264.415 2.01533 264.11 5.97302C262.766 23.431 273.8 36.5953 292.591 37.2986Z"
            stroke="url(#paint33_linear_1298_5929)" stroke-opacity="0.3" stroke-width="1.06801" />
        <path
            d="M295.173 30.4535C314.269 31.1569 335.779 15.9875 343.159 -3.44404C344.524 -7.05531 345.322 -10.5616 345.574 -13.8789C346.697 -28.4814 337.49 -39.4727 321.869 -40.1026C302.648 -40.8584 281.127 -25.6995 273.726 -6.18398C272.361 -2.58322 271.574 0.902072 271.322 4.2194C270.199 18.8324 279.448 29.8552 295.184 30.4535H295.173Z"
            stroke="url(#paint34_linear_1298_5929)" stroke-opacity="0.3" stroke-width="1.06801" />
    </g>
    <defs>
        <linearGradient id="paint0_linear_1298_5929" x1="-20.2187" y1="53.1283" x2="202.946" y2="127.548"
            gradientUnits="userSpaceOnUse">
            <stop stop-color="#DE7585" />
            <stop offset="1" stop-color="#7249C6" />
        </linearGradient>
        <linearGradient id="paint1_linear_1298_5929" x1="-10.8512" y1="118.83" x2="12.4252" y2="197.263"
            gradientUnits="userSpaceOnUse">
            <stop stop-color="#15BFFD" />
            <stop offset="1" stop-color="#9C37FD" />
        </linearGradient>
        <linearGradient id="paint2_linear_1298_5929" x1="-10.8512" y1="118.83" x2="12.4252" y2="197.263"
            gradientUnits="userSpaceOnUse">
            <stop stop-color="#15BFFD" />
            <stop offset="1" stop-color="#9C37FD" />
        </linearGradient>
        <linearGradient id="paint3_linear_1298_5929" x1="19.3661" y1="150.317" x2="26.6235" y2="156.665"
            gradientUnits="userSpaceOnUse">
            <stop stop-color="#15BFFD" />
            <stop offset="1" stop-color="#9C37FD" />
        </linearGradient>
        <linearGradient id="paint4_linear_1298_5929" x1="-6.93185" y1="114.426" x2="11.3034" y2="183.425"
            gradientUnits="userSpaceOnUse">
            <stop stop-color="#15BFFD" />
            <stop offset="1" stop-color="#9C37FD" />
        </linearGradient>
        <linearGradient id="paint5_linear_1298_5929" x1="0.0663458" y1="118.946" x2="13.5289" y2="173.341"
            gradientUnits="userSpaceOnUse">
            <stop stop-color="#15BFFD" />
            <stop offset="1" stop-color="#9C37FD" />
        </linearGradient>
        <linearGradient id="paint6_linear_1298_5929" x1="25.0865" y1="109.186" x2="38.6639" y2="154.937"
            gradientUnits="userSpaceOnUse">
            <stop stop-color="#15BFFD" />
            <stop offset="1" stop-color="#9C37FD" />
        </linearGradient>
        <linearGradient id="paint7_linear_1298_5929" x1="25.0865" y1="109.186" x2="38.6639" y2="154.937"
            gradientUnits="userSpaceOnUse">
            <stop stop-color="#15BFFD" />
            <stop offset="1" stop-color="#9C37FD" />
        </linearGradient>
        <linearGradient id="paint8_linear_1298_5929" x1="71.2986" y1="135.662" x2="75.5267" y2="139.411"
            gradientUnits="userSpaceOnUse">
            <stop stop-color="#15BFFD" />
            <stop offset="1" stop-color="#9C37FD" />
        </linearGradient>
        <linearGradient id="paint9_linear_1298_5929" x1="42.7127" y1="127.552" x2="46.9459" y2="131.255"
            gradientUnits="userSpaceOnUse">
            <stop stop-color="#15BFFD" />
            <stop offset="1" stop-color="#9C37FD" />
        </linearGradient>
        <linearGradient id="paint10_linear_1298_5929" x1="57.2542" y1="132.957" x2="61.4701" y2="136.391"
            gradientUnits="userSpaceOnUse">
            <stop stop-color="#15BFFD" />
            <stop offset="1" stop-color="#9C37FD" />
        </linearGradient>
        <linearGradient id="paint11_linear_1298_5929" x1="28.6195" y1="119.949" x2="32.7086" y2="123.265"
            gradientUnits="userSpaceOnUse">
            <stop stop-color="#15BFFD" />
            <stop offset="1" stop-color="#9C37FD" />
        </linearGradient>
        <linearGradient id="paint12_linear_1298_5929" x1="21.0119" y1="113.42" x2="25.3024" y2="116.887"
            gradientUnits="userSpaceOnUse">
            <stop stop-color="#15BFFD" />
            <stop offset="1" stop-color="#9C37FD" />
        </linearGradient>
        <linearGradient id="paint13_linear_1298_5929" x1="27.3727" y1="106.617" x2="38.0095" y2="146.865"
            gradientUnits="userSpaceOnUse">
            <stop stop-color="#15BFFD" />
            <stop offset="1" stop-color="#9C37FD" />
        </linearGradient>
        <linearGradient id="paint14_linear_1298_5929" x1="31.4548" y1="109.253" x2="39.3076" y2="140.983"
            gradientUnits="userSpaceOnUse">
            <stop stop-color="#15BFFD" />
            <stop offset="1" stop-color="#9C37FD" />
        </linearGradient>
        <linearGradient id="paint15_linear_1298_5929" x1="93.8683" y1="-11.3414" x2="36.4034" y2="-31.8305"
            gradientUnits="userSpaceOnUse">
            <stop stop-color="#15BFFD" />
            <stop offset="1" stop-color="#9C37FD" />
        </linearGradient>
        <linearGradient id="paint16_linear_1298_5929" x1="93.8683" y1="-11.3414" x2="36.4034" y2="-31.8305"
            gradientUnits="userSpaceOnUse">
            <stop stop-color="#15BFFD" />
            <stop offset="1" stop-color="#9C37FD" />
        </linearGradient>
        <linearGradient id="paint17_linear_1298_5929" x1="31.6863" y1="16.3922" x2="24.6283" y2="17.9295"
            gradientUnits="userSpaceOnUse">
            <stop stop-color="#15BFFD" />
            <stop offset="1" stop-color="#9C37FD" />
        </linearGradient>
        <linearGradient id="paint18_linear_1298_5929" x1="45.0709" y1="3.93553" x2="38.346" y2="5.69689"
            gradientUnits="userSpaceOnUse">
            <stop stop-color="#15BFFD" />
            <stop offset="1" stop-color="#9C37FD" />
        </linearGradient>
        <linearGradient id="paint19_linear_1298_5929" x1="94.796" y1="-7.04375" x2="45.2292" y2="-26.4179"
            gradientUnits="userSpaceOnUse">
            <stop stop-color="#15BFFD" />
            <stop offset="1" stop-color="#9C37FD" />
        </linearGradient>
        <linearGradient id="paint20_linear_1298_5929" x1="88.9962" y1="-4.81886" x2="50.3218" y2="-20.6424"
            gradientUnits="userSpaceOnUse">
            <stop stop-color="#15BFFD" />
            <stop offset="1" stop-color="#9C37FD" />
        </linearGradient>
        <linearGradient id="paint21_linear_1298_5929" x1="232.138" y1="125.643" x2="251.079" y2="143.733"
            gradientUnits="userSpaceOnUse">
            <stop stop-color="#15BFFD" />
            <stop offset="1" stop-color="#9C37FD" />
        </linearGradient>
        <linearGradient id="paint22_linear_1298_5929" x1="232.138" y1="125.643" x2="251.079" y2="143.733"
            gradientUnits="userSpaceOnUse">
            <stop stop-color="#15BFFD" />
            <stop offset="1" stop-color="#9C37FD" />
        </linearGradient>
        <linearGradient id="paint23_linear_1298_5929" x1="261.369" y1="125.655" x2="264.405" y2="126.287"
            gradientUnits="userSpaceOnUse">
            <stop stop-color="#15BFFD" />
            <stop offset="1" stop-color="#9C37FD" />
        </linearGradient>
        <linearGradient id="paint24_linear_1298_5929" x1="245.541" y1="129.585" x2="248.567" y2="130.195"
            gradientUnits="userSpaceOnUse">
            <stop stop-color="#15BFFD" />
            <stop offset="1" stop-color="#9C37FD" />
        </linearGradient>
        <linearGradient id="paint25_linear_1298_5929" x1="253.941" y1="128.195" x2="256.886" y2="128.681"
            gradientUnits="userSpaceOnUse">
            <stop stop-color="#15BFFD" />
            <stop offset="1" stop-color="#9C37FD" />
        </linearGradient>
        <linearGradient id="paint26_linear_1298_5929" x1="236.755" y1="129.806" x2="239.607" y2="130.27"
            gradientUnits="userSpaceOnUse">
            <stop stop-color="#15BFFD" />
            <stop offset="1" stop-color="#9C37FD" />
        </linearGradient>
        <linearGradient id="paint27_linear_1298_5929" x1="231.351" y1="128.77" x2="234.34" y2="129.252"
            gradientUnits="userSpaceOnUse">
            <stop stop-color="#15BFFD" />
            <stop offset="1" stop-color="#9C37FD" />
        </linearGradient>
        <linearGradient id="paint28_linear_1298_5929" x1="232.527" y1="123.795" x2="248.566" y2="140.066"
            gradientUnits="userSpaceOnUse">
            <stop stop-color="#15BFFD" />
            <stop offset="1" stop-color="#9C37FD" />
        </linearGradient>
        <linearGradient id="paint29_linear_1298_5929" x1="235.19" y1="123.938" x2="247.581" y2="136.911"
            gradientUnits="userSpaceOnUse">
            <stop stop-color="#15BFFD" />
            <stop offset="1" stop-color="#9C37FD" />
        </linearGradient>
        <linearGradient id="paint30_linear_1298_5929" x1="349.685" y1="-29.431" x2="305.054" y2="61.9752"
            gradientUnits="userSpaceOnUse">
            <stop stop-color="#15BFFD" />
            <stop offset="1" stop-color="#9C37FD" />
        </linearGradient>
        <linearGradient id="paint31_linear_1298_5929" x1="313.989" y1="36.6683" x2="309.854" y2="43.7661"
            gradientUnits="userSpaceOnUse">
            <stop stop-color="#15BFFD" />
            <stop offset="1" stop-color="#9C37FD" />
        </linearGradient>
        <linearGradient id="paint32_linear_1298_5929" x1="296.385" y1="37.8646" x2="291.738" y2="45.8972"
            gradientUnits="userSpaceOnUse">
            <stop stop-color="#15BFFD" />
            <stop offset="1" stop-color="#9C37FD" />
        </linearGradient>
        <linearGradient id="paint33_linear_1298_5929" x1="343.127" y1="-39.0621" x2="296.626" y2="53.6852"
            gradientUnits="userSpaceOnUse">
            <stop stop-color="#15BFFD" />
            <stop offset="1" stop-color="#9C37FD" />
        </linearGradient>
        <linearGradient id="paint34_linear_1298_5929" x1="337.478" y1="-33.4833" x2="298.542" y2="44.1711"
            gradientUnits="userSpaceOnUse">
            <stop stop-color="#15BFFD" />
            <stop offset="1" stop-color="#9C37FD" />
        </linearGradient>
        <clipPath id="clip0_1298_5929">
            <rect width="320" height="150" fill="white" />
        </clipPath>
    </defs>
</svg>