<svg width="900" height="150" viewBox="0 0 900 150" fill="none" xmlns="http://www.w3.org/2000/svg">
    <g clip-path="url(#clip0_1298_5994)">
        <rect width="900" height="150" fill="#010412" />
        <path
            d="M855.813 91.0398C883.567 92.062 914.848 70.0069 925.582 41.7544C927.563 36.5153 928.713 31.4296 929.083 26.5995C929.888 16.2364 927.103 7.11278 921.378 0.378683L913.379 -9.03882C919.103 -2.30473 921.889 6.81888 921.084 17.1948C920.713 22.0121 919.576 27.0978 917.583 32.3497C906.849 60.6022 875.581 82.6445 847.801 81.6223C836.096 81.175 826.845 76.7666 820.839 69.6875L828.838 79.105C834.857 86.1713 844.096 90.5925 855.813 91.0398Z"
            stroke="url(#paint0_linear_1298_5994)" stroke-opacity="0.3" stroke-width="1.3" />
        <path d="M893.036 64.9854L901.099 74.3517" stroke="url(#paint1_linear_1298_5994)" stroke-opacity="0.3"
            stroke-width="1.3" />
        <path d="M867.058 80.0505L874.687 88.4586" stroke="url(#paint2_linear_1298_5994)" stroke-opacity="0.3"
            stroke-width="1.3" />
        <path d="M844.709 81.4055L853.372 90.8869" stroke="url(#paint3_linear_1298_5994)" stroke-opacity="0.3"
            stroke-width="1.3" />
        <path
            d="M847.801 81.6097C875.568 82.6447 906.824 60.5896 917.57 32.3371C919.563 27.098 920.701 22.0123 921.084 17.1822C922.72 -4.04235 909.328 -20.0406 886.609 -20.9606C858.663 -22.0596 827.395 -0.0172293 816.623 28.3631C814.642 33.5893 813.505 38.6623 813.134 43.4797C811.498 64.7297 824.928 80.7536 847.801 81.6097Z"
            stroke="url(#paint4_linear_1298_5994)" stroke-opacity="0.3" stroke-width="1.3" />
        <path
            d="M850.945 73.2781C874.188 74.1342 900.371 55.6697 909.354 32.0174C911.015 27.6217 911.986 23.3538 912.293 19.3159C913.66 1.54142 902.453 -11.8373 883.44 -12.604C860.043 -13.524 833.847 4.92764 824.839 28.6823C823.178 33.0652 822.219 37.3075 821.913 41.3454C820.545 59.1326 831.803 72.5497 850.957 73.2781H850.945Z"
            stroke="url(#paint5_linear_1298_5994)" stroke-opacity="0.3" stroke-width="1.3" />
        <path
            d="M-26.3278 136.647C-9.86074 153.065 28.1796 171.426 58.585 177.631C64.2165 178.78 69.2006 179.427 73.4884 179.622C82.687 180.05 88.5995 178.352 90.6762 174.932L95.7091 161.164C93.6324 164.585 87.7199 166.27 78.4969 165.855C74.2213 165.66 69.2372 165.012 63.5935 163.864C33.1759 157.658 -4.83999 139.286 -21.3192 122.867C-28.2457 115.953 -30.3224 110.456 -28.1357 106.865L-33.1687 120.632C-35.3553 124.223 -33.2786 129.708 -26.34 136.635L-26.3278 136.647Z"
            stroke="url(#paint6_linear_1298_5994)" stroke-opacity="0.2" stroke-width="1.3" />
        <path
            d="M-26.3278 136.647C-9.86074 153.065 28.1796 171.426 58.585 177.631C64.2165 178.78 69.2006 179.427 73.4884 179.622C82.687 180.05 88.5995 178.352 90.6762 174.932L95.7091 161.164C93.6324 164.585 87.7199 166.27 78.4969 165.855C74.2213 165.66 69.2372 165.012 63.5935 163.864C33.1759 157.658 -4.83999 139.286 -21.3192 122.867C-28.2457 115.953 -30.3224 110.456 -28.1357 106.865L-33.1687 120.632C-35.3553 124.223 -33.2786 129.708 -26.34 136.635L-26.3278 136.647Z"
            stroke="url(#paint7_linear_1298_5994)" stroke-opacity="0.2" stroke-width="1.3" />
        <path d="M20.8989 149.523L15.1208 162.02" stroke="url(#paint8_linear_1298_5994)" stroke-opacity="0.2"
            stroke-width="1.3" />
        <path
            d="M-22.0891 122.526C-6.39164 138.614 31.4532 156.901 62.4205 163.351C68.162 164.548 73.2683 165.245 77.6904 165.501C97.1015 166.613 103.002 158.966 90.2117 145.809C74.4654 129.611 36.6205 111.324 5.53107 104.861C-0.198193 103.676 -5.28 102.968 -9.68994 102.724C-29.1377 101.612 -35.0257 109.283 -22.0891 122.538V122.526Z"
            stroke="url(#paint9_linear_1298_5994)" stroke-opacity="0.2" stroke-width="1.3" />
        <path
            d="M-3.37411 109.662C0.205149 110.126 4.38298 110.933 9.09832 112.118C34.6906 118.531 66.5619 133.447 80.4026 145.467C91.6412 155.24 87.4023 160.041 71.6071 158.025C68.0156 157.561 63.8378 156.755 59.098 155.57C33.6034 149.168 1.73211 134.265 -12.0719 122.318C-23.4327 112.472 -19.1815 107.647 -3.37411 109.674V109.662Z"
            stroke="url(#paint10_linear_1298_5994)" stroke-opacity="0.2" stroke-width="1.3" />
        <path
            d="M26.7612 118.605C35.2805 127.099 54.9608 136.598 70.6912 139.809C73.6047 140.403 76.1832 140.738 78.4015 140.839C83.1604 141.06 86.2193 140.182 87.2937 138.412L89.8975 131.289C88.8231 133.059 85.7643 133.931 80.9927 133.716C78.7807 133.615 76.2022 133.28 73.2824 132.686C57.5457 129.476 37.878 119.97 29.3523 111.476C25.7689 107.899 24.6945 105.055 25.8258 103.197L23.222 110.32C22.0907 112.178 23.1651 115.016 26.7548 118.599L26.7612 118.605Z"
            stroke="url(#paint11_linear_1298_5994)" stroke-opacity="0.3" stroke-width="1.3" />
        <path
            d="M26.7612 118.605C35.2805 127.099 54.9608 136.598 70.6912 139.809C73.6047 140.403 76.1832 140.738 78.4015 140.839C83.1604 141.06 86.2193 140.182 87.2937 138.412L89.8975 131.289C88.8231 133.059 85.7643 133.931 80.9927 133.716C78.7807 133.615 76.2022 133.28 73.2824 132.686C57.5457 129.476 37.878 119.97 29.3523 111.476C25.7689 107.899 24.6945 105.055 25.8258 103.197L23.222 110.32C22.0907 112.178 23.1651 115.016 26.7548 118.599L26.7612 118.605Z"
            fill="#010412" stroke="url(#paint12_linear_1298_5994)" stroke-opacity="0.3" stroke-width="1.3" />
        <path d="M80.9989 133.716L77.9779 140.163" stroke="url(#paint13_linear_1298_5994)" stroke-opacity="0.3"
            stroke-width="1.3" />
        <path d="M51.1941 125.267L48.2047 131.732" stroke="url(#paint14_linear_1298_5994)" stroke-opacity="0.3"
            stroke-width="1.3" />
        <path d="M66.1784 130.892L63.3723 137.407" stroke="url(#paint15_linear_1298_5994)" stroke-opacity="0.3"
            stroke-width="1.3" />
        <path d="M36.2666 117.36L33.5553 123.686" stroke="url(#paint16_linear_1298_5994)" stroke-opacity="0.3"
            stroke-width="1.3" />
        <path d="M28.4545 110.529L25.6168 117.171" stroke="url(#paint17_linear_1298_5994)" stroke-opacity="0.3"
            stroke-width="1.3" />
        <path
            d="M28.9542 111.3C37.0753 119.623 56.6545 129.084 72.6756 132.421C75.646 133.04 78.2877 133.401 80.5756 133.533C90.618 134.108 93.6705 130.152 87.0535 123.346C78.9071 114.965 59.3279 105.504 43.2436 102.161C40.2795 101.548 37.6504 101.181 35.3689 101.055C25.3075 100.48 22.2613 104.449 28.9542 111.306V111.3Z"
            fill="#010412" stroke="url(#paint18_linear_1298_5994)" stroke-opacity="0.3" stroke-width="1.3" />
        <path
            d="M38.6365 104.644C40.4882 104.885 42.6497 105.302 45.0892 105.915C58.3295 109.233 74.8182 116.949 81.9787 123.168C87.7931 128.224 85.6001 130.708 77.4284 129.665C75.5703 129.425 73.4089 129.008 70.9567 128.395C57.767 125.083 41.2782 117.373 34.1367 111.192C28.2591 106.098 30.4585 103.602 38.6365 104.651V104.644Z"
            stroke="url(#paint19_linear_1298_5994)" stroke-opacity="0.3" stroke-width="1.3" />
        <g opacity="0.6">
            <path
                d="M603.594 131.962C613.567 134.658 632.288 133.342 645.382 129.024C647.807 128.224 649.871 127.374 651.568 126.503C655.209 124.638 657.114 122.678 657.16 120.901L656.062 114.481C656.016 116.259 654.109 118.214 650.461 120.089C648.769 120.957 646.704 121.808 644.274 122.61C631.176 126.931 612.462 128.237 602.484 125.543C598.287 124.406 596.273 122.744 596.324 120.877L597.422 127.296C597.371 129.164 599.383 130.82 603.587 131.96L603.594 131.962Z"
                stroke="url(#paint20_linear_1298_5994)" stroke-opacity="0.3" stroke-width="1.3" />
            <path
                d="M603.594 131.962C613.567 134.658 632.288 133.342 645.382 129.024C647.807 128.224 649.871 127.374 651.568 126.503C655.209 124.638 657.114 122.678 657.16 120.901L656.062 114.481C656.016 116.259 654.109 118.214 650.461 120.089C648.769 120.957 646.704 121.808 644.274 122.61C631.176 126.931 612.462 128.237 602.484 125.543C598.287 124.406 596.273 122.744 596.324 120.877L597.422 127.296C597.371 129.164 599.383 130.82 603.587 131.96L603.594 131.962Z"
                fill="#010412" stroke="url(#paint21_linear_1298_5994)" stroke-opacity="0.3" stroke-width="1.3" />
            <path d="M650.465 120.086L650.964 126.18" stroke="url(#paint22_linear_1298_5994)" stroke-opacity="0.3"
                stroke-width="1.3" />
            <path d="M624.646 126.504L625.176 132.598" stroke="url(#paint23_linear_1298_5994)" stroke-opacity="0.3"
                stroke-width="1.3" />
            <path d="M638.214 124.304L638.902 130.357" stroke="url(#paint24_linear_1298_5994)" stroke-opacity="0.3"
                stroke-width="1.3" />
            <path d="M610.148 126.979L610.826 132.851" stroke="url(#paint25_linear_1298_5994)" stroke-opacity="0.3"
                stroke-width="1.3" />
            <path d="M601.411 125.22L602.13 131.381" stroke="url(#paint26_linear_1298_5994)" stroke-opacity="0.3"
                stroke-width="1.3" />
            <path
                d="M602.112 125.581C611.716 128.32 630.345 127.019 643.709 122.672C646.187 121.866 648.31 121.008 650.072 120.131C657.802 116.275 658.389 112.024 650.554 109.774C640.907 107.003 622.278 108.304 608.864 112.674C606.393 113.482 604.277 114.33 602.523 115.209C594.778 119.073 594.201 123.33 602.115 125.586L602.112 125.581Z"
                fill="#010412" stroke="url(#paint27_linear_1298_5994)" stroke-opacity="0.3" stroke-width="1.3" />
            <path
                d="M606.489 116.491C607.972 115.88 609.761 115.268 611.84 114.685C623.124 111.509 638.706 110.226 646.696 111.807C653.186 113.095 652.611 115.881 646.076 118.59C644.588 119.204 642.799 119.815 640.71 120.404C629.467 123.563 613.888 124.85 605.929 123.29C599.375 122.001 599.949 119.202 606.492 116.495L606.489 116.491Z"
                stroke="url(#paint28_linear_1298_5994)" stroke-opacity="0.3" stroke-width="1.3" />
        </g>
        <g opacity="0.6">
            <path
                d="M155.923 -45.4447C132.218 -45.4095 91.563 -31.2237 65.1727 -13.7798C60.2856 -10.5482 56.2262 -7.42223 52.9946 -4.47236C46.0558 1.85005 43.0178 7.33593 43.9865 11.2984L50.2825 24.8502C49.3138 20.8877 52.3606 15.4107 59.3082 9.06183C62.531 6.12076 66.5904 2.99477 71.4863 -0.24568C97.8855 -17.6983 138.532 -31.8577 162.245 -31.9017C172.222 -31.9105 177.682 -29.445 178.694 -25.28L172.398 -38.8317C171.386 -42.9968 165.935 -45.4535 155.941 -45.4447L155.923 -45.4447Z"
                stroke="url(#paint29_linear_1298_5994)" stroke-opacity="0.3" stroke-width="1.3" />
            <path
                d="M155.923 -45.4447C132.218 -45.4095 91.563 -31.2237 65.1727 -13.7798C60.2856 -10.5482 56.2262 -7.42223 52.9946 -4.47236C46.0558 1.85005 43.0178 7.33593 43.9865 11.2984L50.2825 24.8502C49.3138 20.8877 52.3606 15.4107 59.3082 9.06183C62.531 6.12076 66.5904 2.99478 71.4863 -0.245679C97.8855 -17.6983 138.532 -31.8577 162.245 -31.9017C172.222 -31.9105 177.682 -29.445 178.694 -25.28L172.398 -38.8317C171.386 -42.9968 165.935 -45.4535 155.941 -45.4447L155.923 -45.4447Z"
                fill="#010412" stroke="url(#paint30_linear_1298_5994)" stroke-opacity="0.3" stroke-width="1.3" />
            <path d="M59.2995 9.07064L54.5269 -4.12012" stroke="url(#paint31_linear_1298_5994)" stroke-opacity="0.3"
                stroke-width="1.3" />
            <path
                d="M163.047 -32.2105C140.134 -32.4923 99.6728 -18.3945 72.7013 -0.721725C67.6998 2.55395 63.5171 5.73276 60.1446 8.73546C45.3512 21.9262 46.6104 31.6916 65.3134 31.9558C88.34 32.2816 128.802 18.1839 155.87 0.431801C160.854 -2.84388 165.028 -5.99627 168.383 -8.99897C183.203 -22.2162 181.917 -31.9903 163.038 -32.2193L163.047 -32.2105Z"
                fill="#010412" stroke="url(#paint32_linear_1298_5994)" stroke-opacity="0.3" stroke-width="1.3" />
            <path
                d="M158.829 -9.44789C155.914 -7.20246 152.322 -4.77213 148.068 -2.22732C124.998 11.5974 91.2724 23.8196 72.631 25.1316C57.4854 26.1883 57.0804 19.6721 69.9189 9.73945C72.8424 7.48522 76.435 5.05489 80.7057 2.49247C103.697 -11.2707 137.414 -23.5016 155.976 -24.8401C171.262 -25.932 171.676 -19.3894 158.82 -9.45669L158.829 -9.44789Z"
                stroke="url(#paint33_linear_1298_5994)" stroke-opacity="0.3" stroke-width="1.3" />
        </g>
        <path
            d="M139.447 45.3818V72H134.625V45.3818H139.447ZM149.459 60.3026V72H144.754V52.0364H149.251V55.4286H149.485C149.944 54.3109 150.676 53.4227 151.681 52.7642C152.695 52.1057 153.947 51.7764 155.438 51.7764C156.815 51.7764 158.015 52.071 159.038 52.6602C160.069 53.2494 160.866 54.1029 161.429 55.2207C162.001 56.3384 162.283 57.6945 162.274 59.2888V72H157.569V60.0166C157.569 58.6822 157.223 57.6381 156.529 56.8843C155.845 56.1305 154.896 55.7536 153.683 55.7536C152.86 55.7536 152.128 55.9355 151.486 56.2994C150.854 56.6547 150.356 57.1702 149.992 57.8461C149.637 58.5219 149.459 59.3408 149.459 60.3026ZM177.319 52.0364V55.6756H165.842V52.0364H177.319ZM168.676 47.2534H173.381V65.9953C173.381 66.6278 173.476 67.1131 173.667 67.451C173.866 67.7803 174.126 68.0055 174.446 68.1268C174.767 68.2482 175.122 68.3088 175.512 68.3088C175.807 68.3088 176.075 68.2871 176.318 68.2438C176.569 68.2005 176.76 68.1615 176.89 68.1268L177.683 71.805C177.431 71.8917 177.072 71.987 176.604 72.091C176.145 72.195 175.581 72.2556 174.914 72.2729C173.736 72.3076 172.674 72.13 171.73 71.7401C170.785 71.3415 170.036 70.7263 169.481 69.8945C168.936 69.0626 168.667 68.0229 168.676 66.7751V47.2534ZM181.546 72V52.0364H186.108V55.3636H186.316C186.68 54.2112 187.304 53.3231 188.188 52.6992C189.081 52.0667 190.099 51.7504 191.242 51.7504C191.502 51.7504 191.793 51.7634 192.113 51.7894C192.442 51.8067 192.715 51.8371 192.932 51.8804V56.2085C192.733 56.1391 192.416 56.0785 191.983 56.0265C191.559 55.9658 191.147 55.9355 190.748 55.9355C189.891 55.9355 189.119 56.1218 188.435 56.4944C187.759 56.8583 187.226 57.3652 186.836 58.0151C186.446 58.6649 186.251 59.4144 186.251 60.2636V72H181.546ZM204.237 72.3899C202.287 72.3899 200.598 71.961 199.168 71.1032C197.738 70.2454 196.629 69.0453 195.841 67.503C195.061 65.9607 194.671 64.1584 194.671 62.0962C194.671 60.0339 195.061 58.2273 195.841 56.6763C196.629 55.1254 197.738 53.921 199.168 53.0631C200.598 52.2053 202.287 51.7764 204.237 51.7764C206.186 51.7764 207.876 52.2053 209.306 53.0631C210.735 53.921 211.84 55.1254 212.62 56.6763C213.408 58.2273 213.803 60.0339 213.803 62.0962C213.803 64.1584 213.408 65.9607 212.62 67.503C211.84 69.0453 210.735 70.2454 209.306 71.1032C207.876 71.961 206.186 72.3899 204.237 72.3899ZM204.263 68.6207C205.32 68.6207 206.204 68.3305 206.914 67.7499C207.625 67.1607 208.153 66.3722 208.5 65.3844C208.855 64.3967 209.033 63.2962 209.033 62.0832C209.033 60.8614 208.855 59.7567 208.5 58.7689C208.153 57.7724 207.625 56.9796 206.914 56.3904C206.204 55.8012 205.32 55.5066 204.263 55.5066C203.18 55.5066 202.278 55.8012 201.559 56.3904C200.849 56.9796 200.316 57.7724 199.961 58.7689C199.614 59.7567 199.441 60.8614 199.441 62.0832C199.441 63.2962 199.614 64.3967 199.961 65.3844C200.316 66.3722 200.849 67.1607 201.559 67.7499C202.278 68.3305 203.18 68.6207 204.263 68.6207ZM225.497 72.3509C223.929 72.3509 222.525 71.948 221.286 71.1422C220.047 70.3364 219.068 69.1666 218.349 67.633C217.63 66.0993 217.27 64.2364 217.27 62.0442C217.27 59.826 217.634 57.9544 218.362 56.4294C219.098 54.8957 220.09 53.739 221.338 52.9592C222.586 52.1707 223.977 51.7764 225.51 51.7764C226.68 51.7764 227.642 51.9757 228.396 52.3743C229.149 52.7642 229.747 53.2364 230.189 53.791C230.631 54.3369 230.973 54.8524 231.216 55.3376H231.411V45.3818H236.129V72H231.502V68.8547H231.216C230.973 69.3399 230.622 69.8555 230.163 70.4013C229.704 70.9386 229.097 71.3978 228.344 71.779C227.59 72.1603 226.641 72.3509 225.497 72.3509ZM226.81 68.4908C227.806 68.4908 228.656 68.2222 229.357 67.6849C230.059 67.1391 230.592 66.3809 230.956 65.4104C231.32 64.44 231.502 63.3092 231.502 62.0182C231.502 60.7271 231.32 59.605 230.956 58.6519C230.601 57.6988 230.072 56.958 229.37 56.4294C228.677 55.9009 227.824 55.6366 226.81 55.6366C225.762 55.6366 224.886 55.9095 224.185 56.4554C223.483 57.0013 222.954 57.7551 222.599 58.7169C222.244 59.6787 222.066 60.7791 222.066 62.0182C222.066 63.2659 222.244 64.3793 222.599 65.3585C222.963 66.3289 223.496 67.0957 224.198 67.6589C224.908 68.2135 225.779 68.4908 226.81 68.4908ZM254.16 63.6038V52.0364H258.865V72H254.303V68.4518H254.095C253.644 69.5695 252.903 70.4837 251.872 71.1942C250.85 71.9047 249.589 72.2599 248.09 72.2599C246.782 72.2599 245.625 71.9697 244.62 71.3891C243.623 70.7999 242.843 69.9464 242.28 68.8287C241.717 67.7023 241.435 66.3419 241.435 64.7476V52.0364H246.14V64.0197C246.14 65.2848 246.487 66.2899 247.18 67.0351C247.873 67.7803 248.783 68.1528 249.91 68.1528C250.603 68.1528 251.274 67.9839 251.924 67.646C252.574 67.308 253.107 66.8055 253.523 66.1383C253.947 65.4624 254.16 64.6176 254.16 63.6038ZM272.704 72.3899C270.711 72.3899 269 71.9523 267.57 71.0772C266.149 70.2021 265.053 68.9933 264.282 67.451C263.519 65.9 263.138 64.1151 263.138 62.0962C263.138 60.0686 263.528 58.2793 264.308 56.7283C265.087 55.1687 266.188 53.9556 267.609 53.0891C269.039 52.214 270.728 51.7764 272.678 51.7764C274.298 51.7764 275.732 52.0754 276.98 52.6732C278.236 53.2624 279.237 54.0986 279.982 55.1817C280.727 56.2561 281.152 57.5125 281.256 58.9509H276.759C276.577 57.9891 276.144 57.1876 275.459 56.5464C274.783 55.8965 273.878 55.5716 272.743 55.5716C271.781 55.5716 270.936 55.8315 270.208 56.3514C269.481 56.8626 268.913 57.5991 268.506 58.5609C268.107 59.5227 267.908 60.6751 267.908 62.0182C267.908 63.3786 268.107 64.5483 268.506 65.5274C268.904 66.4979 269.463 67.2474 270.182 67.7759C270.91 68.2958 271.764 68.5558 272.743 68.5558C273.436 68.5558 274.056 68.4258 274.601 68.1658C275.156 67.8972 275.62 67.5116 275.992 67.0091C276.365 66.5065 276.62 65.8957 276.759 65.1765H281.256C281.143 66.5888 280.727 67.8409 280.008 68.9327C279.289 70.0158 278.31 70.8649 277.071 71.4801C275.832 72.0866 274.376 72.3899 272.704 72.3899ZM285.412 72V52.0364H290.117V72H285.412ZM287.778 49.203C287.033 49.203 286.391 48.956 285.854 48.4621C285.317 47.9596 285.048 47.3574 285.048 46.6555C285.048 45.945 285.317 45.3428 285.854 44.8489C286.391 44.3464 287.033 44.0951 287.778 44.0951C288.532 44.0951 289.173 44.3464 289.701 44.8489C290.239 45.3428 290.507 45.945 290.507 46.6555C290.507 47.3574 290.239 47.9596 289.701 48.4621C289.173 48.956 288.532 49.203 287.778 49.203ZM299.953 60.3026V72H295.248V52.0364H299.745V55.4286H299.979C300.438 54.3109 301.171 53.4227 302.176 52.7642C303.19 52.1057 304.442 51.7764 305.932 51.7764C307.31 51.7764 308.51 52.071 309.532 52.6602C310.563 53.2494 311.36 54.1029 311.924 55.2207C312.495 56.3384 312.777 57.6945 312.768 59.2888V72H308.063V60.0166C308.063 58.6822 307.717 57.6381 307.024 56.8843C306.339 56.1305 305.39 55.7536 304.177 55.7536C303.354 55.7536 302.622 55.9355 301.981 56.2994C301.348 56.6547 300.85 57.1702 300.486 57.8461C300.131 58.5219 299.953 59.3408 299.953 60.3026ZM326.526 79.9023C324.837 79.9023 323.385 79.6727 322.172 79.2134C320.959 78.7629 319.984 78.1563 319.248 77.3938C318.511 76.6313 318 75.7865 317.714 74.8594L321.951 73.8326C322.142 74.2225 322.419 74.6081 322.783 74.9893C323.147 75.3793 323.637 75.6999 324.252 75.9511C324.876 76.2111 325.66 76.3411 326.604 76.3411C327.939 76.3411 329.043 76.0161 329.919 75.3663C330.794 74.7251 331.231 73.668 331.231 72.195V68.4128H330.997C330.755 68.898 330.4 69.3962 329.932 69.9075C329.472 70.4187 328.862 70.8476 328.099 71.1942C327.345 71.5408 326.396 71.7141 325.253 71.7141C323.719 71.7141 322.328 71.3545 321.081 70.6353C319.842 69.9075 318.854 68.8244 318.117 67.386C317.389 65.939 317.025 64.1281 317.025 61.9532C317.025 59.761 317.389 57.9111 318.117 56.4034C318.854 54.8871 319.846 53.739 321.094 52.9592C322.341 52.1707 323.732 51.7764 325.266 51.7764C326.435 51.7764 327.397 51.9757 328.151 52.3743C328.914 52.7642 329.52 53.2364 329.971 53.791C330.421 54.3369 330.763 54.8524 330.997 55.3376H331.257V52.0364H335.897V72.3249C335.897 74.0319 335.49 75.4442 334.676 76.562C333.861 77.6798 332.748 78.5159 331.335 79.0705C329.923 79.625 328.32 79.9023 326.526 79.9023ZM326.565 68.0229C327.562 68.0229 328.411 67.7803 329.113 67.295C329.815 66.8098 330.348 66.1123 330.711 65.2025C331.075 64.2927 331.257 63.2009 331.257 61.9272C331.257 60.6708 331.075 59.5704 330.711 58.6259C330.356 57.6815 329.828 56.9493 329.126 56.4294C328.433 55.9009 327.579 55.6366 326.565 55.6366C325.517 55.6366 324.642 55.9095 323.94 56.4554C323.238 57.0013 322.71 57.7508 322.354 58.7039C321.999 59.6484 321.821 60.7228 321.821 61.9272C321.821 63.1489 321.999 64.219 322.354 65.1375C322.718 66.0473 323.251 66.7578 323.953 67.269C324.663 67.7716 325.534 68.0229 326.565 68.0229ZM133.114 88.7287V85.6364H149.361V88.7287H143.067V106H139.408V88.7287H133.114ZM156.226 97.0511V106H152.627V85.6364H156.147V93.3224H156.326C156.684 92.4607 157.237 91.7812 157.986 91.2841C158.742 90.7803 159.703 90.5284 160.87 90.5284C161.93 90.5284 162.855 90.7505 163.644 91.1946C164.433 91.6387 165.042 92.2884 165.473 93.1435C165.911 93.9986 166.13 95.0426 166.13 96.2756V106H162.53V96.8324C162.53 95.8049 162.265 95.0062 161.735 94.4361C161.211 93.8594 160.475 93.571 159.527 93.571C158.891 93.571 158.321 93.7102 157.817 93.9886C157.32 94.2604 156.929 94.6548 156.644 95.1719C156.365 95.6889 156.226 96.3153 156.226 97.0511ZM176.853 106.298C175.322 106.298 173.999 105.98 172.885 105.344C171.778 104.701 170.927 103.793 170.33 102.619C169.733 101.439 169.435 100.051 169.435 98.4531C169.435 96.8821 169.733 95.5033 170.33 94.3168C170.933 93.1236 171.775 92.1955 172.856 91.5327C173.936 90.8632 175.206 90.5284 176.664 90.5284C177.605 90.5284 178.493 90.6809 179.329 90.9858C180.171 91.2841 180.913 91.7481 181.556 92.3778C182.206 93.0076 182.716 93.8097 183.087 94.7841C183.458 95.7519 183.644 96.9053 183.644 98.2443V99.348H171.126V96.9219H180.194C180.187 96.2325 180.038 95.6193 179.746 95.0824C179.455 94.5388 179.047 94.1113 178.523 93.7997C178.006 93.4882 177.403 93.3324 176.714 93.3324C175.978 93.3324 175.331 93.5114 174.775 93.8693C174.218 94.2206 173.784 94.6847 173.472 95.2614C173.167 95.8314 173.011 96.4579 173.005 97.1406V99.2585C173.005 100.147 173.167 100.909 173.492 101.545C173.817 102.175 174.271 102.659 174.854 102.997C175.438 103.329 176.12 103.494 176.903 103.494C177.426 103.494 177.9 103.421 178.324 103.276C178.749 103.123 179.117 102.901 179.428 102.609C179.74 102.318 179.975 101.956 180.134 101.526L183.495 101.903C183.283 102.792 182.878 103.567 182.282 104.23C181.692 104.886 180.936 105.397 180.015 105.761C179.093 106.119 178.039 106.298 176.853 106.298ZM194.379 106V85.6364H198.068V102.908H207.037V106H194.379ZM210.372 106V90.7273H213.972V106H210.372ZM212.182 88.5597C211.612 88.5597 211.121 88.3707 210.71 87.9929C210.299 87.6084 210.094 87.1477 210.094 86.6108C210.094 86.0672 210.299 85.6065 210.71 85.2287C211.121 84.8442 211.612 84.652 212.182 84.652C212.759 84.652 213.249 84.8442 213.654 85.2287C214.065 85.6065 214.27 86.0672 214.27 86.6108C214.27 87.1477 214.065 87.6084 213.654 87.9929C213.249 88.3707 212.759 88.5597 212.182 88.5597ZM228.158 111.727V103.594H228.009C227.823 103.965 227.555 104.359 227.203 104.777C226.852 105.188 226.388 105.539 225.811 105.831C225.235 106.123 224.509 106.268 223.634 106.268C222.434 106.268 221.36 105.96 220.412 105.344C219.464 104.727 218.715 103.832 218.165 102.659C217.615 101.486 217.34 100.061 217.34 98.3835C217.34 96.6866 217.618 95.2547 218.175 94.0881C218.738 92.9148 219.497 92.0298 220.452 91.4332C221.406 90.83 222.47 90.5284 223.644 90.5284C224.539 90.5284 225.274 90.6809 225.851 90.9858C226.428 91.2841 226.885 91.6454 227.223 92.0696C227.561 92.4872 227.823 92.8816 228.009 93.2528H228.227V90.7273H231.767V111.727H228.158ZM224.638 103.315C225.4 103.315 226.05 103.11 226.587 102.699C227.124 102.281 227.531 101.701 227.81 100.959C228.088 100.216 228.227 99.3513 228.227 98.3636C228.227 97.3759 228.088 96.5175 227.81 95.7884C227.538 95.0592 227.134 94.4924 226.597 94.0881C226.066 93.6837 225.414 93.4815 224.638 93.4815C223.836 93.4815 223.166 93.6903 222.629 94.108C222.092 94.5256 221.688 95.1023 221.416 95.8381C221.145 96.5739 221.009 97.4157 221.009 98.3636C221.009 99.3182 221.145 100.17 221.416 100.919C221.695 101.661 222.102 102.248 222.639 102.679C223.183 103.103 223.849 103.315 224.638 103.315ZM245.493 99.5767V90.7273H249.093V106H245.603V103.286H245.444C245.099 104.141 244.532 104.84 243.743 105.384C242.961 105.927 241.997 106.199 240.85 106.199C239.849 106.199 238.964 105.977 238.195 105.533C237.433 105.082 236.836 104.429 236.405 103.574C235.974 102.712 235.759 101.671 235.759 100.452V90.7273H239.358V99.8949C239.358 100.863 239.624 101.632 240.154 102.202C240.684 102.772 241.38 103.057 242.242 103.057C242.772 103.057 243.286 102.928 243.783 102.669C244.28 102.411 244.688 102.026 245.006 101.516C245.331 100.999 245.493 100.352 245.493 99.5767ZM253.087 106V90.7273H256.686V106H253.087ZM254.897 88.5597C254.327 88.5597 253.836 88.3707 253.425 87.9929C253.014 87.6084 252.809 87.1477 252.809 86.6108C252.809 86.0672 253.014 85.6065 253.425 85.2287C253.836 84.8442 254.327 84.652 254.897 84.652C255.473 84.652 255.964 84.8442 256.368 85.2287C256.779 85.6065 256.985 86.0672 256.985 86.6108C256.985 87.1477 256.779 87.6084 256.368 87.9929C255.964 88.3707 255.473 88.5597 254.897 88.5597ZM266.348 106.268C265.148 106.268 264.075 105.96 263.127 105.344C262.179 104.727 261.43 103.832 260.879 102.659C260.329 101.486 260.054 100.061 260.054 98.3835C260.054 96.6866 260.333 95.2547 260.889 94.0881C261.453 92.9148 262.212 92.0298 263.166 91.4332C264.121 90.83 265.185 90.5284 266.358 90.5284C267.253 90.5284 267.989 90.6809 268.566 90.9858C269.142 91.2841 269.6 91.6454 269.938 92.0696C270.276 92.4872 270.538 92.8816 270.723 93.2528H270.872V85.6364H274.482V106H270.942V103.594H270.723C270.538 103.965 270.269 104.359 269.918 104.777C269.567 105.188 269.102 105.539 268.526 105.831C267.949 106.123 267.223 106.268 266.348 106.268ZM267.352 103.315C268.115 103.315 268.764 103.11 269.301 102.699C269.838 102.281 270.246 101.701 270.524 100.959C270.803 100.216 270.942 99.3513 270.942 98.3636C270.942 97.3759 270.803 96.5175 270.524 95.7884C270.253 95.0592 269.848 94.4924 269.311 94.0881C268.781 93.6837 268.128 93.4815 267.352 93.4815C266.55 93.4815 265.881 93.6903 265.344 94.108C264.807 94.5256 264.403 95.1023 264.131 95.8381C263.859 96.5739 263.723 97.4157 263.723 98.3636C263.723 99.3182 263.859 100.17 264.131 100.919C264.409 101.661 264.817 102.248 265.354 102.679C265.897 103.103 266.564 103.315 267.352 103.315ZM297.074 91.2344C296.981 90.366 296.59 89.6899 295.901 89.206C295.218 88.7221 294.33 88.4801 293.236 88.4801C292.467 88.4801 291.808 88.5961 291.258 88.8281C290.707 89.0601 290.286 89.375 289.995 89.7727C289.703 90.1705 289.554 90.6245 289.547 91.1349C289.547 91.5592 289.643 91.9271 289.836 92.2386C290.034 92.5502 290.303 92.8153 290.641 93.0341C290.979 93.2462 291.354 93.4252 291.765 93.571C292.176 93.7169 292.59 93.8395 293.008 93.9389L294.917 94.4162C295.686 94.5952 296.425 94.8371 297.134 95.142C297.85 95.447 298.49 95.8314 299.053 96.2955C299.623 96.7595 300.074 97.3196 300.405 97.9759C300.737 98.6321 300.902 99.401 300.902 100.283C300.902 101.476 300.597 102.527 299.988 103.435C299.378 104.336 298.496 105.042 297.343 105.553C296.196 106.056 294.807 106.308 293.177 106.308C291.592 106.308 290.217 106.063 289.05 105.572C287.89 105.082 286.982 104.366 286.326 103.425C285.676 102.483 285.325 101.337 285.272 99.9844H288.901C288.954 100.694 289.173 101.284 289.557 101.754C289.942 102.225 290.442 102.576 291.059 102.808C291.682 103.04 292.378 103.156 293.147 103.156C293.949 103.156 294.651 103.037 295.255 102.798C295.865 102.553 296.342 102.215 296.686 101.784C297.031 101.347 297.207 100.836 297.213 100.253C297.207 99.7225 297.051 99.285 296.746 98.9403C296.441 98.589 296.014 98.2973 295.463 98.0653C294.92 97.8267 294.284 97.6146 293.554 97.429L291.238 96.8324C289.561 96.4015 288.235 95.7486 287.26 94.8736C286.293 93.992 285.809 92.822 285.809 91.3636C285.809 90.1638 286.133 89.1132 286.783 88.2116C287.439 87.3101 288.331 86.6108 289.458 86.1136C290.585 85.6098 291.861 85.358 293.286 85.358C294.731 85.358 295.997 85.6098 297.084 86.1136C298.178 86.6108 299.036 87.3035 299.659 88.1918C300.283 89.0734 300.604 90.0876 300.624 91.2344H297.074ZM311.951 90.7273V93.5114H303.171V90.7273H311.951ZM305.339 87.0682H308.939V101.406C308.939 101.89 309.011 102.261 309.157 102.52C309.31 102.772 309.509 102.944 309.754 103.037C309.999 103.13 310.271 103.176 310.569 103.176C310.795 103.176 311 103.16 311.186 103.126C311.378 103.093 311.524 103.063 311.623 103.037L312.23 105.851C312.037 105.917 311.762 105.99 311.404 106.07C311.053 106.149 310.622 106.196 310.112 106.209C309.21 106.235 308.398 106.099 307.676 105.801C306.953 105.496 306.38 105.026 305.956 104.389C305.538 103.753 305.332 102.957 305.339 102.003V87.0682ZM319.649 106.308C318.682 106.308 317.81 106.136 317.034 105.791C316.265 105.44 315.656 104.923 315.205 104.24C314.761 103.557 314.539 102.715 314.539 101.714C314.539 100.853 314.698 100.14 315.016 99.5767C315.334 99.0133 315.768 98.5625 316.318 98.2244C316.869 97.8864 317.488 97.6312 318.178 97.4588C318.874 97.2798 319.593 97.1506 320.335 97.071C321.23 96.9782 321.956 96.8954 322.513 96.8224C323.07 96.7429 323.474 96.6236 323.726 96.4645C323.985 96.2988 324.114 96.0436 324.114 95.6989V95.6392C324.114 94.8902 323.892 94.3101 323.448 93.8991C323.004 93.4882 322.364 93.2827 321.529 93.2827C320.647 93.2827 319.948 93.4749 319.431 93.8594C318.92 94.2438 318.575 94.6979 318.397 95.2216L315.036 94.7443C315.301 93.8163 315.738 93.0407 316.348 92.4176C316.958 91.7879 317.704 91.3172 318.585 91.0057C319.467 90.6875 320.442 90.5284 321.509 90.5284C322.245 90.5284 322.977 90.6146 323.706 90.7869C324.435 90.9593 325.102 91.2443 325.705 91.642C326.308 92.0331 326.792 92.5668 327.156 93.2429C327.528 93.919 327.713 94.7642 327.713 95.7784V106H324.253V103.902H324.134C323.915 104.326 323.607 104.724 323.209 105.095C322.818 105.46 322.324 105.755 321.727 105.98C321.138 106.199 320.445 106.308 319.649 106.308ZM320.584 103.663C321.307 103.663 321.933 103.521 322.463 103.236C322.994 102.944 323.401 102.56 323.686 102.082C323.978 101.605 324.124 101.085 324.124 100.521V98.7216C324.011 98.8144 323.819 98.9006 323.547 98.9801C323.282 99.0597 322.984 99.1293 322.652 99.1889C322.321 99.2486 321.993 99.3016 321.668 99.348C321.343 99.3944 321.061 99.4342 320.823 99.4673C320.286 99.5402 319.805 99.6596 319.381 99.8253C318.957 99.991 318.622 100.223 318.377 100.521C318.131 100.813 318.009 101.191 318.009 101.655C318.009 102.318 318.251 102.818 318.735 103.156C319.218 103.494 319.835 103.663 320.584 103.663ZM334.907 101.207L334.897 96.8622H335.473L340.962 90.7273H345.168L338.417 98.2443H337.671L334.907 101.207ZM331.625 106V85.6364H335.225V106H331.625ZM341.211 106L336.239 99.0497L338.665 96.5142L345.516 106H341.211ZM347.86 106V90.7273H351.459V106H347.86ZM349.669 88.5597C349.099 88.5597 348.609 88.3707 348.198 87.9929C347.787 87.6084 347.581 87.1477 347.581 86.6108C347.581 86.0672 347.787 85.6065 348.198 85.2287C348.609 84.8442 349.099 84.652 349.669 84.652C350.246 84.652 350.737 84.8442 351.141 85.2287C351.552 85.6065 351.757 86.0672 351.757 86.6108C351.757 87.1477 351.552 87.6084 351.141 87.9929C350.737 88.3707 350.246 88.5597 349.669 88.5597ZM359.053 97.0511V106H355.453V90.7273H358.894V93.3224H359.073C359.424 92.4673 359.984 91.7879 360.753 91.2841C361.529 90.7803 362.487 90.5284 363.627 90.5284C364.681 90.5284 365.599 90.7538 366.381 91.2045C367.17 91.6553 367.78 92.3082 368.211 93.1634C368.648 94.0185 368.863 95.0559 368.857 96.2756V106H365.257V96.8324C365.257 95.8116 364.992 95.0128 364.462 94.4361C363.938 93.8594 363.212 93.571 362.284 93.571C361.655 93.571 361.095 93.7102 360.604 93.9886C360.12 94.2604 359.739 94.6548 359.461 95.1719C359.189 95.6889 359.053 96.3153 359.053 97.0511ZM379.451 112.045C378.158 112.045 377.048 111.87 376.12 111.518C375.192 111.174 374.446 110.71 373.883 110.126C373.319 109.543 372.928 108.897 372.709 108.188L375.951 107.402C376.097 107.7 376.309 107.995 376.587 108.287C376.866 108.585 377.24 108.83 377.711 109.023C378.188 109.222 378.788 109.321 379.511 109.321C380.531 109.321 381.377 109.072 382.046 108.575C382.716 108.085 383.05 107.276 383.05 106.149V103.256H382.871C382.686 103.627 382.414 104.008 382.056 104.399C381.705 104.79 381.237 105.118 380.654 105.384C380.077 105.649 379.351 105.781 378.476 105.781C377.303 105.781 376.239 105.506 375.285 104.956C374.337 104.399 373.581 103.571 373.018 102.47C372.461 101.363 372.182 99.9777 372.182 98.3139C372.182 96.6368 372.461 95.2216 373.018 94.0682C373.581 92.9081 374.34 92.0298 375.295 91.4332C376.249 90.83 377.313 90.5284 378.486 90.5284C379.381 90.5284 380.117 90.6809 380.694 90.9858C381.277 91.2841 381.741 91.6454 382.086 92.0696C382.43 92.4872 382.692 92.8816 382.871 93.2528H383.07V90.7273H386.62V106.249C386.62 107.554 386.308 108.635 385.685 109.49C385.062 110.345 384.21 110.985 383.13 111.409C382.049 111.833 380.823 112.045 379.451 112.045ZM379.481 102.957C380.243 102.957 380.893 102.772 381.43 102.401C381.966 102.029 382.374 101.496 382.653 100.8C382.931 100.104 383.07 99.2685 383.07 98.294C383.07 97.3329 382.931 96.491 382.653 95.7685C382.381 95.0459 381.976 94.4858 381.439 94.0881C380.909 93.6837 380.256 93.4815 379.481 93.4815C378.679 93.4815 378.009 93.6903 377.472 94.108C376.935 94.5256 376.531 95.099 376.259 95.8281C375.987 96.5507 375.851 97.3726 375.851 98.294C375.851 99.2287 375.987 100.047 376.259 100.75C376.537 101.446 376.945 101.99 377.482 102.381C378.026 102.765 378.692 102.957 379.481 102.957ZM409.066 91.2344C408.973 90.366 408.582 89.6899 407.892 89.206C407.21 88.7221 406.321 88.4801 405.228 88.4801C404.459 88.4801 403.799 88.5961 403.249 88.8281C402.699 89.0601 402.278 89.375 401.986 89.7727C401.694 90.1705 401.545 90.6245 401.539 91.1349C401.539 91.5592 401.635 91.9271 401.827 92.2386C402.026 92.5502 402.294 92.8153 402.632 93.0341C402.971 93.2462 403.345 93.4252 403.756 93.571C404.167 93.7169 404.581 93.8395 404.999 93.9389L406.908 94.4162C407.677 94.5952 408.416 94.8371 409.125 95.142C409.841 95.447 410.481 95.8314 411.044 96.2955C411.614 96.7595 412.065 97.3196 412.397 97.9759C412.728 98.6321 412.894 99.401 412.894 100.283C412.894 101.476 412.589 102.527 411.979 103.435C411.369 104.336 410.488 105.042 409.334 105.553C408.187 106.056 406.799 106.308 405.168 106.308C403.584 106.308 402.208 106.063 401.042 105.572C399.882 105.082 398.973 104.366 398.317 103.425C397.668 102.483 397.316 101.337 397.263 99.9844H400.892C400.945 100.694 401.164 101.284 401.549 101.754C401.933 102.225 402.434 102.576 403.05 102.808C403.673 103.04 404.369 103.156 405.138 103.156C405.94 103.156 406.643 103.037 407.246 102.798C407.856 102.553 408.333 102.215 408.678 101.784C409.023 101.347 409.198 100.836 409.205 100.253C409.198 99.7225 409.043 99.285 408.738 98.9403C408.433 98.589 408.005 98.2973 407.455 98.0653C406.911 97.8267 406.275 97.6146 405.546 97.429L403.229 96.8324C401.552 96.4015 400.226 95.7486 399.252 94.8736C398.284 93.992 397.8 92.822 397.8 91.3636C397.8 90.1638 398.125 89.1132 398.775 88.2116C399.431 87.3101 400.322 86.6108 401.449 86.1136C402.576 85.6098 403.852 85.358 405.277 85.358C406.722 85.358 407.989 85.6098 409.076 86.1136C410.169 86.6108 411.028 87.3035 411.651 88.1918C412.274 89.0734 412.596 90.0876 412.615 91.2344H409.066ZM415.581 88.7287V85.6364H431.828V88.7287H425.534V106H421.875V88.7287H415.581ZM435.253 106V85.6364H442.889C444.453 85.6364 445.766 85.9081 446.827 86.4517C447.894 86.9953 448.699 87.7576 449.243 88.7386C449.793 89.7131 450.068 90.8499 450.068 92.1491C450.068 93.455 449.79 94.5885 449.233 95.5497C448.683 96.5043 447.871 97.2434 446.797 97.767C445.723 98.2841 444.404 98.5426 442.839 98.5426H437.4V95.4801H442.342C443.257 95.4801 444.006 95.3542 444.589 95.1023C445.173 94.8437 445.604 94.4692 445.882 93.9787C446.167 93.4815 446.309 92.8717 446.309 92.1491C446.309 91.4266 446.167 90.8101 445.882 90.2997C445.597 89.7827 445.163 89.3916 444.579 89.1264C443.996 88.8546 443.244 88.7188 442.322 88.7188H438.942V106H435.253ZM445.773 96.7727L450.814 106H446.697L441.746 96.7727H445.773ZM453.756 106V85.6364H457.445V94.9929H457.694L465.639 85.6364H470.143L462.268 94.7741L470.212 106H465.778L459.703 97.2699L457.445 99.9347V106H453.756ZM480.237 106V85.6364H487.873C489.438 85.6364 490.75 85.928 491.811 86.5114C492.878 87.0947 493.683 87.8968 494.227 88.9176C494.777 89.9318 495.052 91.0852 495.052 92.3778C495.052 93.6837 494.777 94.8437 494.227 95.858C493.677 96.8722 492.865 97.6709 491.791 98.2543C490.717 98.831 489.394 99.1193 487.823 99.1193H482.762V96.0866H487.326C488.241 96.0866 488.99 95.9276 489.573 95.6094C490.157 95.2912 490.588 94.8537 490.866 94.2969C491.151 93.7401 491.294 93.1004 491.294 92.3778C491.294 91.6553 491.151 91.0189 490.866 90.4688C490.588 89.9186 490.153 89.491 489.563 89.1861C488.98 88.8745 488.228 88.7188 487.306 88.7188H483.926V106H480.237ZM498.39 106V90.7273H501.88V93.2727H502.039C502.318 92.3911 502.795 91.7116 503.471 91.2344C504.154 90.7505 504.933 90.5085 505.808 90.5085C506.007 90.5085 506.229 90.5185 506.474 90.5384C506.726 90.5516 506.935 90.5748 507.1 90.608V93.919C506.948 93.866 506.706 93.8196 506.374 93.7798C506.05 93.7334 505.735 93.7102 505.43 93.7102C504.774 93.7102 504.184 93.8527 503.66 94.1378C503.143 94.4162 502.735 94.804 502.437 95.3011C502.139 95.7983 501.99 96.3717 501.99 97.0213V106H498.39ZM515.818 106.298C514.326 106.298 513.033 105.97 511.94 105.314C510.846 104.658 509.997 103.74 509.394 102.56C508.798 101.38 508.499 100.001 508.499 98.4233C508.499 96.8456 508.798 95.4635 509.394 94.277C509.997 93.0904 510.846 92.169 511.94 91.5128C513.033 90.8565 514.326 90.5284 515.818 90.5284C517.309 90.5284 518.602 90.8565 519.695 91.5128C520.789 92.169 521.634 93.0904 522.231 94.277C522.834 95.4635 523.136 96.8456 523.136 98.4233C523.136 100.001 522.834 101.38 522.231 102.56C521.634 103.74 520.789 104.658 519.695 105.314C518.602 105.97 517.309 106.298 515.818 106.298ZM515.837 103.415C516.646 103.415 517.322 103.193 517.866 102.749C518.409 102.298 518.814 101.695 519.079 100.939C519.351 100.183 519.487 99.3414 519.487 98.4134C519.487 97.4787 519.351 96.6335 519.079 95.8778C518.814 95.1155 518.409 94.509 517.866 94.0582C517.322 93.6075 516.646 93.3821 515.837 93.3821C515.009 93.3821 514.319 93.6075 513.769 94.0582C513.226 94.509 512.818 95.1155 512.546 95.8778C512.281 96.6335 512.149 97.4787 512.149 98.4134C512.149 99.3414 512.281 100.183 512.546 100.939C512.818 101.695 513.226 102.298 513.769 102.749C514.319 103.193 515.009 103.415 515.837 103.415ZM534.11 90.7273V93.5114H525.33V90.7273H534.11ZM527.498 87.0682H531.097V101.406C531.097 101.89 531.17 102.261 531.316 102.52C531.468 102.772 531.667 102.944 531.913 103.037C532.158 103.13 532.43 103.176 532.728 103.176C532.953 103.176 533.159 103.16 533.344 103.126C533.537 103.093 533.683 103.063 533.782 103.037L534.388 105.851C534.196 105.917 533.921 105.99 533.563 106.07C533.212 106.149 532.781 106.196 532.271 106.209C531.369 106.235 530.557 106.099 529.835 105.801C529.112 105.496 528.539 105.026 528.114 104.389C527.697 103.753 527.491 102.957 527.498 102.003V87.0682ZM543.911 106.298C542.42 106.298 541.127 105.97 540.033 105.314C538.94 104.658 538.091 103.74 537.488 102.56C536.891 101.38 536.593 100.001 536.593 98.4233C536.593 96.8456 536.891 95.4635 537.488 94.277C538.091 93.0904 538.94 92.169 540.033 91.5128C541.127 90.8565 542.42 90.5284 543.911 90.5284C545.403 90.5284 546.695 90.8565 547.789 91.5128C548.883 92.169 549.728 93.0904 550.324 94.277C550.928 95.4635 551.229 96.8456 551.229 98.4233C551.229 100.001 550.928 101.38 550.324 102.56C549.728 103.74 548.883 104.658 547.789 105.314C546.695 105.97 545.403 106.298 543.911 106.298ZM543.931 103.415C544.74 103.415 545.416 103.193 545.959 102.749C546.503 102.298 546.907 101.695 547.172 100.939C547.444 100.183 547.58 99.3414 547.58 98.4134C547.58 97.4787 547.444 96.6335 547.172 95.8778C546.907 95.1155 546.503 94.509 545.959 94.0582C545.416 93.6075 544.74 93.3821 543.931 93.3821C543.102 93.3821 542.413 93.6075 541.863 94.0582C541.319 94.509 540.912 95.1155 540.64 95.8778C540.375 96.6335 540.242 97.4787 540.242 98.4134C540.242 99.3414 540.375 100.183 540.64 100.939C540.912 101.695 541.319 102.298 541.863 102.749C542.413 103.193 543.102 103.415 543.931 103.415ZM561.239 106.298C559.715 106.298 558.405 105.964 557.312 105.294C556.224 104.625 555.386 103.7 554.796 102.52C554.213 101.333 553.921 99.9678 553.921 98.4233C553.921 96.8722 554.219 95.5033 554.816 94.3168C555.412 93.1236 556.254 92.1955 557.341 91.5327C558.435 90.8632 559.728 90.5284 561.219 90.5284C562.459 90.5284 563.556 90.7571 564.51 91.2145C565.472 91.6652 566.237 92.3049 566.807 93.1335C567.377 93.9555 567.702 94.9167 567.782 96.017H564.341C564.202 95.2812 563.871 94.6681 563.347 94.1776C562.83 93.6804 562.137 93.4318 561.269 93.4318C560.533 93.4318 559.887 93.6307 559.33 94.0284C558.773 94.4195 558.339 94.983 558.027 95.7188C557.723 96.4545 557.57 97.3362 557.57 98.3636C557.57 99.4044 557.723 100.299 558.027 101.048C558.332 101.791 558.76 102.364 559.31 102.768C559.867 103.166 560.52 103.365 561.269 103.365C561.799 103.365 562.273 103.266 562.691 103.067C563.115 102.861 563.47 102.566 563.755 102.182C564.04 101.797 564.235 101.33 564.341 100.78H567.782C567.696 101.86 567.377 102.818 566.827 103.653C566.277 104.482 565.528 105.132 564.58 105.602C563.632 106.066 562.519 106.298 561.239 106.298ZM577.692 106.298C576.201 106.298 574.908 105.97 573.814 105.314C572.721 104.658 571.872 103.74 571.269 102.56C570.672 101.38 570.374 100.001 570.374 98.4233C570.374 96.8456 570.672 95.4635 571.269 94.277C571.872 93.0904 572.721 92.169 573.814 91.5128C574.908 90.8565 576.201 90.5284 577.692 90.5284C579.184 90.5284 580.476 90.8565 581.57 91.5128C582.664 92.169 583.509 93.0904 584.106 94.277C584.709 95.4635 585.01 96.8456 585.01 98.4233C585.01 100.001 584.709 101.38 584.106 102.56C583.509 103.74 582.664 104.658 581.57 105.314C580.476 105.97 579.184 106.298 577.692 106.298ZM577.712 103.415C578.521 103.415 579.197 103.193 579.74 102.749C580.284 102.298 580.688 101.695 580.954 100.939C581.225 100.183 581.361 99.3414 581.361 98.4134C581.361 97.4787 581.225 96.6335 580.954 95.8778C580.688 95.1155 580.284 94.509 579.74 94.0582C579.197 93.6075 578.521 93.3821 577.712 93.3821C576.883 93.3821 576.194 93.6075 575.644 94.0582C575.1 94.509 574.693 95.1155 574.421 95.8778C574.156 96.6335 574.023 97.4787 574.023 98.4134C574.023 99.3414 574.156 100.183 574.421 100.939C574.693 101.695 575.1 102.298 575.644 102.749C576.194 103.193 576.883 103.415 577.712 103.415ZM591.958 85.6364V106H588.358V85.6364H591.958ZM600.357 85.6364L600.029 100.014H596.827L596.509 85.6364H600.357ZM598.428 106.219C597.825 106.219 597.308 106.007 596.877 105.582C596.452 105.158 596.24 104.641 596.24 104.031C596.24 103.435 596.452 102.924 596.877 102.5C597.308 102.076 597.825 101.864 598.428 101.864C599.018 101.864 599.528 102.076 599.959 102.5C600.397 102.924 600.615 103.435 600.615 104.031C600.615 104.436 600.513 104.804 600.307 105.135C600.108 105.466 599.843 105.732 599.512 105.93C599.187 106.123 598.826 106.219 598.428 106.219Z"
            fill="#7249C6" />
        <path
            d="M349.623 72V46.1093H366.462V50.0409H354.313V57.0699H365.59V61.0015H354.313V68.0684H366.563V72H349.623ZM375.265 60.6223V72H370.689V52.582H375.063V55.8815H375.29C375.737 54.7943 376.449 53.9305 377.427 53.2899C378.413 52.6494 379.631 52.3291 381.08 52.3291C382.42 52.3291 383.588 52.6157 384.582 53.1888C385.585 53.7619 386.36 54.592 386.908 55.6793C387.464 56.7665 387.738 58.0854 387.73 59.6362V72H383.153V60.3441C383.153 59.0462 382.816 58.0307 382.142 57.2974C381.476 56.5642 380.553 56.1976 379.374 56.1976C378.573 56.1976 377.861 56.3746 377.237 56.7285C376.622 57.0741 376.137 57.5755 375.783 58.2329C375.438 58.8903 375.265 59.6867 375.265 60.6223ZM399.232 72.3413C397.707 72.3413 396.341 71.9494 395.136 71.1656C393.931 70.3818 392.978 69.2441 392.279 67.7523C391.579 66.2606 391.23 64.4485 391.23 62.3163C391.23 60.1587 391.584 58.3383 392.292 56.855C393.008 55.3632 393.973 54.2381 395.187 53.4796C396.4 52.7126 397.753 52.3291 399.245 52.3291C400.382 52.3291 401.318 52.523 402.051 52.9107C402.784 53.2899 403.366 53.7493 403.796 54.2886C404.226 54.8196 404.558 55.3211 404.794 55.793H404.984V46.1093H409.573V72H405.073V68.9407H404.794C404.558 69.4126 404.217 69.9141 403.77 70.445C403.324 70.9676 402.734 71.4143 402.001 71.7851C401.267 72.1559 400.344 72.3413 399.232 72.3413ZM400.509 68.5867C401.478 68.5867 402.304 68.3254 402.987 67.8029C403.669 67.2719 404.188 66.5345 404.542 65.5905C404.896 64.6466 405.073 63.5468 405.073 62.291C405.073 61.0352 404.896 59.9438 404.542 59.0167C404.196 58.0897 403.682 57.3691 402.999 56.855C402.325 56.3408 401.495 56.0838 400.509 56.0838C399.489 56.0838 398.638 56.3493 397.955 56.8802C397.272 57.4112 396.758 58.1444 396.413 59.0799C396.067 60.0154 395.895 61.0858 395.895 62.291C395.895 63.5046 396.067 64.5876 396.413 65.54C396.767 66.4839 397.285 67.2298 397.968 67.7776C398.659 68.317 399.506 68.5867 400.509 68.5867ZM426.47 63.8333V52.582H431.047V72H426.609V68.5488H426.407C425.969 69.636 425.248 70.5251 424.245 71.2162C423.251 71.9073 422.024 72.2528 420.566 72.2528C419.294 72.2528 418.169 71.9705 417.191 71.4058C416.222 70.8327 415.463 70.0026 414.915 68.9154C414.368 67.8197 414.094 66.4965 414.094 64.9458V52.582H418.67V64.2378C418.67 65.4683 419.007 66.446 419.681 67.1708C420.356 67.8956 421.241 68.258 422.336 68.258C423.011 68.258 423.664 68.0936 424.296 67.7649C424.928 67.4363 425.446 66.9474 425.851 66.2985C426.264 65.6411 426.47 64.8194 426.47 63.8333ZM435.397 72V52.582H439.834V55.8183H440.036C440.39 54.6974 440.997 53.8335 441.857 53.2267C442.725 52.6115 443.715 52.3039 444.827 52.3039C445.08 52.3039 445.363 52.3165 445.674 52.3418C445.995 52.3586 446.26 52.3881 446.471 52.4303V56.64C446.277 56.5726 445.969 56.5136 445.548 56.4631C445.135 56.4041 444.735 56.3746 444.347 56.3746C443.513 56.3746 442.763 56.5558 442.097 56.9182C441.439 57.2721 440.921 57.7652 440.542 58.3973C440.163 59.0294 439.973 59.7584 439.973 60.5843V72H435.397ZM449.749 72.2781C448.982 72.2781 448.325 72.0084 447.777 71.469C447.229 70.9296 446.96 70.2723 446.968 69.4969C446.96 68.7384 447.229 68.0894 447.777 67.55C448.325 67.0106 448.982 66.741 449.749 66.741C450.491 66.741 451.136 67.0106 451.684 67.55C452.24 68.0894 452.522 68.7384 452.531 69.4969C452.522 70.011 452.387 70.4788 452.126 70.9002C451.873 71.3215 451.536 71.6587 451.115 71.9115C450.702 72.1559 450.247 72.2781 449.749 72.2781ZM466.735 52.582V56.1217H455.256V52.582H466.735ZM458.126 72V50.7489C458.126 49.4426 458.396 48.3554 458.935 47.4873C459.483 46.6192 460.216 45.9702 461.135 45.5404C462.053 45.1106 463.073 44.8957 464.194 44.8957C464.986 44.8957 465.69 44.9589 466.305 45.0853C466.92 45.2117 467.376 45.3255 467.671 45.4266L466.76 48.9664C466.566 48.9074 466.322 48.8484 466.027 48.7894C465.732 48.722 465.403 48.6883 465.041 48.6883C464.19 48.6883 463.587 48.8947 463.233 49.3077C462.888 49.7123 462.715 50.2938 462.715 51.0523V72H458.126ZM469.963 72V52.582H474.539V72H469.963ZM472.264 49.826C471.539 49.826 470.915 49.5858 470.393 49.1054C469.87 48.6166 469.609 48.0309 469.609 47.3482C469.609 46.6571 469.87 46.0714 470.393 45.591C470.915 45.1022 471.539 44.8578 472.264 44.8578C472.997 44.8578 473.621 45.1022 474.135 45.591C474.657 46.0714 474.919 46.6571 474.919 47.3482C474.919 48.0309 474.657 48.6166 474.135 49.1054C473.621 49.5858 472.997 49.826 472.264 49.826Z"
            fill="#22F3DF" />
        <rect x="656" y="53.5" width="112" height="44" rx="6" fill="url(#paint34_linear_1298_5994)" />
        <path
            d="M679.472 72.5625C679.419 72.0663 679.195 71.6799 678.801 71.4034C678.411 71.1269 677.903 70.9886 677.278 70.9886C676.839 70.9886 676.462 71.0549 676.148 71.1875C675.833 71.3201 675.593 71.5 675.426 71.7273C675.259 71.9545 675.174 72.214 675.17 72.5057C675.17 72.7481 675.225 72.9583 675.335 73.1364C675.449 73.3144 675.602 73.4659 675.795 73.5909C675.989 73.7121 676.203 73.8144 676.438 73.8977C676.672 73.9811 676.909 74.0511 677.148 74.108L678.239 74.3807C678.678 74.483 679.1 74.6212 679.506 74.7955C679.915 74.9697 680.28 75.1894 680.602 75.4545C680.928 75.7197 681.186 76.0398 681.375 76.4148C681.564 76.7898 681.659 77.2292 681.659 77.733C681.659 78.4148 681.485 79.0152 681.136 79.5341C680.788 80.0492 680.284 80.4527 679.625 80.7443C678.97 81.0322 678.176 81.1761 677.244 81.1761C676.339 81.1761 675.553 81.036 674.886 80.7557C674.223 80.4754 673.705 80.0663 673.33 79.5284C672.958 78.9905 672.758 78.3352 672.727 77.5625H674.801C674.831 77.9678 674.956 78.3049 675.176 78.5739C675.396 78.8428 675.682 79.0436 676.034 79.1761C676.39 79.3087 676.788 79.375 677.227 79.375C677.686 79.375 678.087 79.3068 678.432 79.1705C678.78 79.0303 679.053 78.8371 679.25 78.5909C679.447 78.3409 679.547 78.0492 679.551 77.7159C679.547 77.4129 679.458 77.1629 679.284 76.9659C679.11 76.7652 678.866 76.5985 678.551 76.4659C678.241 76.3295 677.877 76.2083 677.46 76.1023L676.136 75.7614C675.178 75.5152 674.42 75.142 673.864 74.642C673.311 74.1383 673.034 73.4697 673.034 72.6364C673.034 71.9508 673.22 71.3504 673.591 70.8352C673.966 70.3201 674.475 69.9205 675.119 69.6364C675.763 69.3485 676.492 69.2045 677.307 69.2045C678.133 69.2045 678.856 69.3485 679.477 69.6364C680.102 69.9205 680.593 70.3163 680.949 70.8239C681.305 71.3277 681.489 71.9072 681.5 72.5625H679.472ZM687.645 72.2727V73.8636H682.628V72.2727H687.645ZM683.867 70.1818H685.924V78.375C685.924 78.6515 685.965 78.8636 686.049 79.0114C686.136 79.1553 686.25 79.2538 686.39 79.3068C686.53 79.3598 686.685 79.3864 686.856 79.3864C686.984 79.3864 687.102 79.3769 687.208 79.358C687.318 79.339 687.401 79.322 687.458 79.3068L687.804 80.9148C687.695 80.9527 687.537 80.9943 687.333 81.0398C687.132 81.0852 686.886 81.1117 686.594 81.1193C686.079 81.1345 685.615 81.0568 685.202 80.8864C684.789 80.7121 684.462 80.4432 684.219 80.0795C683.981 79.7159 683.863 79.2614 683.867 78.7159V70.1818ZM691.717 81.1761C691.164 81.1761 690.666 81.0777 690.223 80.8807C689.783 80.6799 689.435 80.3845 689.177 79.9943C688.923 79.6042 688.796 79.1231 688.796 78.5511C688.796 78.0587 688.887 77.6515 689.069 77.3295C689.251 77.0076 689.499 76.75 689.814 76.5568C690.128 76.3636 690.482 76.2178 690.876 76.1193C691.274 76.017 691.685 75.9432 692.109 75.8977C692.62 75.8447 693.035 75.7973 693.353 75.7557C693.671 75.7102 693.903 75.642 694.046 75.5511C694.194 75.4564 694.268 75.3106 694.268 75.1136V75.0795C694.268 74.6515 694.141 74.3201 693.887 74.0852C693.634 73.8504 693.268 73.733 692.791 73.733C692.287 73.733 691.887 73.8428 691.592 74.0625C691.3 74.2822 691.103 74.5417 691.001 74.8409L689.081 74.5682C689.232 74.0379 689.482 73.5947 689.831 73.2386C690.179 72.8788 690.605 72.6098 691.109 72.4318C691.613 72.25 692.17 72.1591 692.779 72.1591C693.2 72.1591 693.618 72.2083 694.035 72.3068C694.452 72.4053 694.832 72.5682 695.177 72.7955C695.522 73.0189 695.798 73.3239 696.007 73.7102C696.219 74.0966 696.325 74.5795 696.325 75.1591V81H694.348V79.8011H694.279C694.154 80.0436 693.978 80.2708 693.751 80.483C693.528 80.6913 693.245 80.8598 692.904 80.9886C692.567 81.1136 692.171 81.1761 691.717 81.1761ZM692.251 79.6648C692.664 79.6648 693.022 79.5833 693.325 79.4205C693.628 79.2538 693.861 79.0341 694.024 78.7614C694.19 78.4886 694.274 78.1913 694.274 77.8693V76.8409C694.209 76.8939 694.1 76.9432 693.944 76.9886C693.793 77.0341 693.622 77.0739 693.433 77.108C693.243 77.142 693.056 77.1723 692.87 77.1989C692.685 77.2254 692.524 77.2481 692.387 77.267C692.081 77.3087 691.806 77.3769 691.564 77.4716C691.321 77.5663 691.13 77.6989 690.99 77.8693C690.85 78.036 690.779 78.2519 690.779 78.517C690.779 78.8958 690.918 79.1818 691.194 79.375C691.471 79.5682 691.823 79.6648 692.251 79.6648ZM700.108 78.2614L700.102 75.7784H700.432L703.568 72.2727H705.972L702.114 76.5682H701.688L700.108 78.2614ZM698.233 81V69.3636H700.29V81H698.233ZM703.71 81L700.869 77.0284L702.256 75.5795L706.171 81H703.71ZM710.687 81.1705C709.812 81.1705 709.056 80.9886 708.42 80.625C707.787 80.2576 707.3 79.7386 706.959 79.0682C706.619 78.3939 706.448 77.6004 706.448 76.6875C706.448 75.7898 706.619 75.0019 706.959 74.3239C707.304 73.642 707.785 73.1117 708.403 72.733C709.02 72.3504 709.745 72.1591 710.579 72.1591C711.117 72.1591 711.624 72.2462 712.101 72.4205C712.583 72.5909 713.007 72.8561 713.374 73.2159C713.745 73.5758 714.037 74.0341 714.249 74.5909C714.461 75.1439 714.567 75.803 714.567 76.5682V77.1989H707.414V75.8125H712.596C712.592 75.4186 712.507 75.0682 712.34 74.7614C712.173 74.4508 711.94 74.2064 711.641 74.0284C711.346 73.8504 711.001 73.7614 710.607 73.7614C710.187 73.7614 709.817 73.8636 709.499 74.0682C709.181 74.2689 708.933 74.5341 708.755 74.8636C708.581 75.1894 708.492 75.5473 708.488 75.9375V77.1477C708.488 77.6553 708.581 78.0909 708.766 78.4545C708.952 78.8144 709.211 79.0909 709.545 79.2841C709.878 79.4735 710.268 79.5682 710.715 79.5682C711.014 79.5682 711.285 79.5265 711.528 79.4432C711.77 79.3561 711.98 79.2292 712.158 79.0625C712.336 78.8958 712.471 78.6894 712.562 78.4432L714.482 78.6591C714.361 79.1667 714.13 79.6098 713.789 79.9886C713.452 80.3636 713.02 80.6553 712.494 80.8636C711.967 81.0682 711.365 81.1705 710.687 81.1705ZM722.013 75.8864V81H719.956V72.2727H721.922V73.7557H722.024C722.225 73.267 722.545 72.8788 722.985 72.5909C723.428 72.303 723.975 72.1591 724.627 72.1591C725.229 72.1591 725.754 72.2879 726.201 72.5455C726.651 72.803 727 73.1761 727.246 73.6648C727.496 74.1534 727.619 74.7462 727.615 75.4432V81H725.558V75.7614C725.558 75.178 725.407 74.7216 725.104 74.392C724.805 74.0625 724.39 73.8977 723.86 73.8977C723.5 73.8977 723.18 73.9773 722.899 74.1364C722.623 74.2917 722.405 74.517 722.246 74.8125C722.091 75.108 722.013 75.4659 722.013 75.8864ZM733.353 81.1705C732.501 81.1705 731.762 80.983 731.137 80.608C730.512 80.233 730.027 79.7083 729.683 79.0341C729.342 78.3598 729.171 77.572 729.171 76.6705C729.171 75.7689 729.342 74.9792 729.683 74.3011C730.027 73.6231 730.512 73.0966 731.137 72.7216C731.762 72.3466 732.501 72.1591 733.353 72.1591C734.205 72.1591 734.944 72.3466 735.569 72.7216C736.194 73.0966 736.677 73.6231 737.018 74.3011C737.362 74.9792 737.535 75.7689 737.535 76.6705C737.535 77.572 737.362 78.3598 737.018 79.0341C736.677 79.7083 736.194 80.233 735.569 80.608C734.944 80.983 734.205 81.1705 733.353 81.1705ZM733.364 79.5227C733.826 79.5227 734.213 79.3958 734.523 79.142C734.834 78.8845 735.065 78.5398 735.217 78.108C735.372 77.6761 735.45 77.1951 735.45 76.6648C735.45 76.1307 735.372 75.6477 735.217 75.2159C735.065 74.7803 734.834 74.4337 734.523 74.1761C734.213 73.9186 733.826 73.7898 733.364 73.7898C732.891 73.7898 732.497 73.9186 732.183 74.1761C731.872 74.4337 731.639 74.7803 731.484 75.2159C731.332 75.6477 731.256 76.1307 731.256 76.6648C731.256 77.1951 731.332 77.6761 731.484 78.108C731.639 78.5398 731.872 78.8845 732.183 79.142C732.497 79.3958 732.891 79.5227 733.364 79.5227ZM740.672 81L738.206 72.2727H740.302L741.836 78.4091H741.916L743.484 72.2727H745.558L747.126 78.375H747.211L748.723 72.2727H750.825L748.354 81H746.211L744.575 75.1023H744.456L742.819 81H740.672Z"
            fill="#010412" />
    </g>
    <defs>
        <linearGradient id="paint0_linear_1298_5994" x1="917.298" y1="0.384996" x2="862.972" y2="111.646"
            gradientUnits="userSpaceOnUse">
            <stop stop-color="#15BFFD" />
            <stop offset="1" stop-color="#9C37FD" />
        </linearGradient>
        <linearGradient id="paint1_linear_1298_5994" x1="900.212" y1="65.867" x2="894.464" y2="75.2285"
            gradientUnits="userSpaceOnUse">
            <stop stop-color="#15BFFD" />
            <stop offset="1" stop-color="#9C37FD" />
        </linearGradient>
        <linearGradient id="paint2_linear_1298_5994" x1="873.847" y1="80.842" x2="868.814" y2="89.4816"
            gradientUnits="userSpaceOnUse">
            <stop stop-color="#15BFFD" />
            <stop offset="1" stop-color="#9C37FD" />
        </linearGradient>
        <linearGradient id="paint3_linear_1298_5994" x1="852.419" y1="82.298" x2="846.763" y2="92.0754"
            gradientUnits="userSpaceOnUse">
            <stop stop-color="#15BFFD" />
            <stop offset="1" stop-color="#9C37FD" />
        </linearGradient>
        <linearGradient id="paint4_linear_1298_5994" x1="909.314" y1="-11.3378" x2="852.713" y2="101.556"
            gradientUnits="userSpaceOnUse">
            <stop stop-color="#15BFFD" />
            <stop offset="1" stop-color="#9C37FD" />
        </linearGradient>
        <linearGradient id="paint5_linear_1298_5994" x1="902.438" y1="-4.54691" x2="855.045" y2="89.9753"
            gradientUnits="userSpaceOnUse">
            <stop stop-color="#15BFFD" />
            <stop offset="1" stop-color="#9C37FD" />
        </linearGradient>
        <linearGradient id="paint6_linear_1298_5994" x1="-19.732" y1="113.719" x2="7.60472" y2="205.834"
            gradientUnits="userSpaceOnUse">
            <stop stop-color="#15BFFD" />
            <stop offset="1" stop-color="#9C37FD" />
        </linearGradient>
        <linearGradient id="paint7_linear_1298_5994" x1="-19.732" y1="113.719" x2="7.60472" y2="205.834"
            gradientUnits="userSpaceOnUse">
            <stop stop-color="#15BFFD" />
            <stop offset="1" stop-color="#9C37FD" />
        </linearGradient>
        <linearGradient id="paint8_linear_1298_5994" x1="15.7564" y1="150.699" x2="24.2797" y2="158.155"
            gradientUnits="userSpaceOnUse">
            <stop stop-color="#15BFFD" />
            <stop offset="1" stop-color="#9C37FD" />
        </linearGradient>
        <linearGradient id="paint9_linear_1298_5994" x1="-15.1288" y1="108.547" x2="6.28734" y2="189.582"
            gradientUnits="userSpaceOnUse">
            <stop stop-color="#15BFFD" />
            <stop offset="1" stop-color="#9C37FD" />
        </linearGradient>
        <linearGradient id="paint10_linear_1298_5994" x1="-6.9101" y1="113.855" x2="8.90084" y2="177.739"
            gradientUnits="userSpaceOnUse">
            <stop stop-color="#15BFFD" />
            <stop offset="1" stop-color="#9C37FD" />
        </linearGradient>
        <linearGradient id="paint11_linear_1298_5994" x1="30.1735" y1="106.744" x2="44.3163" y2="154.4"
            gradientUnits="userSpaceOnUse">
            <stop stop-color="#15BFFD" />
            <stop offset="1" stop-color="#9C37FD" />
        </linearGradient>
        <linearGradient id="paint12_linear_1298_5994" x1="30.1735" y1="106.744" x2="44.3163" y2="154.4"
            gradientUnits="userSpaceOnUse">
            <stop stop-color="#15BFFD" />
            <stop offset="1" stop-color="#9C37FD" />
        </linearGradient>
        <linearGradient id="paint13_linear_1298_5994" x1="78.3102" y1="134.323" x2="82.7144" y2="138.228"
            gradientUnits="userSpaceOnUse">
            <stop stop-color="#15BFFD" />
            <stop offset="1" stop-color="#9C37FD" />
        </linearGradient>
        <linearGradient id="paint14_linear_1298_5994" x1="48.5335" y1="125.875" x2="52.9431" y2="129.732"
            gradientUnits="userSpaceOnUse">
            <stop stop-color="#15BFFD" />
            <stop offset="1" stop-color="#9C37FD" />
        </linearGradient>
        <linearGradient id="paint15_linear_1298_5994" x1="63.681" y1="131.505" x2="68.0724" y2="135.083"
            gradientUnits="userSpaceOnUse">
            <stop stop-color="#15BFFD" />
            <stop offset="1" stop-color="#9C37FD" />
        </linearGradient>
        <linearGradient id="paint16_linear_1298_5994" x1="33.8535" y1="117.956" x2="38.113" y2="121.409"
            gradientUnits="userSpaceOnUse">
            <stop stop-color="#15BFFD" />
            <stop offset="1" stop-color="#9C37FD" />
        </linearGradient>
        <linearGradient id="paint17_linear_1298_5994" x1="25.929" y1="111.154" x2="30.3982" y2="114.766"
            gradientUnits="userSpaceOnUse">
            <stop stop-color="#15BFFD" />
            <stop offset="1" stop-color="#9C37FD" />
        </linearGradient>
        <linearGradient id="paint18_linear_1298_5994" x1="32.5551" y1="104.068" x2="43.6348" y2="145.991"
            gradientUnits="userSpaceOnUse">
            <stop stop-color="#15BFFD" />
            <stop offset="1" stop-color="#9C37FD" />
        </linearGradient>
        <linearGradient id="paint19_linear_1298_5994" x1="36.8071" y1="106.814" x2="44.987" y2="139.864"
            gradientUnits="userSpaceOnUse">
            <stop stop-color="#15BFFD" />
            <stop offset="1" stop-color="#9C37FD" />
        </linearGradient>
        <linearGradient id="paint20_linear_1298_5994" x1="601.077" y1="121.665" x2="631.948" y2="151.151"
            gradientUnits="userSpaceOnUse">
            <stop stop-color="#15BFFD" />
            <stop offset="1" stop-color="#9C37FD" />
        </linearGradient>
        <linearGradient id="paint21_linear_1298_5994" x1="601.077" y1="121.665" x2="631.948" y2="151.151"
            gradientUnits="userSpaceOnUse">
            <stop stop-color="#15BFFD" />
            <stop offset="1" stop-color="#9C37FD" />
        </linearGradient>
        <linearGradient id="paint22_linear_1298_5994" x1="648.72" y1="121.686" x2="653.668" y2="122.717"
            gradientUnits="userSpaceOnUse">
            <stop stop-color="#15BFFD" />
            <stop offset="1" stop-color="#9C37FD" />
        </linearGradient>
        <linearGradient id="paint23_linear_1298_5994" x1="622.923" y1="128.092" x2="627.855" y2="129.086"
            gradientUnits="userSpaceOnUse">
            <stop stop-color="#15BFFD" />
            <stop offset="1" stop-color="#9C37FD" />
        </linearGradient>
        <linearGradient id="paint24_linear_1298_5994" x1="636.614" y1="125.826" x2="641.414" y2="126.619"
            gradientUnits="userSpaceOnUse">
            <stop stop-color="#15BFFD" />
            <stop offset="1" stop-color="#9C37FD" />
        </linearGradient>
        <linearGradient id="paint25_linear_1298_5994" x1="608.603" y1="128.452" x2="613.251" y2="129.209"
            gradientUnits="userSpaceOnUse">
            <stop stop-color="#15BFFD" />
            <stop offset="1" stop-color="#9C37FD" />
        </linearGradient>
        <linearGradient id="paint26_linear_1298_5994" x1="599.795" y1="126.763" x2="604.667" y2="127.549"
            gradientUnits="userSpaceOnUse">
            <stop stop-color="#15BFFD" />
            <stop offset="1" stop-color="#9C37FD" />
        </linearGradient>
        <linearGradient id="paint27_linear_1298_5994" x1="601.711" y1="118.655" x2="627.853" y2="145.175"
            gradientUnits="userSpaceOnUse">
            <stop stop-color="#15BFFD" />
            <stop offset="1" stop-color="#9C37FD" />
        </linearGradient>
        <linearGradient id="paint28_linear_1298_5994" x1="606.051" y1="118.888" x2="626.247" y2="140.032"
            gradientUnits="userSpaceOnUse">
            <stop stop-color="#15BFFD" />
            <stop offset="1" stop-color="#9C37FD" />
        </linearGradient>
        <linearGradient id="paint29_linear_1298_5994" x1="167.695" y1="-24.1635" x2="81.5914" y2="-70.8573"
            gradientUnits="userSpaceOnUse">
            <stop stop-color="#15BFFD" />
            <stop offset="1" stop-color="#9C37FD" />
        </linearGradient>
        <linearGradient id="paint30_linear_1298_5994" x1="167.695" y1="-24.1635" x2="81.5914" y2="-70.8573"
            gradientUnits="userSpaceOnUse">
            <stop stop-color="#15BFFD" />
            <stop offset="1" stop-color="#9C37FD" />
        </linearGradient>
        <linearGradient id="paint31_linear_1298_5994" x1="62.2001" y1="4.4791" x2="50.6237" y2="5.17522"
            gradientUnits="userSpaceOnUse">
            <stop stop-color="#15BFFD" />
            <stop offset="1" stop-color="#9C37FD" />
        </linearGradient>
        <linearGradient id="paint32_linear_1298_5994" x1="168.106" y1="-17.1169" x2="94.2561" y2="-60.0919"
            gradientUnits="userSpaceOnUse">
            <stop stop-color="#15BFFD" />
            <stop offset="1" stop-color="#9C37FD" />
        </linearGradient>
        <linearGradient id="paint33_linear_1298_5994" x1="158.355" y1="-15.0192" x2="100.909" y2="-49.6716"
            gradientUnits="userSpaceOnUse">
            <stop stop-color="#15BFFD" />
            <stop offset="1" stop-color="#9C37FD" />
        </linearGradient>
        <linearGradient id="paint34_linear_1298_5994" x1="435.5" y1="-11.5" x2="779.5" y2="100.5"
            gradientUnits="userSpaceOnUse">
            <stop stop-color="#DE7585" />
            <stop offset="1" stop-color="#7249C6" />
        </linearGradient>
        <clipPath id="clip0_1298_5994">
            <rect width="900" height="150" fill="white" />
        </clipPath>
    </defs>
</svg>