<svg width="900" height="150" viewBox="0 0 900 150" fill="none" xmlns="http://www.w3.org/2000/svg">
<g clip-path="url(#clip0_1285_1221)">
<rect width="900" height="150" fill="#010412"/>
<path d="M451.591 101.182L451.659 99.3068L450.074 100.312L449.665 99.5966L451.335 98.7273L449.665 97.858L450.074 97.142L451.659 98.1477L451.591 96.2727H452.409L452.341 98.1477L453.926 97.142L454.335 97.858L452.665 98.7273L454.335 99.5966L453.926 100.312L452.341 99.3068L452.409 101.182H451.591Z" fill="#BAA9FF"/>
<g opacity="0.7">
<path d="M612.635 122.69C618.292 128.329 631.359 134.636 641.804 136.768C643.738 137.163 645.451 137.385 646.923 137.452C650.083 137.599 652.114 137.016 652.828 135.841L654.557 131.112C653.843 132.287 651.812 132.866 648.644 132.723C647.175 132.656 645.463 132.433 643.524 132.039C633.076 129.907 620.017 123.596 614.356 117.956C611.977 115.581 611.263 113.693 612.014 112.459L610.286 117.188C609.534 118.422 610.248 120.306 612.631 122.685L612.635 122.69Z" stroke="#11998E" stroke-opacity="0.4" stroke-linecap="round" stroke-linejoin="round"/>
<path d="M612.635 122.69C618.292 128.329 631.359 134.636 641.804 136.768C643.738 137.163 645.451 137.385 646.923 137.452C650.083 137.599 652.114 137.016 652.828 135.841L654.557 131.112C653.843 132.287 651.812 132.866 648.644 132.723C647.175 132.656 645.463 132.433 643.524 132.039C633.076 129.907 620.017 123.596 614.356 117.956C611.977 115.581 611.263 113.693 612.014 112.459L610.286 117.188C609.534 118.422 610.248 120.306 612.631 122.685L612.635 122.69Z" stroke="#11998E" stroke-opacity="0.4" stroke-linecap="round" stroke-linejoin="round"/>
<path d="M648.648 132.723L646.642 137.003" stroke="#11998E" stroke-opacity="0.4" stroke-linecap="round" stroke-linejoin="round"/>
<path d="M628.858 127.113L626.874 131.405" stroke="#11998E" stroke-opacity="0.4" stroke-linecap="round" stroke-linejoin="round"/>
<path d="M638.808 130.847L636.945 135.174" stroke="#11998E" stroke-opacity="0.4" stroke-linecap="round" stroke-linejoin="round"/>
<path d="M618.947 121.863L617.146 126.063" stroke="#11998E" stroke-opacity="0.4" stroke-linecap="round" stroke-linejoin="round"/>
<path d="M613.76 117.327L611.876 121.737" stroke="#11998E" stroke-opacity="0.4" stroke-linecap="round" stroke-linejoin="round"/>
<path d="M614.092 117.839C619.484 123.365 632.484 129.647 643.122 131.863C645.094 132.274 646.848 132.513 648.367 132.601C655.035 132.983 657.062 130.356 652.668 125.837C647.259 120.273 634.259 113.991 623.579 111.771C621.611 111.364 619.866 111.12 618.351 111.037C611.67 110.655 609.648 113.29 614.092 117.843V117.839Z" stroke="#11998E" stroke-opacity="0.4" stroke-linecap="round" stroke-linejoin="round"/>
<path d="M620.52 113.42C621.75 113.58 623.185 113.856 624.805 114.264C633.596 116.467 644.544 121.59 649.299 125.719C653.159 129.076 651.703 130.726 646.277 130.033C645.044 129.874 643.608 129.597 641.98 129.19C633.223 126.991 622.274 121.871 617.533 117.767C613.63 114.385 615.09 112.728 620.52 113.424V113.42Z" stroke="#11998E" stroke-opacity="0.4" stroke-linecap="round" stroke-linejoin="round"/>
</g>
<path d="M855.813 91.0398C883.567 92.062 914.848 70.0069 925.582 41.7544C927.563 36.5153 928.713 31.4296 929.083 26.5995C929.888 16.2364 927.103 7.11278 921.378 0.378683L913.379 -9.03882C919.103 -2.30473 921.889 6.81888 921.084 17.1948C920.713 22.0121 919.576 27.0978 917.583 32.3497C906.849 60.6022 875.581 82.6445 847.801 81.6223C836.096 81.175 826.845 76.7666 820.839 69.6875L828.838 79.105C834.857 86.1713 844.096 90.5925 855.813 91.0398Z" stroke="#11998E" stroke-linecap="round" stroke-linejoin="round"/>
<path d="M893.036 64.9854L901.099 74.3517" stroke="#11998E" stroke-linecap="round" stroke-linejoin="round"/>
<path d="M867.058 80.0505L874.687 88.4586" stroke="#11998E" stroke-linecap="round" stroke-linejoin="round"/>
<path d="M844.709 81.4055L853.372 90.8869" stroke="#11998E" stroke-linecap="round" stroke-linejoin="round"/>
<path d="M847.801 81.6097C875.568 82.6447 906.824 60.5896 917.57 32.3371C919.563 27.098 920.701 22.0123 921.084 17.1822C922.72 -4.04235 909.328 -20.0406 886.609 -20.9606C858.663 -22.0596 827.395 -0.0172293 816.623 28.3631C814.642 33.5893 813.505 38.6623 813.134 43.4797C811.498 64.7297 824.928 80.7536 847.801 81.6097Z" stroke="#11998E" stroke-linecap="round" stroke-linejoin="round"/>
<path d="M850.945 73.2781C874.188 74.1342 900.371 55.6697 909.354 32.0174C911.015 27.6217 911.986 23.3538 912.293 19.3159C913.66 1.54142 902.454 -11.8373 883.44 -12.604C860.043 -13.524 833.848 4.92764 824.839 28.6823C823.178 33.0652 822.219 37.3075 821.913 41.3454C820.546 59.1326 831.803 72.5497 850.958 73.2781H850.945Z" stroke="#11998E" stroke-linecap="round" stroke-linejoin="round"/>
<path d="M-26.3278 136.647C-9.86074 153.065 28.1796 171.426 58.585 177.631C64.2165 178.78 69.2006 179.427 73.4884 179.622C82.687 180.05 88.5995 178.352 90.6762 174.932L95.7091 161.164C93.6324 164.585 87.7199 166.27 78.4969 165.855C74.2213 165.66 69.2372 165.012 63.5935 163.864C33.1759 157.658 -4.83999 139.286 -21.3192 122.867C-28.2457 115.953 -30.3224 110.456 -28.1357 106.865L-33.1687 120.632C-35.3553 124.223 -33.2786 129.708 -26.34 136.635L-26.3278 136.647Z" stroke="#11998E" stroke-opacity="0.2" stroke-width="1.1321" stroke-linecap="round" stroke-linejoin="round"/>
<path d="M-26.3278 136.647C-9.86074 153.065 28.1796 171.426 58.585 177.631C64.2165 178.78 69.2006 179.427 73.4884 179.622C82.687 180.05 88.5995 178.352 90.6762 174.932L95.7091 161.164C93.6324 164.585 87.7199 166.27 78.4969 165.855C74.2213 165.66 69.2372 165.012 63.5935 163.864C33.1759 157.658 -4.83999 139.286 -21.3192 122.867C-28.2457 115.953 -30.3224 110.456 -28.1357 106.865L-33.1687 120.632C-35.3553 124.223 -33.2786 129.708 -26.34 136.635L-26.3278 136.647Z" stroke="#11998E" stroke-opacity="0.2" stroke-width="1.1321" stroke-linecap="round" stroke-linejoin="round"/>
<path d="M20.899 149.523L15.1208 162.02" stroke="#11998E" stroke-opacity="0.2" stroke-width="1.1321" stroke-linecap="round" stroke-linejoin="round"/>
<path d="M-22.0892 122.526C-6.39175 138.614 31.4531 156.901 62.4204 163.351C68.1619 164.548 73.2682 165.245 77.6903 165.501C97.1014 166.613 103.002 158.966 90.2116 145.809C74.4653 129.611 36.6204 111.324 5.53096 104.861C-0.1983 103.676 -5.28011 102.968 -9.69005 102.724C-29.1378 101.612 -35.0258 109.283 -22.0892 122.538V122.526Z" stroke="#11998E" stroke-opacity="0.2" stroke-width="1.1321" stroke-linecap="round" stroke-linejoin="round"/>
<path d="M-3.37405 109.662C0.20521 110.126 4.38304 110.933 9.09838 112.118C34.6907 118.531 66.562 133.447 80.4026 145.467C91.6413 155.24 87.4023 160.041 71.6072 158.025C68.0157 157.561 63.8378 156.755 59.0981 155.57C33.6035 149.168 1.73217 134.265 -12.0718 122.318C-23.4326 112.472 -19.1814 107.647 -3.37405 109.674V109.662Z" stroke="#11998E" stroke-opacity="0.2" stroke-width="1.1321" stroke-linecap="round" stroke-linejoin="round"/>
<path d="M26.7613 118.605C35.2806 127.099 54.9609 136.598 70.6913 139.809C73.6048 140.403 76.1833 140.738 78.4016 140.839C83.1605 141.06 86.2194 140.182 87.2938 138.412L89.8976 131.289C88.8232 133.059 85.7644 133.931 80.9928 133.716C78.7808 133.615 76.2023 133.28 73.2824 132.686C57.5458 129.476 37.8781 119.97 29.3524 111.476C25.769 107.899 24.6946 105.055 25.8259 103.197L23.2221 110.32C22.0908 112.178 23.1652 115.016 26.7549 118.599L26.7613 118.605Z" fill="#010412" stroke="#11998E" stroke-opacity="0.6" stroke-width="1.1321" stroke-linecap="round" stroke-linejoin="round"/>
<path d="M26.7613 118.605C35.2806 127.099 54.9609 136.598 70.6913 139.809C73.6048 140.403 76.1833 140.738 78.4016 140.839C83.1605 141.06 86.2194 140.182 87.2938 138.412L89.8976 131.289C88.8232 133.059 85.7644 133.931 80.9928 133.716C78.7808 133.615 76.2023 133.28 73.2824 132.686C57.5458 129.476 37.8781 119.97 29.3524 111.476C25.769 107.899 24.6946 105.055 25.8259 103.197L23.2221 110.32C22.0908 112.178 23.1652 115.016 26.7549 118.599L26.7613 118.605Z" fill="#010412" stroke="#11998E" stroke-opacity="0.6" stroke-width="1.1321" stroke-linecap="round" stroke-linejoin="round"/>
<path d="M80.999 133.716L77.978 140.163" stroke="#11998E" stroke-opacity="0.6" stroke-width="1.1321" stroke-linecap="round" stroke-linejoin="round"/>
<path d="M51.1942 125.267L48.2048 131.732" stroke="#11998E" stroke-opacity="0.6" stroke-width="1.1321" stroke-linecap="round" stroke-linejoin="round"/>
<path d="M66.1784 130.892L63.3723 137.407" stroke="#11998E" stroke-opacity="0.6" stroke-width="1.1321" stroke-linecap="round" stroke-linejoin="round"/>
<path d="M36.2667 117.36L33.5554 123.686" stroke="#11998E" stroke-opacity="0.6" stroke-width="1.1321" stroke-linecap="round" stroke-linejoin="round"/>
<path d="M28.4546 110.529L25.6169 117.171" stroke="#11998E" stroke-opacity="0.6" stroke-width="1.1321" stroke-linecap="round" stroke-linejoin="round"/>
<path d="M28.9542 111.3C37.0753 119.623 56.6545 129.084 72.6756 132.421C75.646 133.04 78.2877 133.401 80.5756 133.533C90.618 134.108 93.6705 130.152 87.0535 123.346C78.9071 114.965 59.3279 105.504 43.2436 102.161C40.2795 101.548 37.6504 101.181 35.3689 101.055C25.3075 100.48 22.2613 104.449 28.9542 111.306V111.3Z" fill="#010412" stroke="#11998E" stroke-opacity="0.6" stroke-width="1.1321" stroke-linecap="round" stroke-linejoin="round"/>
<path d="M38.6365 104.644C40.4882 104.885 42.6496 105.302 45.0891 105.915C58.3294 109.233 74.8182 116.949 81.9787 123.168C87.7931 128.224 85.6 130.708 77.4283 129.665C75.5703 129.425 73.4089 129.008 70.9567 128.395C57.767 125.083 41.2782 117.373 34.1366 111.192C28.2591 106.098 30.4584 103.602 38.6365 104.651V104.644Z" fill="#010412" stroke="#11998E" stroke-opacity="0.6" stroke-width="1.1321" stroke-linecap="round" stroke-linejoin="round"/>
<path d="M96.0784 -37.2452C80.5026 -40.7677 60.4994 -31.6248 51.4336 -16.8049C49.7573 -14.0538 48.5694 -11.3078 47.8495 -8.61332C46.2966 -2.84375 46.9033 2.607 49.423 7.01903L52.9454 13.1897C50.4258 8.77767 49.819 3.32691 51.3771 -2.45295C52.1021 -5.13719 53.2797 -7.88828 54.9612 -10.6445C64.0269 -25.4644 84.0302 -34.6021 99.6111 -31.0746C106.178 -29.5782 110.929 -26.1072 113.577 -21.474L110.055 -27.6447C107.407 -32.2778 102.655 -35.754 96.0784 -37.2504V-37.2452Z" stroke="#11998E" stroke-opacity="0.2" stroke-linecap="round" stroke-linejoin="round"/>
<path d="M99.6059 -31.0694C84.025 -34.6021 64.0269 -25.4592 54.9611 -10.6394C53.2796 -7.88827 52.0969 -5.13719 51.3719 -2.45295C48.1991 9.36388 54.0613 19.8232 66.8037 22.7491C82.4772 26.3384 102.48 17.2006 111.572 2.30875C113.243 -0.437194 114.431 -3.178 115.151 -5.8571C118.334 -17.6894 112.441 -28.1692 99.6111 -31.0746L99.6059 -31.0694Z" stroke="#11998E" stroke-opacity="0.2" stroke-linecap="round" stroke-linejoin="round"/>
<path d="M109.313 26.2865V56H103.931V26.2865H109.313ZM119.754 42.9423V56H114.501V33.7149H119.521V37.5016H119.783C120.295 36.2539 121.113 35.2625 122.235 34.5274C123.366 33.7923 124.764 33.4247 126.428 33.4247C127.965 33.4247 129.305 33.7536 130.446 34.4113C131.597 35.069 132.487 36.0217 133.116 37.2695C133.754 38.5172 134.069 40.0309 134.059 41.8107V56H128.807V42.6231C128.807 41.1336 128.42 39.9681 127.646 39.1266C126.882 38.2851 125.823 37.8643 124.469 37.8643C123.55 37.8643 122.733 38.0674 122.017 38.4737C121.311 38.8703 120.755 39.4458 120.348 40.2002C119.952 40.9546 119.754 41.8687 119.754 42.9423ZM150.118 33.7149V37.7773H137.307V33.7149H150.118ZM140.469 28.3757H145.722V49.2971C145.722 50.0031 145.828 50.5448 146.041 50.922C146.263 51.2896 146.553 51.541 146.911 51.6765C147.269 51.8119 147.666 51.8796 148.101 51.8796C148.43 51.8796 148.73 51.8554 149 51.807C149.281 51.7587 149.494 51.7151 149.639 51.6765L150.524 55.7824C150.243 55.8791 149.842 55.9855 149.32 56.1016C148.807 56.2176 148.178 56.2853 147.434 56.3047C146.118 56.3434 144.933 56.1451 143.879 55.7098C142.825 55.2649 141.988 54.5782 141.369 53.6496C140.76 52.7211 140.46 51.5604 140.469 50.1676V28.3757ZM154.102 56V33.7149H159.194V37.4291H159.426C159.832 36.1427 160.529 35.1512 161.515 34.4548C162.512 33.7487 163.648 33.3957 164.925 33.3957C165.215 33.3957 165.539 33.4102 165.897 33.4392C166.265 33.4586 166.569 33.4924 166.811 33.5408V38.3721C166.589 38.2947 166.236 38.227 165.752 38.169C165.278 38.1013 164.819 38.0674 164.374 38.0674C163.416 38.0674 162.555 38.2754 161.791 38.6913C161.037 39.0976 160.442 39.6634 160.007 40.3888C159.571 41.1142 159.354 41.9509 159.354 42.8988V56H154.102ZM178.695 56.4353C176.519 56.4353 174.632 55.9565 173.036 54.9989C171.441 54.0413 170.202 52.7017 169.322 50.98C168.452 49.2584 168.017 47.2465 168.017 44.9445C168.017 42.6425 168.452 40.6258 169.322 38.8944C170.202 37.1631 171.441 35.8186 173.036 34.8611C174.632 33.9035 176.519 33.4247 178.695 33.4247C180.871 33.4247 182.757 33.9035 184.353 34.8611C185.949 35.8186 187.182 37.1631 188.053 38.8944C188.933 40.6258 189.373 42.6425 189.373 44.9445C189.373 47.2465 188.933 49.2584 188.053 50.98C187.182 52.7017 185.949 54.0413 184.353 54.9989C182.757 55.9565 180.871 56.4353 178.695 56.4353ZM178.724 52.2278C179.904 52.2278 180.89 51.9038 181.684 51.2557C182.477 50.598 183.067 49.7178 183.454 48.6152C183.85 47.5125 184.048 46.2841 184.048 44.93C184.048 43.5662 183.85 42.333 183.454 41.2303C183.067 40.118 182.477 39.233 181.684 38.5752C180.89 37.9175 179.904 37.5887 178.724 37.5887C177.515 37.5887 176.509 37.9175 175.706 38.5752C174.913 39.233 174.318 40.118 173.921 41.2303C173.535 42.333 173.341 43.5662 173.341 44.93C173.341 46.2841 173.535 47.5125 173.921 48.6152C174.318 49.7178 174.913 50.598 175.706 51.2557C176.509 51.9038 177.515 52.2278 178.724 52.2278ZM201.692 56.3917C199.941 56.3917 198.375 55.942 196.991 55.0424C195.608 54.1429 194.515 52.8371 193.712 51.1251C192.91 49.4131 192.508 47.3336 192.508 44.8865C192.508 42.4103 192.914 40.3211 193.727 38.6188C194.549 36.9068 195.657 35.6155 197.049 34.745C198.442 33.8648 199.995 33.4247 201.707 33.4247C203.012 33.4247 204.086 33.6472 204.928 34.0921C205.769 34.5274 206.436 35.0545 206.93 35.6735C207.423 36.2829 207.805 36.8584 208.076 37.4001H208.294V26.2865H213.56V56H208.395V52.4889H208.076C207.805 53.0306 207.413 53.6061 206.901 54.2154C206.388 54.8151 205.711 55.3278 204.87 55.7534C204.028 56.1789 202.969 56.3917 201.692 56.3917ZM203.158 52.0827C204.27 52.0827 205.218 51.7829 206.001 51.1832C206.785 50.5738 207.379 49.7275 207.786 48.6442C208.192 47.5609 208.395 46.2986 208.395 44.8574C208.395 43.4163 208.192 42.1637 207.786 41.0997C207.389 40.0358 206.799 39.2088 206.016 38.6188C205.242 38.0288 204.289 37.7338 203.158 37.7338C201.987 37.7338 201.01 38.0384 200.227 38.6478C199.443 39.2571 198.853 40.0986 198.457 41.1723C198.06 42.2459 197.862 43.4743 197.862 44.8574C197.862 46.2503 198.06 47.4932 198.457 48.5861C198.863 49.6694 199.458 50.5254 200.241 51.1541C201.034 51.7732 202.006 52.0827 203.158 52.0827ZM232.952 46.6275V33.7149H238.204V56H233.112V52.0392H232.88C232.377 53.2869 231.55 54.3073 230.399 55.1005C229.257 55.8936 227.85 56.2902 226.177 56.2902C224.716 56.2902 223.425 55.9661 222.303 55.3181C221.191 54.6604 220.32 53.7077 219.691 52.4599C219.063 51.2025 218.748 49.684 218.748 47.9042V33.7149H224V47.0918C224 48.5039 224.387 49.6259 225.161 50.4577C225.935 51.2896 226.95 51.7055 228.208 51.7055C228.982 51.7055 229.731 51.5169 230.457 51.1396C231.182 50.7624 231.777 50.2014 232.241 49.4567C232.715 48.7022 232.952 47.7592 232.952 46.6275ZM252.917 56.4353C250.692 56.4353 248.782 55.9468 247.186 54.9699C245.6 53.993 244.376 52.6437 243.516 50.922C242.664 49.1907 242.239 47.1982 242.239 44.9445C242.239 42.6812 242.674 40.6838 243.545 38.9525C244.415 37.2114 245.644 35.8573 247.23 34.8901C248.826 33.9132 250.712 33.4247 252.888 33.4247C254.697 33.4247 256.298 33.7584 257.69 34.4258C259.093 35.0835 260.21 36.0169 261.042 37.226C261.874 38.4253 262.348 39.8278 262.464 41.4334H257.444C257.241 40.3598 256.757 39.4651 255.993 38.7494C255.239 38.0239 254.228 37.6612 252.961 37.6612C251.887 37.6612 250.944 37.9514 250.132 38.5317C249.319 39.1024 248.685 39.9245 248.231 40.9982C247.786 42.0718 247.563 43.3582 247.563 44.8574C247.563 46.376 247.786 47.6818 248.231 48.7747C248.676 49.8581 249.3 50.6947 250.102 51.2847C250.915 51.8651 251.868 52.1552 252.961 52.1552C253.734 52.1552 254.426 52.0102 255.035 51.72C255.654 51.4201 256.172 50.9897 256.588 50.4287C257.004 49.8677 257.289 49.1858 257.444 48.383H262.464C262.338 49.9596 261.874 51.3573 261.071 52.576C260.268 53.785 259.175 54.7329 257.792 55.4197C256.409 56.0967 254.784 56.4353 252.917 56.4353ZM266.368 56V33.7149H271.62V56H266.368ZM269.008 30.552C268.177 30.552 267.461 30.2764 266.861 29.725C266.261 29.164 265.962 28.4918 265.962 27.7084C265.962 26.9152 266.261 26.243 266.861 25.6917C267.461 25.1307 268.177 24.8502 269.008 24.8502C269.85 24.8502 270.566 25.1307 271.156 25.6917C271.755 26.243 272.055 26.9152 272.055 27.7084C272.055 28.4918 271.755 29.164 271.156 29.725C270.566 30.2764 269.85 30.552 269.008 30.552ZM281.864 42.9423V56H276.612V33.7149H281.632V37.5016H281.893C282.406 36.2539 283.223 35.2625 284.345 34.5274C285.477 33.7923 286.875 33.4247 288.538 33.4247C290.076 33.4247 291.416 33.7536 292.557 34.4113C293.708 35.069 294.598 36.0217 295.227 37.2695C295.865 38.5172 296.179 40.0309 296.17 41.8107V56H290.918V42.6231C290.918 41.1336 290.531 39.9681 289.757 39.1266C288.993 38.2851 287.934 37.8643 286.58 37.8643C285.661 37.8643 284.843 38.0674 284.128 38.4737C283.422 38.8703 282.865 39.4458 282.459 40.2002C282.063 40.9546 281.864 41.8687 281.864 42.9423ZM310.792 64.8212C308.906 64.8212 307.286 64.5649 305.932 64.0522C304.577 63.5493 303.489 62.8722 302.667 62.021C301.845 61.1699 301.274 60.2268 300.955 59.1919L305.685 58.0457C305.898 58.481 306.207 58.9114 306.614 59.337C307.02 59.7722 307.566 60.1301 308.253 60.4106C308.949 60.7008 309.825 60.8459 310.879 60.8459C312.369 60.8459 313.602 60.4831 314.579 59.7577C315.556 59.042 316.044 57.8619 316.044 56.2176V51.9956H315.783C315.512 52.5373 315.116 53.0935 314.593 53.6641C314.081 54.2348 313.399 54.7136 312.548 55.1005C311.706 55.4874 310.647 55.6808 309.37 55.6808C307.658 55.6808 306.106 55.2794 304.713 54.4766C303.33 53.6641 302.227 52.4551 301.405 50.8495C300.592 49.2342 300.186 47.2127 300.186 44.7849C300.186 42.3378 300.592 40.2727 301.405 38.5898C302.227 36.8971 303.335 35.6155 304.727 34.745C306.12 33.8648 307.673 33.4247 309.385 33.4247C310.69 33.4247 311.764 33.6472 312.606 34.0921C313.457 34.5274 314.134 35.0545 314.637 35.6735C315.14 36.2829 315.522 36.8584 315.783 37.4001H316.073V33.7149H321.253V56.3627C321.253 58.2682 320.798 59.8448 319.889 61.0925C318.98 62.3402 317.737 63.2736 316.16 63.8926C314.584 64.5117 312.794 64.8212 310.792 64.8212ZM310.836 51.5604C311.948 51.5604 312.896 51.2896 313.679 50.7479C314.463 50.2063 315.057 49.4276 315.464 48.412C315.87 47.3964 316.073 46.1777 316.073 44.7559C316.073 43.3534 315.87 42.125 315.464 41.0707C315.067 40.0164 314.477 39.1991 313.694 38.6188C312.92 38.0288 311.967 37.7338 310.836 37.7338C309.665 37.7338 308.688 38.0384 307.905 38.6478C307.121 39.2571 306.531 40.0938 306.135 41.1578C305.738 42.2121 305.54 43.4114 305.54 44.7559C305.54 46.1197 305.738 47.3142 306.135 48.3395C306.541 49.3551 307.136 50.1482 307.919 50.7189C308.712 51.2799 309.684 51.5604 310.836 51.5604Z" fill="#D8FDF0"/>
<path d="M336.185 56V26.2865H355.51V30.7987H341.567V38.8654H354.509V43.3776H341.567V51.4878H355.626V56H336.185ZM365.613 42.9423V56H360.361V33.7149H365.381V37.5016H365.642C366.154 36.2539 366.972 35.2625 368.094 34.5274C369.225 33.7923 370.623 33.4247 372.287 33.4247C373.825 33.4247 375.164 33.7536 376.306 34.4113C377.457 35.069 378.346 36.0217 378.975 37.2695C379.614 38.5172 379.928 40.0309 379.918 41.8107V56H374.666V42.6231C374.666 41.1336 374.279 39.9681 373.505 39.1266C372.741 38.2851 371.682 37.8643 370.328 37.8643C369.409 37.8643 368.592 38.0674 367.876 38.4737C367.17 38.8703 366.614 39.4458 366.208 40.2002C365.811 40.9546 365.613 41.8687 365.613 42.9423ZM393.119 56.3917C391.368 56.3917 389.801 55.942 388.418 55.0424C387.035 54.1429 385.942 52.8371 385.139 51.1251C384.336 49.4131 383.935 47.3336 383.935 44.8865C383.935 42.4103 384.341 40.3211 385.153 38.6188C385.976 36.9068 387.083 35.6155 388.476 34.745C389.869 33.8648 391.421 33.4247 393.133 33.4247C394.439 33.4247 395.513 33.6472 396.354 34.0921C397.196 34.5274 397.863 35.0545 398.356 35.6735C398.85 36.2829 399.232 36.8584 399.502 37.4001H399.72V26.2865H404.987V56H399.822V52.4889H399.502C399.232 53.0306 398.84 53.6061 398.327 54.2154C397.815 54.8151 397.137 55.3278 396.296 55.7534C395.455 56.1789 394.395 56.3917 393.119 56.3917ZM394.584 52.0827C395.696 52.0827 396.644 51.7829 397.428 51.1832C398.211 50.5738 398.806 49.7275 399.212 48.6442C399.618 47.5609 399.822 46.2986 399.822 44.8574C399.822 43.4163 399.618 42.1637 399.212 41.0997C398.816 40.0358 398.226 39.2088 397.442 38.6188C396.668 38.0288 395.716 37.7338 394.584 37.7338C393.414 37.7338 392.437 38.0384 391.653 38.6478C390.87 39.2571 390.28 40.0986 389.883 41.1723C389.487 42.2459 389.288 43.4743 389.288 44.8574C389.288 46.2503 389.487 47.4932 389.883 48.5861C390.289 49.6694 390.884 50.5254 391.668 51.1541C392.461 51.7732 393.433 52.0827 394.584 52.0827ZM424.379 46.6275V33.7149H429.631V56H424.538V52.0392H424.306C423.803 53.2869 422.976 54.3073 421.825 55.1005C420.684 55.8936 419.276 56.2902 417.603 56.2902C416.143 56.2902 414.851 55.9661 413.729 55.3181C412.617 54.6604 411.746 53.7077 411.118 52.4599C410.489 51.2025 410.175 49.684 410.175 47.9042V33.7149H415.427V47.0918C415.427 48.5039 415.814 49.6259 416.587 50.4577C417.361 51.2896 418.377 51.7055 419.634 51.7055C420.408 51.7055 421.158 51.5169 421.883 51.1396C422.609 50.7624 423.203 50.2014 423.668 49.4567C424.142 48.7022 424.379 47.7592 424.379 46.6275ZM434.623 56V33.7149H439.715V37.4291H439.948C440.354 36.1427 441.05 35.1512 442.037 34.4548C443.033 33.7487 444.17 33.3957 445.446 33.3957C445.736 33.3957 446.06 33.4102 446.418 33.4392C446.786 33.4586 447.091 33.4924 447.332 33.5408V38.3721C447.11 38.2947 446.757 38.227 446.273 38.169C445.799 38.1013 445.34 38.0674 444.895 38.0674C443.937 38.0674 443.077 38.2754 442.312 38.6913C441.558 39.0976 440.963 39.6634 440.528 40.3888C440.093 41.1142 439.875 41.9509 439.875 42.8988V56H434.623ZM451.095 56.3192C450.215 56.3192 449.46 56.0097 448.832 55.3906C448.203 54.7716 447.893 54.0172 447.903 53.1273C447.893 52.2568 448.203 51.512 448.832 50.893C449.46 50.274 450.215 49.9644 451.095 49.9644C451.946 49.9644 452.686 50.274 453.315 50.893C453.953 51.512 454.277 52.2568 454.287 53.1273C454.277 53.7173 454.122 54.2541 453.823 54.7378C453.532 55.2214 453.146 55.6083 452.662 55.8984C452.188 56.1789 451.666 56.3192 451.095 56.3192ZM470.589 33.7149V37.7773H457.415V33.7149H470.589ZM460.708 56V31.6111C460.708 30.1119 461.018 28.8642 461.637 27.8679C462.265 26.8717 463.107 26.1269 464.161 25.6336C465.216 25.1403 466.386 24.8937 467.672 24.8937C468.582 24.8937 469.389 24.9662 470.095 25.1113C470.801 25.2564 471.324 25.387 471.662 25.5031L470.618 29.5654C470.395 29.4977 470.115 29.43 469.776 29.3623C469.438 29.2849 469.06 29.2463 468.644 29.2463C467.668 29.2463 466.976 29.4832 466.57 29.9572C466.173 30.4214 465.975 31.0888 465.975 31.9594V56H460.708ZM474.293 56V33.7149H479.545V56H474.293ZM476.934 30.552C476.102 30.552 475.386 30.2764 474.786 29.725C474.187 29.164 473.887 28.4918 473.887 27.7084C473.887 26.9152 474.187 26.243 474.786 25.6917C475.386 25.1307 476.102 24.8502 476.934 24.8502C477.775 24.8502 478.491 25.1307 479.081 25.6917C479.681 26.243 479.981 26.9152 479.981 27.7084C479.981 28.4918 479.681 29.164 479.081 29.725C478.491 30.2764 477.775 30.552 476.934 30.552Z" fill="url(#paint0_linear_1285_1221)"/>
<path d="M102.262 74.4278V70.9235H120.674V74.4278H113.541V94H109.395V74.4278H102.262ZM127.804 83.8589V94H123.725V70.9235H127.714V79.6335H127.917C128.323 78.657 128.95 77.887 129.799 77.3236C130.655 76.7527 131.744 76.4672 133.066 76.4672C134.268 76.4672 135.316 76.7189 136.21 77.2222C137.104 77.7255 137.795 78.4617 138.283 79.4307C138.779 80.3997 139.027 81.5828 139.027 82.9801V94H134.948V83.6111C134.948 82.4467 134.648 81.5415 134.047 80.8955C133.453 80.242 132.62 79.9152 131.545 79.9152C130.824 79.9152 130.178 80.073 129.607 80.3885C129.044 80.6964 128.601 81.1434 128.278 81.7293C127.962 82.3153 127.804 83.0251 127.804 83.8589ZM150.53 94.338C148.795 94.338 147.296 93.9775 146.034 93.2563C144.779 92.5277 143.814 91.4985 143.138 90.1689C142.462 88.8318 142.124 87.2581 142.124 85.4477C142.124 83.6674 142.462 82.1049 143.138 80.7603C143.822 79.4082 144.776 78.3565 146 77.6053C147.225 76.8466 148.663 76.4672 150.316 76.4672C151.382 76.4672 152.389 76.64 153.335 76.9856C154.29 77.3236 155.131 77.8494 155.859 78.5631C156.596 79.2767 157.174 80.1856 157.595 81.2899C158.015 82.3866 158.226 83.6937 158.226 85.2111V86.4618H144.04V83.7125H154.316C154.308 82.9312 154.139 82.2364 153.809 81.6279C153.478 81.0119 153.016 80.5274 152.423 80.1744C151.837 79.8213 151.153 79.6448 150.372 79.6448C149.538 79.6448 148.806 79.8476 148.175 80.2532C147.544 80.6514 147.052 81.1772 146.699 81.8307C146.353 82.4768 146.177 83.1866 146.169 83.9604V86.3604C146.169 87.367 146.353 88.2309 146.721 88.952C147.089 89.6656 147.604 90.214 148.265 90.5971C148.926 90.9727 149.7 91.1605 150.586 91.1605C151.18 91.1605 151.717 91.0779 152.197 90.9126C152.678 90.7398 153.095 90.4882 153.448 90.1577C153.801 89.8271 154.068 89.4177 154.248 88.9295L158.057 89.3577C157.816 90.3642 157.358 91.2431 156.682 91.9943C156.013 92.738 155.157 93.3164 154.113 93.7296C153.069 94.1352 151.874 94.338 150.53 94.338ZM181.634 77.2673C181.529 76.2832 181.086 75.517 180.304 74.9686C179.531 74.4203 178.524 74.1461 177.284 74.1461C176.413 74.1461 175.666 74.2775 175.042 74.5404C174.419 74.8034 173.942 75.1602 173.611 75.6109C173.281 76.0616 173.112 76.5762 173.104 77.1546C173.104 77.6353 173.213 78.0523 173.431 78.4053C173.656 78.7584 173.96 79.0588 174.344 79.3067C174.727 79.5471 175.151 79.7499 175.617 79.9152C176.083 80.0805 176.552 80.2194 177.025 80.3321L179.189 80.873C180.06 81.0758 180.898 81.35 181.701 81.6955C182.513 82.0411 183.238 82.4768 183.876 83.0026C184.522 83.5284 185.033 84.1632 185.409 84.9069C185.784 85.6505 185.972 86.5219 185.972 87.521C185.972 88.8731 185.626 90.0638 184.935 91.0929C184.244 92.1145 183.245 92.9145 181.938 93.4929C180.639 94.0639 179.065 94.3493 177.217 94.3493C175.422 94.3493 173.863 94.0714 172.541 93.5155C171.226 92.9596 170.197 92.1483 169.453 91.0816C168.717 90.0149 168.319 88.7154 168.259 87.183H172.372C172.432 87.9867 172.68 88.6553 173.115 89.1886C173.551 89.722 174.118 90.1201 174.817 90.383C175.523 90.6459 176.312 90.7774 177.183 90.7774C178.092 90.7774 178.888 90.6422 179.572 90.3718C180.263 90.0938 180.804 89.7107 181.194 89.2224C181.585 88.7267 181.784 88.1482 181.792 87.4872C181.784 86.8862 181.608 86.3905 181.262 85.9998C180.916 85.6017 180.432 85.2712 179.808 85.0083C179.193 84.7378 178.471 84.4975 177.645 84.2871L175.02 83.6111C173.119 83.1228 171.617 82.3829 170.513 81.3913C169.416 80.3922 168.867 79.0664 168.867 77.4137C168.867 76.0541 169.236 74.8635 169.972 73.8418C170.715 72.8202 171.726 72.0277 173.003 71.4643C174.28 70.8934 175.726 70.608 177.341 70.608C178.978 70.608 180.413 70.8934 181.645 71.4643C182.885 72.0277 183.857 72.8127 184.564 73.8193C185.27 74.8184 185.634 75.9677 185.656 77.2673H181.634ZM188.367 74.4278V70.9235H206.779V74.4278H199.647V94H195.5V74.4278H188.367ZM210.011 94V70.9235H218.665C220.438 70.9235 221.925 71.2315 223.127 71.8474C224.336 72.4634 225.249 73.3273 225.865 74.439C226.488 75.5433 226.8 76.8316 226.8 78.3039C226.8 79.7837 226.485 81.0683 225.854 82.1575C225.23 83.2392 224.31 84.0768 223.093 84.6702C221.876 85.2562 220.381 85.5491 218.609 85.5491H212.445V82.0786H218.045C219.082 82.0786 219.931 81.9359 220.592 81.6505C221.253 81.3575 221.741 80.9331 222.056 80.3772C222.379 79.8138 222.541 79.1227 222.541 78.3039C222.541 77.4851 222.379 76.7865 222.056 76.2081C221.733 75.6222 221.241 75.179 220.58 74.8785C219.919 74.5705 219.067 74.4165 218.023 74.4165H214.192V94H210.011ZM221.933 83.5434L227.645 94H222.98L217.369 83.5434H221.933ZM230.331 94V70.9235H234.511V81.5265H234.793L243.796 70.9235H248.9L239.976 81.2786L248.979 94H243.954L237.069 84.1068L234.511 87.1266V94H230.331ZM259.041 94V70.9235H263.221V90.4957H273.384V94H259.041ZM276.515 94V76.6926H280.594V94H276.515ZM278.566 74.2362C277.92 74.2362 277.364 74.0221 276.898 73.5939C276.433 73.1583 276.2 72.6362 276.2 72.0277C276.2 71.4117 276.433 70.8897 276.898 70.4615C277.364 70.0258 277.92 69.808 278.566 69.808C279.219 69.808 279.775 70.0258 280.234 70.4615C280.699 70.8897 280.932 71.4117 280.932 72.0277C280.932 72.6362 280.699 73.1583 280.234 73.5939C279.775 74.0221 279.219 74.2362 278.566 74.2362ZM296.021 100.49V91.2732H295.852C295.641 91.6938 295.337 92.1408 294.939 92.6141C294.541 93.0798 294.015 93.4779 293.362 93.8084C292.708 94.139 291.885 94.3042 290.894 94.3042C289.534 94.3042 288.317 93.9549 287.243 93.2563C286.169 92.5577 285.32 91.5436 284.697 90.214C284.073 88.8844 283.761 87.2693 283.761 85.3688C283.761 83.4458 284.077 81.8232 284.708 80.5011C285.346 79.1715 286.207 78.1687 287.288 77.4926C288.37 76.809 289.576 76.4672 290.905 76.4672C291.919 76.4672 292.753 76.64 293.407 76.9856C294.06 77.3236 294.579 77.733 294.962 78.2138C295.345 78.687 295.641 79.134 295.852 79.5546H296.1V76.6926H300.111V100.49H296.021ZM292.032 90.9577C292.896 90.9577 293.632 90.7248 294.24 90.2591C294.849 89.7858 295.311 89.1285 295.626 88.2872C295.942 87.4459 296.1 86.4656 296.1 85.3463C296.1 84.227 295.942 83.2542 295.626 82.4279C295.318 81.6016 294.86 80.9594 294.252 80.5011C293.651 80.0429 292.911 79.8138 292.032 79.8138C291.123 79.8138 290.364 80.0504 289.756 80.5237C289.147 80.9969 288.689 81.6505 288.381 82.4843C288.073 83.3181 287.919 84.2721 287.919 85.3463C287.919 86.428 288.073 87.3933 288.381 88.2421C288.697 89.0835 289.159 89.7483 289.767 90.2365C290.383 90.7173 291.138 90.9577 292.032 90.9577ZM315.017 86.721V76.6926H319.096V94H315.141V90.9239H314.96C314.57 91.8929 313.927 92.6854 313.033 93.3014C312.147 93.9174 311.054 94.2254 309.754 94.2254C308.62 94.2254 307.617 93.9737 306.746 93.4704C305.882 92.9596 305.206 92.2197 304.718 91.2506C304.229 90.2741 303.985 89.0947 303.985 87.7125V76.6926H308.064V87.0815C308.064 88.1783 308.365 89.0497 308.966 89.6957C309.567 90.3417 310.355 90.6647 311.332 90.6647C311.933 90.6647 312.515 90.5182 313.078 90.2253C313.642 89.9323 314.104 89.4966 314.464 88.9182C314.833 88.3323 315.017 87.5999 315.017 86.721ZM322.973 94V76.6926H327.052V94H322.973ZM325.023 74.2362C324.377 74.2362 323.822 74.0221 323.356 73.5939C322.89 73.1583 322.657 72.6362 322.657 72.0277C322.657 71.4117 322.89 70.8897 323.356 70.4615C323.822 70.0258 324.377 69.808 325.023 69.808C325.677 69.808 326.233 70.0258 326.691 70.4615C327.157 70.8897 327.39 71.4117 327.39 72.0277C327.39 72.6362 327.157 73.1583 326.691 73.5939C326.233 74.0221 325.677 74.2362 325.023 74.2362ZM337.351 94.3042C335.992 94.3042 334.775 93.9549 333.701 93.2563C332.626 92.5577 331.778 91.5436 331.154 90.214C330.531 88.8844 330.219 87.2693 330.219 85.3688C330.219 83.4458 330.534 81.8232 331.165 80.5011C331.804 79.1715 332.664 78.1687 333.746 77.4926C334.827 76.809 336.033 76.4672 337.363 76.4672C338.377 76.4672 339.211 76.64 339.864 76.9856C340.518 77.3236 341.036 77.733 341.419 78.2138C341.802 78.687 342.099 79.134 342.309 79.5546H342.478V70.9235H346.569V94H342.557V91.2732H342.309C342.099 91.6938 341.795 92.1408 341.397 92.6141C340.998 93.0798 340.473 93.4779 339.819 93.8084C339.166 94.139 338.343 94.3042 337.351 94.3042ZM338.489 90.9577C339.353 90.9577 340.09 90.7248 340.698 90.2591C341.306 89.7858 341.768 89.1285 342.084 88.2872C342.399 87.4459 342.557 86.4656 342.557 85.3463C342.557 84.227 342.399 83.2542 342.084 82.4279C341.776 81.6016 341.318 80.9594 340.709 80.5011C340.108 80.0429 339.368 79.8138 338.489 79.8138C337.581 79.8138 336.822 80.0504 336.213 80.5237C335.605 80.9969 335.147 81.6505 334.839 82.4843C334.531 83.3181 334.377 84.2721 334.377 85.3463C334.377 86.428 334.531 87.3933 334.839 88.2421C335.154 89.0835 335.616 89.7483 336.225 90.2365C336.841 90.7173 337.596 90.9577 338.489 90.9577ZM370.872 77.2673C370.767 76.2832 370.324 75.517 369.543 74.9686C368.769 74.4203 367.763 74.1461 366.523 74.1461C365.652 74.1461 364.904 74.2775 364.281 74.5404C363.657 74.8034 363.18 75.1602 362.85 75.6109C362.519 76.0616 362.35 76.5762 362.343 77.1546C362.343 77.6353 362.452 78.0523 362.669 78.4053C362.895 78.7584 363.199 79.0588 363.582 79.3067C363.965 79.5471 364.39 79.7499 364.855 79.9152C365.321 80.0805 365.791 80.2194 366.264 80.3321L368.427 80.873C369.299 81.0758 370.136 81.35 370.94 81.6955C371.751 82.0411 372.476 82.4768 373.115 83.0026C373.761 83.5284 374.272 84.1632 374.647 84.9069C375.023 85.6505 375.211 86.5219 375.211 87.521C375.211 88.8731 374.865 90.0638 374.174 91.0929C373.483 92.1145 372.484 92.9145 371.177 93.4929C369.877 94.0639 368.303 94.3493 366.455 94.3493C364.66 94.3493 363.101 94.0714 361.779 93.5155C360.465 92.9596 359.436 92.1483 358.692 91.0816C357.956 90.0149 357.558 88.7154 357.498 87.183H361.61C361.67 87.9867 361.918 88.6553 362.354 89.1886C362.79 89.722 363.357 90.1201 364.055 90.383C364.762 90.6459 365.55 90.7774 366.422 90.7774C367.331 90.7774 368.127 90.6422 368.81 90.3718C369.502 90.0938 370.042 89.7107 370.433 89.2224C370.824 88.7267 371.023 88.1482 371.03 87.4872C371.023 86.8862 370.846 86.3905 370.501 85.9998C370.155 85.6017 369.671 85.2712 369.047 85.0083C368.431 84.7378 367.71 84.4975 366.884 84.2871L364.258 83.6111C362.358 83.1228 360.855 82.3829 359.751 81.3913C358.654 80.3922 358.106 79.0664 358.106 77.4137C358.106 76.0541 358.474 74.8635 359.21 73.8418C359.954 72.8202 360.964 72.0277 362.241 71.4643C363.518 70.8934 364.964 70.608 366.579 70.608C368.217 70.608 369.652 70.8934 370.884 71.4643C372.123 72.0277 373.096 72.8127 373.802 73.8193C374.508 74.8184 374.873 75.9677 374.895 77.2673H370.872ZM387.082 76.6926V79.8476H377.133V76.6926H387.082ZM379.589 72.546H383.668V88.7943C383.668 89.3426 383.751 89.7633 383.916 90.0563C384.089 90.3417 384.314 90.537 384.592 90.6422C384.87 90.7474 385.178 90.7999 385.516 90.7999C385.771 90.7999 386.004 90.7812 386.215 90.7436C386.432 90.706 386.598 90.6722 386.71 90.6422L387.398 93.831C387.18 93.9061 386.868 93.9887 386.463 94.0789C386.064 94.169 385.576 94.2216 384.998 94.2366C383.976 94.2667 383.056 94.1127 382.237 93.7746C381.418 93.4291 380.769 92.8958 380.288 92.1746C379.815 91.4535 379.582 90.552 379.589 89.4703V72.546ZM395.157 94.3493C394.06 94.3493 393.072 94.154 392.193 93.7634C391.322 93.3652 390.631 92.7793 390.12 92.0056C389.617 91.2319 389.365 90.2779 389.365 89.1436C389.365 88.167 389.545 87.3595 389.906 86.721C390.266 86.0825 390.758 85.5717 391.382 85.1886C392.005 84.8054 392.708 84.5162 393.489 84.3209C394.278 84.1181 395.093 83.9716 395.934 83.8815C396.948 83.7763 397.771 83.6824 398.402 83.5998C399.033 83.5096 399.491 83.3744 399.776 83.1941C400.069 83.0063 400.216 82.7171 400.216 82.3265V82.2589C400.216 81.4101 399.964 80.7528 399.461 80.287C398.958 79.8213 398.233 79.5884 397.286 79.5884C396.287 79.5884 395.495 79.8063 394.909 80.242C394.33 80.6777 393.94 81.1922 393.737 81.7857L389.928 81.2448C390.229 80.1931 390.725 79.3143 391.416 78.6081C392.107 77.8945 392.952 77.3612 393.951 77.0081C394.95 76.6475 396.054 76.4672 397.264 76.4672C398.098 76.4672 398.928 76.5649 399.754 76.7602C400.58 76.9555 401.335 77.2785 402.019 77.7292C402.702 78.1724 403.251 78.7772 403.664 79.5434C404.085 80.3096 404.295 81.2673 404.295 82.4167V94H400.374V91.6225H400.238C399.991 92.1032 399.641 92.554 399.191 92.9746C398.747 93.3878 398.188 93.7221 397.512 93.9775C396.843 94.2254 396.058 94.3493 395.157 94.3493ZM396.216 91.3521C397.035 91.3521 397.745 91.1906 398.345 90.8675C398.946 90.537 399.408 90.1013 399.731 89.5605C400.062 89.0196 400.227 88.4299 400.227 87.7914V85.7519C400.1 85.8571 399.882 85.9548 399.574 86.0449C399.273 86.135 398.935 86.2139 398.56 86.2815C398.184 86.3491 397.812 86.4092 397.444 86.4618C397.076 86.5144 396.757 86.5595 396.486 86.597C395.878 86.6797 395.333 86.8149 394.852 87.0027C394.372 87.1905 393.992 87.4534 393.714 87.7914C393.436 88.1219 393.297 88.5501 393.297 89.076C393.297 89.8271 393.572 90.3943 394.12 90.7774C394.668 91.1605 395.367 91.3521 396.216 91.3521ZM411.797 88.5689L411.786 83.6449H412.44L418.66 76.6926H423.426L415.775 85.2111H414.93L411.797 88.5689ZM408.079 94V70.9235H412.158V94H408.079ZM418.941 94L413.307 86.1238L416.057 83.2505L423.82 94H418.941ZM425.827 94V76.6926H429.906V94H425.827ZM427.878 74.2362C427.232 74.2362 426.676 74.0221 426.21 73.5939C425.744 73.1583 425.511 72.6362 425.511 72.0277C425.511 71.4117 425.744 70.8897 426.21 70.4615C426.676 70.0258 427.232 69.808 427.878 69.808C428.531 69.808 429.087 70.0258 429.545 70.4615C430.011 70.8897 430.244 71.4117 430.244 72.0277C430.244 72.6362 430.011 73.1583 429.545 73.5939C429.087 74.0221 428.531 74.2362 427.878 74.2362ZM437.862 83.8589V94H433.783V76.6926H437.682V79.6335H437.885C438.283 78.6645 438.917 77.8945 439.789 77.3236C440.668 76.7527 441.753 76.4672 443.045 76.4672C444.24 76.4672 445.28 76.7227 446.166 77.2335C447.06 77.7443 447.751 78.4842 448.24 79.4532C448.735 80.4223 448.98 81.5979 448.972 82.9801V94H444.893V83.6111C444.893 82.4542 444.593 81.549 443.992 80.8955C443.398 80.242 442.576 79.9152 441.524 79.9152C440.81 79.9152 440.176 80.073 439.62 80.3885C439.071 80.6964 438.639 81.1434 438.324 81.7293C438.016 82.3153 437.862 83.0251 437.862 83.8589ZM460.328 100.851C458.863 100.851 457.605 100.652 456.554 100.254C455.502 99.863 454.657 99.3372 454.018 98.6762C453.38 98.0151 452.937 97.2827 452.689 96.4789L456.362 95.5888C456.527 95.9268 456.768 96.2611 457.083 96.5916C457.399 96.9296 457.823 97.2076 458.356 97.4254C458.897 97.6508 459.577 97.7635 460.396 97.7635C461.553 97.7635 462.51 97.4818 463.269 96.9184C464.028 96.3625 464.407 95.446 464.407 94.169V90.8901H464.204C463.994 91.3107 463.686 91.7427 463.28 92.1859C462.882 92.6291 462.353 93.0009 461.692 93.3014C461.038 93.6019 460.216 93.7521 459.224 93.7521C457.894 93.7521 456.689 93.4404 455.607 92.8169C454.533 92.1859 453.676 91.2469 453.038 89.9999C452.407 88.7454 452.091 87.1754 452.091 85.29C452.091 83.3895 452.407 81.7857 453.038 80.4786C453.676 79.164 454.537 78.1687 455.618 77.4926C456.7 76.809 457.906 76.4672 459.235 76.4672C460.249 76.4672 461.083 76.64 461.737 76.9856C462.398 77.3236 462.924 77.733 463.314 78.2138C463.705 78.687 464.002 79.134 464.204 79.5546H464.43V76.6926H468.452V94.2817C468.452 95.7615 468.099 96.986 467.393 97.955C466.687 98.924 465.722 99.6489 464.497 100.13C463.273 100.61 461.883 100.851 460.328 100.851ZM460.362 90.552C461.226 90.552 461.962 90.3417 462.571 89.921C463.179 89.5004 463.641 88.8957 463.957 88.1069C464.272 87.3182 464.43 86.3717 464.43 85.2674C464.43 84.1782 464.272 83.2242 463.957 82.4054C463.649 81.5866 463.19 80.9518 462.582 80.5011C461.981 80.0429 461.241 79.8138 460.362 79.8138C459.453 79.8138 458.694 80.0504 458.086 80.5237C457.478 80.9969 457.019 81.6467 456.711 82.473C456.403 83.2918 456.249 84.2233 456.249 85.2674C456.249 86.3266 456.403 87.2543 456.711 88.0506C457.027 88.8393 457.489 89.4553 458.097 89.8985C458.713 90.3342 459.468 90.552 460.362 90.552ZM480.049 94V70.9235H488.703C490.476 70.9235 491.963 71.254 493.165 71.915C494.374 72.5761 495.287 73.485 495.903 74.6419C496.526 75.7912 496.838 77.0982 496.838 78.5631C496.838 80.0429 496.526 81.3575 495.903 82.5068C495.279 83.6561 494.359 84.5613 493.142 85.2224C491.925 85.8759 490.427 86.2027 488.646 86.2027H482.911V82.766H488.083C489.12 82.766 489.968 82.5857 490.63 82.2251C491.291 81.8645 491.779 81.3688 492.094 80.7378C492.417 80.1068 492.579 79.3819 492.579 78.5631C492.579 77.7443 492.417 77.0231 492.094 76.3996C491.779 75.7762 491.287 75.2916 490.618 74.9461C489.957 74.593 489.105 74.4165 488.06 74.4165H484.229V94H480.049ZM499.972 94V76.6926H503.927V79.5772H504.107C504.422 78.5781 504.963 77.8081 505.729 77.2673C506.503 76.7189 507.386 76.4447 508.377 76.4447C508.603 76.4447 508.854 76.456 509.132 76.4785C509.418 76.4935 509.654 76.5198 509.842 76.5574V80.3096C509.669 80.2495 509.395 80.1969 509.02 80.1518C508.652 80.0992 508.295 80.073 507.949 80.073C507.206 80.073 506.537 80.2345 505.944 80.5575C505.358 80.873 504.896 81.3124 504.558 81.8758C504.22 82.4392 504.051 83.089 504.051 83.8251V94H499.972ZM519.072 94.338C517.381 94.338 515.917 93.9662 514.677 93.2225C513.438 92.4788 512.476 91.4384 511.793 90.1013C511.116 88.7642 510.778 87.2017 510.778 85.4139C510.778 83.6261 511.116 82.0598 511.793 80.7152C512.476 79.3706 513.438 78.3264 514.677 77.5828C515.917 76.8391 517.381 76.4672 519.072 76.4672C520.762 76.4672 522.227 76.8391 523.466 77.5828C524.705 78.3264 525.663 79.3706 526.339 80.7152C527.023 82.0598 527.365 83.6261 527.365 85.4139C527.365 87.2017 527.023 88.7642 526.339 90.1013C525.663 91.4384 524.705 92.4788 523.466 93.2225C522.227 93.9662 520.762 94.338 519.072 94.338ZM519.094 91.0704C520.011 91.0704 520.777 90.8187 521.393 90.3154C522.009 89.8046 522.467 89.121 522.767 88.2647C523.075 87.4083 523.229 86.4543 523.229 85.4026C523.229 84.3435 523.075 83.3857 522.767 82.5293C522.467 81.6655 522.009 80.9781 521.393 80.4673C520.777 79.9565 520.011 79.7011 519.094 79.7011C518.155 79.7011 517.374 79.9565 516.75 80.4673C516.134 80.9781 515.672 81.6655 515.364 82.5293C515.064 83.3857 514.914 84.3435 514.914 85.4026C514.914 86.4543 515.064 87.4083 515.364 88.2647C515.672 89.121 516.134 89.8046 516.75 90.3154C517.374 90.8187 518.155 91.0704 519.094 91.0704ZM539.152 76.6926V79.8476H529.202V76.6926H539.152ZM531.659 72.546H535.738V88.7943C535.738 89.3426 535.82 89.7633 535.986 90.0563C536.158 90.3417 536.384 90.537 536.662 90.6422C536.94 90.7474 537.248 90.7999 537.586 90.7999C537.841 90.7999 538.074 90.7812 538.284 90.7436C538.502 90.706 538.667 90.6722 538.78 90.6422L539.467 93.831C539.25 93.9061 538.938 93.9887 538.532 94.0789C538.134 94.169 537.646 94.2216 537.067 94.2366C536.046 94.2667 535.125 94.1127 534.307 93.7746C533.488 93.4291 532.838 92.8958 532.357 92.1746C531.884 91.4535 531.651 90.552 531.659 89.4703V72.546ZM549.609 94.338C547.919 94.338 546.454 93.9662 545.215 93.2225C543.976 92.4788 543.014 91.4384 542.33 90.1013C541.654 88.7642 541.316 87.2017 541.316 85.4139C541.316 83.6261 541.654 82.0598 542.33 80.7152C543.014 79.3706 543.976 78.3264 545.215 77.5828C546.454 76.8391 547.919 76.4672 549.609 76.4672C551.3 76.4672 552.764 76.8391 554.004 77.5828C555.243 78.3264 556.201 79.3706 556.877 80.7152C557.561 82.0598 557.903 83.6261 557.903 85.4139C557.903 87.2017 557.561 88.7642 556.877 90.1013C556.201 91.4384 555.243 92.4788 554.004 93.2225C552.764 93.9662 551.3 94.338 549.609 94.338ZM549.632 91.0704C550.548 91.0704 551.315 90.8187 551.931 90.3154C552.547 89.8046 553.005 89.121 553.305 88.2647C553.613 87.4083 553.767 86.4543 553.767 85.4026C553.767 84.3435 553.613 83.3857 553.305 82.5293C553.005 81.6655 552.547 80.9781 551.931 80.4673C551.315 79.9565 550.548 79.7011 549.632 79.7011C548.693 79.7011 547.912 79.9565 547.288 80.4673C546.672 80.9781 546.21 81.6655 545.902 82.5293C545.602 83.3857 545.452 84.3435 545.452 85.4026C545.452 86.4543 545.602 87.4083 545.902 88.2647C546.21 89.121 546.672 89.8046 547.288 90.3154C547.912 90.8187 548.693 91.0704 549.632 91.0704ZM568.597 94.338C566.869 94.338 565.385 93.9587 564.146 93.2C562.914 92.4413 561.964 91.3934 561.295 90.0563C560.634 88.7116 560.304 87.1642 560.304 85.4139C560.304 83.6561 560.642 82.1049 561.318 80.7603C561.994 79.4082 562.948 78.3565 564.18 77.6053C565.419 76.8466 566.884 76.4672 568.574 76.4672C569.979 76.4672 571.222 76.7264 572.304 77.2447C573.393 77.7555 574.261 78.4804 574.907 79.4194C575.553 80.3509 575.921 81.4401 576.011 82.6871H572.112C571.955 81.8533 571.579 81.1584 570.986 80.6025C570.4 80.0391 569.615 79.7575 568.631 79.7575C567.797 79.7575 567.064 79.9828 566.433 80.4335C565.802 80.8767 565.31 81.5152 564.957 82.3491C564.612 83.1829 564.439 84.182 564.439 85.3463C564.439 86.5257 564.612 87.5398 564.957 88.3886C565.303 89.2299 565.787 89.8797 566.411 90.338C567.042 90.7887 567.782 91.014 568.631 91.014C569.232 91.014 569.769 90.9013 570.242 90.676C570.723 90.4431 571.124 90.1088 571.448 89.6732C571.771 89.2375 571.992 88.7079 572.112 88.0844H576.011C575.913 89.3088 575.553 90.3943 574.929 91.3408C574.306 92.2798 573.457 93.0159 572.383 93.5493C571.309 94.0751 570.047 94.338 568.597 94.338ZM586.593 94.338C584.902 94.338 583.438 93.9662 582.198 93.2225C580.959 92.4788 579.997 91.4384 579.313 90.1013C578.637 88.7642 578.299 87.2017 578.299 85.4139C578.299 83.6261 578.637 82.0598 579.313 80.7152C579.997 79.3706 580.959 78.3264 582.198 77.5828C583.438 76.8391 584.902 76.4672 586.593 76.4672C588.283 76.4672 589.747 76.8391 590.987 77.5828C592.226 78.3264 593.184 79.3706 593.86 80.7152C594.544 82.0598 594.886 83.6261 594.886 85.4139C594.886 87.2017 594.544 88.7642 593.86 90.1013C593.184 91.4384 592.226 92.4788 590.987 93.2225C589.747 93.9662 588.283 94.338 586.593 94.338ZM586.615 91.0704C587.531 91.0704 588.298 90.8187 588.914 90.3154C589.53 89.8046 589.988 89.121 590.288 88.2647C590.596 87.4083 590.75 86.4543 590.75 85.4026C590.75 84.3435 590.596 83.3857 590.288 82.5293C589.988 81.6655 589.53 80.9781 588.914 80.4673C588.298 79.9565 587.531 79.7011 586.615 79.7011C585.676 79.7011 584.895 79.9565 584.271 80.4673C583.655 80.9781 583.193 81.6655 582.885 82.5293C582.585 83.3857 582.435 84.3435 582.435 85.4026C582.435 86.4543 582.585 87.4083 582.885 88.2647C583.193 89.121 583.655 89.8046 584.271 90.3154C584.895 90.8187 585.676 91.0704 586.615 91.0704ZM602.109 70.9235V94H598.03V70.9235H602.109ZM610.978 70.9235L610.606 87.2168H606.978L606.617 70.9235H610.978ZM608.792 94.2479C608.109 94.2479 607.523 94.0075 607.034 93.5268C606.554 93.046 606.313 92.4601 606.313 91.769C606.313 91.0929 606.554 90.5145 607.034 90.0337C607.523 89.553 608.109 89.3126 608.792 89.3126C609.461 89.3126 610.039 89.553 610.527 90.0337C611.023 90.5145 611.271 91.0929 611.271 91.769C611.271 92.2272 611.155 92.6441 610.922 93.0197C610.696 93.3953 610.396 93.6958 610.02 93.9211C609.652 94.139 609.243 94.2479 608.792 94.2479Z" fill="#D8FDF0"/>
<path d="M101.864 113.776H104.128L107.578 119.779H107.719L111.169 113.776H113.433L108.642 121.798V126.982H106.656V121.798L101.864 113.776ZM117.518 127.182C116.59 127.182 115.779 126.969 115.087 126.543C114.395 126.118 113.858 125.522 113.475 124.757C113.093 123.992 112.901 123.098 112.901 122.075C112.901 121.047 113.093 120.149 113.475 119.379C113.858 118.61 114.395 118.012 115.087 117.587C115.779 117.161 116.59 116.948 117.518 116.948C118.447 116.948 119.257 117.161 119.949 117.587C120.641 118.012 121.179 118.61 121.561 119.379C121.944 120.149 122.135 121.047 122.135 122.075C122.135 123.098 121.944 123.992 121.561 124.757C121.179 125.522 120.641 126.118 119.949 126.543C119.257 126.969 118.447 127.182 117.518 127.182ZM117.525 125.563C118.126 125.563 118.625 125.404 119.021 125.086C119.416 124.768 119.708 124.345 119.898 123.816C120.091 123.287 120.188 122.705 120.188 122.068C120.188 121.436 120.091 120.856 119.898 120.327C119.708 119.794 119.416 119.367 119.021 119.044C118.625 118.722 118.126 118.561 117.525 118.561C116.918 118.561 116.415 118.722 116.016 119.044C115.62 119.367 115.326 119.794 115.132 120.327C114.943 120.856 114.849 121.436 114.849 122.068C114.849 122.705 114.943 123.287 115.132 123.816C115.326 124.345 115.62 124.768 116.016 125.086C116.415 125.404 116.918 125.563 117.525 125.563ZM130.38 122.874V117.077H132.314V126.982H130.418V125.267H130.315C130.087 125.795 129.722 126.236 129.219 126.589C128.72 126.937 128.099 127.111 127.356 127.111C126.719 127.111 126.156 126.971 125.666 126.692C125.18 126.408 124.798 125.989 124.518 125.434C124.243 124.88 124.106 124.194 124.106 123.377V117.077H126.034V123.145C126.034 123.82 126.221 124.358 126.595 124.757C126.969 125.157 127.454 125.357 128.052 125.357C128.413 125.357 128.772 125.267 129.129 125.086C129.49 124.906 129.789 124.633 130.025 124.267C130.266 123.902 130.384 123.438 130.38 122.874ZM134.723 126.982V117.077H136.587V118.651H136.69C136.87 118.118 137.189 117.699 137.644 117.393C138.104 117.084 138.624 116.929 139.205 116.929C139.325 116.929 139.467 116.933 139.63 116.942C139.798 116.951 139.929 116.961 140.024 116.974V118.818C139.946 118.797 139.809 118.773 139.611 118.748C139.413 118.717 139.215 118.702 139.018 118.702C138.562 118.702 138.156 118.799 137.799 118.993C137.447 119.182 137.167 119.446 136.961 119.786C136.754 120.121 136.651 120.504 136.651 120.933V126.982H134.723ZM150.287 130.902C149.501 130.902 148.823 130.799 148.256 130.593C147.693 130.387 147.233 130.114 146.876 129.774C146.519 129.434 146.253 129.063 146.076 128.658L147.734 127.975C147.85 128.164 148.005 128.364 148.198 128.575C148.396 128.79 148.662 128.972 148.998 129.123C149.337 129.273 149.773 129.348 150.307 129.348C151.037 129.348 151.641 129.17 152.118 128.813C152.596 128.461 152.834 127.898 152.834 127.124V125.176H152.712C152.596 125.387 152.428 125.621 152.209 125.879C151.994 126.137 151.697 126.361 151.319 126.55C150.941 126.739 150.448 126.834 149.842 126.834C149.06 126.834 148.355 126.651 147.727 126.286C147.104 125.916 146.61 125.372 146.244 124.654C145.883 123.932 145.702 123.044 145.702 121.991C145.702 120.938 145.881 120.035 146.238 119.283C146.599 118.53 147.093 117.954 147.721 117.555C148.348 117.151 149.06 116.948 149.855 116.948C150.47 116.948 150.966 117.052 151.345 117.258C151.723 117.46 152.017 117.696 152.228 117.967C152.443 118.238 152.609 118.477 152.725 118.683H152.866V117.077H154.756V127.201C154.756 128.052 154.558 128.751 154.163 129.297C153.767 129.843 153.232 130.247 152.557 130.509C151.886 130.771 151.13 130.902 150.287 130.902ZM150.268 125.234C150.822 125.234 151.291 125.105 151.674 124.848C152.06 124.585 152.353 124.211 152.551 123.726C152.753 123.236 152.854 122.649 152.854 121.965C152.854 121.299 152.755 120.712 152.557 120.205C152.359 119.698 152.069 119.302 151.686 119.018C151.304 118.73 150.831 118.586 150.268 118.586C149.688 118.586 149.204 118.737 148.817 119.038C148.43 119.334 148.138 119.738 147.94 120.25C147.747 120.762 147.65 121.333 147.65 121.965C147.65 122.614 147.749 123.184 147.946 123.674C148.144 124.164 148.437 124.547 148.823 124.822C149.215 125.097 149.696 125.234 150.268 125.234ZM160.042 127.201C159.415 127.201 158.847 127.085 158.34 126.853C157.833 126.617 157.431 126.275 157.134 125.828C156.842 125.381 156.696 124.833 156.696 124.183C156.696 123.625 156.803 123.165 157.018 122.803C157.233 122.442 157.523 122.157 157.889 121.946C158.254 121.735 158.662 121.576 159.114 121.469C159.565 121.361 160.025 121.28 160.494 121.224C161.087 121.155 161.568 121.099 161.938 121.056C162.308 121.009 162.577 120.933 162.744 120.83C162.912 120.727 162.996 120.559 162.996 120.327V120.282C162.996 119.719 162.837 119.283 162.518 118.973C162.205 118.664 161.736 118.509 161.113 118.509C160.464 118.509 159.952 118.653 159.578 118.941C159.208 119.225 158.953 119.541 158.811 119.889L156.999 119.476C157.214 118.874 157.528 118.389 157.94 118.019C158.357 117.645 158.837 117.374 159.378 117.206C159.92 117.034 160.489 116.948 161.087 116.948C161.482 116.948 161.902 116.996 162.344 117.09C162.791 117.181 163.208 117.348 163.595 117.593C163.987 117.838 164.307 118.189 164.556 118.644C164.805 119.096 164.93 119.683 164.93 120.405V126.982H163.047V125.628H162.97C162.845 125.877 162.658 126.122 162.409 126.363C162.16 126.604 161.839 126.804 161.448 126.963C161.057 127.122 160.588 127.201 160.042 127.201ZM160.461 125.654C160.995 125.654 161.45 125.548 161.829 125.338C162.211 125.127 162.501 124.852 162.699 124.512C162.901 124.168 163.002 123.801 163.002 123.41V122.133C162.933 122.202 162.8 122.266 162.602 122.326C162.409 122.382 162.187 122.432 161.938 122.475C161.689 122.513 161.446 122.55 161.209 122.584C160.973 122.614 160.775 122.64 160.616 122.662C160.242 122.709 159.9 122.788 159.591 122.9C159.286 123.012 159.041 123.173 158.856 123.384C158.675 123.59 158.585 123.865 158.585 124.209C158.585 124.686 158.761 125.047 159.114 125.292C159.466 125.533 159.916 125.654 160.461 125.654ZM171.94 117.077V118.625H166.53V117.077H171.94ZM167.981 114.704H169.909V124.074C169.909 124.448 169.965 124.729 170.076 124.918C170.188 125.103 170.332 125.23 170.508 125.299C170.689 125.363 170.885 125.396 171.095 125.396C171.25 125.396 171.385 125.385 171.501 125.363C171.618 125.342 171.708 125.325 171.772 125.312L172.12 126.905C172.009 126.948 171.85 126.991 171.643 127.034C171.437 127.081 171.179 127.107 170.87 127.111C170.362 127.119 169.889 127.029 169.451 126.84C169.012 126.651 168.658 126.359 168.387 125.963C168.116 125.568 167.981 125.071 167.981 124.474V114.704ZM178.053 127.182C177.078 127.182 176.237 126.973 175.532 126.556C174.831 126.135 174.29 125.544 173.907 124.783C173.529 124.018 173.34 123.122 173.34 122.094C173.34 121.08 173.529 120.185 173.907 119.412C174.29 118.638 174.823 118.034 175.506 117.6C176.194 117.166 176.998 116.948 177.918 116.948C178.477 116.948 179.019 117.041 179.543 117.226C180.067 117.411 180.538 117.701 180.955 118.096C181.372 118.492 181.701 119.005 181.942 119.637C182.182 120.265 182.303 121.028 182.303 121.927V122.61H174.43V121.166H180.413C180.413 120.658 180.31 120.209 180.104 119.818C179.898 119.422 179.607 119.111 179.233 118.883C178.864 118.655 178.43 118.541 177.931 118.541C177.389 118.541 176.916 118.674 176.512 118.941C176.113 119.203 175.803 119.547 175.584 119.973C175.369 120.394 175.261 120.852 175.261 121.346V122.475C175.261 123.137 175.377 123.7 175.61 124.164C175.846 124.628 176.175 124.983 176.596 125.228C177.017 125.469 177.51 125.589 178.073 125.589C178.438 125.589 178.771 125.538 179.072 125.434C179.373 125.327 179.633 125.168 179.852 124.957C180.072 124.747 180.239 124.486 180.355 124.177L182.18 124.506C182.034 125.043 181.772 125.514 181.394 125.918C181.02 126.318 180.549 126.629 179.981 126.853C179.418 127.072 178.776 127.182 178.053 127.182ZM186.39 126.982L183.475 117.077H185.468L187.409 124.351H187.506L189.453 117.077H191.445L193.38 124.319H193.477L195.405 117.077H197.397L194.489 126.982H192.522L190.51 119.831H190.362L188.35 126.982H186.39ZM201.928 127.201C201.3 127.201 200.733 127.085 200.225 126.853C199.718 126.617 199.316 126.275 199.019 125.828C198.727 125.381 198.581 124.833 198.581 124.183C198.581 123.625 198.688 123.165 198.903 122.803C199.118 122.442 199.408 122.157 199.774 121.946C200.139 121.735 200.548 121.576 200.999 121.469C201.45 121.361 201.91 121.28 202.379 121.224C202.972 121.155 203.454 121.099 203.823 121.056C204.193 121.009 204.462 120.933 204.629 120.83C204.797 120.727 204.881 120.559 204.881 120.327V120.282C204.881 119.719 204.722 119.283 204.404 118.973C204.09 118.664 203.621 118.509 202.998 118.509C202.349 118.509 201.837 118.653 201.463 118.941C201.094 119.225 200.838 119.541 200.696 119.889L198.884 119.476C199.099 118.874 199.413 118.389 199.825 118.019C200.242 117.645 200.722 117.374 201.263 117.206C201.805 117.034 202.375 116.948 202.972 116.948C203.368 116.948 203.787 116.996 204.23 117.09C204.677 117.181 205.094 117.348 205.481 117.593C205.872 117.838 206.192 118.189 206.441 118.644C206.691 119.096 206.815 119.683 206.815 120.405V126.982H204.932V125.628H204.855C204.73 125.877 204.543 126.122 204.294 126.363C204.045 126.604 203.724 126.804 203.333 126.963C202.942 127.122 202.474 127.201 201.928 127.201ZM202.347 125.654C202.88 125.654 203.335 125.548 203.714 125.338C204.096 125.127 204.387 124.852 204.584 124.512C204.786 124.168 204.887 123.801 204.887 123.41V122.133C204.819 122.202 204.685 122.266 204.488 122.326C204.294 122.382 204.073 122.432 203.823 122.475C203.574 122.513 203.331 122.55 203.095 122.584C202.858 122.614 202.661 122.64 202.501 122.662C202.127 122.709 201.786 122.788 201.476 122.9C201.171 123.012 200.926 123.173 200.741 123.384C200.561 123.59 200.47 123.865 200.47 124.209C200.47 124.686 200.647 125.047 200.999 125.292C201.352 125.533 201.801 125.654 202.347 125.654ZM210.066 130.696C209.778 130.696 209.516 130.672 209.279 130.625C209.043 130.582 208.866 130.535 208.75 130.483L209.215 128.904C209.567 128.998 209.881 129.039 210.156 129.026C210.431 129.013 210.674 128.91 210.885 128.717C211.1 128.523 211.289 128.207 211.452 127.769L211.691 127.111L208.067 117.077H210.13L212.639 124.764H212.742L215.25 117.077H217.32L213.238 128.304C213.049 128.82 212.808 129.256 212.516 129.613C212.224 129.974 211.876 130.245 211.472 130.425C211.067 130.606 210.599 130.696 210.066 130.696ZM228.198 117.077V118.625H222.788V117.077H228.198ZM224.239 114.704H226.167V124.074C226.167 124.448 226.223 124.729 226.334 124.918C226.446 125.103 226.59 125.23 226.766 125.299C226.947 125.363 227.142 125.396 227.353 125.396C227.508 125.396 227.643 125.385 227.759 125.363C227.875 125.342 227.966 125.325 228.03 125.312L228.378 126.905C228.267 126.948 228.108 126.991 227.901 127.034C227.695 127.081 227.437 127.107 227.127 127.111C226.62 127.119 226.147 127.029 225.709 126.84C225.27 126.651 224.916 126.359 224.645 125.963C224.374 125.568 224.239 125.071 224.239 124.474V114.704ZM234.215 127.182C233.286 127.182 232.476 126.969 231.784 126.543C231.092 126.118 230.554 125.522 230.172 124.757C229.789 123.992 229.598 123.098 229.598 122.075C229.598 121.047 229.789 120.149 230.172 119.379C230.554 118.61 231.092 118.012 231.784 117.587C232.476 117.161 233.286 116.948 234.215 116.948C235.143 116.948 235.954 117.161 236.646 117.587C237.338 118.012 237.875 118.61 238.258 119.379C238.64 120.149 238.832 121.047 238.832 122.075C238.832 123.098 238.64 123.992 238.258 124.757C237.875 125.522 237.338 126.118 236.646 126.543C235.954 126.969 235.143 127.182 234.215 127.182ZM234.221 125.563C234.823 125.563 235.322 125.404 235.717 125.086C236.113 124.768 236.405 124.345 236.594 123.816C236.787 123.287 236.884 122.705 236.884 122.068C236.884 121.436 236.787 120.856 236.594 120.327C236.405 119.794 236.113 119.367 235.717 119.044C235.322 118.722 234.823 118.561 234.221 118.561C233.615 118.561 233.112 118.722 232.712 119.044C232.317 119.367 232.022 119.794 231.829 120.327C231.64 120.856 231.545 121.436 231.545 122.068C231.545 122.705 231.64 123.287 231.829 123.816C232.022 124.345 232.317 124.768 232.712 125.086C233.112 125.404 233.615 125.563 234.221 125.563ZM252.848 119.496L251.101 119.805C251.027 119.582 250.911 119.369 250.752 119.167C250.598 118.965 250.387 118.799 250.12 118.67C249.854 118.541 249.521 118.477 249.121 118.477C248.575 118.477 248.119 118.599 247.754 118.844C247.388 119.085 247.206 119.397 247.206 119.779C247.206 120.11 247.328 120.377 247.573 120.579C247.818 120.781 248.214 120.946 248.76 121.075L250.333 121.436C251.245 121.647 251.924 121.972 252.371 122.41C252.818 122.849 253.041 123.418 253.041 124.119C253.041 124.712 252.869 125.241 252.526 125.705C252.186 126.165 251.711 126.526 251.101 126.788C250.494 127.051 249.792 127.182 248.992 127.182C247.883 127.182 246.978 126.945 246.277 126.473C245.577 125.995 245.147 125.318 244.988 124.441L246.851 124.158C246.967 124.643 247.206 125.011 247.567 125.26C247.928 125.505 248.399 125.628 248.979 125.628C249.611 125.628 250.116 125.497 250.494 125.234C250.873 124.968 251.062 124.643 251.062 124.261C251.062 123.951 250.946 123.691 250.714 123.481C250.486 123.27 250.135 123.111 249.663 123.003L247.986 122.636C247.062 122.425 246.378 122.09 245.935 121.63C245.497 121.17 245.278 120.587 245.278 119.882C245.278 119.298 245.441 118.786 245.768 118.348C246.095 117.909 246.546 117.568 247.122 117.322C247.698 117.073 248.358 116.948 249.102 116.948C250.172 116.948 251.015 117.181 251.629 117.645C252.244 118.105 252.65 118.722 252.848 119.496ZM254.98 126.982V117.077H256.83V118.689H256.953C257.159 118.144 257.497 117.718 257.965 117.413C258.434 117.103 258.995 116.948 259.648 116.948C260.31 116.948 260.865 117.103 261.312 117.413C261.763 117.722 262.096 118.148 262.311 118.689H262.415C262.651 118.161 263.027 117.739 263.543 117.426C264.059 117.108 264.674 116.948 265.387 116.948C266.286 116.948 267.019 117.23 267.586 117.793C268.158 118.356 268.444 119.205 268.444 120.34V126.982H266.516V120.521C266.516 119.85 266.333 119.364 265.967 119.063C265.602 118.763 265.166 118.612 264.658 118.612C264.031 118.612 263.543 118.806 263.195 119.192C262.847 119.575 262.672 120.067 262.672 120.669V126.982H260.751V120.398C260.751 119.861 260.583 119.429 260.248 119.102C259.913 118.775 259.476 118.612 258.939 118.612C258.574 118.612 258.236 118.709 257.927 118.902C257.621 119.091 257.374 119.356 257.185 119.695C257 120.035 256.908 120.428 256.908 120.875V126.982H254.98ZM273.729 127.201C273.101 127.201 272.533 127.085 272.026 126.853C271.519 126.617 271.117 126.275 270.82 125.828C270.528 125.381 270.382 124.833 270.382 124.183C270.382 123.625 270.489 123.165 270.704 122.803C270.919 122.442 271.209 122.157 271.575 121.946C271.94 121.735 272.349 121.576 272.8 121.469C273.251 121.361 273.711 121.28 274.18 121.224C274.773 121.155 275.255 121.099 275.624 121.056C275.994 121.009 276.263 120.933 276.43 120.83C276.598 120.727 276.682 120.559 276.682 120.327V120.282C276.682 119.719 276.523 119.283 276.205 118.973C275.891 118.664 275.422 118.509 274.799 118.509C274.15 118.509 273.638 118.653 273.264 118.941C272.895 119.225 272.639 119.541 272.497 119.889L270.685 119.476C270.9 118.874 271.214 118.389 271.626 118.019C272.043 117.645 272.523 117.374 273.064 117.206C273.606 117.034 274.176 116.948 274.773 116.948C275.169 116.948 275.588 116.996 276.031 117.09C276.478 117.181 276.895 117.348 277.282 117.593C277.673 117.838 277.993 118.189 278.242 118.644C278.492 119.096 278.616 119.683 278.616 120.405V126.982H276.733V125.628H276.656C276.531 125.877 276.344 126.122 276.095 126.363C275.846 126.604 275.525 126.804 275.134 126.963C274.743 127.122 274.274 127.201 273.729 127.201ZM274.148 125.654C274.681 125.654 275.136 125.548 275.515 125.338C275.897 125.127 276.187 124.852 276.385 124.512C276.587 124.168 276.688 123.801 276.688 123.41V122.133C276.619 122.202 276.486 122.266 276.288 122.326C276.095 122.382 275.874 122.432 275.624 122.475C275.375 122.513 275.132 122.55 274.896 122.584C274.659 122.614 274.461 122.64 274.302 122.662C273.928 122.709 273.587 122.788 273.277 122.9C272.972 123.012 272.727 123.173 272.542 123.384C272.361 123.59 272.271 123.865 272.271 124.209C272.271 124.686 272.447 125.047 272.8 125.292C273.152 125.533 273.602 125.654 274.148 125.654ZM281.003 126.982V117.077H282.866V118.651H282.969C283.15 118.118 283.468 117.699 283.924 117.393C284.384 117.084 284.904 116.929 285.484 116.929C285.605 116.929 285.746 116.933 285.91 116.942C286.077 116.951 286.209 116.961 286.303 116.974V118.818C286.226 118.797 286.088 118.773 285.89 118.748C285.693 118.717 285.495 118.702 285.297 118.702C284.842 118.702 284.435 118.799 284.079 118.993C283.726 119.182 283.447 119.446 283.24 119.786C283.034 120.121 282.931 120.504 282.931 120.933V126.982H281.003ZM292.999 117.077V118.625H287.589V117.077H292.999ZM289.039 114.704H290.967V124.074C290.967 124.448 291.023 124.729 291.135 124.918C291.247 125.103 291.391 125.23 291.567 125.299C291.748 125.363 291.943 125.396 292.154 125.396C292.309 125.396 292.444 125.385 292.56 125.363C292.676 125.342 292.766 125.325 292.831 125.312L293.179 126.905C293.067 126.948 292.908 126.991 292.702 127.034C292.496 127.081 292.238 127.107 291.928 127.111C291.421 127.119 290.948 127.029 290.51 126.84C290.071 126.651 289.716 126.359 289.446 125.963C289.175 125.568 289.039 125.071 289.039 124.474V114.704ZM299.112 127.182C298.136 127.182 297.296 126.973 296.591 126.556C295.89 126.135 295.349 125.544 294.966 124.783C294.588 124.018 294.398 123.122 294.398 122.094C294.398 121.08 294.588 120.185 294.966 119.412C295.349 118.638 295.882 118.034 296.565 117.6C297.253 117.166 298.057 116.948 298.977 116.948C299.536 116.948 300.077 117.041 300.602 117.226C301.126 117.411 301.597 117.701 302.014 118.096C302.431 118.492 302.76 119.005 303 119.637C303.241 120.265 303.362 121.028 303.362 121.927V122.61H295.488V121.166H301.472C301.472 120.658 301.369 120.209 301.163 119.818C300.956 119.422 300.666 119.111 300.292 118.883C299.922 118.655 299.488 118.541 298.99 118.541C298.448 118.541 297.975 118.674 297.571 118.941C297.171 119.203 296.862 119.547 296.642 119.973C296.428 120.394 296.32 120.852 296.32 121.346V122.475C296.32 123.137 296.436 123.7 296.668 124.164C296.905 124.628 297.234 124.983 297.655 125.228C298.076 125.469 298.568 125.589 299.131 125.589C299.497 125.589 299.83 125.538 300.131 125.434C300.432 125.327 300.692 125.168 300.911 124.957C301.13 124.747 301.298 124.486 301.414 124.177L303.239 124.506C303.093 125.043 302.831 125.514 302.452 125.918C302.078 126.318 301.608 126.629 301.04 126.853C300.477 127.072 299.834 127.182 299.112 127.182ZM305.319 126.982V117.077H307.183V118.651H307.286C307.466 118.118 307.785 117.699 308.24 117.393C308.7 117.084 309.22 116.929 309.801 116.929C309.921 116.929 310.063 116.933 310.226 116.942C310.394 116.951 310.525 116.961 310.62 116.974V118.818C310.542 118.797 310.405 118.773 310.207 118.748C310.009 118.717 309.811 118.702 309.614 118.702C309.158 118.702 308.752 118.799 308.395 118.993C308.042 119.182 307.763 119.446 307.557 119.786C307.35 120.121 307.247 120.504 307.247 120.933V126.982H305.319ZM324.152 119.496L322.405 119.805C322.332 119.582 322.216 119.369 322.057 119.167C321.902 118.965 321.691 118.799 321.425 118.67C321.158 118.541 320.825 118.477 320.425 118.477C319.879 118.477 319.424 118.599 319.058 118.844C318.693 119.085 318.51 119.397 318.51 119.779C318.51 120.11 318.633 120.377 318.878 120.579C319.123 120.781 319.518 120.946 320.064 121.075L321.638 121.436C322.549 121.647 323.228 121.972 323.675 122.41C324.122 122.849 324.346 123.418 324.346 124.119C324.346 124.712 324.174 125.241 323.83 125.705C323.49 126.165 323.015 126.526 322.405 126.788C321.799 127.051 321.096 127.182 320.296 127.182C319.187 127.182 318.282 126.945 317.582 126.473C316.881 125.995 316.451 125.318 316.292 124.441L318.156 124.158C318.272 124.643 318.51 125.011 318.871 125.26C319.232 125.505 319.703 125.628 320.283 125.628C320.915 125.628 321.42 125.497 321.799 125.234C322.177 124.968 322.366 124.643 322.366 124.261C322.366 123.951 322.25 123.691 322.018 123.481C321.79 123.27 321.44 123.111 320.967 123.003L319.29 122.636C318.366 122.425 317.683 122.09 317.24 121.63C316.801 121.17 316.582 120.587 316.582 119.882C316.582 119.298 316.746 118.786 317.072 118.348C317.399 117.909 317.85 117.568 318.426 117.322C319.002 117.073 319.662 116.948 320.406 116.948C321.476 116.948 322.319 117.181 322.934 117.645C323.548 118.105 323.955 118.722 324.152 119.496ZM330.908 117.077V118.625H325.497V117.077H330.908ZM326.948 114.704H328.876V124.074C328.876 124.448 328.932 124.729 329.044 124.918C329.156 125.103 329.3 125.23 329.476 125.299C329.657 125.363 329.852 125.396 330.063 125.396C330.218 125.396 330.353 125.385 330.469 125.363C330.585 125.342 330.675 125.325 330.74 125.312L331.088 126.905C330.976 126.948 330.817 126.991 330.611 127.034C330.405 127.081 330.147 127.107 329.837 127.111C329.33 127.119 328.857 127.029 328.418 126.84C327.98 126.651 327.625 126.359 327.355 125.963C327.084 125.568 326.948 125.071 326.948 124.474V114.704ZM335.741 127.201C335.113 127.201 334.546 127.085 334.039 126.853C333.531 126.617 333.129 126.275 332.833 125.828C332.541 125.381 332.394 124.833 332.394 124.183C332.394 123.625 332.502 123.165 332.717 122.803C332.932 122.442 333.222 122.157 333.587 121.946C333.953 121.735 334.361 121.576 334.812 121.469C335.264 121.361 335.724 121.28 336.192 121.224C336.786 121.155 337.267 121.099 337.637 121.056C338.007 121.009 338.275 120.933 338.443 120.83C338.611 120.727 338.694 120.559 338.694 120.327V120.282C338.694 119.719 338.535 119.283 338.217 118.973C337.903 118.664 337.435 118.509 336.811 118.509C336.162 118.509 335.651 118.653 335.277 118.941C334.907 119.225 334.651 119.541 334.509 119.889L332.697 119.476C332.912 118.874 333.226 118.389 333.639 118.019C334.056 117.645 334.535 117.374 335.077 117.206C335.619 117.034 336.188 116.948 336.786 116.948C337.181 116.948 337.6 116.996 338.043 117.09C338.49 117.181 338.907 117.348 339.294 117.593C339.685 117.838 340.005 118.189 340.255 118.644C340.504 119.096 340.629 119.683 340.629 120.405V126.982H338.746V125.628H338.669C338.544 125.877 338.357 126.122 338.108 126.363C337.858 126.604 337.538 126.804 337.147 126.963C336.756 127.122 336.287 127.201 335.741 127.201ZM336.16 125.654C336.693 125.654 337.149 125.548 337.527 125.338C337.91 125.127 338.2 124.852 338.398 124.512C338.6 124.168 338.701 123.801 338.701 123.41V122.133C338.632 122.202 338.499 122.266 338.301 122.326C338.108 122.382 337.886 122.432 337.637 122.475C337.387 122.513 337.145 122.55 336.908 122.584C336.672 122.614 336.474 122.64 336.315 122.662C335.941 122.709 335.599 122.788 335.29 122.9C334.984 123.012 334.739 123.173 334.555 123.384C334.374 123.59 334.284 123.865 334.284 124.209C334.284 124.686 334.46 125.047 334.812 125.292C335.165 125.533 335.614 125.654 336.16 125.654ZM344.789 123.622L344.776 121.269H345.111L349.057 117.077H351.366L346.865 121.849H346.562L344.789 123.622ZM343.015 126.982V113.776H344.943V126.982H343.015ZM349.27 126.982L345.724 122.275L347.052 120.927L351.637 126.982H349.27ZM352.941 126.982V117.077H354.869V126.982H352.941ZM353.915 115.549C353.58 115.549 353.292 115.437 353.051 115.214C352.814 114.986 352.696 114.715 352.696 114.401C352.696 114.083 352.814 113.812 353.051 113.589C353.292 113.361 353.58 113.247 353.915 113.247C354.25 113.247 354.536 113.361 354.773 113.589C355.013 113.812 355.134 114.083 355.134 114.401C355.134 114.715 355.013 114.986 354.773 115.214C354.536 115.437 354.25 115.549 353.915 115.549ZM359.21 121.101V126.982H357.282V117.077H359.132V118.689H359.255C359.483 118.165 359.839 117.744 360.325 117.426C360.815 117.108 361.432 116.948 362.176 116.948C362.851 116.948 363.442 117.09 363.949 117.374C364.456 117.653 364.85 118.07 365.129 118.625C365.408 119.18 365.548 119.865 365.548 120.682V126.982H363.62V120.914C363.62 120.196 363.433 119.635 363.059 119.231C362.685 118.823 362.171 118.619 361.518 118.619C361.071 118.619 360.673 118.715 360.325 118.909C359.981 119.102 359.708 119.386 359.506 119.76C359.308 120.13 359.21 120.577 359.21 121.101ZM372.105 130.902C371.318 130.902 370.641 130.799 370.074 130.593C369.511 130.387 369.051 130.114 368.694 129.774C368.337 129.434 368.071 129.063 367.894 128.658L369.551 127.975C369.668 128.164 369.822 128.364 370.016 128.575C370.213 128.79 370.48 128.972 370.815 129.123C371.155 129.273 371.591 129.348 372.124 129.348C372.855 129.348 373.459 129.17 373.936 128.813C374.413 128.461 374.652 127.898 374.652 127.124V125.176H374.53C374.413 125.387 374.246 125.621 374.027 125.879C373.812 126.137 373.515 126.361 373.137 126.55C372.758 126.739 372.266 126.834 371.66 126.834C370.878 126.834 370.173 126.651 369.545 126.286C368.922 125.916 368.427 125.372 368.062 124.654C367.701 123.932 367.52 123.044 367.52 121.991C367.52 120.938 367.699 120.035 368.055 119.283C368.417 118.53 368.911 117.954 369.539 117.555C370.166 117.151 370.878 116.948 371.673 116.948C372.288 116.948 372.784 117.052 373.162 117.258C373.541 117.46 373.835 117.696 374.046 117.967C374.261 118.238 374.426 118.477 374.542 118.683H374.684V117.077H376.574V127.201C376.574 128.052 376.376 128.751 375.98 129.297C375.585 129.843 375.05 130.247 374.375 130.509C373.704 130.771 372.948 130.902 372.105 130.902ZM372.086 125.234C372.64 125.234 373.109 125.105 373.491 124.848C373.878 124.585 374.171 124.211 374.368 123.726C374.57 123.236 374.671 122.649 374.671 121.965C374.671 121.299 374.573 120.712 374.375 120.205C374.177 119.698 373.887 119.302 373.504 119.018C373.122 118.73 372.649 118.586 372.086 118.586C371.505 118.586 371.022 118.737 370.635 119.038C370.248 119.334 369.956 119.738 369.758 120.25C369.564 120.762 369.468 121.333 369.468 121.965C369.468 122.614 369.567 123.184 369.764 123.674C369.962 124.164 370.254 124.547 370.641 124.822C371.032 125.097 371.514 125.234 372.086 125.234ZM386.484 127.201C385.856 127.201 385.289 127.085 384.782 126.853C384.274 126.617 383.873 126.275 383.576 125.828C383.284 125.381 383.137 124.833 383.137 124.183C383.137 123.625 383.245 123.165 383.46 122.803C383.675 122.442 383.965 122.157 384.33 121.946C384.696 121.735 385.104 121.576 385.556 121.469C386.007 121.361 386.467 121.28 386.935 121.224C387.529 121.155 388.01 121.099 388.38 121.056C388.75 121.009 389.018 120.933 389.186 120.83C389.354 120.727 389.437 120.559 389.437 120.327V120.282C389.437 119.719 389.278 119.283 388.96 118.973C388.646 118.664 388.178 118.509 387.554 118.509C386.905 118.509 386.394 118.653 386.02 118.941C385.65 119.225 385.394 119.541 385.252 119.889L383.441 119.476C383.655 118.874 383.969 118.389 384.382 118.019C384.799 117.645 385.278 117.374 385.82 117.206C386.362 117.034 386.931 116.948 387.529 116.948C387.924 116.948 388.343 116.996 388.786 117.09C389.233 117.181 389.65 117.348 390.037 117.593C390.428 117.838 390.749 118.189 390.998 118.644C391.247 119.096 391.372 119.683 391.372 120.405V126.982H389.489V125.628H389.412C389.287 125.877 389.1 126.122 388.851 126.363C388.601 126.604 388.281 126.804 387.89 126.963C387.499 127.122 387.03 127.201 386.484 127.201ZM386.903 125.654C387.436 125.654 387.892 125.548 388.27 125.338C388.653 125.127 388.943 124.852 389.141 124.512C389.343 124.168 389.444 123.801 389.444 123.41V122.133C389.375 122.202 389.242 122.266 389.044 122.326C388.851 122.382 388.629 122.432 388.38 122.475C388.131 122.513 387.888 122.55 387.651 122.584C387.415 122.614 387.217 122.64 387.058 122.662C386.684 122.709 386.342 122.788 386.033 122.9C385.727 123.012 385.482 123.173 385.298 123.384C385.117 123.59 385.027 123.865 385.027 124.209C385.027 124.686 385.203 125.047 385.556 125.292C385.908 125.533 386.357 125.654 386.903 125.654ZM395.686 121.101V126.982H393.758V117.077H395.609V118.689H395.731C395.959 118.165 396.316 117.744 396.802 117.426C397.292 117.108 397.909 116.948 398.652 116.948C399.327 116.948 399.919 117.09 400.426 117.374C400.933 117.653 401.326 118.07 401.606 118.625C401.885 119.18 402.025 119.865 402.025 120.682V126.982H400.097V120.914C400.097 120.196 399.91 119.635 399.536 119.231C399.162 118.823 398.648 118.619 397.995 118.619C397.548 118.619 397.15 118.715 396.802 118.909C396.458 119.102 396.185 119.386 395.983 119.76C395.785 120.13 395.686 120.577 395.686 121.101ZM408.137 127.175C407.337 127.175 406.624 126.971 405.996 126.563C405.373 126.15 404.883 125.563 404.526 124.802C404.173 124.037 403.997 123.119 403.997 122.049C403.997 120.979 404.175 120.063 404.532 119.302C404.893 118.541 405.388 117.959 406.015 117.555C406.643 117.151 407.354 116.948 408.15 116.948C408.764 116.948 409.259 117.052 409.633 117.258C410.011 117.46 410.303 117.696 410.51 117.967C410.72 118.238 410.884 118.477 411 118.683H411.116V113.776H413.044V126.982H411.161V125.441H411C410.884 125.651 410.716 125.892 410.497 126.163C410.282 126.434 409.985 126.67 409.607 126.872C409.229 127.074 408.739 127.175 408.137 127.175ZM408.562 125.531C409.117 125.531 409.586 125.385 409.968 125.093C410.355 124.796 410.647 124.385 410.845 123.861C411.047 123.337 411.148 122.726 411.148 122.03C411.148 121.342 411.049 120.74 410.852 120.224C410.654 119.708 410.364 119.306 409.981 119.018C409.598 118.73 409.126 118.586 408.562 118.586C407.982 118.586 407.498 118.737 407.112 119.038C406.725 119.339 406.432 119.749 406.235 120.269C406.041 120.789 405.944 121.376 405.944 122.03C405.944 122.692 406.043 123.287 406.241 123.816C406.439 124.345 406.731 124.764 407.118 125.073C407.509 125.378 407.991 125.531 408.562 125.531ZM424.391 130.902C423.604 130.902 422.927 130.799 422.36 130.593C421.796 130.387 421.336 130.114 420.98 129.774C420.623 129.434 420.356 129.063 420.18 128.658L421.837 127.975C421.953 128.164 422.108 128.364 422.302 128.575C422.499 128.79 422.766 128.972 423.101 129.123C423.441 129.273 423.877 129.348 424.41 129.348C425.141 129.348 425.745 129.17 426.222 128.813C426.699 128.461 426.938 127.898 426.938 127.124V125.176H426.815C426.699 125.387 426.532 125.621 426.312 125.879C426.097 126.137 425.801 126.361 425.422 126.55C425.044 126.739 424.552 126.834 423.946 126.834C423.163 126.834 422.458 126.651 421.831 126.286C421.207 125.916 420.713 125.372 420.348 124.654C419.987 123.932 419.806 123.044 419.806 121.991C419.806 120.938 419.984 120.035 420.341 119.283C420.702 118.53 421.197 117.954 421.824 117.555C422.452 117.151 423.163 116.948 423.959 116.948C424.573 116.948 425.07 117.052 425.448 117.258C425.827 117.46 426.121 117.696 426.332 117.967C426.547 118.238 426.712 118.477 426.828 118.683H426.97V117.077H428.859V127.201C428.859 128.052 428.662 128.751 428.266 129.297C427.871 129.843 427.335 130.247 426.661 130.509C425.99 130.771 425.233 130.902 424.391 130.902ZM424.371 125.234C424.926 125.234 425.395 125.105 425.777 124.848C426.164 124.585 426.456 124.211 426.654 123.726C426.856 123.236 426.957 122.649 426.957 121.965C426.957 121.299 426.858 120.712 426.661 120.205C426.463 119.698 426.173 119.302 425.79 119.018C425.407 118.73 424.935 118.586 424.371 118.586C423.791 118.586 423.307 118.737 422.921 119.038C422.534 119.334 422.241 119.738 422.044 120.25C421.85 120.762 421.753 121.333 421.753 121.965C421.753 122.614 421.852 123.184 422.05 123.674C422.248 124.164 422.54 124.547 422.927 124.822C423.318 125.097 423.8 125.234 424.371 125.234ZM431.264 126.982V117.077H433.127V118.651H433.23C433.411 118.118 433.729 117.699 434.185 117.393C434.645 117.084 435.165 116.929 435.745 116.929C435.865 116.929 436.007 116.933 436.171 116.942C436.338 116.951 436.469 116.961 436.564 116.974V118.818C436.487 118.797 436.349 118.773 436.151 118.748C435.954 118.717 435.756 118.702 435.558 118.702C435.102 118.702 434.696 118.799 434.339 118.993C433.987 119.182 433.707 119.446 433.501 119.786C433.295 120.121 433.192 120.504 433.192 120.933V126.982H431.264ZM441.965 127.182C440.989 127.182 440.149 126.973 439.444 126.556C438.743 126.135 438.201 125.544 437.819 124.783C437.44 124.018 437.251 123.122 437.251 122.094C437.251 121.08 437.44 120.185 437.819 119.412C438.201 118.638 438.734 118.034 439.418 117.6C440.106 117.166 440.91 116.948 441.83 116.948C442.388 116.948 442.93 117.041 443.455 117.226C443.979 117.411 444.45 117.701 444.867 118.096C445.284 118.492 445.613 119.005 445.853 119.637C446.094 120.265 446.214 121.028 446.214 121.927V122.61H438.341V121.166H444.325C444.325 120.658 444.222 120.209 444.016 119.818C443.809 119.422 443.519 119.111 443.145 118.883C442.775 118.655 442.341 118.541 441.842 118.541C441.301 118.541 440.828 118.674 440.424 118.941C440.024 119.203 439.715 119.547 439.495 119.973C439.28 120.394 439.173 120.852 439.173 121.346V122.475C439.173 123.137 439.289 123.7 439.521 124.164C439.758 124.628 440.086 124.983 440.508 125.228C440.929 125.469 441.421 125.589 441.984 125.589C442.35 125.589 442.683 125.538 442.984 125.434C443.285 125.327 443.545 125.168 443.764 124.957C443.983 124.747 444.151 124.486 444.267 124.177L446.092 124.506C445.946 125.043 445.683 125.514 445.305 125.918C444.931 126.318 444.46 126.629 443.893 126.853C443.33 127.072 442.687 127.182 441.965 127.182ZM451.054 127.201C450.427 127.201 449.859 127.085 449.352 126.853C448.845 126.617 448.443 126.275 448.146 125.828C447.854 125.381 447.708 124.833 447.708 124.183C447.708 123.625 447.815 123.165 448.03 122.803C448.245 122.442 448.535 122.157 448.901 121.946C449.266 121.735 449.674 121.576 450.126 121.469C450.577 121.361 451.037 121.28 451.506 121.224C452.099 121.155 452.58 121.099 452.95 121.056C453.32 121.009 453.589 120.933 453.756 120.83C453.924 120.727 454.008 120.559 454.008 120.327V120.282C454.008 119.719 453.849 119.283 453.53 118.973C453.217 118.664 452.748 118.509 452.125 118.509C451.476 118.509 450.964 118.653 450.59 118.941C450.22 119.225 449.965 119.541 449.823 119.889L448.011 119.476C448.226 118.874 448.54 118.389 448.952 118.019C449.369 117.645 449.849 117.374 450.39 117.206C450.932 117.034 451.501 116.948 452.099 116.948C452.494 116.948 452.914 116.996 453.356 117.09C453.803 117.181 454.22 117.348 454.607 117.593C454.999 117.838 455.319 118.189 455.568 118.644C455.817 119.096 455.942 119.683 455.942 120.405V126.982H454.059V125.628H453.982C453.857 125.877 453.67 126.122 453.421 126.363C453.172 126.604 452.851 126.804 452.46 126.963C452.069 127.122 451.6 127.201 451.054 127.201ZM451.474 125.654C452.007 125.654 452.462 125.548 452.841 125.338C453.223 125.127 453.513 124.852 453.711 124.512C453.913 124.168 454.014 123.801 454.014 123.41V122.133C453.945 122.202 453.812 122.266 453.614 122.326C453.421 122.382 453.199 122.432 452.95 122.475C452.701 122.513 452.458 122.55 452.222 122.584C451.985 122.614 451.787 122.64 451.628 122.662C451.254 122.709 450.913 122.788 450.603 122.9C450.298 123.012 450.053 123.173 449.868 123.384C449.687 123.59 449.597 123.865 449.597 124.209C449.597 124.686 449.773 125.047 450.126 125.292C450.478 125.533 450.928 125.654 451.474 125.654ZM462.952 117.077V118.625H457.542V117.077H462.952ZM458.993 114.704H460.921V124.074C460.921 124.448 460.977 124.729 461.088 124.918C461.2 125.103 461.344 125.23 461.52 125.299C461.701 125.363 461.897 125.396 462.107 125.396C462.262 125.396 462.397 125.385 462.513 125.363C462.63 125.342 462.72 125.325 462.784 125.312L463.133 126.905C463.021 126.948 462.862 126.991 462.655 127.034C462.449 127.081 462.191 127.107 461.882 127.111C461.374 127.119 460.901 127.029 460.463 126.84C460.024 126.651 459.67 126.359 459.399 125.963C459.128 125.568 458.993 125.071 458.993 124.474V114.704ZM469.065 127.182C468.09 127.182 467.249 126.973 466.544 126.556C465.844 126.135 465.302 125.544 464.919 124.783C464.541 124.018 464.352 123.122 464.352 122.094C464.352 121.08 464.541 120.185 464.919 119.412C465.302 118.638 465.835 118.034 466.518 117.6C467.206 117.166 468.01 116.948 468.93 116.948C469.489 116.948 470.031 117.041 470.555 117.226C471.079 117.411 471.55 117.701 471.967 118.096C472.384 118.492 472.713 119.005 472.954 119.637C473.194 120.265 473.315 121.028 473.315 121.927V122.61H465.442V121.166H471.426C471.426 120.658 471.322 120.209 471.116 119.818C470.91 119.422 470.619 119.111 470.245 118.883C469.876 118.655 469.442 118.541 468.943 118.541C468.401 118.541 467.928 118.674 467.524 118.941C467.125 119.203 466.815 119.547 466.596 119.973C466.381 120.394 466.273 120.852 466.273 121.346V122.475C466.273 123.137 466.389 123.7 466.622 124.164C466.858 124.628 467.187 124.983 467.608 125.228C468.029 125.469 468.522 125.589 469.085 125.589C469.45 125.589 469.783 125.538 470.084 125.434C470.385 125.327 470.645 125.168 470.865 124.957C471.084 124.747 471.251 124.486 471.367 124.177L473.192 124.506C473.046 125.043 472.784 125.514 472.406 125.918C472.032 126.318 471.561 126.629 470.993 126.853C470.43 127.072 469.788 127.182 469.065 127.182ZM475.272 126.982V117.077H477.136V118.651H477.239C477.42 118.118 477.738 117.699 478.194 117.393C478.654 117.084 479.174 116.929 479.754 116.929C479.874 116.929 480.016 116.933 480.18 116.942C480.347 116.951 480.478 116.961 480.573 116.974V118.818C480.496 118.797 480.358 118.773 480.16 118.748C479.962 118.717 479.765 118.702 479.567 118.702C479.111 118.702 478.705 118.799 478.348 118.993C477.996 119.182 477.716 119.446 477.51 119.786C477.304 120.121 477.2 120.504 477.2 120.933V126.982H475.272ZM487.903 130.696C487.614 130.696 487.352 130.672 487.116 130.625C486.879 130.582 486.703 130.535 486.587 130.483L487.051 128.904C487.404 128.998 487.718 129.039 487.993 129.026C488.268 129.013 488.511 128.91 488.721 128.717C488.936 128.523 489.126 128.207 489.289 127.769L489.527 127.111L485.904 117.077H487.967L490.475 124.764H490.579L493.087 117.077H495.157L491.075 128.304C490.886 128.82 490.645 129.256 490.353 129.613C490.061 129.974 489.712 130.245 489.308 130.425C488.904 130.606 488.436 130.696 487.903 130.696ZM496.787 126.982V117.077H498.715V126.982H496.787ZM497.761 115.549C497.426 115.549 497.138 115.437 496.897 115.214C496.66 114.986 496.542 114.715 496.542 114.401C496.542 114.083 496.66 113.812 496.897 113.589C497.138 113.361 497.426 113.247 497.761 113.247C498.096 113.247 498.382 113.361 498.618 113.589C498.859 113.812 498.98 114.083 498.98 114.401C498.98 114.715 498.859 114.986 498.618 115.214C498.382 115.437 498.096 115.549 497.761 115.549ZM505.396 127.182C504.42 127.182 503.58 126.973 502.875 126.556C502.174 126.135 501.633 125.544 501.25 124.783C500.872 124.018 500.682 123.122 500.682 122.094C500.682 121.08 500.872 120.185 501.25 119.412C501.633 118.638 502.166 118.034 502.849 117.6C503.537 117.166 504.341 116.948 505.261 116.948C505.82 116.948 506.361 117.041 506.886 117.226C507.41 117.411 507.881 117.701 508.298 118.096C508.715 118.492 509.044 119.005 509.284 119.637C509.525 120.265 509.646 121.028 509.646 121.927V122.61H501.772V121.166H507.756C507.756 120.658 507.653 120.209 507.447 119.818C507.24 119.422 506.95 119.111 506.576 118.883C506.206 118.655 505.772 118.541 505.274 118.541C504.732 118.541 504.259 118.674 503.855 118.941C503.455 119.203 503.146 119.547 502.926 119.973C502.712 120.394 502.604 120.852 502.604 121.346V122.475C502.604 123.137 502.72 123.7 502.952 124.164C503.189 124.628 503.518 124.983 503.939 125.228C504.36 125.469 504.852 125.589 505.415 125.589C505.781 125.589 506.114 125.538 506.415 125.434C506.716 125.327 506.976 125.168 507.195 124.957C507.414 124.747 507.582 124.486 507.698 124.177L509.523 124.506C509.377 125.043 509.115 125.514 508.736 125.918C508.362 126.318 507.892 126.629 507.324 126.853C506.761 127.072 506.118 127.182 505.396 127.182ZM513.531 113.776V126.982H511.603V113.776H513.531ZM519.651 127.175C518.852 127.175 518.138 126.971 517.51 126.563C516.887 126.15 516.397 125.563 516.04 124.802C515.688 124.037 515.511 123.119 515.511 122.049C515.511 120.979 515.69 120.063 516.047 119.302C516.408 118.541 516.902 117.959 517.53 117.555C518.157 117.151 518.869 116.948 519.664 116.948C520.279 116.948 520.773 117.052 521.147 117.258C521.525 117.46 521.818 117.696 522.024 117.967C522.235 118.238 522.398 118.477 522.514 118.683H522.63V113.776H524.558V126.982H522.675V125.441H522.514C522.398 125.651 522.23 125.892 522.011 126.163C521.796 126.434 521.5 126.67 521.121 126.872C520.743 127.074 520.253 127.175 519.651 127.175ZM520.077 125.531C520.631 125.531 521.1 125.385 521.482 125.093C521.869 124.796 522.162 124.385 522.359 123.861C522.561 123.337 522.662 122.726 522.662 122.03C522.662 121.342 522.564 120.74 522.366 120.224C522.168 119.708 521.878 119.306 521.495 119.018C521.113 118.73 520.64 118.586 520.077 118.586C519.496 118.586 519.013 118.737 518.626 119.038C518.239 119.339 517.947 119.749 517.749 120.269C517.555 120.789 517.459 121.376 517.459 122.03C517.459 122.692 517.558 123.287 517.755 123.816C517.953 124.345 518.245 124.764 518.632 125.073C519.023 125.378 519.505 125.531 520.077 125.531ZM534.55 119.496L532.803 119.805C532.73 119.582 532.614 119.369 532.455 119.167C532.3 118.965 532.089 118.799 531.823 118.67C531.556 118.541 531.223 118.477 530.823 118.477C530.277 118.477 529.822 118.599 529.456 118.844C529.091 119.085 528.908 119.397 528.908 119.779C528.908 120.11 529.031 120.377 529.276 120.579C529.521 120.781 529.916 120.946 530.462 121.075L532.036 121.436C532.947 121.647 533.626 121.972 534.073 122.41C534.52 122.849 534.744 123.418 534.744 124.119C534.744 124.712 534.572 125.241 534.228 125.705C533.888 126.165 533.413 126.526 532.803 126.788C532.197 127.051 531.494 127.182 530.694 127.182C529.585 127.182 528.68 126.945 527.98 126.473C527.279 125.995 526.849 125.318 526.69 124.441L528.553 124.158C528.67 124.643 528.908 125.011 529.269 125.26C529.63 125.505 530.101 125.628 530.681 125.628C531.313 125.628 531.818 125.497 532.197 125.234C532.575 124.968 532.764 124.643 532.764 124.261C532.764 123.951 532.648 123.691 532.416 123.481C532.188 123.27 531.838 123.111 531.365 123.003L529.688 122.636C528.764 122.425 528.081 122.09 527.638 121.63C527.199 121.17 526.98 120.587 526.98 119.882C526.98 119.298 527.143 118.786 527.47 118.348C527.797 117.909 528.248 117.568 528.824 117.322C529.4 117.073 530.06 116.948 530.804 116.948C531.874 116.948 532.717 117.181 533.332 117.645C533.946 118.105 534.353 118.722 534.55 119.496Z" fill="url(#paint1_linear_1285_1221)"/>
<rect x="670" y="45.991" width="128" height="56" rx="15.8875" fill="url(#paint2_linear_1285_1221)"/>
<path d="M701.472 71.0535C701.419 70.5573 701.195 70.1709 700.801 69.8944C700.411 69.6179 699.903 69.4796 699.278 69.4796C698.839 69.4796 698.462 69.5459 698.148 69.6785C697.833 69.811 697.593 69.991 697.426 70.2182C697.259 70.4455 697.174 70.705 697.17 70.9966C697.17 71.2391 697.225 71.4493 697.335 71.6273C697.449 71.8054 697.602 71.9569 697.795 72.0819C697.989 72.2031 698.203 72.3054 698.438 72.3887C698.672 72.472 698.909 72.5421 699.148 72.5989L700.239 72.8716C700.678 72.9739 701.1 73.1122 701.506 73.2864C701.915 73.4607 702.28 73.6804 702.602 73.9455C702.928 74.2107 703.186 74.5307 703.375 74.9057C703.564 75.2807 703.659 75.7201 703.659 76.2239C703.659 76.9057 703.485 77.5061 703.136 78.0251C702.788 78.5402 702.284 78.9436 701.625 79.2353C700.97 79.5232 700.176 79.6671 699.244 79.6671C698.339 79.6671 697.553 79.527 696.886 79.2466C696.223 78.9663 695.705 78.5573 695.33 78.0194C694.958 77.4815 694.758 76.8262 694.727 76.0535H696.801C696.831 76.4588 696.956 76.7959 697.176 77.0648C697.396 77.3338 697.682 77.5345 698.034 77.6671C698.39 77.7997 698.788 77.866 699.227 77.866C699.686 77.866 700.087 77.7978 700.432 77.6614C700.78 77.5213 701.053 77.3281 701.25 77.0819C701.447 76.8319 701.547 76.5402 701.551 76.2069C701.547 75.9038 701.458 75.6538 701.284 75.4569C701.11 75.2561 700.866 75.0895 700.551 74.9569C700.241 74.8205 699.877 74.6993 699.46 74.5932L698.136 74.2523C697.178 74.0061 696.42 73.633 695.864 73.133C695.311 72.6292 695.034 71.9607 695.034 71.1273C695.034 70.4417 695.22 69.8413 695.591 69.3262C695.966 68.811 696.475 68.4114 697.119 68.1273C697.763 67.8395 698.492 67.6955 699.307 67.6955C700.133 67.6955 700.856 67.8395 701.477 68.1273C702.102 68.4114 702.593 68.8073 702.949 69.3148C703.305 69.8186 703.489 70.3982 703.5 71.0535H701.472ZM709.645 70.7637V72.3546H704.628V70.7637H709.645ZM705.867 68.6728H707.924V76.866C707.924 77.1425 707.965 77.3546 708.049 77.5023C708.136 77.6463 708.25 77.7448 708.39 77.7978C708.53 77.8508 708.685 77.8773 708.856 77.8773C708.984 77.8773 709.102 77.8679 709.208 77.8489C709.318 77.83 709.401 77.8129 709.458 77.7978L709.804 79.4057C709.695 79.4436 709.537 79.4853 709.333 79.5307C709.132 79.5762 708.886 79.6027 708.594 79.6103C708.079 79.6254 707.615 79.5478 707.202 79.3773C706.789 79.2031 706.462 78.9341 706.219 78.5705C705.981 78.2069 705.863 77.7523 705.867 77.2069V68.6728ZM713.717 79.6671C713.164 79.6671 712.666 79.5686 712.223 79.3716C711.783 79.1709 711.435 78.8754 711.177 78.4853C710.923 78.0951 710.796 77.6141 710.796 77.0421C710.796 76.5497 710.887 76.1425 711.069 75.8205C711.251 75.4985 711.499 75.241 711.814 75.0478C712.128 74.8546 712.482 74.7088 712.876 74.6103C713.274 74.508 713.685 74.4341 714.109 74.3887C714.62 74.3357 715.035 74.2883 715.353 74.2466C715.671 74.2012 715.903 74.133 716.046 74.0421C716.194 73.9474 716.268 73.8016 716.268 73.6046V73.5705C716.268 73.1425 716.141 72.811 715.887 72.5762C715.634 72.3413 715.268 72.2239 714.791 72.2239C714.287 72.2239 713.887 72.3338 713.592 72.5535C713.3 72.7732 713.103 73.0326 713.001 73.3319L711.081 73.0591C711.232 72.5288 711.482 72.0857 711.831 71.7296C712.179 71.3698 712.605 71.1008 713.109 70.9228C713.613 70.741 714.17 70.6501 714.779 70.6501C715.2 70.6501 715.618 70.6993 716.035 70.7978C716.452 70.8963 716.832 71.0591 717.177 71.2864C717.522 71.5099 717.798 71.8148 718.007 72.2012C718.219 72.5876 718.325 73.0705 718.325 73.6501V79.491H716.348V78.2921H716.279C716.154 78.5345 715.978 78.7618 715.751 78.9739C715.528 79.1823 715.245 79.3508 714.904 79.4796C714.567 79.6046 714.171 79.6671 713.717 79.6671ZM714.251 78.1557C714.664 78.1557 715.022 78.0743 715.325 77.9114C715.628 77.7448 715.861 77.5251 716.024 77.2523C716.19 76.9796 716.274 76.6823 716.274 76.3603V75.3319C716.209 75.3849 716.1 75.4341 715.944 75.4796C715.793 75.5251 715.622 75.5648 715.433 75.5989C715.243 75.633 715.056 75.6633 714.87 75.6898C714.685 75.7163 714.524 75.7391 714.387 75.758C714.081 75.7997 713.806 75.8679 713.564 75.9626C713.321 76.0573 713.13 76.1898 712.99 76.3603C712.85 76.527 712.779 76.7429 712.779 77.008C712.779 77.3868 712.918 77.6728 713.194 77.866C713.471 78.0591 713.823 78.1557 714.251 78.1557ZM722.108 76.7523L722.102 74.2694H722.432L725.568 70.7637H727.972L724.114 75.0591H723.688L722.108 76.7523ZM720.233 79.491V67.8546H722.29V79.491H720.233ZM725.71 79.491L722.869 75.5194L724.256 74.0705L728.171 79.491H725.71ZM732.687 79.6614C731.812 79.6614 731.056 79.4796 730.42 79.116C729.787 78.7485 729.3 78.2296 728.959 77.5591C728.619 76.8849 728.448 76.0913 728.448 75.1785C728.448 74.2807 728.619 73.4929 728.959 72.8148C729.304 72.133 729.785 71.6027 730.403 71.2239C731.02 70.8413 731.745 70.6501 732.579 70.6501C733.117 70.6501 733.624 70.7372 734.101 70.9114C734.583 71.0819 735.007 71.347 735.374 71.7069C735.745 72.0667 736.037 72.5251 736.249 73.0819C736.461 73.6349 736.567 74.294 736.567 75.0591V75.6898H729.414V74.3035H734.596C734.592 73.9095 734.507 73.5591 734.34 73.2523C734.173 72.9417 733.94 72.6974 733.641 72.5194C733.346 72.3413 733.001 72.2523 732.607 72.2523C732.187 72.2523 731.817 72.3546 731.499 72.5591C731.181 72.7599 730.933 73.0251 730.755 73.3546C730.581 73.6804 730.492 74.0383 730.488 74.4285V75.6387C730.488 76.1463 730.581 76.5819 730.766 76.9455C730.952 77.3054 731.211 77.5819 731.545 77.7751C731.878 77.9645 732.268 78.0591 732.715 78.0591C733.014 78.0591 733.285 78.0175 733.528 77.9341C733.77 77.847 733.98 77.7201 734.158 77.5535C734.336 77.3868 734.471 77.1804 734.562 76.9341L736.482 77.1501C736.361 77.6576 736.13 78.1008 735.789 78.4796C735.452 78.8546 735.02 79.1463 734.494 79.3546C733.967 79.5591 733.365 79.6614 732.687 79.6614ZM744.013 74.3773V79.491H741.956V70.7637H743.922V72.2466H744.024C744.225 71.758 744.545 71.3698 744.985 71.0819C745.428 70.794 745.975 70.6501 746.627 70.6501C747.229 70.6501 747.754 70.7788 748.201 71.0364C748.651 71.294 749 71.6671 749.246 72.1557C749.496 72.6444 749.619 73.2372 749.615 73.9341V79.491H747.558V74.2523C747.558 73.669 747.407 73.2126 747.104 72.883C746.805 72.5535 746.39 72.3887 745.86 72.3887C745.5 72.3887 745.18 72.4682 744.899 72.6273C744.623 72.7826 744.405 73.008 744.246 73.3035C744.091 73.5989 744.013 73.9569 744.013 74.3773ZM755.353 79.6614C754.501 79.6614 753.762 79.4739 753.137 79.0989C752.512 78.7239 752.027 78.1993 751.683 77.5251C751.342 76.8508 751.171 76.0629 751.171 75.1614C751.171 74.2599 751.342 73.4701 751.683 72.7921C752.027 72.1141 752.512 71.5876 753.137 71.2126C753.762 70.8376 754.501 70.6501 755.353 70.6501C756.205 70.6501 756.944 70.8376 757.569 71.2126C758.194 71.5876 758.677 72.1141 759.018 72.7921C759.362 73.4701 759.535 74.2599 759.535 75.1614C759.535 76.0629 759.362 76.8508 759.018 77.5251C758.677 78.1993 758.194 78.7239 757.569 79.0989C756.944 79.4739 756.205 79.6614 755.353 79.6614ZM755.364 78.0137C755.826 78.0137 756.213 77.8868 756.523 77.633C756.834 77.3754 757.065 77.0307 757.217 76.5989C757.372 76.1671 757.45 75.686 757.45 75.1557C757.45 74.6216 757.372 74.1387 757.217 73.7069C757.065 73.2713 756.834 72.9247 756.523 72.6671C756.213 72.4095 755.826 72.2807 755.364 72.2807C754.891 72.2807 754.497 72.4095 754.183 72.6671C753.872 72.9247 753.639 73.2713 753.484 73.7069C753.332 74.1387 753.256 74.6216 753.256 75.1557C753.256 75.686 753.332 76.1671 753.484 76.5989C753.639 77.0307 753.872 77.3754 754.183 77.633C754.497 77.8868 754.891 78.0137 755.364 78.0137ZM762.672 79.491L760.206 70.7637H762.302L763.836 76.9001H763.916L765.484 70.7637H767.558L769.126 76.866H769.211L770.723 70.7637H772.825L770.354 79.491H768.211L766.575 73.5932H766.456L764.819 79.491H762.672Z" fill="#010412"/>
</g>
<defs>
<linearGradient id="paint0_linear_1285_1221" x1="322.316" y1="28.9" x2="331.903" y2="84.8021" gradientUnits="userSpaceOnUse">
<stop stop-color="#38EF7D"/>
<stop offset="1" stop-color="#11998E"/>
</linearGradient>
<linearGradient id="paint1_linear_1285_1221" x1="288.666" y1="112.062" x2="289.443" y2="126.916" gradientUnits="userSpaceOnUse">
<stop stop-color="#38EF7D"/>
<stop offset="1" stop-color="#11998E"/>
</linearGradient>
<linearGradient id="paint2_linear_1285_1221" x1="671.756" y1="45.991" x2="695.503" y2="137.212" gradientUnits="userSpaceOnUse">
<stop stop-color="#38EF7D"/>
<stop offset="1" stop-color="#11998E"/>
</linearGradient>
<clipPath id="clip0_1285_1221">
<rect width="900" height="150" fill="white"/>
</clipPath>
</defs>
</svg>
