<svg width="320" height="150" viewBox="0 0 320 150" fill="none" xmlns="http://www.w3.org/2000/svg">
<g clip-path="url(#clip0_1285_1174)">
<rect width="320" height="150" fill="#010412"/>
<path d="M-10.4405 139.476C3.63814 153.513 36.1612 169.211 62.1566 174.517C66.9714 175.498 71.2325 176.052 74.8984 176.219C82.7629 176.584 87.8178 175.133 89.5933 172.208L93.8963 160.438C92.1208 163.362 87.0658 164.803 79.1805 164.448C75.5251 164.281 71.2639 163.728 66.4387 162.746C40.4328 157.44 7.93069 141.732 -6.15845 127.695C-12.0803 121.784 -13.8558 117.084 -11.9863 114.014L-16.2893 125.784C-18.1588 128.855 -16.3833 133.544 -10.451 139.466L-10.4405 139.476Z" stroke="#11998E" stroke-opacity="0.2" stroke-width="0.7" stroke-linecap="round" stroke-linejoin="round"/>
<path d="M-10.4405 139.476C3.63814 153.513 36.1612 169.211 62.1566 174.517C66.9714 175.498 71.2325 176.052 74.8984 176.219C82.7629 176.584 87.8178 175.133 89.5933 172.208L93.8963 160.438C92.1208 163.362 87.0658 164.803 79.1805 164.448C75.5251 164.281 71.2639 163.728 66.4387 162.746C40.4328 157.44 7.93069 141.732 -6.15845 127.695C-12.0803 121.784 -13.8558 117.084 -11.9863 114.014L-16.2893 125.784C-18.1588 128.855 -16.3833 133.544 -10.451 139.466L-10.4405 139.476Z" stroke="#11998E" stroke-opacity="0.2" stroke-width="0.7" stroke-linecap="round" stroke-linejoin="round"/>
<path d="M5.26741 137.418L0.786865 147.873" stroke="#11998E" stroke-opacity="0.2" stroke-width="0.7" stroke-linecap="round" stroke-linejoin="round"/>
<path d="M-6.81652 127.404C6.60418 141.159 38.9601 156.793 65.4359 162.308C70.3447 163.331 74.7103 163.927 78.4911 164.146C95.0868 165.097 100.131 158.559 89.1963 147.31C75.7339 133.461 43.3779 117.826 16.7976 112.301C11.8993 111.288 7.55459 110.683 3.78426 110.474C-12.8428 109.523 -17.8769 116.082 -6.81652 127.414V127.404Z" stroke="#11998E" stroke-opacity="0.2" stroke-width="0.7" stroke-linecap="round" stroke-linejoin="round"/>
<path d="M9.18385 116.406C12.244 116.803 15.8159 117.492 19.8473 118.505C41.7277 123.988 68.9765 136.741 80.8097 147.018C90.4183 155.373 86.7941 159.478 73.2899 157.754C70.2193 157.357 66.6474 156.668 62.5951 155.655C40.7982 150.182 13.5495 137.44 1.7476 127.226C-7.96544 118.808 -4.33085 114.683 9.18385 116.416V116.406Z" stroke="#11998E" stroke-opacity="0.2" stroke-width="0.7" stroke-linecap="round" stroke-linejoin="round"/>
<path d="M22.3442 124.052C29.6279 131.314 46.4539 139.435 59.9027 142.18C62.3937 142.688 64.5982 142.975 66.4948 143.061C70.5635 143.25 73.1787 142.499 74.0972 140.986L76.3234 134.897C75.4048 136.41 72.7896 137.155 68.7101 136.972C66.819 136.885 64.6144 136.599 62.1181 136.091C48.6638 133.346 31.8487 125.219 24.5596 117.957C21.4959 114.899 20.5774 112.467 21.5446 110.879L19.3184 116.968C18.3512 118.557 19.2698 120.983 22.3388 124.047L22.3442 124.052Z" fill="#010412" stroke="#11998E" stroke-opacity="0.6" stroke-width="0.7" stroke-linecap="round" stroke-linejoin="round"/>
<path d="M22.3442 124.052C29.6279 131.314 46.4539 139.435 59.9027 142.18C62.3937 142.688 64.5982 142.975 66.4948 143.061C70.5635 143.25 73.1787 142.499 74.0972 140.986L76.3234 134.897C75.4048 136.41 72.7896 137.155 68.7101 136.972C66.819 136.885 64.6144 136.599 62.1181 136.091C48.6638 133.346 31.8487 125.219 24.5596 117.957C21.4959 114.899 20.5774 112.467 21.5446 110.879L19.3184 116.968C18.3512 118.557 19.2698 120.983 22.3388 124.047L22.3442 124.052Z" fill="#010412" stroke="#11998E" stroke-opacity="0.6" stroke-width="0.7" stroke-linecap="round" stroke-linejoin="round"/>
<path d="M68.7156 136.972L66.1328 142.483" stroke="#11998E" stroke-opacity="0.6" stroke-width="0.7" stroke-linecap="round" stroke-linejoin="round"/>
<path d="M43.2335 129.747L40.6777 135.275" stroke="#11998E" stroke-opacity="0.6" stroke-width="0.7" stroke-linecap="round" stroke-linejoin="round"/>
<path d="M56.0446 134.557L53.6455 140.127" stroke="#11998E" stroke-opacity="0.6" stroke-width="0.7" stroke-linecap="round" stroke-linejoin="round"/>
<path d="M30.4711 122.988L28.1531 128.397" stroke="#11998E" stroke-opacity="0.6" stroke-width="0.7" stroke-linecap="round" stroke-linejoin="round"/>
<path d="M23.7921 117.147L21.366 122.826" stroke="#11998E" stroke-opacity="0.6" stroke-width="0.7" stroke-linecap="round" stroke-linejoin="round"/>
<path d="M24.2192 117.806C31.1625 124.922 47.902 133.011 61.5994 135.864C64.139 136.393 66.3975 136.701 68.3535 136.815C76.9394 137.306 79.5492 133.924 73.8919 128.105C66.9271 120.94 50.1876 112.851 36.4361 109.993C33.902 109.468 31.6542 109.155 29.7036 109.047C21.1015 108.555 18.4971 111.949 24.2192 117.811V117.806Z" fill="#010412" stroke="#11998E" stroke-opacity="0.6" stroke-width="0.7" stroke-linecap="round" stroke-linejoin="round"/>
<path d="M32.4971 112.116C34.0803 112.322 35.9282 112.678 38.0139 113.202C49.3339 116.039 63.4311 122.637 69.5531 127.953C74.5241 132.276 72.6492 134.4 65.6627 133.508C64.0741 133.303 62.2262 132.946 60.1297 132.422C48.853 129.591 34.7557 122.999 28.65 117.714C23.6249 113.359 25.5052 111.225 32.4971 112.122V112.116Z" fill="#010412" stroke="#11998E" stroke-opacity="0.6" stroke-width="0.7" stroke-linecap="round" stroke-linejoin="round"/>
<path d="M307.813 43.0398C335.567 44.062 366.848 22.0069 377.582 -6.24561C379.563 -11.4847 380.713 -16.5704 381.083 -21.4005C381.888 -31.7636 379.103 -40.8872 373.378 -47.6213L365.379 -57.0388C371.103 -50.3047 373.889 -41.1811 373.084 -30.8052C372.713 -25.9879 371.576 -20.9022 369.583 -15.6503C358.849 12.6022 327.581 34.6445 299.801 33.6223C288.096 33.175 278.845 28.7666 272.839 21.6875L280.838 31.105C286.857 38.1713 296.096 42.5925 307.813 43.0398Z" stroke="#11998E" stroke-opacity="0.5" stroke-linecap="round" stroke-linejoin="round"/>
<path d="M319.058 32.0505L326.687 40.4586" stroke="#11998E" stroke-opacity="0.5" stroke-linecap="round" stroke-linejoin="round"/>
<path d="M296.709 33.4055L305.372 42.8869" stroke="#11998E" stroke-opacity="0.5" stroke-linecap="round" stroke-linejoin="round"/>
<path d="M299.801 33.6097C327.568 34.6447 358.824 12.5896 369.57 -15.6629C371.563 -20.902 372.701 -25.9877 373.084 -30.8178C374.72 -52.0424 361.328 -68.0406 338.609 -68.9606C310.663 -70.0596 279.395 -48.0172 268.623 -19.6369C266.642 -14.4107 265.505 -9.33772 265.134 -4.52035C263.498 16.7297 276.928 32.7536 299.801 33.6097Z" stroke="#11998E" stroke-opacity="0.5" stroke-linecap="round" stroke-linejoin="round"/>
<path d="M302.945 25.2781C326.188 26.1342 352.371 7.66974 361.354 -15.9826C363.015 -20.3783 363.986 -24.6462 364.293 -28.6841C365.66 -46.4586 354.454 -59.8373 335.44 -60.604C312.043 -61.524 285.848 -43.0724 276.839 -19.3177C275.178 -14.9348 274.219 -10.6925 273.913 -6.65458C272.546 11.1326 283.803 24.5497 302.958 25.2781H302.945Z" stroke="#11998E" stroke-opacity="0.5" stroke-linecap="round" stroke-linejoin="round"/>
<path d="M262.262 116.005C266.322 115.855 270.898 119.082 272.468 123.214C272.758 123.981 272.926 124.725 272.98 125.431C273.098 126.947 272.69 128.281 271.853 129.266L270.683 130.644C271.52 129.659 271.928 128.324 271.81 126.807C271.756 126.102 271.589 125.358 271.298 124.59C269.728 120.457 265.154 117.233 261.091 117.383C259.378 117.448 258.025 118.093 257.147 119.128L258.317 117.751C259.197 116.717 260.548 116.07 262.262 116.005Z" stroke="#11998E" stroke-opacity="0.2" stroke-width="0.491407" stroke-linecap="round" stroke-linejoin="round"/>
<path d="M271.808 126.807L272.978 125.431" stroke="#11998E" stroke-opacity="0.2" stroke-width="0.491407" stroke-linecap="round" stroke-linejoin="round"/>
<path d="M267.707 119.816L268.886 118.446" stroke="#11998E" stroke-opacity="0.2" stroke-width="0.491407" stroke-linecap="round" stroke-linejoin="round"/>
<path d="M270.425 122.843L271.627 121.517" stroke="#11998E" stroke-opacity="0.2" stroke-width="0.491407" stroke-linecap="round" stroke-linejoin="round"/>
<path d="M263.907 117.613L265.023 116.383" stroke="#11998E" stroke-opacity="0.2" stroke-width="0.491407" stroke-linecap="round" stroke-linejoin="round"/>
<path d="M260.638 117.414L261.906 116.027" stroke="#11998E" stroke-opacity="0.2" stroke-width="0.491407" stroke-linecap="round" stroke-linejoin="round"/>
<path d="M261.09 117.384C265.152 117.233 269.724 120.459 271.296 124.592C271.587 125.358 271.754 126.102 271.81 126.808C272.049 129.913 270.09 132.253 266.767 132.388C262.679 132.549 258.105 129.324 256.53 125.173C256.24 124.408 256.074 123.666 256.019 122.962C255.78 119.853 257.745 117.51 261.09 117.384Z" stroke="#11998E" stroke-opacity="0.2" stroke-width="0.491407" stroke-linecap="round" stroke-linejoin="round"/>
<path d="M261.55 118.603C264.95 118.478 268.78 121.179 270.094 124.639C270.337 125.282 270.479 125.906 270.524 126.496C270.724 129.096 269.085 131.053 266.304 131.166C262.881 131.3 259.05 128.601 257.732 125.126C257.489 124.485 257.349 123.865 257.304 123.274C257.104 120.672 258.75 118.71 261.552 118.603H261.55Z" stroke="#11998E" stroke-opacity="0.2" stroke-width="0.491407" stroke-linecap="round" stroke-linejoin="round"/>
<path d="M65.4687 33.593V49H62.6777V33.593H65.4687ZM70.8821 42.2293V49H68.1588V37.4448H70.7618V39.4082H70.8972C71.163 38.7613 71.5868 38.2472 72.1686 37.866C72.7554 37.4849 73.4801 37.2943 74.3427 37.2943C75.1401 37.2943 75.8347 37.4648 76.4266 37.8059C77.0234 38.1469 77.4848 38.6409 77.8108 39.2879C78.1418 39.9349 78.3048 40.7197 78.2998 41.6426V49H75.5765V42.0638C75.5765 41.2915 75.3758 40.6871 74.9746 40.2508C74.5784 39.8145 74.0292 39.5963 73.3271 39.5963C72.8506 39.5963 72.4269 39.7016 72.0557 39.9123C71.6896 40.1179 71.4012 40.4163 71.1906 40.8075C70.985 41.1987 70.8821 41.6727 70.8821 42.2293ZM86.6265 37.4448V39.5512H79.9837V37.4448H86.6265ZM81.6237 34.6763H84.347V45.5244C84.347 45.8905 84.4022 46.1714 84.5125 46.367C84.6279 46.5576 84.7783 46.6879 84.9639 46.7582C85.1495 46.8284 85.3551 46.8635 85.5808 46.8635C85.7513 46.8635 85.9068 46.8509 86.0472 46.8259C86.1926 46.8008 86.303 46.7782 86.3782 46.7582L86.8371 48.8872C86.6917 48.9373 86.4835 48.9925 86.2127 49.0527C85.9469 49.1128 85.6209 49.148 85.2347 49.158C84.5526 49.178 83.9383 49.0752 83.3916 48.8495C82.8449 48.6188 82.4111 48.2628 82.0901 47.7813C81.7742 47.2998 81.6187 46.698 81.6237 45.9758V34.6763ZM88.6922 49V37.4448H91.3327V39.3706H91.4531C91.6638 38.7036 92.0249 38.1895 92.5364 37.8284C93.053 37.4623 93.6423 37.2793 94.3043 37.2793C94.4548 37.2793 94.6228 37.2868 94.8083 37.3018C94.9989 37.3119 95.1569 37.3294 95.2823 37.3545V39.8596C95.1669 39.8195 94.9839 39.7844 94.7331 39.7543C94.4874 39.7192 94.2491 39.7016 94.0184 39.7016C93.5219 39.7016 93.0756 39.8095 92.6793 40.0251C92.2882 40.2358 91.9797 40.5292 91.754 40.9053C91.5283 41.2815 91.4155 41.7153 91.4155 42.2068V49H88.6922ZM101.444 49.2257C100.316 49.2257 99.3378 48.9774 98.5103 48.4809C97.6828 47.9844 97.0408 47.2898 96.5844 46.3971C96.1331 45.5043 95.9074 44.4612 95.9074 43.2675C95.9074 42.0739 96.1331 41.0282 96.5844 40.1304C97.0408 39.2327 97.6828 38.5356 98.5103 38.0391C99.3378 37.5426 100.316 37.2943 101.444 37.2943C102.573 37.2943 103.551 37.5426 104.378 38.0391C105.206 38.5356 105.845 39.2327 106.297 40.1304C106.753 41.0282 106.981 42.0739 106.981 43.2675C106.981 44.4612 106.753 45.5043 106.297 46.3971C105.845 47.2898 105.206 47.9844 104.378 48.4809C103.551 48.9774 102.573 49.2257 101.444 49.2257ZM101.459 47.044C102.071 47.044 102.583 46.876 102.994 46.54C103.405 46.199 103.711 45.7426 103.912 45.1708C104.117 44.5991 104.22 43.9621 104.22 43.26C104.22 42.5528 104.117 41.9134 103.912 41.3416C103.711 40.7649 103.405 40.306 102.994 39.9649C102.583 39.6239 102.071 39.4534 101.459 39.4534C100.832 39.4534 100.311 39.6239 99.8945 39.9649C99.4833 40.306 99.1748 40.7649 98.9692 41.3416C98.7686 41.9134 98.6683 42.5528 98.6683 43.26C98.6683 43.9621 98.7686 44.5991 98.9692 45.1708C99.1748 45.7426 99.4833 46.199 99.8945 46.54C100.311 46.876 100.832 47.044 101.459 47.044ZM113.369 49.2031C112.461 49.2031 111.649 48.9699 110.931 48.5035C110.214 48.0371 109.647 47.36 109.231 46.4723C108.815 45.5846 108.607 44.5063 108.607 43.2374C108.607 41.9535 108.817 40.8702 109.239 39.9875C109.665 39.0998 110.239 38.4303 110.961 37.9789C111.684 37.5225 112.489 37.2943 113.376 37.2943C114.053 37.2943 114.61 37.4096 115.046 37.6404C115.483 37.866 115.829 38.1394 116.085 38.4604C116.34 38.7763 116.538 39.0747 116.679 39.3556H116.792V33.593H119.523V49H116.844V47.1794H116.679C116.538 47.4603 116.335 47.7587 116.07 48.0747C115.804 48.3856 115.453 48.6514 115.016 48.8721C114.58 49.0928 114.031 49.2031 113.369 49.2031ZM114.129 46.9688C114.705 46.9688 115.197 46.8133 115.603 46.5024C116.009 46.1864 116.318 45.7476 116.528 45.1859C116.739 44.6242 116.844 43.9697 116.844 43.2224C116.844 42.4751 116.739 41.8256 116.528 41.2739C116.323 40.7223 116.017 40.2934 115.611 39.9875C115.209 39.6816 114.715 39.5286 114.129 39.5286C113.522 39.5286 113.015 39.6866 112.609 40.0026C112.203 40.3185 111.897 40.7549 111.691 41.3116C111.486 41.8682 111.383 42.5052 111.383 43.2224C111.383 43.9446 111.486 44.589 111.691 45.1558C111.902 45.7175 112.21 46.1613 112.617 46.4873C113.028 46.8083 113.532 46.9688 114.129 46.9688ZM129.578 44.1402V37.4448H132.301V49H129.66V46.9462H129.54C129.279 47.5932 128.85 48.1223 128.254 48.5336C127.662 48.9448 126.932 49.1505 126.064 49.1505C125.307 49.1505 124.638 48.9824 124.056 48.6464C123.479 48.3054 123.028 47.8114 122.702 47.1644C122.376 46.5124 122.213 45.725 122.213 44.8022V37.4448H124.936V44.3809C124.936 45.1131 125.137 45.6949 125.538 46.1262C125.939 46.5576 126.466 46.7732 127.118 46.7732C127.519 46.7732 127.908 46.6754 128.284 46.4798C128.66 46.2842 128.968 45.9933 129.209 45.6072C129.455 45.216 129.578 44.727 129.578 44.1402ZM139.93 49.2257C138.776 49.2257 137.786 48.9724 136.958 48.4659C136.136 47.9593 135.501 47.2597 135.055 46.367C134.614 45.4692 134.393 44.4361 134.393 43.2675C134.393 42.0939 134.619 41.0583 135.07 40.1605C135.521 39.2578 136.158 38.5556 136.981 38.0541C137.808 37.5476 138.786 37.2943 139.915 37.2943C140.853 37.2943 141.683 37.4673 142.405 37.8134C143.132 38.1544 143.711 38.6384 144.143 39.2653C144.574 39.8872 144.82 40.6144 144.88 41.447H142.277C142.172 40.8903 141.921 40.4264 141.525 40.0552C141.134 39.6791 140.609 39.491 139.952 39.491C139.396 39.491 138.907 39.6415 138.486 39.9424C138.064 40.2383 137.736 40.6646 137.5 41.2213C137.269 41.778 137.154 42.445 137.154 43.2224C137.154 44.0098 137.269 44.6868 137.5 45.2536C137.731 45.8153 138.054 46.2491 138.47 46.555C138.892 46.856 139.386 47.0064 139.952 47.0064C140.354 47.0064 140.712 46.9312 141.028 46.7807C141.349 46.6253 141.618 46.4021 141.833 46.1112C142.049 45.8203 142.197 45.4667 142.277 45.0505H144.88C144.815 45.8679 144.574 46.5927 144.158 47.2246C143.742 47.8515 143.175 48.343 142.458 48.6991C141.74 49.0502 140.898 49.2257 139.93 49.2257ZM146.904 49V37.4448H149.628V49H146.904ZM148.274 35.8048C147.842 35.8048 147.471 35.6618 147.16 35.3759C146.849 35.0851 146.694 34.7365 146.694 34.3303C146.694 33.919 146.849 33.5704 147.16 33.2846C147.471 32.9937 147.842 32.8482 148.274 32.8482C148.71 32.8482 149.081 32.9937 149.387 33.2846C149.698 33.5704 149.853 33.919 149.853 34.3303C149.853 34.7365 149.698 35.0851 149.387 35.3759C149.081 35.6618 148.71 35.8048 148.274 35.8048ZM154.94 42.2293V49H152.216V37.4448H154.819V39.4082H154.955C155.22 38.7613 155.644 38.2472 156.226 37.866C156.813 37.4849 157.537 37.2943 158.4 37.2943C159.198 37.2943 159.892 37.4648 160.484 37.8059C161.081 38.1469 161.542 38.6409 161.868 39.2879C162.199 39.9349 162.362 40.7197 162.357 41.6426V49H159.634V42.0638C159.634 41.2915 159.433 40.6871 159.032 40.2508C158.636 39.8145 158.087 39.5963 157.384 39.5963C156.908 39.5963 156.484 39.7016 156.113 39.9123C155.747 40.1179 155.459 40.4163 155.248 40.8075C155.042 41.1987 154.94 41.6727 154.94 42.2293ZM169.939 53.574C168.961 53.574 168.121 53.441 167.419 53.1752C166.717 52.9144 166.153 52.5634 165.726 52.122C165.3 51.6807 165.004 51.1917 164.839 50.655L167.291 50.0607C167.401 50.2864 167.562 50.5096 167.772 50.7303C167.983 50.956 168.266 51.1415 168.623 51.287C168.984 51.4374 169.438 51.5127 169.984 51.5127C170.757 51.5127 171.396 51.3246 171.903 50.9484C172.409 50.5773 172.662 49.9654 172.662 49.1128V46.9237H172.527C172.387 47.2045 172.181 47.4929 171.91 47.7888C171.644 48.0847 171.291 48.333 170.849 48.5336C170.413 48.7342 169.864 48.8345 169.202 48.8345C168.314 48.8345 167.509 48.6264 166.787 48.2101C166.07 47.7888 165.498 47.1619 165.072 46.3294C164.65 45.4918 164.44 44.4436 164.44 43.1848C164.44 41.9159 164.65 40.8451 165.072 39.9725C165.498 39.0948 166.072 38.4303 166.794 37.9789C167.517 37.5225 168.322 37.2943 169.209 37.2943C169.886 37.2943 170.443 37.4096 170.879 37.6404C171.321 37.866 171.672 38.1394 171.933 38.4604C172.193 38.7763 172.392 39.0747 172.527 39.3556H172.677V37.4448H175.363V49.1881C175.363 50.1761 175.127 50.9936 174.656 51.6406C174.185 52.2875 173.54 52.7715 172.723 53.0925C171.905 53.4135 170.977 53.574 169.939 53.574ZM169.962 46.698C170.538 46.698 171.03 46.5576 171.436 46.2767C171.842 45.9958 172.151 45.5921 172.361 45.0655C172.572 44.5389 172.677 43.907 172.677 43.1697C172.677 42.4425 172.572 41.8056 172.361 41.2589C172.156 40.7122 171.85 40.2884 171.444 39.9875C171.042 39.6816 170.548 39.5286 169.962 39.5286C169.355 39.5286 168.848 39.6866 168.442 40.0026C168.036 40.3185 167.73 40.7523 167.524 41.304C167.319 41.8507 167.216 42.4726 167.216 43.1697C167.216 43.8769 167.319 44.4963 167.524 45.0279C167.735 45.5545 168.043 45.9657 168.45 46.2616C168.861 46.5525 169.365 46.698 169.962 46.698Z" fill="#D8FDF0"/>
<path d="M183.106 49V33.593H193.126V35.9326H185.897V40.1154H192.607V42.455H185.897V46.6604H193.186V49H183.106ZM198.365 42.2293V49H195.641V37.4448H198.244V39.4082H198.38C198.646 38.7613 199.069 38.2472 199.651 37.866C200.238 37.4849 200.963 37.2943 201.825 37.2943C202.623 37.2943 203.317 37.4648 203.909 37.8059C204.506 38.1469 204.967 38.6409 205.293 39.2879C205.624 39.9349 205.787 40.7197 205.782 41.6426V49H203.059V42.0638C203.059 41.2915 202.858 40.6871 202.457 40.2508C202.061 39.8145 201.512 39.5963 200.81 39.5963C200.333 39.5963 199.909 39.7016 199.538 39.9123C199.172 40.1179 198.884 40.4163 198.673 40.8075C198.468 41.1987 198.365 41.6727 198.365 42.2293ZM212.627 49.2031C211.719 49.2031 210.907 48.9699 210.19 48.5035C209.472 48.0371 208.906 47.36 208.489 46.4723C208.073 45.5846 207.865 44.5063 207.865 43.2374C207.865 41.9535 208.076 40.8702 208.497 39.9875C208.923 39.0998 209.497 38.4303 210.22 37.9789C210.942 37.5225 211.747 37.2943 212.635 37.2943C213.312 37.2943 213.868 37.4096 214.305 37.6404C214.741 37.866 215.087 38.1394 215.343 38.4604C215.599 38.7763 215.797 39.0747 215.937 39.3556H216.05V33.593H218.781V49H216.103V47.1794H215.937C215.797 47.4603 215.594 47.7587 215.328 48.0747C215.062 48.3856 214.711 48.6514 214.275 48.8721C213.838 49.0928 213.289 49.2031 212.627 49.2031ZM213.387 46.9688C213.964 46.9688 214.455 46.8133 214.861 46.5024C215.268 46.1864 215.576 45.7476 215.787 45.1859C215.997 44.6242 216.103 43.9697 216.103 43.2224C216.103 42.4751 215.997 41.8256 215.787 41.2739C215.581 40.7223 215.275 40.2934 214.869 39.9875C214.468 39.6816 213.974 39.5286 213.387 39.5286C212.78 39.5286 212.273 39.6866 211.867 40.0026C211.461 40.3185 211.155 40.7549 210.949 41.3116C210.744 41.8682 210.641 42.5052 210.641 43.2224C210.641 43.9446 210.744 44.589 210.949 45.1558C211.16 45.7175 211.468 46.1613 211.875 46.4873C212.286 46.8083 212.79 46.9688 213.387 46.9688ZM228.836 44.1402V37.4448H231.559V49H228.919V46.9462H228.798C228.537 47.5932 228.109 48.1223 227.512 48.5336C226.92 48.9448 226.19 49.1505 225.323 49.1505C224.565 49.1505 223.896 48.9824 223.314 48.6464C222.737 48.3054 222.286 47.8114 221.96 47.1644C221.634 46.5124 221.471 45.725 221.471 44.8022V37.4448H224.194V44.3809C224.194 45.1131 224.395 45.6949 224.796 46.1262C225.197 46.5576 225.724 46.7732 226.376 46.7732C226.777 46.7732 227.166 46.6754 227.542 46.4798C227.918 46.2842 228.226 45.9933 228.467 45.6072C228.713 45.216 228.836 44.727 228.836 44.1402ZM234.148 49V37.4448H236.788V39.3706H236.909C237.119 38.7036 237.48 38.1895 237.992 37.8284C238.509 37.4623 239.098 37.2793 239.76 37.2793C239.91 37.2793 240.078 37.2868 240.264 37.3018C240.454 37.3119 240.612 37.3294 240.738 37.3545V39.8596C240.622 39.8195 240.439 39.7844 240.189 39.7543C239.943 39.7192 239.705 39.7016 239.474 39.7016C238.977 39.7016 238.531 39.8095 238.135 40.0251C237.744 40.2358 237.435 40.5292 237.21 40.9053C236.984 41.2815 236.871 41.7153 236.871 42.2068V49H234.148ZM242.689 49.1655C242.232 49.1655 241.841 49.005 241.515 48.684C241.189 48.3631 241.029 47.9719 241.034 47.5105C241.029 47.0591 241.189 46.6729 241.515 46.3519C241.841 46.0309 242.232 45.8705 242.689 45.8705C243.13 45.8705 243.514 46.0309 243.84 46.3519C244.171 46.6729 244.339 47.0591 244.344 47.5105C244.339 47.8164 244.259 48.0947 244.103 48.3455C243.953 48.5963 243.752 48.7969 243.501 48.9473C243.256 49.0928 242.985 49.1655 242.689 49.1655ZM252.797 37.4448V39.5512H245.966V37.4448H252.797ZM247.673 49V36.3539C247.673 35.5766 247.834 34.9296 248.155 34.413C248.481 33.8964 248.917 33.5103 249.464 33.2545C250.011 32.9987 250.617 32.8708 251.284 32.8708C251.756 32.8708 252.175 32.9084 252.541 32.9837C252.907 33.0589 253.178 33.1266 253.353 33.1868L252.812 35.2932C252.696 35.2581 252.551 35.223 252.375 35.1879C252.2 35.1478 252.004 35.1277 251.789 35.1277C251.282 35.1277 250.923 35.2506 250.713 35.4963C250.507 35.737 250.404 36.0831 250.404 36.5345V49H247.673ZM254.717 49V37.4448H257.441V49H254.717ZM256.087 35.8048C255.655 35.8048 255.284 35.6618 254.973 35.3759C254.662 35.0851 254.507 34.7365 254.507 34.3303C254.507 33.919 254.662 33.5704 254.973 33.2846C255.284 32.9937 255.655 32.8482 256.087 32.8482C256.523 32.8482 256.894 32.9937 257.2 33.2846C257.511 33.5704 257.666 33.919 257.666 34.3303C257.666 34.7365 257.511 35.0851 257.2 35.3759C256.894 35.6618 256.523 35.8048 256.087 35.8048Z" fill="url(#paint0_linear_1285_1174)"/>
<path d="M27.7367 59.8514V58.0344H37.2835V59.8514H33.5851V70H31.4351V59.8514H27.7367ZM40.9809 64.7417V70H38.8659V58.0344H40.9342V62.5507H41.0393C41.2497 62.0444 41.5749 61.6451 42.015 61.353C42.4591 61.057 43.0239 60.9089 43.7094 60.9089C44.3326 60.9089 44.876 61.0394 45.3395 61.3004C45.803 61.5614 46.1613 61.9431 46.4145 62.4455C46.6716 62.948 46.8001 63.5615 46.8001 64.286V70H44.6851V64.6131C44.6851 64.0094 44.5293 63.5401 44.2177 63.2051C43.91 62.8662 43.4776 62.6968 42.9206 62.6968C42.5467 62.6968 42.2117 62.7786 41.9157 62.9422C41.6236 63.1019 41.3938 63.3336 41.2263 63.6374C41.0627 63.9412 40.9809 64.3093 40.9809 64.7417ZM52.7645 70.1753C51.8647 70.1753 51.0876 69.9883 50.4333 69.6144C49.7828 69.2366 49.2823 68.7029 48.9317 68.0135C48.5812 67.3202 48.4059 66.5042 48.4059 65.5655C48.4059 64.6424 48.5812 63.8322 48.9317 63.135C49.2862 62.4339 49.7808 61.8885 50.4157 61.499C51.0506 61.1056 51.7965 60.9089 52.6534 60.9089C53.2065 60.9089 53.7285 60.9985 54.2193 61.1777C54.7139 61.353 55.1502 61.6256 55.528 61.9957C55.9097 62.3657 56.2096 62.837 56.4278 63.4096C56.6459 63.9782 56.7549 64.656 56.7549 65.4428V66.0913H49.3991V64.6657H54.7276C54.7237 64.2606 54.636 63.9003 54.4646 63.5848C54.2933 63.2655 54.0537 63.0142 53.746 62.8312C53.4422 62.6481 53.0877 62.5566 52.6827 62.5566C52.2503 62.5566 51.8705 62.6617 51.5434 62.872C51.2162 63.0785 50.961 63.3511 50.778 63.69C50.5988 64.025 50.5073 64.3931 50.5034 64.7943V66.0387C50.5034 66.5607 50.5988 67.0086 50.7897 67.3825C50.9805 67.7526 51.2473 68.0369 51.5901 68.2355C51.9329 68.4303 52.3341 68.5277 52.7937 68.5277C53.1014 68.5277 53.3799 68.4848 53.6292 68.3991C53.8784 68.3095 54.0946 68.1791 54.2777 68.0077C54.4608 67.8363 54.599 67.624 54.6925 67.3708L56.6673 67.5929C56.5427 68.1148 56.3051 68.5705 55.9545 68.96C55.6078 69.3456 55.1638 69.6456 54.6224 69.8598C54.081 70.0701 53.4617 70.1753 52.7645 70.1753ZM68.8925 61.3238C68.838 60.8135 68.6082 60.4162 68.2031 60.1319C67.8019 59.8475 67.2799 59.7054 66.6373 59.7054C66.1854 59.7054 65.7979 59.7735 65.4746 59.9099C65.1513 60.0462 64.904 60.2312 64.7326 60.4649C64.5612 60.6986 64.4736 60.9654 64.4697 61.2653C64.4697 61.5146 64.5261 61.7308 64.6391 61.9139C64.7559 62.0969 64.9137 62.2527 65.1123 62.3813C65.311 62.5059 65.5311 62.6111 65.7726 62.6968C66.014 62.7825 66.2575 62.8545 66.5029 62.9129L67.6247 63.1934C68.0765 63.2986 68.5108 63.4407 68.9276 63.6199C69.3482 63.7991 69.7241 64.025 70.0552 64.2976C70.3901 64.5703 70.655 64.8994 70.8498 65.285C71.0445 65.6706 71.1419 66.1225 71.1419 66.6405C71.1419 67.3416 70.9627 67.959 70.6044 68.4926C70.246 69.0223 69.728 69.4372 69.0502 69.7371C68.3764 70.0331 67.5604 70.1811 66.6022 70.1811C65.6713 70.1811 64.8631 70.037 64.1775 69.7488C63.4959 69.4605 62.9623 69.0399 62.5767 68.4868C62.1949 67.9337 61.9885 67.2598 61.9573 66.4652H64.0899C64.1211 66.882 64.2496 67.2287 64.4755 67.5052C64.7014 67.7818 64.9955 67.9882 65.3577 68.1245C65.7239 68.2609 66.1328 68.329 66.5847 68.329C67.056 68.329 67.4689 68.2589 67.8233 68.1187C68.1816 67.9746 68.4621 67.7759 68.6646 67.5227C68.8672 67.2657 68.9704 66.9658 68.9743 66.623C68.9704 66.3114 68.8789 66.0543 68.6997 65.8518C68.5205 65.6453 68.2693 65.4739 67.946 65.3376C67.6266 65.1974 67.2527 65.0728 66.8242 64.9637L65.4629 64.6131C64.4775 64.36 63.6984 63.9763 63.1259 63.4622C62.5572 62.9441 62.2728 62.2566 62.2728 61.3997C62.2728 60.6947 62.4637 60.0773 62.8454 59.5476C63.231 59.0179 63.7549 58.607 64.4171 58.3148C65.0792 58.0188 65.829 57.8708 66.6665 57.8708C67.5156 57.8708 68.2595 58.0188 68.8983 58.3148C69.541 58.607 70.0454 59.014 70.4116 59.5359C70.7777 60.054 70.9666 60.6499 70.9783 61.3238H68.8925ZM72.384 59.8514V58.0344H81.9307V59.8514H78.2324V70H76.0823V59.8514H72.384ZM83.6066 70V58.0344H88.0937C89.013 58.0344 89.7842 58.1941 90.4074 58.5135C91.0345 58.8329 91.5078 59.2808 91.8271 59.8573C92.1504 60.4299 92.3121 61.0979 92.3121 61.8613C92.3121 62.6286 92.1485 63.2947 91.8213 63.8594C91.498 64.4203 91.0209 64.8546 90.3899 65.1623C89.7589 65.4662 88.9838 65.6181 88.0645 65.6181H84.8686V63.8185H87.7724C88.3099 63.8185 88.7501 63.7445 89.0928 63.5965C89.4356 63.4446 89.6888 63.2246 89.8524 62.9363C90.0198 62.6442 90.1036 62.2858 90.1036 61.8613C90.1036 61.4367 90.0198 61.0745 89.8524 60.7746C89.6849 60.4707 89.4297 60.2409 89.087 60.0851C88.7442 59.9254 88.3021 59.8456 87.7607 59.8456H85.7742V70H83.6066ZM89.7881 64.5781L92.7503 70H90.3314L87.4218 64.5781H89.7881ZM94.1428 70V58.0344H96.3104V63.5323H96.4565L101.125 58.0344H103.771L99.144 63.4037L103.812 70H101.206L97.6367 64.8702L96.3104 66.436V70H94.1428ZM109.029 70V58.0344H111.197V68.183H116.467V70H109.029ZM118.09 70V61.0258H120.205V70H118.09ZM119.154 59.7521C118.819 59.7521 118.53 59.6411 118.289 59.4191C118.047 59.1932 117.927 58.9225 117.927 58.607C117.927 58.2876 118.047 58.0169 118.289 57.7948C118.53 57.5689 118.819 57.456 119.154 57.456C119.492 57.456 119.781 57.5689 120.018 57.7948C120.26 58.0169 120.38 58.2876 120.38 58.607C120.38 58.9225 120.26 59.1932 120.018 59.4191C119.781 59.6411 119.492 59.7521 119.154 59.7521ZM128.204 73.3653V68.5861H128.117C128.008 68.8042 127.85 69.036 127.643 69.2814C127.437 69.5229 127.164 69.7293 126.825 69.9007C126.487 70.0721 126.06 70.1577 125.546 70.1577C124.841 70.1577 124.21 69.9766 123.653 69.6144C123.096 69.2521 122.656 68.7263 122.332 68.0369C122.009 67.3475 121.847 66.51 121.847 65.5246C121.847 64.5274 122.011 63.6861 122.338 63.0006C122.669 62.3112 123.115 61.7912 123.676 61.4406C124.237 61.0862 124.862 60.9089 125.552 60.9089C126.078 60.9089 126.51 60.9985 126.849 61.1777C127.188 61.353 127.456 61.5653 127.655 61.8145C127.854 62.0599 128.008 62.2917 128.117 62.5098H128.245V61.0258H130.325V73.3653H128.204ZM126.136 68.4225C126.584 68.4225 126.966 68.3018 127.281 68.0603C127.597 67.8149 127.836 67.4741 128 67.0378C128.163 66.6016 128.245 66.0933 128.245 65.5129C128.245 64.9325 128.163 64.4281 128 63.9997C127.84 63.5712 127.602 63.2382 127.287 63.0006C126.975 62.763 126.592 62.6442 126.136 62.6442C125.665 62.6442 125.271 62.7669 124.956 63.0123C124.64 63.2577 124.403 63.5965 124.243 64.0289C124.083 64.4612 124.003 64.9559 124.003 65.5129C124.003 66.0738 124.083 66.5743 124.243 67.0144C124.407 67.4507 124.646 67.7954 124.962 68.0486C125.281 68.2979 125.672 68.4225 126.136 68.4225ZM138.054 66.2257V61.0258H140.169V70H138.118V68.405H138.025C137.822 68.9074 137.489 69.3184 137.026 69.6378C136.566 69.9572 135.999 70.1169 135.325 70.1169C134.737 70.1169 134.217 69.9864 133.765 69.7254C133.317 69.4605 132.967 69.0769 132.714 68.5744C132.461 68.0681 132.334 67.4565 132.334 66.7398V61.0258H134.449V66.4127C134.449 66.9813 134.605 67.4332 134.916 67.7681C135.228 68.1031 135.637 68.2706 136.143 68.2706C136.455 68.2706 136.757 68.1946 137.049 68.0427C137.341 67.8908 137.581 67.6649 137.768 67.365C137.958 67.0612 138.054 66.6814 138.054 66.2257ZM142.179 70V61.0258H144.294V70H142.179ZM143.243 59.7521C142.908 59.7521 142.619 59.6411 142.378 59.4191C142.136 59.1932 142.016 58.9225 142.016 58.607C142.016 58.2876 142.136 58.0169 142.378 57.7948C142.619 57.5689 142.908 57.456 143.243 57.456C143.581 57.456 143.87 57.5689 144.107 57.7948C144.349 58.0169 144.47 58.2876 144.47 58.607C144.47 58.9225 144.349 59.1932 144.107 59.4191C143.87 59.6411 143.581 59.7521 143.243 59.7521ZM149.635 70.1577C148.93 70.1577 148.299 69.9766 147.742 69.6144C147.185 69.2521 146.745 68.7263 146.422 68.0369C146.098 67.3475 145.937 66.51 145.937 65.5246C145.937 64.5274 146.1 63.6861 146.427 63.0006C146.758 62.3112 147.204 61.7912 147.765 61.4406C148.326 61.0862 148.951 60.9089 149.641 60.9089C150.167 60.9089 150.599 60.9985 150.938 61.1777C151.277 61.353 151.545 61.5653 151.744 61.8145C151.943 62.0599 152.097 62.2917 152.206 62.5098H152.293V58.0344H154.414V70H152.334V68.5861H152.206C152.097 68.8042 151.939 69.036 151.732 69.2814C151.526 69.5229 151.253 69.7293 150.914 69.9007C150.576 70.0721 150.149 70.1577 149.635 70.1577ZM150.225 68.4225C150.673 68.4225 151.055 68.3018 151.37 68.0603C151.686 67.8149 151.925 67.4741 152.089 67.0378C152.252 66.6016 152.334 66.0933 152.334 65.5129C152.334 64.9325 152.252 64.4281 152.089 63.9997C151.929 63.5712 151.692 63.2382 151.376 63.0006C151.064 62.763 150.681 62.6442 150.225 62.6442C149.754 62.6442 149.36 62.7669 149.045 63.0123C148.729 63.2577 148.492 63.5965 148.332 64.0289C148.172 64.4612 148.092 64.9559 148.092 65.5129C148.092 66.0738 148.172 66.5743 148.332 67.0144C148.496 67.4507 148.735 67.7954 149.051 68.0486C149.37 68.2979 149.762 68.4225 150.225 68.4225ZM167.016 61.3238C166.962 60.8135 166.732 60.4162 166.327 60.1319C165.926 59.8475 165.404 59.7054 164.761 59.7054C164.309 59.7054 163.922 59.7735 163.598 59.9099C163.275 60.0462 163.028 60.2312 162.856 60.4649C162.685 60.6986 162.597 60.9654 162.593 61.2653C162.593 61.5146 162.65 61.7308 162.763 61.9139C162.88 62.0969 163.037 62.2527 163.236 62.3813C163.435 62.5059 163.655 62.6111 163.896 62.6968C164.138 62.7825 164.381 62.8545 164.627 62.9129L165.748 63.1934C166.2 63.2986 166.634 63.4407 167.051 63.6199C167.472 63.7991 167.848 64.025 168.179 64.2976C168.514 64.5703 168.779 64.8994 168.973 65.285C169.168 65.6706 169.266 66.1225 169.266 66.6405C169.266 67.3416 169.086 67.959 168.728 68.4926C168.37 69.0223 167.852 69.4372 167.174 69.7371C166.5 70.0331 165.684 70.1811 164.726 70.1811C163.795 70.1811 162.987 70.037 162.301 69.7488C161.62 69.4605 161.086 69.0399 160.7 68.4868C160.319 67.9337 160.112 67.2598 160.081 66.4652H162.214C162.245 66.882 162.373 67.2287 162.599 67.5052C162.825 67.7818 163.119 67.9882 163.481 68.1245C163.848 68.2609 164.257 68.329 164.708 68.329C165.18 68.329 165.593 68.2589 165.947 68.1187C166.305 67.9746 166.586 67.7759 166.788 67.5227C166.991 67.2657 167.094 66.9658 167.098 66.623C167.094 66.3114 167.003 66.0543 166.823 65.8518C166.644 65.6453 166.393 65.4739 166.07 65.3376C165.75 65.1974 165.376 65.0728 164.948 64.9637L163.587 64.6131C162.601 64.36 161.822 63.9763 161.25 63.4622C160.681 62.9441 160.397 62.2566 160.397 61.3997C160.397 60.6947 160.587 60.0773 160.969 59.5476C161.355 59.0179 161.879 58.607 162.541 58.3148C163.203 58.0188 163.953 57.8708 164.79 57.8708C165.639 57.8708 166.383 58.0188 167.022 58.3148C167.665 58.607 168.169 59.014 168.535 59.5359C168.901 60.054 169.09 60.6499 169.102 61.3238H167.016ZM175.421 61.0258V62.6617H170.262V61.0258H175.421ZM171.536 58.8757H173.651V67.3007C173.651 67.5851 173.694 67.8032 173.78 67.9551C173.869 68.1031 173.986 68.2044 174.13 68.2589C174.274 68.3134 174.434 68.3407 174.609 68.3407C174.742 68.3407 174.862 68.331 174.971 68.3115C175.084 68.292 175.17 68.2745 175.228 68.2589L175.585 69.9124C175.472 69.9513 175.31 69.9942 175.1 70.0409C174.894 70.0876 174.64 70.1149 174.34 70.1227C173.811 70.1383 173.334 70.0584 172.909 69.8831C172.484 69.704 172.147 69.4274 171.898 69.0535C171.653 68.6796 171.532 68.2122 171.536 67.6513V58.8757ZM179.608 70.1811C179.039 70.1811 178.527 70.0798 178.071 69.8773C177.62 69.6709 177.261 69.3671 176.996 68.9659C176.735 68.5647 176.605 68.07 176.605 67.4818C176.605 66.9755 176.698 66.5568 176.885 66.2257C177.072 65.8946 177.327 65.6297 177.651 65.4311C177.974 65.2325 178.338 65.0825 178.743 64.9812C179.152 64.8761 179.575 64.8001 180.011 64.7534C180.537 64.6988 180.964 64.6501 181.291 64.6073C181.618 64.5606 181.855 64.4904 182.003 64.397C182.155 64.2996 182.231 64.1496 182.231 63.9471V63.912C182.231 63.4719 182.101 63.1311 181.84 62.8896C181.579 62.6481 181.203 62.5273 180.712 62.5273C180.194 62.5273 179.783 62.6403 179.479 62.8662C179.18 63.0921 178.977 63.3589 178.872 63.6666L176.897 63.3862C177.053 62.8409 177.31 62.3852 177.668 62.019C178.027 61.649 178.465 61.3725 178.983 61.1894C179.501 61.0024 180.073 60.9089 180.701 60.9089C181.133 60.9089 181.563 60.9596 181.992 61.0608C182.42 61.1621 182.812 61.3296 183.166 61.5633C183.521 61.7931 183.805 62.1067 184.019 62.504C184.237 62.9013 184.346 63.3979 184.346 63.9938V70H182.313V68.7672H182.243C182.114 69.0165 181.933 69.2502 181.7 69.4683C181.47 69.6826 181.18 69.8559 180.829 69.9883C180.482 70.1169 180.075 70.1811 179.608 70.1811ZM180.157 68.627C180.582 68.627 180.95 68.5432 181.261 68.3758C181.573 68.2044 181.813 67.9785 181.98 67.698C182.152 67.4176 182.237 67.1118 182.237 66.7807V65.7232C182.171 65.7778 182.058 65.8284 181.898 65.8751C181.743 65.9219 181.567 65.9628 181.372 65.9978C181.178 66.0329 180.985 66.064 180.794 66.0913C180.603 66.1186 180.438 66.1419 180.297 66.1614C179.982 66.2043 179.7 66.2744 179.45 66.3718C179.201 66.4691 179.004 66.6055 178.86 66.7807C178.716 66.9521 178.644 67.1741 178.644 67.4468C178.644 67.8363 178.786 68.1304 179.071 68.329C179.355 68.5277 179.717 68.627 180.157 68.627ZM188.237 67.1839L188.231 64.6307H188.57L191.795 61.0258H194.266L190.299 65.4428H189.861L188.237 67.1839ZM186.309 70V58.0344H188.424V70H186.309ZM191.941 70L189.019 65.916L190.445 64.4262L194.471 70H191.941ZM195.511 70V61.0258H197.626V70H195.511ZM196.574 59.7521C196.24 59.7521 195.951 59.6411 195.71 59.4191C195.468 59.1932 195.348 58.9225 195.348 58.607C195.348 58.2876 195.468 58.0169 195.71 57.7948C195.951 57.5689 196.24 57.456 196.574 57.456C196.913 57.456 197.202 57.5689 197.439 57.7948C197.681 58.0169 197.801 58.2876 197.801 58.607C197.801 58.9225 197.681 59.1932 197.439 59.4191C197.202 59.6411 196.913 59.7521 196.574 59.7521ZM201.752 64.7417V70H199.637V61.0258H201.658V62.5507H201.763C201.97 62.0482 202.299 61.649 202.751 61.353C203.206 61.057 203.769 60.9089 204.439 60.9089C205.058 60.9089 205.598 61.0414 206.058 61.3062C206.521 61.5711 206.879 61.9548 207.133 62.4572C207.39 62.9597 207.516 63.5693 207.512 64.286V70H205.397V64.6131C205.397 64.0133 205.241 63.5439 204.93 63.2051C204.622 62.8662 204.196 62.6968 203.65 62.6968C203.28 62.6968 202.951 62.7786 202.663 62.9422C202.379 63.1019 202.155 63.3336 201.991 63.6374C201.831 63.9412 201.752 64.3093 201.752 64.7417ZM213.401 73.5523C212.641 73.5523 211.989 73.4491 211.443 73.2426C210.898 73.0401 210.46 72.7674 210.129 72.4247C209.798 72.0819 209.568 71.7021 209.439 71.2854L211.344 70.8238C211.43 70.9991 211.554 71.1724 211.718 71.3438C211.882 71.5191 212.102 71.6632 212.378 71.7761C212.659 71.893 213.011 71.9514 213.436 71.9514C214.036 71.9514 214.532 71.8054 214.926 71.5132C215.319 71.225 215.516 70.7498 215.516 70.0876V68.3874H215.411C215.301 68.6056 215.142 68.8295 214.931 69.0593C214.725 69.2892 214.45 69.482 214.108 69.6378C213.769 69.7936 213.342 69.8715 212.828 69.8715C212.139 69.8715 211.514 69.7098 210.953 69.3865C210.396 69.0593 209.952 68.5725 209.621 67.9259C209.293 67.2754 209.13 66.4613 209.13 65.4837C209.13 64.4982 209.293 63.6666 209.621 62.9889C209.952 62.3073 210.398 61.7912 210.958 61.4406C211.519 61.0862 212.145 60.9089 212.834 60.9089C213.36 60.9089 213.792 60.9985 214.131 61.1777C214.474 61.353 214.746 61.5653 214.949 61.8145C215.152 62.0599 215.305 62.2917 215.411 62.5098H215.527V61.0258H217.613V70.1461C217.613 70.9134 217.43 71.5483 217.064 72.0507C216.698 72.5532 216.197 72.9291 215.562 73.1784C214.928 73.4276 214.207 73.5523 213.401 73.5523ZM213.418 68.2122C213.866 68.2122 214.248 68.1031 214.563 67.885C214.879 67.6669 215.118 67.3533 215.282 66.9443C215.446 66.5353 215.527 66.0446 215.527 65.472C215.527 64.9072 215.446 64.4125 215.282 63.988C215.122 63.5634 214.885 63.2343 214.569 63.0006C214.258 62.763 213.874 62.6442 213.418 62.6442C212.947 62.6442 212.554 62.7669 212.238 63.0123C211.923 63.2577 211.685 63.5946 211.525 64.023C211.366 64.4476 211.286 64.9306 211.286 65.472C211.286 66.0212 211.366 66.5022 211.525 66.9151C211.689 67.3241 211.928 67.6435 212.244 67.8733C212.563 68.0992 212.955 68.2122 213.418 68.2122ZM223.626 70V58.0344H228.113C229.033 58.0344 229.804 58.2058 230.427 58.5485C231.054 58.8913 231.527 59.3626 231.847 59.9624C232.17 60.5584 232.332 61.2361 232.332 61.9957C232.332 62.763 232.17 63.4446 231.847 64.0406C231.524 64.6365 231.046 65.1059 230.415 65.4486C229.784 65.7875 229.007 65.9569 228.084 65.9569H225.11V64.1749H227.792C228.33 64.1749 228.77 64.0815 229.112 63.8945C229.455 63.7075 229.708 63.4505 229.872 63.1233C230.039 62.7961 230.123 62.4202 230.123 61.9957C230.123 61.5711 230.039 61.1972 229.872 60.8739C229.708 60.5506 229.453 60.2994 229.107 60.1202C228.764 59.9371 228.322 59.8456 227.78 59.8456H225.794V70H223.626ZM233.956 70V61.0258H236.007V62.5215H236.101C236.264 62.0035 236.545 61.6042 236.942 61.3238C237.343 61.0394 237.801 60.8973 238.315 60.8973C238.432 60.8973 238.562 60.9031 238.707 60.9148C238.855 60.9226 238.977 60.9362 239.075 60.9557V62.9013C238.985 62.8701 238.843 62.8428 238.648 62.8195C238.457 62.7922 238.272 62.7786 238.093 62.7786C237.707 62.7786 237.361 62.8623 237.053 63.0298C236.749 63.1934 236.51 63.4213 236.334 63.7134C236.159 64.0055 236.072 64.3424 236.072 64.7241V70H233.956ZM243.86 70.1753C242.984 70.1753 242.224 69.9825 241.582 69.5969C240.939 69.2113 240.44 68.6718 240.086 67.9785C239.735 67.2851 239.56 66.475 239.56 65.548C239.56 64.6209 239.735 63.8088 240.086 63.1116C240.44 62.4144 240.939 61.873 241.582 61.4874C242.224 61.1017 242.984 60.9089 243.86 60.9089C244.737 60.9089 245.496 61.1017 246.139 61.4874C246.781 61.873 247.278 62.4144 247.629 63.1116C247.983 63.8088 248.16 64.6209 248.16 65.548C248.16 66.475 247.983 67.2851 247.629 67.9785C247.278 68.6718 246.781 69.2113 246.139 69.5969C245.496 69.9825 244.737 70.1753 243.86 70.1753ZM243.872 68.4809C244.347 68.4809 244.744 68.3504 245.064 68.0895C245.383 67.8246 245.621 67.4702 245.777 67.0261C245.936 66.5821 246.016 66.0874 246.016 65.5421C246.016 64.9929 245.936 64.4963 245.777 64.0523C245.621 63.6043 245.383 63.2479 245.064 62.9831C244.744 62.7182 244.347 62.5858 243.872 62.5858C243.385 62.5858 242.98 62.7182 242.657 62.9831C242.337 63.2479 242.098 63.6043 241.938 64.0523C241.782 64.4963 241.704 64.9929 241.704 65.5421C241.704 66.0874 241.782 66.5821 241.938 67.0261C242.098 67.4702 242.337 67.8246 242.657 68.0895C242.98 68.3504 243.385 68.4809 243.872 68.4809ZM254.272 61.0258V62.6617H249.113V61.0258H254.272ZM250.387 58.8757H252.502V67.3007C252.502 67.5851 252.545 67.8032 252.63 67.9551C252.72 68.1031 252.837 68.2044 252.981 68.2589C253.125 68.3134 253.285 68.3407 253.46 68.3407C253.593 68.3407 253.713 68.331 253.822 68.3115C253.935 68.292 254.021 68.2745 254.079 68.2589L254.436 69.9124C254.323 69.9513 254.161 69.9942 253.951 70.0409C253.744 70.0876 253.491 70.1149 253.191 70.1227C252.662 70.1383 252.184 70.0584 251.76 69.8831C251.335 69.704 250.998 69.4274 250.749 69.0535C250.504 68.6796 250.383 68.2122 250.387 67.6513V58.8757ZM259.695 70.1753C258.818 70.1753 258.059 69.9825 257.416 69.5969C256.773 69.2113 256.275 68.6718 255.92 67.9785C255.57 67.2851 255.394 66.475 255.394 65.548C255.394 64.6209 255.57 63.8088 255.92 63.1116C256.275 62.4144 256.773 61.873 257.416 61.4874C258.059 61.1017 258.818 60.9089 259.695 60.9089C260.571 60.9089 261.331 61.1017 261.973 61.4874C262.616 61.873 263.113 62.4144 263.463 63.1116C263.818 63.8088 263.995 64.6209 263.995 65.548C263.995 66.475 263.818 67.2851 263.463 67.9785C263.113 68.6718 262.616 69.2113 261.973 69.5969C261.331 69.9825 260.571 70.1753 259.695 70.1753ZM259.706 68.4809C260.182 68.4809 260.579 68.3504 260.898 68.0895C261.218 67.8246 261.455 67.4702 261.611 67.0261C261.771 66.5821 261.851 66.0874 261.851 65.5421C261.851 64.9929 261.771 64.4963 261.611 64.0523C261.455 63.6043 261.218 63.2479 260.898 62.9831C260.579 62.7182 260.182 62.5858 259.706 62.5858C259.219 62.5858 258.814 62.7182 258.491 62.9831C258.172 63.2479 257.932 63.6043 257.772 64.0523C257.617 64.4963 257.539 64.9929 257.539 65.5421C257.539 66.0874 257.617 66.5821 257.772 67.0261C257.932 67.4702 258.172 67.8246 258.491 68.0895C258.814 68.3504 259.219 68.4809 259.706 68.4809ZM269.54 70.1753C268.644 70.1753 267.875 69.9786 267.232 69.5852C266.593 69.1918 266.101 68.6484 265.754 67.9551C265.411 67.2579 265.24 66.4555 265.24 65.548C265.24 64.6365 265.415 63.8322 265.766 63.135C266.116 62.4339 266.611 61.8885 267.25 61.499C267.892 61.1056 268.652 60.9089 269.528 60.9089C270.257 60.9089 270.901 61.0433 271.462 61.3121C272.027 61.5769 272.477 61.9528 272.812 62.4397C273.147 62.9227 273.338 63.4875 273.384 64.134H271.363C271.281 63.7017 271.086 63.3414 270.779 63.0532C270.475 62.761 270.068 62.615 269.557 62.615C269.125 62.615 268.745 62.7318 268.418 62.9655C268.091 63.1953 267.836 63.5264 267.653 63.9588C267.474 64.3911 267.384 64.9092 267.384 65.5129C267.384 66.1244 267.474 66.6503 267.653 67.0904C267.832 67.5266 268.083 67.8636 268.406 68.1012C268.734 68.3349 269.117 68.4517 269.557 68.4517C269.869 68.4517 270.148 68.3933 270.393 68.2764C270.642 68.1557 270.851 67.9824 271.018 67.7564C271.186 67.5305 271.3 67.2559 271.363 66.9326H273.384C273.334 67.5675 273.147 68.1304 272.823 68.6212C272.5 69.108 272.06 69.4897 271.503 69.7663C270.946 70.039 270.292 70.1753 269.54 70.1753ZM278.871 70.1753C277.995 70.1753 277.235 69.9825 276.592 69.5969C275.95 69.2113 275.451 68.6718 275.097 67.9785C274.746 67.2851 274.571 66.475 274.571 65.548C274.571 64.6209 274.746 63.8088 275.097 63.1116C275.451 62.4144 275.95 61.873 276.592 61.4874C277.235 61.1017 277.995 60.9089 278.871 60.9089C279.747 60.9089 280.507 61.1017 281.15 61.4874C281.792 61.873 282.289 62.4144 282.64 63.1116C282.994 63.8088 283.171 64.6209 283.171 65.548C283.171 66.475 282.994 67.2851 282.64 67.9785C282.289 68.6718 281.792 69.2113 281.15 69.5969C280.507 69.9825 279.747 70.1753 278.871 70.1753ZM278.883 68.4809C279.358 68.4809 279.755 68.3504 280.075 68.0895C280.394 67.8246 280.632 67.4702 280.787 67.0261C280.947 66.5821 281.027 66.0874 281.027 65.5421C281.027 64.9929 280.947 64.4963 280.787 64.0523C280.632 63.6043 280.394 63.2479 280.075 62.9831C279.755 62.7182 279.358 62.5858 278.883 62.5858C278.396 62.5858 277.991 62.7182 277.667 62.9831C277.348 63.2479 277.109 63.6043 276.949 64.0523C276.793 64.4963 276.715 64.9929 276.715 65.5421C276.715 66.0874 276.793 66.5821 276.949 67.0261C277.109 67.4702 277.348 67.8246 277.667 68.0895C277.991 68.3504 278.396 68.4809 278.883 68.4809ZM286.917 58.0344V70H284.802V58.0344H286.917ZM291.515 58.0344L291.323 66.4828H289.441L289.254 58.0344H291.515ZM290.382 70.1285C290.028 70.1285 289.724 70.0039 289.471 69.7546C289.221 69.5053 289.097 69.2015 289.097 68.8432C289.097 68.4926 289.221 68.1927 289.471 67.9434C289.724 67.6941 290.028 67.5695 290.382 67.5695C290.729 67.5695 291.029 67.6941 291.282 67.9434C291.539 68.1927 291.667 68.4926 291.667 68.8432C291.667 69.0808 291.607 69.2969 291.486 69.4917C291.369 69.6864 291.214 69.8423 291.019 69.9591C290.828 70.0721 290.616 70.1285 290.382 70.1285Z" fill="#D8FDF0"/>
<path d="M47.4114 81.6986H48.585L50.3738 84.8114H50.4474L52.2361 81.6986H53.4097L50.9255 85.8579V88.5461H49.8957V85.8579L47.4114 81.6986ZM55.5282 88.6498C55.0467 88.6498 54.6265 88.5395 54.2676 88.3188C53.9088 88.0981 53.6301 87.7894 53.4318 87.3926C53.2334 86.9959 53.1342 86.5322 53.1342 86.0017C53.1342 85.469 53.2334 85.0031 53.4318 84.6041C53.6301 84.2051 53.9088 83.8953 54.2676 83.6746C54.6265 83.4539 55.0467 83.3436 55.5282 83.3436C56.0096 83.3436 56.4298 83.4539 56.7887 83.6746C57.1475 83.8953 57.4262 84.2051 57.6245 84.6041C57.8229 85.0031 57.9221 85.469 57.9221 86.0017C57.9221 86.5322 57.8229 86.9959 57.6245 87.3926C57.4262 87.7894 57.1475 88.0981 56.7887 88.3188C56.4298 88.5395 56.0096 88.6498 55.5282 88.6498ZM55.5315 87.8106C55.8436 87.8106 56.1021 87.7281 56.3072 87.5631C56.5123 87.3982 56.6638 87.1786 56.7619 86.9045C56.8622 86.6303 56.9124 86.3283 56.9124 85.9984C56.9124 85.6707 56.8622 85.3698 56.7619 85.0956C56.6638 84.8192 56.5123 84.5974 56.3072 84.4303C56.1021 84.2631 55.8436 84.1795 55.5315 84.1795C55.2172 84.1795 54.9564 84.2631 54.7491 84.4303C54.544 84.5974 54.3914 84.8192 54.291 85.0956C54.193 85.3698 54.1439 85.6707 54.1439 85.9984C54.1439 86.3283 54.193 86.6303 54.291 86.9045C54.3914 87.1786 54.544 87.3982 54.7491 87.5631C54.9564 87.7281 55.2172 87.8106 55.5315 87.8106ZM62.1971 86.4163V83.4105H63.2002V88.5461H62.2172V87.6568H62.1637C62.0456 87.9309 61.8561 88.1594 61.5953 88.3422C61.3367 88.5227 61.0146 88.613 60.629 88.613C60.2991 88.613 60.0071 88.5406 59.753 88.3957C59.5011 88.2486 59.3027 88.0312 59.1579 87.7437C59.0152 87.4562 58.9439 87.1006 58.9439 86.6771V83.4105H59.9436V86.5567C59.9436 86.9067 60.0406 87.1853 60.2345 87.3926C60.4284 87.5999 60.6803 87.7036 60.9901 87.7036C61.1774 87.7036 61.3635 87.6568 61.5485 87.5631C61.7357 87.4695 61.8906 87.328 62.0132 87.1385C62.1381 86.949 62.1994 86.7083 62.1971 86.4163ZM64.4493 88.5461V83.4105H65.4156V84.2263H65.4691C65.5627 83.9499 65.7276 83.7326 65.9639 83.5743C66.2024 83.4138 66.4721 83.3336 66.7731 83.3336C66.8355 83.3336 66.909 83.3358 66.9937 83.3403C67.0807 83.3447 67.1486 83.3503 67.1977 83.357V84.3132C67.1576 84.3021 67.0862 84.2898 66.9837 84.2765C66.8812 84.2609 66.7786 84.253 66.6761 84.253C66.4398 84.253 66.2292 84.3032 66.0442 84.4035C65.8614 84.5016 65.7165 84.6387 65.6095 84.8148C65.5025 84.9886 65.449 85.187 65.449 85.4099V88.5461H64.4493ZM72.5195 90.579C72.1116 90.579 71.7605 90.5255 71.4663 90.4185C71.1743 90.3115 70.9358 90.17 70.7508 89.9939C70.5658 89.8178 70.4276 89.625 70.3362 89.4155L71.1955 89.061C71.2557 89.1591 71.3359 89.2628 71.4362 89.372C71.5387 89.4834 71.6769 89.5782 71.8508 89.6562C72.0269 89.7342 72.2531 89.7732 72.5295 89.7732C72.9085 89.7732 73.2217 89.6807 73.4691 89.4957C73.7165 89.3129 73.8402 89.0209 73.8402 88.6197V87.61H73.7767C73.7165 87.7192 73.6296 87.8407 73.5159 87.9744C73.4044 88.1081 73.2506 88.224 73.0545 88.3221C72.8583 88.4202 72.6031 88.4692 72.2888 88.4692C71.8831 88.4692 71.5176 88.3745 71.1921 88.185C70.8689 87.9933 70.6126 87.7114 70.4231 87.3391C70.2359 86.9647 70.1423 86.5044 70.1423 85.9582C70.1423 85.4121 70.2348 84.944 70.4198 84.554C70.607 84.1639 70.8633 83.8652 71.1888 83.6579C71.5142 83.4484 71.8831 83.3436 72.2955 83.3436C72.6142 83.3436 72.8717 83.3971 73.0678 83.5041C73.264 83.6089 73.4167 83.7315 73.5259 83.8719C73.6374 84.0123 73.7232 84.136 73.7834 84.243H73.8569V83.4105H74.8366V88.6598C74.8366 89.1012 74.734 89.4634 74.529 89.7465C74.3239 90.0296 74.0464 90.2391 73.6964 90.3751C73.3487 90.511 72.9564 90.579 72.5195 90.579ZM72.5095 87.64C72.797 87.64 73.04 87.5732 73.2384 87.4394C73.439 87.3035 73.5906 87.1095 73.6931 86.8577C73.7979 86.6036 73.8502 86.2993 73.8502 85.9449C73.8502 85.5994 73.799 85.2951 73.6964 85.0321C73.5939 84.7691 73.4434 84.564 73.2451 84.4169C73.0467 84.2675 72.8015 84.1929 72.5095 84.1929C72.2086 84.1929 71.9578 84.2709 71.7572 84.4269C71.5566 84.5807 71.405 84.7902 71.3025 85.0555C71.2022 85.3207 71.152 85.6172 71.152 85.9449C71.152 86.2815 71.2033 86.5768 71.3058 86.8309C71.4083 87.085 71.5599 87.2834 71.7605 87.4261C71.9634 87.5687 72.213 87.64 72.5095 87.64ZM77.5777 88.6598C77.2523 88.6598 76.9581 88.5996 76.695 88.4793C76.432 88.3567 76.2236 88.1795 76.0698 87.9477C75.9182 87.7158 75.8424 87.4316 75.8424 87.0951C75.8424 86.8053 75.8982 86.5668 76.0096 86.3795C76.1211 86.1923 76.2715 86.0441 76.461 85.9348C76.6505 85.8256 76.8622 85.7431 77.0963 85.6874C77.3303 85.6317 77.5688 85.5893 77.8118 85.5604C78.1194 85.5247 78.369 85.4957 78.5607 85.4734C78.7524 85.4489 78.8917 85.4099 78.9787 85.3564C79.0656 85.3029 79.1091 85.216 79.1091 85.0956V85.0722C79.1091 84.7802 79.0266 84.554 78.8617 84.3935C78.6989 84.233 78.456 84.1527 78.1328 84.1527C77.7962 84.1527 77.5309 84.2274 77.337 84.3768C77.1453 84.5239 77.0127 84.6877 76.9391 84.8683L75.9996 84.6543C76.111 84.3422 76.2738 84.0903 76.4877 83.8986C76.704 83.7047 76.9525 83.5643 77.2334 83.4773C77.5142 83.3882 77.8096 83.3436 78.1194 83.3436C78.3245 83.3436 78.5418 83.3681 78.7714 83.4172C79.0032 83.464 79.2194 83.5509 79.42 83.678C79.6229 83.805 79.7889 83.9867 79.9182 84.223C80.0475 84.457 80.1121 84.7613 80.1121 85.1357V88.5461H79.1358V87.844H79.0957C79.0311 87.9733 78.9341 88.1003 78.8048 88.2252C78.6755 88.35 78.5095 88.4536 78.3066 88.5361C78.1038 88.6186 77.8608 88.6598 77.5777 88.6598ZM77.7951 87.8574C78.0715 87.8574 78.3077 87.8028 78.5039 87.6935C78.7023 87.5843 78.8527 87.4417 78.9553 87.2656C79.06 87.0872 79.1124 86.8967 79.1124 86.6938V86.0318C79.0768 86.0675 79.0077 86.1009 78.9051 86.1321C78.8048 86.1611 78.69 86.1867 78.5607 86.209C78.4315 86.2291 78.3055 86.248 78.1829 86.2659C78.0603 86.2815 77.9578 86.2948 77.8753 86.306C77.6814 86.3305 77.5042 86.3717 77.3437 86.4297C77.1854 86.4876 77.0584 86.5712 76.9625 86.6805C76.8689 86.7874 76.8221 86.9301 76.8221 87.1084C76.8221 87.3558 76.9135 87.5431 77.0963 87.6701C77.2791 87.795 77.512 87.8574 77.7951 87.8574ZM83.7469 83.4105V84.2129H80.9416V83.4105H83.7469ZM81.6939 82.1801H82.6936V87.0382C82.6936 87.2321 82.7226 87.3781 82.7806 87.4762C82.8385 87.5721 82.9132 87.6378 83.0046 87.6735C83.0982 87.7069 83.1996 87.7236 83.3089 87.7236C83.3891 87.7236 83.4593 87.7181 83.5195 87.7069C83.5797 87.6958 83.6265 87.6869 83.6599 87.6802L83.8405 88.506C83.7825 88.5283 83.7 88.5506 83.5931 88.5729C83.4861 88.5974 83.3523 88.6108 83.1918 88.613C82.9288 88.6175 82.6836 88.5707 82.4563 88.4726C82.2289 88.3745 82.045 88.2229 81.9046 88.0179C81.7641 87.8128 81.6939 87.5553 81.6939 87.2455V82.1801ZM86.9168 88.6498C86.4108 88.6498 85.9751 88.5417 85.6095 88.3255C85.2462 88.107 84.9653 87.8005 84.7669 87.406C84.5708 87.0092 84.4727 86.5445 84.4727 86.0117C84.4727 85.4857 84.5708 85.0221 84.7669 84.6208C84.9653 84.2196 85.2417 83.9064 85.5961 83.6813C85.9528 83.4562 86.3696 83.3436 86.8466 83.3436C87.1364 83.3436 87.4172 83.3915 87.6892 83.4874C87.9611 83.5832 88.2052 83.7337 88.4214 83.9388C88.6376 84.1438 88.8081 84.4102 88.933 84.7379C89.0578 85.0633 89.1202 85.4589 89.1202 85.9248V86.2792H85.0378V85.5303H88.1406C88.1406 85.2673 88.0871 85.0343 87.9801 84.8315C87.8731 84.6264 87.7226 84.4648 87.5287 84.3467C87.337 84.2285 87.1119 84.1695 86.8533 84.1695C86.5724 84.1695 86.3272 84.2386 86.1177 84.3768C85.9104 84.5127 85.7499 84.6911 85.6363 84.9117C85.5248 85.1302 85.4691 85.3676 85.4691 85.6239V86.209C85.4691 86.5523 85.5293 86.8443 85.6496 87.085C85.7722 87.3258 85.9427 87.5096 86.1612 87.6367C86.3796 87.7615 86.6349 87.8239 86.9269 87.8239C87.1163 87.8239 87.2891 87.7972 87.4451 87.7437C87.6011 87.688 87.736 87.6055 87.8497 87.4963C87.9633 87.3871 88.0503 87.2522 88.1105 87.0917L89.0567 87.2622C88.9809 87.5409 88.8449 87.7849 88.6488 87.9945C88.4548 88.2018 88.2108 88.3634 87.9165 88.4793C87.6245 88.593 87.2913 88.6498 86.9168 88.6498ZM91.2395 88.5461L89.7282 83.4105H90.7613L91.7678 87.182H91.8179L92.8277 83.4105H93.8608L94.8639 87.1653H94.914L95.9137 83.4105H96.9469L95.4389 88.5461H94.4192L93.376 84.8382H93.2991L92.2559 88.5461H91.2395ZM99.296 88.6598C98.9706 88.6598 98.6763 88.5996 98.4133 88.4793C98.1503 88.3567 97.9419 88.1795 97.7881 87.9477C97.6365 87.7158 97.5607 87.4316 97.5607 87.0951C97.5607 86.8053 97.6164 86.5668 97.7279 86.3795C97.8393 86.1923 97.9898 86.0441 98.1793 85.9348C98.3687 85.8256 98.5805 85.7431 98.8145 85.6874C99.0486 85.6317 99.2871 85.5893 99.5301 85.5604C99.8377 85.5247 100.087 85.4957 100.279 85.4734C100.471 85.4489 100.61 85.4099 100.697 85.3564C100.784 85.3029 100.827 85.216 100.827 85.0956V85.0722C100.827 84.7802 100.745 84.554 100.58 84.3935C100.417 84.233 100.174 84.1527 99.851 84.1527C99.5145 84.1527 99.2492 84.2274 99.0553 84.3768C98.8636 84.5239 98.731 84.6877 98.6574 84.8683L97.7179 84.6543C97.8293 84.3422 97.992 84.0903 98.206 83.8986C98.4222 83.7047 98.6708 83.5643 98.9516 83.4773C99.2325 83.3882 99.5278 83.3436 99.8377 83.3436C100.043 83.3436 100.26 83.3681 100.49 83.4172C100.721 83.464 100.938 83.5509 101.138 83.678C101.341 83.805 101.507 83.9867 101.636 84.223C101.766 84.457 101.83 84.7613 101.83 85.1357V88.5461H100.854V87.844H100.814C100.749 87.9733 100.652 88.1003 100.523 88.2252C100.394 88.35 100.228 88.4536 100.025 88.5361C99.8221 88.6186 99.5791 88.6598 99.296 88.6598ZM99.5133 87.8574C99.7897 87.8574 100.026 87.8028 100.222 87.6935C100.421 87.5843 100.571 87.4417 100.674 87.2656C100.778 87.0872 100.831 86.8967 100.831 86.6938V86.0318C100.795 86.0675 100.726 86.1009 100.623 86.1321C100.523 86.1611 100.408 86.1867 100.279 86.209C100.15 86.2291 100.024 86.248 99.9012 86.2659C99.7786 86.2815 99.6761 86.2948 99.5936 86.306C99.3997 86.3305 99.2225 86.3717 99.062 86.4297C98.9037 86.4876 98.7767 86.5712 98.6808 86.6805C98.5872 86.7874 98.5404 86.9301 98.5404 87.1084C98.5404 87.3558 98.6318 87.5431 98.8145 87.6701C98.9973 87.795 99.2303 87.8574 99.5133 87.8574ZM103.516 90.472C103.367 90.472 103.231 90.4598 103.108 90.4352C102.985 90.4129 102.894 90.3884 102.834 90.3617L103.075 89.5425C103.257 89.5916 103.42 89.6127 103.563 89.606C103.705 89.5994 103.831 89.5459 103.94 89.4456C104.052 89.3452 104.15 89.1814 104.235 88.9541L104.358 88.613L102.479 83.4105H103.549L104.85 87.396H104.903L106.204 83.4105H107.277L105.161 89.2316C105.063 89.499 104.938 89.7253 104.786 89.9103C104.635 90.0975 104.454 90.238 104.245 90.3316C104.035 90.4252 103.792 90.472 103.516 90.472ZM112.918 83.4105V84.2129H110.112V83.4105H112.918ZM110.865 82.1801H111.864V87.0382C111.864 87.2321 111.893 87.3781 111.951 87.4762C112.009 87.5721 112.084 87.6378 112.175 87.6735C112.269 87.7069 112.37 87.7236 112.48 87.7236C112.56 87.7236 112.63 87.7181 112.69 87.7069C112.75 87.6958 112.797 87.6869 112.831 87.6802L113.011 88.506C112.953 88.5283 112.871 88.5506 112.764 88.5729C112.657 88.5974 112.523 88.6108 112.363 88.613C112.1 88.6175 111.854 88.5707 111.627 88.4726C111.4 88.3745 111.216 88.2229 111.075 88.0179C110.935 87.8128 110.865 87.5553 110.865 87.2455V82.1801ZM116.037 88.6498C115.556 88.6498 115.136 88.5395 114.777 88.3188C114.418 88.0981 114.139 87.7894 113.941 87.3926C113.743 86.9959 113.643 86.5322 113.643 86.0017C113.643 85.469 113.743 85.0031 113.941 84.6041C114.139 84.2051 114.418 83.8953 114.777 83.6746C115.136 83.4539 115.556 83.3436 116.037 83.3436C116.519 83.3436 116.939 83.4539 117.298 83.6746C117.657 83.8953 117.935 84.2051 118.134 84.6041C118.332 85.0031 118.431 85.469 118.431 86.0017C118.431 86.5322 118.332 86.9959 118.134 87.3926C117.935 87.7894 117.657 88.0981 117.298 88.3188C116.939 88.5395 116.519 88.6498 116.037 88.6498ZM116.041 87.8106C116.353 87.8106 116.611 87.7281 116.816 87.5631C117.022 87.3982 117.173 87.1786 117.271 86.9045C117.372 86.6303 117.422 86.3283 117.422 85.9984C117.422 85.6707 117.372 85.3698 117.271 85.0956C117.173 84.8192 117.022 84.5974 116.816 84.4303C116.611 84.2631 116.353 84.1795 116.041 84.1795C115.726 84.1795 115.466 84.2631 115.258 84.4303C115.053 84.5974 114.901 84.8192 114.8 85.0956C114.702 85.3698 114.653 85.6707 114.653 85.9984C114.653 86.3283 114.702 86.6303 114.8 86.9045C114.901 87.1786 115.053 87.3982 115.258 87.5631C115.466 87.7281 115.726 87.8106 116.041 87.8106ZM125.699 84.6643L124.793 84.8248C124.755 84.7089 124.695 84.5985 124.613 84.4938C124.532 84.389 124.423 84.3032 124.285 84.2363C124.147 84.1695 123.974 84.136 123.767 84.136C123.484 84.136 123.247 84.1996 123.058 84.3266C122.868 84.4514 122.774 84.613 122.774 84.8114C122.774 84.9831 122.837 85.1213 122.964 85.226C123.091 85.3308 123.296 85.4166 123.579 85.4835L124.395 85.6707C124.868 85.7799 125.22 85.9482 125.452 86.1756C125.684 86.4029 125.799 86.6983 125.799 87.0616C125.799 87.3692 125.71 87.6434 125.532 87.8841C125.356 88.1226 125.11 88.3099 124.793 88.4458C124.479 88.5818 124.114 88.6498 123.7 88.6498C123.125 88.6498 122.655 88.5272 122.292 88.282C121.929 88.0346 121.706 87.6835 121.623 87.2288L122.59 87.0817C122.65 87.3336 122.774 87.5241 122.961 87.6534C123.148 87.7805 123.392 87.844 123.693 87.844C124.021 87.844 124.283 87.776 124.479 87.64C124.675 87.5018 124.773 87.3336 124.773 87.1352C124.773 86.9747 124.713 86.8398 124.592 86.7306C124.474 86.6214 124.293 86.5389 124.047 86.4832L123.178 86.2926C122.699 86.1834 122.344 86.0095 122.115 85.771C121.888 85.5325 121.774 85.2305 121.774 84.8649C121.774 84.5618 121.859 84.2965 122.028 84.0692C122.197 83.8418 122.431 83.6646 122.73 83.5375C123.029 83.4082 123.371 83.3436 123.757 83.3436C124.312 83.3436 124.748 83.464 125.067 83.7047C125.386 83.9432 125.597 84.2631 125.699 84.6643ZM126.805 88.5461V83.4105H127.764V84.2464H127.828C127.935 83.9633 128.11 83.7426 128.353 83.5843C128.596 83.4239 128.886 83.3436 129.225 83.3436C129.568 83.3436 129.856 83.4239 130.088 83.5843C130.322 83.7448 130.495 83.9655 130.606 84.2464H130.66C130.782 83.9722 130.977 83.7537 131.245 83.591C131.512 83.4261 131.831 83.3436 132.201 83.3436C132.667 83.3436 133.047 83.4896 133.341 83.7816C133.638 84.0736 133.786 84.5138 133.786 85.1023V88.5461H132.786V85.1959C132.786 84.8482 132.691 84.5963 132.502 84.4403C132.312 84.2843 132.086 84.2062 131.823 84.2062C131.498 84.2062 131.245 84.3065 131.064 84.5072C130.884 84.7055 130.793 84.9608 130.793 85.2728V88.5461H129.797V85.1324C129.797 84.8538 129.71 84.6298 129.536 84.4603C129.362 84.2909 129.136 84.2062 128.857 84.2062C128.668 84.2062 128.493 84.2564 128.333 84.3567C128.174 84.4548 128.046 84.5919 127.948 84.768C127.852 84.944 127.804 85.148 127.804 85.3798V88.5461H126.805ZM136.526 88.6598C136.201 88.6598 135.906 88.5996 135.643 88.4793C135.38 88.3567 135.172 88.1795 135.018 87.9477C134.867 87.7158 134.791 87.4316 134.791 87.0951C134.791 86.8053 134.847 86.5668 134.958 86.3795C135.069 86.1923 135.22 86.0441 135.409 85.9348C135.599 85.8256 135.811 85.7431 136.045 85.6874C136.279 85.6317 136.517 85.5893 136.76 85.5604C137.068 85.5247 137.317 85.4957 137.509 85.4734C137.701 85.4489 137.84 85.4099 137.927 85.3564C138.014 85.3029 138.057 85.216 138.057 85.0956V85.0722C138.057 84.7802 137.975 84.554 137.81 84.3935C137.647 84.233 137.404 84.1527 137.081 84.1527C136.745 84.1527 136.479 84.2274 136.285 84.3768C136.094 84.5239 135.961 84.6877 135.888 84.8683L134.948 84.6543C135.059 84.3422 135.222 84.0903 135.436 83.8986C135.652 83.7047 135.901 83.5643 136.182 83.4773C136.463 83.3882 136.758 83.3436 137.068 83.3436C137.273 83.3436 137.49 83.3681 137.72 83.4172C137.952 83.464 138.168 83.5509 138.368 83.678C138.571 83.805 138.737 83.9867 138.867 84.223C138.996 84.457 139.061 84.7613 139.061 85.1357V88.5461H138.084V87.844H138.044C137.979 87.9733 137.882 88.1003 137.753 88.2252C137.624 88.35 137.458 88.4536 137.255 88.5361C137.052 88.6186 136.809 88.6598 136.526 88.6598ZM136.743 87.8574C137.02 87.8574 137.256 87.8028 137.452 87.6935C137.651 87.5843 137.801 87.4417 137.904 87.2656C138.008 87.0872 138.061 86.8967 138.061 86.6938V86.0318C138.025 86.0675 137.956 86.1009 137.854 86.1321C137.753 86.1611 137.638 86.1867 137.509 86.209C137.38 86.2291 137.254 86.248 137.131 86.2659C137.009 86.2815 136.906 86.2948 136.824 86.306C136.63 86.3305 136.453 86.3717 136.292 86.4297C136.134 86.4876 136.007 86.5712 135.911 86.6805C135.817 86.7874 135.77 86.9301 135.77 87.1084C135.77 87.3558 135.862 87.5431 136.045 87.6701C136.227 87.795 136.46 87.8574 136.743 87.8574ZM140.298 88.5461V83.4105H141.264V84.2263H141.318C141.411 83.9499 141.576 83.7326 141.813 83.5743C142.051 83.4138 142.321 83.3336 142.622 83.3336C142.684 83.3336 142.758 83.3358 142.842 83.3403C142.929 83.3447 142.997 83.3503 143.046 83.357V84.3132C143.006 84.3021 142.935 84.2898 142.832 84.2765C142.73 84.2609 142.627 84.253 142.525 84.253C142.288 84.253 142.078 84.3032 141.893 84.4035C141.71 84.5016 141.565 84.6387 141.458 84.8148C141.351 84.9886 141.298 85.187 141.298 85.4099V88.5461H140.298ZM146.518 83.4105V84.2129H143.713V83.4105H146.518ZM144.465 82.1801H145.465V87.0382C145.465 87.2321 145.494 87.3781 145.552 87.4762C145.61 87.5721 145.684 87.6378 145.776 87.6735C145.869 87.7069 145.971 87.7236 146.08 87.7236C146.16 87.7236 146.23 87.7181 146.291 87.7069C146.351 87.6958 146.398 87.6869 146.431 87.6802L146.612 88.506C146.554 88.5283 146.471 88.5506 146.364 88.5729C146.257 88.5974 146.124 88.6108 145.963 88.613C145.7 88.6175 145.455 88.5707 145.227 88.4726C145 88.3745 144.816 88.2229 144.676 88.0179C144.535 87.8128 144.465 87.5553 144.465 87.2455V82.1801ZM149.688 88.6498C149.182 88.6498 148.746 88.5417 148.381 88.3255C148.017 88.107 147.736 87.8005 147.538 87.406C147.342 87.0092 147.244 86.5445 147.244 86.0117C147.244 85.4857 147.342 85.0221 147.538 84.6208C147.736 84.2196 148.013 83.9064 148.367 83.6813C148.724 83.4562 149.141 83.3436 149.618 83.3436C149.908 83.3436 150.188 83.3915 150.46 83.4874C150.732 83.5832 150.976 83.7337 151.193 83.9388C151.409 84.1438 151.579 84.4102 151.704 84.7379C151.829 85.0633 151.891 85.4589 151.891 85.9248V86.2792H147.809V85.5303H150.912C150.912 85.2673 150.858 85.0343 150.751 84.8315C150.644 84.6264 150.494 84.4648 150.3 84.3467C150.108 84.2285 149.883 84.1695 149.624 84.1695C149.344 84.1695 149.098 84.2386 148.889 84.3768C148.682 84.5127 148.521 84.6911 148.407 84.9117C148.296 85.1302 148.24 85.3676 148.24 85.6239V86.209C148.24 86.5523 148.3 86.8443 148.421 87.085C148.543 87.3258 148.714 87.5096 148.932 87.6367C149.151 87.7615 149.406 87.8239 149.698 87.8239C149.888 87.8239 150.06 87.7972 150.216 87.7437C150.372 87.688 150.507 87.6055 150.621 87.4963C150.735 87.3871 150.821 87.2522 150.882 87.0917L151.828 87.2622C151.752 87.5409 151.616 87.7849 151.42 87.9945C151.226 88.2018 150.982 88.3634 150.688 88.4793C150.396 88.593 150.062 88.6498 149.688 88.6498ZM152.906 88.5461V83.4105H153.873V84.2263H153.926C154.02 83.9499 154.185 83.7326 154.421 83.5743C154.66 83.4138 154.929 83.3336 155.23 83.3336C155.293 83.3336 155.366 83.3358 155.451 83.3403C155.538 83.3447 155.606 83.3503 155.655 83.357V84.3132C155.615 84.3021 155.543 84.2898 155.441 84.2765C155.338 84.2609 155.236 84.253 155.133 84.253C154.897 84.253 154.686 84.3032 154.501 84.4035C154.319 84.5016 154.174 84.6387 154.067 84.8148C153.96 84.9886 153.906 85.187 153.906 85.4099V88.5461H152.906ZM162.672 84.6643L161.766 84.8248C161.728 84.7089 161.668 84.5985 161.585 84.4938C161.505 84.389 161.396 84.3032 161.258 84.2363C161.119 84.1695 160.947 84.136 160.739 84.136C160.456 84.136 160.22 84.1996 160.03 84.3266C159.841 84.4514 159.746 84.613 159.746 84.8114C159.746 84.9831 159.81 85.1213 159.937 85.226C160.064 85.3308 160.269 85.4166 160.552 85.4835L161.368 85.6707C161.84 85.7799 162.193 85.9482 162.424 86.1756C162.656 86.4029 162.772 86.6983 162.772 87.0616C162.772 87.3692 162.683 87.6434 162.505 87.8841C162.329 88.1226 162.082 88.3099 161.766 88.4458C161.451 88.5818 161.087 88.6498 160.672 88.6498C160.097 88.6498 159.628 88.5272 159.265 88.282C158.901 88.0346 158.679 87.6835 158.596 87.2288L159.562 87.0817C159.623 87.3336 159.746 87.5241 159.933 87.6534C160.121 87.7805 160.365 87.844 160.666 87.844C160.993 87.844 161.255 87.776 161.451 87.64C161.648 87.5018 161.746 87.3336 161.746 87.1352C161.746 86.9747 161.686 86.8398 161.565 86.7306C161.447 86.6214 161.265 86.5389 161.02 86.4832L160.151 86.2926C159.672 86.1834 159.317 86.0095 159.088 85.771C158.86 85.5325 158.747 85.2305 158.747 84.8649C158.747 84.5618 158.831 84.2965 159.001 84.0692C159.17 83.8418 159.404 83.6646 159.703 83.5375C160.001 83.4082 160.344 83.3436 160.729 83.3436C161.284 83.3436 161.721 83.464 162.04 83.7047C162.359 83.9432 162.569 84.2631 162.672 84.6643ZM166.174 83.4105V84.2129H163.369V83.4105H166.174ZM164.122 82.1801H165.121V87.0382C165.121 87.2321 165.15 87.3781 165.208 87.4762C165.266 87.5721 165.341 87.6378 165.432 87.6735C165.526 87.7069 165.627 87.7236 165.736 87.7236C165.817 87.7236 165.887 87.7181 165.947 87.7069C166.007 87.6958 166.054 87.6869 166.088 87.6802L166.268 88.506C166.21 88.5283 166.128 88.5506 166.021 88.5729C165.914 88.5974 165.78 88.6108 165.619 88.613C165.356 88.6175 165.111 88.5707 164.884 88.4726C164.657 88.3745 164.473 88.2229 164.332 88.0179C164.192 87.8128 164.122 87.5553 164.122 87.2455V82.1801ZM168.681 88.6598C168.355 88.6598 168.061 88.5996 167.798 88.4793C167.535 88.3567 167.327 88.1795 167.173 87.9477C167.021 87.7158 166.945 87.4316 166.945 87.0951C166.945 86.8053 167.001 86.5668 167.113 86.3795C167.224 86.1923 167.375 86.0441 167.564 85.9348C167.753 85.8256 167.965 85.7431 168.199 85.6874C168.433 85.6317 168.672 85.5893 168.915 85.5604C169.222 85.5247 169.472 85.4957 169.664 85.4734C169.855 85.4489 169.995 85.4099 170.082 85.3564C170.169 85.3029 170.212 85.216 170.212 85.0956V85.0722C170.212 84.7802 170.13 84.554 169.965 84.3935C169.802 84.233 169.559 84.1527 169.236 84.1527C168.899 84.1527 168.634 84.2274 168.44 84.3768C168.248 84.5239 168.116 84.6877 168.042 84.8683L167.103 84.6543C167.214 84.3422 167.377 84.0903 167.591 83.8986C167.807 83.7047 168.056 83.5643 168.336 83.4773C168.617 83.3882 168.913 83.3436 169.222 83.3436C169.427 83.3436 169.645 83.3681 169.874 83.4172C170.106 83.464 170.322 83.5509 170.523 83.678C170.726 83.805 170.892 83.9867 171.021 84.223C171.151 84.457 171.215 84.7613 171.215 85.1357V88.5461H170.239V87.844H170.199C170.134 87.9733 170.037 88.1003 169.908 88.2252C169.779 88.35 169.612 88.4536 169.41 88.5361C169.207 88.6186 168.964 88.6598 168.681 88.6598ZM168.898 87.8574C169.174 87.8574 169.411 87.8028 169.607 87.6935C169.805 87.5843 169.956 87.4417 170.058 87.2656C170.163 87.0872 170.215 86.8967 170.215 86.6938V86.0318C170.18 86.0675 170.111 86.1009 170.008 86.1321C169.908 86.1611 169.793 86.1867 169.664 86.209C169.534 86.2291 169.409 86.248 169.286 86.2659C169.163 86.2815 169.061 86.2948 168.978 86.306C168.784 86.3305 168.607 86.3717 168.447 86.4297C168.288 86.4876 168.161 86.5712 168.066 86.6805C167.972 86.7874 167.925 86.9301 167.925 87.1084C167.925 87.3558 168.017 87.5431 168.199 87.6701C168.382 87.795 168.615 87.8574 168.898 87.8574ZM173.372 86.8042L173.365 85.5838H173.539L175.585 83.4105H176.782L174.449 85.8847H174.292L173.372 86.8042ZM172.453 88.5461V81.6986H173.452V88.5461H172.453ZM175.696 88.5461L173.857 86.1054L174.546 85.4066L176.923 88.5461H175.696ZM177.599 88.5461V83.4105H178.599V88.5461H177.599ZM178.104 82.6181C177.93 82.6181 177.781 82.5601 177.656 82.4442C177.534 82.3261 177.472 82.1856 177.472 82.0229C177.472 81.858 177.534 81.7175 177.656 81.6016C177.781 81.4835 177.93 81.4244 178.104 81.4244C178.278 81.4244 178.426 81.4835 178.549 81.6016C178.674 81.7175 178.736 81.858 178.736 82.0229C178.736 82.1856 178.674 82.3261 178.549 82.4442C178.426 82.5601 178.278 82.6181 178.104 82.6181ZM180.85 85.4968V88.5461H179.85V83.4105H180.809V84.2464H180.873C180.991 83.9744 181.176 83.756 181.428 83.591C181.682 83.4261 182.002 83.3436 182.388 83.3436C182.738 83.3436 183.044 83.4172 183.307 83.5643C183.57 83.7092 183.774 83.9254 183.919 84.2129C184.064 84.5005 184.136 84.856 184.136 85.2795V88.5461H183.137V85.3999C183.137 85.0276 183.04 84.7367 182.846 84.5272C182.652 84.3155 182.385 84.2096 182.047 84.2096C181.815 84.2096 181.609 84.2597 181.428 84.36C181.25 84.4603 181.108 84.6075 181.003 84.8014C180.901 84.9931 180.85 85.2249 180.85 85.4968ZM187.536 90.579C187.128 90.579 186.777 90.5255 186.483 90.4185C186.191 90.3115 185.952 90.17 185.767 89.9939C185.582 89.8178 185.444 89.625 185.353 89.4155L186.212 89.061C186.272 89.1591 186.353 89.2628 186.453 89.372C186.555 89.4834 186.694 89.5782 186.867 89.6562C187.044 89.7342 187.27 89.7732 187.546 89.7732C187.925 89.7732 188.238 89.6807 188.486 89.4957C188.733 89.3129 188.857 89.0209 188.857 88.6197V87.61H188.793C188.733 87.7192 188.646 87.8407 188.533 87.9744C188.421 88.1081 188.267 88.224 188.071 88.3221C187.875 88.4202 187.62 88.4692 187.305 88.4692C186.9 88.4692 186.534 88.3745 186.209 88.185C185.886 87.9933 185.629 87.7114 185.44 87.3391C185.252 86.9647 185.159 86.5044 185.159 85.9582C185.159 85.4121 185.251 84.944 185.436 84.554C185.624 84.1639 185.88 83.8652 186.205 83.6579C186.531 83.4484 186.9 83.3436 187.312 83.3436C187.631 83.3436 187.888 83.3971 188.084 83.5041C188.281 83.6089 188.433 83.7315 188.543 83.8719C188.654 84.0123 188.74 84.136 188.8 84.243H188.874V83.4105H189.853V88.6598C189.853 89.1012 189.751 89.4634 189.546 89.7465C189.341 90.0296 189.063 90.2391 188.713 90.3751C188.365 90.511 187.973 90.579 187.536 90.579ZM187.526 87.64C187.814 87.64 188.057 87.5732 188.255 87.4394C188.456 87.3035 188.607 87.1095 188.71 86.8577C188.814 86.6036 188.867 86.2993 188.867 85.9449C188.867 85.5994 188.816 85.2951 188.713 85.0321C188.611 84.7691 188.46 84.564 188.262 84.4169C188.063 84.2675 187.818 84.1929 187.526 84.1929C187.225 84.1929 186.974 84.2709 186.774 84.4269C186.573 84.5807 186.422 84.7902 186.319 85.0555C186.219 85.3207 186.169 85.6172 186.169 85.9449C186.169 86.2815 186.22 86.5768 186.322 86.8309C186.425 87.085 186.577 87.2834 186.777 87.4261C186.98 87.5687 187.23 87.64 187.526 87.64ZM194.992 88.6598C194.667 88.6598 194.372 88.5996 194.109 88.4793C193.846 88.3567 193.638 88.1795 193.484 87.9477C193.332 87.7158 193.257 87.4316 193.257 87.0951C193.257 86.8053 193.312 86.5668 193.424 86.3795C193.535 86.1923 193.686 86.0441 193.875 85.9348C194.065 85.8256 194.276 85.7431 194.511 85.6874C194.745 85.6317 194.983 85.5893 195.226 85.5604C195.534 85.5247 195.783 85.4957 195.975 85.4734C196.167 85.4489 196.306 85.4099 196.393 85.3564C196.48 85.3029 196.523 85.216 196.523 85.0956V85.0722C196.523 84.7802 196.441 84.554 196.276 84.3935C196.113 84.233 195.87 84.1527 195.547 84.1527C195.21 84.1527 194.945 84.2274 194.751 84.3768C194.56 84.5239 194.427 84.6877 194.353 84.8683L193.414 84.6543C193.525 84.3422 193.688 84.0903 193.902 83.8986C194.118 83.7047 194.367 83.5643 194.648 83.4773C194.928 83.3882 195.224 83.3436 195.534 83.3436C195.739 83.3436 195.956 83.3681 196.186 83.4172C196.417 83.464 196.634 83.5509 196.834 83.678C197.037 83.805 197.203 83.9867 197.332 84.223C197.462 84.457 197.526 84.7613 197.526 85.1357V88.5461H196.55V87.844H196.51C196.445 87.9733 196.348 88.1003 196.219 88.2252C196.09 88.35 195.924 88.4536 195.721 88.5361C195.518 88.6186 195.275 88.6598 194.992 88.6598ZM195.209 87.8574C195.486 87.8574 195.722 87.8028 195.918 87.6935C196.117 87.5843 196.267 87.4417 196.37 87.2656C196.474 87.0872 196.527 86.8967 196.527 86.6938V86.0318C196.491 86.0675 196.422 86.1009 196.319 86.1321C196.219 86.1611 196.104 86.1867 195.975 86.209C195.846 86.2291 195.72 86.248 195.597 86.2659C195.475 86.2815 195.372 86.2948 195.29 86.306C195.096 86.3305 194.918 86.3717 194.758 86.4297C194.6 86.4876 194.473 86.5712 194.377 86.6805C194.283 86.7874 194.236 86.9301 194.236 87.1084C194.236 87.3558 194.328 87.5431 194.511 87.6701C194.693 87.795 194.926 87.8574 195.209 87.8574ZM199.764 85.4968V88.5461H198.764V83.4105H199.723V84.2464H199.787C199.905 83.9744 200.09 83.756 200.342 83.591C200.596 83.4261 200.916 83.3436 201.302 83.3436C201.651 83.3436 201.958 83.4172 202.221 83.5643C202.484 83.7092 202.688 83.9254 202.833 84.2129C202.978 84.5005 203.05 84.856 203.05 85.2795V88.5461H202.05V85.3999C202.05 85.0276 201.954 84.7367 201.76 84.5272C201.566 84.3155 201.299 84.2096 200.96 84.2096C200.729 84.2096 200.522 84.2597 200.342 84.36C200.164 84.4603 200.022 84.6075 199.917 84.8014C199.815 84.9931 199.764 85.2249 199.764 85.4968ZM206.219 88.6464C205.805 88.6464 205.435 88.5406 205.109 88.3288C204.786 88.1148 204.532 87.8106 204.347 87.416C204.164 87.0193 204.073 86.5434 204.073 85.9883C204.073 85.4333 204.165 84.9585 204.35 84.564C204.538 84.1695 204.794 83.8674 205.119 83.6579C205.445 83.4484 205.814 83.3436 206.226 83.3436C206.545 83.3436 206.801 83.3971 206.995 83.5041C207.191 83.6089 207.343 83.7315 207.45 83.8719C207.559 84.0123 207.644 84.136 207.704 84.243H207.764V81.6986H208.764V88.5461H207.787V87.747H207.704C207.644 87.8563 207.557 87.9811 207.443 88.1215C207.332 88.2619 207.178 88.3845 206.982 88.4893C206.786 88.5941 206.531 88.6464 206.219 88.6464ZM206.44 87.7938C206.728 87.7938 206.971 87.7181 207.169 87.5665C207.37 87.4127 207.521 87.1998 207.624 86.9279C207.728 86.6559 207.781 86.3394 207.781 85.9783C207.781 85.6217 207.729 85.3096 207.627 85.0421C207.524 84.7746 207.374 84.5662 207.176 84.4169C206.977 84.2675 206.732 84.1929 206.44 84.1929C206.139 84.1929 205.888 84.2709 205.688 84.4269C205.487 84.5829 205.336 84.7958 205.233 85.0655C205.133 85.3352 205.083 85.6395 205.083 85.9783C205.083 86.3216 205.134 86.6303 205.236 86.9045C205.339 87.1786 205.49 87.396 205.691 87.5565C205.894 87.7147 206.144 87.7938 206.44 87.7938ZM214.647 90.579C214.239 90.579 213.888 90.5255 213.594 90.4185C213.302 90.3115 213.064 90.17 212.879 89.9939C212.694 89.8178 212.555 89.625 212.464 89.4155L213.323 89.061C213.383 89.1591 213.464 89.2628 213.564 89.372C213.667 89.4834 213.805 89.5782 213.979 89.6562C214.155 89.7342 214.381 89.7732 214.657 89.7732C215.036 89.7732 215.349 89.6807 215.597 89.4957C215.844 89.3129 215.968 89.0209 215.968 88.6197V87.61H215.904C215.844 87.7192 215.757 87.8407 215.644 87.9744C215.532 88.1081 215.378 88.224 215.182 88.3221C214.986 88.4202 214.731 88.4692 214.417 88.4692C214.011 88.4692 213.645 88.3745 213.32 88.185C212.997 87.9933 212.74 87.7114 212.551 87.3391C212.364 86.9647 212.27 86.5044 212.27 85.9582C212.27 85.4121 212.363 84.944 212.548 84.554C212.735 84.1639 212.991 83.8652 213.317 83.6579C213.642 83.4484 214.011 83.3436 214.423 83.3436C214.742 83.3436 214.999 83.3971 215.196 83.5041C215.392 83.6089 215.544 83.7315 215.654 83.8719C215.765 84.0123 215.851 84.136 215.911 84.243H215.985V83.4105H216.964V88.6598C216.964 89.1012 216.862 89.4634 216.657 89.7465C216.452 90.0296 216.174 90.2391 215.824 90.3751C215.477 90.511 215.084 90.579 214.647 90.579ZM214.637 87.64C214.925 87.64 215.168 87.5732 215.366 87.4394C215.567 87.3035 215.718 87.1095 215.821 86.8577C215.926 86.6036 215.978 86.2993 215.978 85.9449C215.978 85.5994 215.927 85.2951 215.824 85.0321C215.722 84.7691 215.571 84.564 215.373 84.4169C215.174 84.2675 214.929 84.1929 214.637 84.1929C214.336 84.1929 214.086 84.2709 213.885 84.4269C213.684 84.5807 213.533 84.7902 213.43 85.0555C213.33 85.3207 213.28 85.6172 213.28 85.9449C213.28 86.2815 213.331 86.5768 213.434 86.8309C213.536 87.085 213.688 87.2834 213.888 87.4261C214.091 87.5687 214.341 87.64 214.637 87.64ZM218.211 88.5461V83.4105H219.177V84.2263H219.231C219.324 83.9499 219.489 83.7326 219.726 83.5743C219.964 83.4138 220.234 83.3336 220.535 83.3336C220.597 83.3336 220.671 83.3358 220.755 83.3403C220.842 83.3447 220.91 83.3503 220.959 83.357V84.3132C220.919 84.3021 220.848 84.2898 220.745 84.2765C220.643 84.2609 220.54 84.253 220.438 84.253C220.201 84.253 219.991 84.3032 219.806 84.4035C219.623 84.5016 219.478 84.6387 219.371 84.8148C219.264 84.9886 219.211 85.187 219.211 85.4099V88.5461H218.211ZM223.76 88.6498C223.254 88.6498 222.818 88.5417 222.453 88.3255C222.089 88.107 221.808 87.8005 221.61 87.406C221.414 87.0092 221.316 86.5445 221.316 86.0117C221.316 85.4857 221.414 85.0221 221.61 84.6208C221.808 84.2196 222.085 83.9064 222.439 83.6813C222.796 83.4562 223.213 83.3436 223.69 83.3436C223.979 83.3436 224.26 83.3915 224.532 83.4874C224.804 83.5832 225.048 83.7337 225.264 83.9388C225.481 84.1438 225.651 84.4102 225.776 84.7379C225.901 85.0633 225.963 85.4589 225.963 85.9248V86.2792H221.881V85.5303H224.984C224.984 85.2673 224.93 85.0343 224.823 84.8315C224.716 84.6264 224.566 84.4648 224.372 84.3467C224.18 84.2285 223.955 84.1695 223.696 84.1695C223.415 84.1695 223.17 84.2386 222.961 84.3768C222.753 84.5127 222.593 84.6911 222.479 84.9117C222.368 85.1302 222.312 85.3676 222.312 85.6239V86.209C222.312 86.5523 222.372 86.8443 222.493 87.085C222.615 87.3258 222.786 87.5096 223.004 87.6367C223.223 87.7615 223.478 87.8239 223.77 87.8239C223.959 87.8239 224.132 87.7972 224.288 87.7437C224.444 87.688 224.579 87.6055 224.693 87.4963C224.806 87.3871 224.893 87.2522 224.953 87.0917L225.9 87.2622C225.824 87.5409 225.688 87.7849 225.492 87.9945C225.298 88.2018 225.054 88.3634 224.76 88.4793C224.468 88.593 224.134 88.6498 223.76 88.6498ZM228.473 88.6598C228.147 88.6598 227.853 88.5996 227.59 88.4793C227.327 88.3567 227.119 88.1795 226.965 87.9477C226.813 87.7158 226.738 87.4316 226.738 87.0951C226.738 86.8053 226.793 86.5668 226.905 86.3795C227.016 86.1923 227.167 86.0441 227.356 85.9348C227.546 85.8256 227.757 85.7431 227.991 85.6874C228.225 85.6317 228.464 85.5893 228.707 85.5604C229.015 85.5247 229.264 85.4957 229.456 85.4734C229.648 85.4489 229.787 85.4099 229.874 85.3564C229.961 85.3029 230.004 85.216 230.004 85.0956V85.0722C230.004 84.7802 229.922 84.554 229.757 84.3935C229.594 84.233 229.351 84.1527 229.028 84.1527C228.691 84.1527 228.426 84.2274 228.232 84.3768C228.04 84.5239 227.908 84.6877 227.834 84.8683L226.895 84.6543C227.006 84.3422 227.169 84.0903 227.383 83.8986C227.599 83.7047 227.848 83.5643 228.128 83.4773C228.409 83.3882 228.705 83.3436 229.015 83.3436C229.22 83.3436 229.437 83.3681 229.666 83.4172C229.898 83.464 230.115 83.5509 230.315 83.678C230.518 83.805 230.684 83.9867 230.813 84.223C230.943 84.457 231.007 84.7613 231.007 85.1357V88.5461H230.031V87.844H229.991C229.926 87.9733 229.829 88.1003 229.7 88.2252C229.571 88.35 229.405 88.4536 229.202 88.5361C228.999 88.6186 228.756 88.6598 228.473 88.6598ZM228.69 87.8574C228.967 87.8574 229.203 87.8028 229.399 87.6935C229.597 87.5843 229.748 87.4417 229.85 87.2656C229.955 87.0872 230.008 86.8967 230.008 86.6938V86.0318C229.972 86.0675 229.903 86.1009 229.8 86.1321C229.7 86.1611 229.585 86.1867 229.456 86.209C229.327 86.2291 229.201 86.248 229.078 86.2659C228.955 86.2815 228.853 86.2948 228.77 86.306C228.577 86.3305 228.399 86.3717 228.239 86.4297C228.081 86.4876 227.953 86.5712 227.858 86.6805C227.764 86.7874 227.717 86.9301 227.717 87.1084C227.717 87.3558 227.809 87.5431 227.991 87.6701C228.174 87.795 228.407 87.8574 228.69 87.8574ZM234.642 83.4105V84.2129H231.837V83.4105H234.642ZM232.589 82.1801H233.589V87.0382C233.589 87.2321 233.618 87.3781 233.676 87.4762C233.734 87.5721 233.808 87.6378 233.9 87.6735C233.993 87.7069 234.095 87.7236 234.204 87.7236C234.284 87.7236 234.354 87.7181 234.415 87.7069C234.475 87.6958 234.522 87.6869 234.555 87.6802L234.736 88.506C234.678 88.5283 234.595 88.5506 234.488 88.5729C234.381 88.5974 234.247 88.6108 234.087 88.613C233.824 88.6175 233.579 88.5707 233.351 88.4726C233.124 88.3745 232.94 88.2229 232.8 88.0179C232.659 87.8128 232.589 87.5553 232.589 87.2455V82.1801ZM237.812 88.6498C237.306 88.6498 236.87 88.5417 236.505 88.3255C236.141 88.107 235.86 87.8005 235.662 87.406C235.466 87.0092 235.368 86.5445 235.368 86.0117C235.368 85.4857 235.466 85.0221 235.662 84.6208C235.86 84.2196 236.137 83.9064 236.491 83.6813C236.848 83.4562 237.265 83.3436 237.742 83.3436C238.032 83.3436 238.312 83.3915 238.584 83.4874C238.856 83.5832 239.1 83.7337 239.317 83.9388C239.533 84.1438 239.703 84.4102 239.828 84.7379C239.953 85.0633 240.015 85.4589 240.015 85.9248V86.2792H235.933V85.5303H239.036C239.036 85.2673 238.982 85.0343 238.875 84.8315C238.768 84.6264 238.618 84.4648 238.424 84.3467C238.232 84.2285 238.007 84.1695 237.748 84.1695C237.468 84.1695 237.222 84.2386 237.013 84.3768C236.806 84.5127 236.645 84.6911 236.531 84.9117C236.42 85.1302 236.364 85.3676 236.364 85.6239V86.209C236.364 86.5523 236.424 86.8443 236.545 87.085C236.667 87.3258 236.838 87.5096 237.056 87.6367C237.275 87.7615 237.53 87.8239 237.822 87.8239C238.011 87.8239 238.184 87.7972 238.34 87.7437C238.496 87.688 238.631 87.6055 238.745 87.4963C238.858 87.3871 238.945 87.2522 239.006 87.0917L239.952 87.2622C239.876 87.5409 239.74 87.7849 239.544 87.9945C239.35 88.2018 239.106 88.3634 238.812 88.4793C238.52 88.593 238.186 88.6498 237.812 88.6498ZM241.03 88.5461V83.4105H241.997V84.2263H242.05C242.144 83.9499 242.309 83.7326 242.545 83.5743C242.784 83.4138 243.053 83.3336 243.354 83.3336C243.417 83.3336 243.49 83.3358 243.575 83.3403C243.662 83.3447 243.73 83.3503 243.779 83.357V84.3132C243.739 84.3021 243.667 84.2898 243.565 84.2765C243.462 84.2609 243.36 84.253 243.257 84.253C243.021 84.253 242.81 84.3032 242.625 84.4035C242.442 84.5016 242.298 84.6387 242.191 84.8148C242.084 84.9886 242.03 85.187 242.03 85.4099V88.5461H241.03ZM247.579 90.472C247.43 90.472 247.294 90.4598 247.171 90.4352C247.049 90.4129 246.957 90.3884 246.897 90.3617L247.138 89.5425C247.321 89.5916 247.483 89.6127 247.626 89.606C247.769 89.5994 247.895 89.5459 248.004 89.4456C248.115 89.3452 248.213 89.1814 248.298 88.9541L248.422 88.613L246.543 83.4105H247.613L248.913 87.396H248.967L250.268 83.4105H251.341L249.224 89.2316C249.126 89.499 249.001 89.7253 248.85 89.9103C248.698 90.0975 248.518 90.238 248.308 90.3316C248.099 90.4252 247.856 90.472 247.579 90.472ZM252.186 88.5461V83.4105H253.186V88.5461H252.186ZM252.691 82.6181C252.517 82.6181 252.368 82.5601 252.243 82.4442C252.12 82.3261 252.059 82.1856 252.059 82.0229C252.059 81.858 252.12 81.7175 252.243 81.6016C252.368 81.4835 252.517 81.4244 252.691 81.4244C252.865 81.4244 253.013 81.4835 253.136 81.6016C253.261 81.7175 253.323 81.858 253.323 82.0229C253.323 82.1856 253.261 82.3261 253.136 82.4442C253.013 82.5601 252.865 82.6181 252.691 82.6181ZM256.65 88.6498C256.144 88.6498 255.708 88.5417 255.343 88.3255C254.979 88.107 254.699 87.8005 254.5 87.406C254.304 87.0092 254.206 86.5445 254.206 86.0117C254.206 85.4857 254.304 85.0221 254.5 84.6208C254.699 84.2196 254.975 83.9064 255.329 83.6813C255.686 83.4562 256.103 83.3436 256.58 83.3436C256.87 83.3436 257.151 83.3915 257.422 83.4874C257.694 83.5832 257.938 83.7337 258.155 83.9388C258.371 84.1438 258.541 84.4102 258.666 84.7379C258.791 85.0633 258.853 85.4589 258.853 85.9248V86.2792H254.771V85.5303H257.874C257.874 85.2673 257.82 85.0343 257.713 84.8315C257.606 84.6264 257.456 84.4648 257.262 84.3467C257.07 84.2285 256.845 84.1695 256.587 84.1695C256.306 84.1695 256.061 84.2386 255.851 84.3768C255.644 84.5127 255.483 84.6911 255.37 84.9117C255.258 85.1302 255.202 85.3676 255.202 85.6239V86.209C255.202 86.5523 255.263 86.8443 255.383 87.085C255.505 87.3258 255.676 87.5096 255.894 87.6367C256.113 87.7615 256.368 87.8239 256.66 87.8239C256.85 87.8239 257.022 87.7972 257.178 87.7437C257.334 87.688 257.469 87.6055 257.583 87.4963C257.697 87.3871 257.784 87.2522 257.844 87.0917L258.79 87.2622C258.714 87.5409 258.578 87.7849 258.382 87.9945C258.188 88.2018 257.944 88.3634 257.65 88.4793C257.358 88.593 257.025 88.6498 256.65 88.6498ZM260.868 81.6986V88.5461H259.869V81.6986H260.868ZM264.042 88.6464C263.627 88.6464 263.257 88.5406 262.931 88.3288C262.608 88.1148 262.354 87.8106 262.169 87.416C261.986 87.0193 261.895 86.5434 261.895 85.9883C261.895 85.4333 261.987 84.9585 262.173 84.564C262.36 84.1695 262.616 83.8674 262.942 83.6579C263.267 83.4484 263.636 83.3436 264.048 83.3436C264.367 83.3436 264.623 83.3971 264.817 83.5041C265.013 83.6089 265.165 83.7315 265.272 83.8719C265.381 84.0123 265.466 84.136 265.526 84.243H265.586V81.6986H266.586V88.5461H265.61V87.747H265.526C265.466 87.8563 265.379 87.9811 265.265 88.1215C265.154 88.2619 265 88.3845 264.804 88.4893C264.608 88.5941 264.354 88.6464 264.042 88.6464ZM264.262 87.7938C264.55 87.7938 264.793 87.7181 264.991 87.5665C265.192 87.4127 265.343 87.1998 265.446 86.9279C265.551 86.6559 265.603 86.3394 265.603 85.9783C265.603 85.6217 265.552 85.3096 265.449 85.0421C265.347 84.7746 265.196 84.5662 264.998 84.4169C264.799 84.2675 264.554 84.1929 264.262 84.1929C263.961 84.1929 263.711 84.2709 263.51 84.4269C263.309 84.5829 263.158 84.7958 263.055 85.0655C262.955 85.3352 262.905 85.6395 262.905 85.9783C262.905 86.3216 262.956 86.6303 263.059 86.9045C263.161 87.1786 263.313 87.396 263.513 87.5565C263.716 87.7147 263.966 87.7938 264.262 87.7938ZM271.767 84.6643L270.861 84.8248C270.823 84.7089 270.763 84.5985 270.68 84.4938C270.6 84.389 270.491 84.3032 270.353 84.2363C270.215 84.1695 270.042 84.136 269.835 84.136C269.551 84.136 269.315 84.1996 269.126 84.3266C268.936 84.4514 268.841 84.613 268.841 84.8114C268.841 84.9831 268.905 85.1213 269.032 85.226C269.159 85.3308 269.364 85.4166 269.647 85.4835L270.463 85.6707C270.936 85.7799 271.288 85.9482 271.52 86.1756C271.751 86.4029 271.867 86.6983 271.867 87.0616C271.867 87.3692 271.778 87.6434 271.6 87.8841C271.424 88.1226 271.177 88.3099 270.861 88.4458C270.547 88.5818 270.182 88.6498 269.768 88.6498C269.193 88.6498 268.723 88.5272 268.36 88.282C267.997 88.0346 267.774 87.6835 267.691 87.2288L268.658 87.0817C268.718 87.3336 268.841 87.5241 269.029 87.6534C269.216 87.7805 269.46 87.844 269.761 87.844C270.089 87.844 270.351 87.776 270.547 87.64C270.743 87.5018 270.841 87.3336 270.841 87.1352C270.841 86.9747 270.781 86.8398 270.66 86.7306C270.542 86.6214 270.361 86.5389 270.115 86.4832L269.246 86.2926C268.767 86.1834 268.412 86.0095 268.183 85.771C267.955 85.5325 267.842 85.2305 267.842 84.8649C267.842 84.5618 267.926 84.2965 268.096 84.0692C268.265 83.8418 268.499 83.6646 268.798 83.5375C269.097 83.4082 269.439 83.3436 269.824 83.3436C270.38 83.3436 270.816 83.464 271.135 83.7047C271.454 83.9432 271.665 84.2631 271.767 84.6643Z" fill="url(#paint1_linear_1285_1174)"/>
<rect x="127.312" y="104.546" width="65.375" height="28.4375" rx="8.06787" fill="url(#paint2_linear_1285_1174)"/>
<path d="M143.294 117.48C143.267 117.228 143.154 117.032 142.954 116.892C142.756 116.751 142.498 116.681 142.18 116.681C141.957 116.681 141.766 116.715 141.606 116.782C141.447 116.849 141.324 116.941 141.24 117.056C141.155 117.171 141.112 117.303 141.11 117.451C141.11 117.574 141.138 117.681 141.194 117.772C141.251 117.862 141.329 117.939 141.427 118.002C141.525 118.064 141.634 118.116 141.753 118.158C141.873 118.201 141.993 118.236 142.114 118.265L142.668 118.404C142.891 118.455 143.106 118.526 143.311 118.614C143.519 118.703 143.705 118.814 143.868 118.949C144.034 119.083 144.165 119.246 144.261 119.436C144.357 119.627 144.405 119.85 144.405 120.106C144.405 120.452 144.317 120.757 144.14 121.02C143.963 121.282 143.707 121.487 143.372 121.635C143.039 121.781 142.636 121.854 142.163 121.854C141.703 121.854 141.304 121.783 140.966 121.641C140.629 121.498 140.366 121.291 140.175 121.018C139.987 120.744 139.885 120.412 139.869 120.019H140.922C140.938 120.225 141.001 120.396 141.113 120.533C141.224 120.669 141.37 120.771 141.549 120.839C141.729 120.906 141.931 120.94 142.154 120.94C142.387 120.94 142.591 120.905 142.766 120.836C142.943 120.765 143.082 120.667 143.182 120.542C143.282 120.415 143.333 120.266 143.335 120.097C143.333 119.943 143.287 119.816 143.199 119.716C143.11 119.614 142.986 119.53 142.827 119.462C142.669 119.393 142.484 119.332 142.273 119.278L141.6 119.105C141.114 118.98 140.729 118.79 140.446 118.536C140.166 118.28 140.025 117.941 140.025 117.518C140.025 117.17 140.119 116.865 140.308 116.603C140.498 116.341 140.757 116.139 141.084 115.994C141.411 115.848 141.781 115.775 142.195 115.775C142.614 115.775 142.982 115.848 143.297 115.994C143.614 116.139 143.864 116.34 144.044 116.597C144.225 116.853 144.318 117.147 144.324 117.48H143.294ZM147.445 117.333V118.141H144.897V117.333H147.445ZM145.526 116.271H146.571V120.432C146.571 120.572 146.592 120.68 146.634 120.755C146.678 120.828 146.736 120.878 146.807 120.905C146.878 120.932 146.957 120.945 147.044 120.945C147.109 120.945 147.169 120.941 147.223 120.931C147.279 120.921 147.321 120.913 147.35 120.905L147.526 121.722C147.47 121.741 147.39 121.762 147.286 121.785C147.184 121.808 147.059 121.822 146.911 121.825C146.65 121.833 146.414 121.794 146.204 121.707C145.995 121.619 145.828 121.482 145.705 121.297C145.584 121.113 145.524 120.882 145.526 120.605V116.271ZM149.513 121.854C149.232 121.854 148.979 121.804 148.754 121.704C148.531 121.602 148.354 121.452 148.223 121.254C148.094 121.056 148.029 120.812 148.029 120.521C148.029 120.271 148.076 120.064 148.168 119.901C148.26 119.737 148.386 119.607 148.546 119.509C148.706 119.41 148.885 119.336 149.085 119.286C149.287 119.234 149.496 119.197 149.712 119.174C149.971 119.147 150.182 119.123 150.343 119.102C150.505 119.079 150.622 119.044 150.695 118.998C150.77 118.95 150.808 118.876 150.808 118.776V118.758C150.808 118.541 150.744 118.373 150.615 118.253C150.486 118.134 150.3 118.075 150.058 118.075C149.802 118.075 149.599 118.13 149.449 118.242C149.301 118.354 149.201 118.485 149.149 118.637L148.174 118.499C148.251 118.229 148.378 118.004 148.555 117.824C148.732 117.641 148.948 117.504 149.204 117.414C149.46 117.322 149.742 117.275 150.052 117.275C150.266 117.275 150.478 117.3 150.69 117.35C150.901 117.4 151.095 117.483 151.27 117.599C151.445 117.712 151.585 117.867 151.691 118.063C151.799 118.259 151.852 118.505 151.852 118.799V121.765H150.848V121.156H150.814C150.75 121.279 150.661 121.395 150.545 121.502C150.432 121.608 150.289 121.694 150.116 121.759C149.944 121.823 149.743 121.854 149.513 121.854ZM149.784 121.087C149.993 121.087 150.175 121.045 150.329 120.963C150.483 120.878 150.601 120.767 150.684 120.628C150.769 120.49 150.811 120.339 150.811 120.175V119.653C150.778 119.68 150.722 119.705 150.644 119.728C150.567 119.751 150.48 119.771 150.384 119.788C150.288 119.806 150.192 119.821 150.098 119.835C150.004 119.848 149.922 119.86 149.853 119.869C149.697 119.89 149.558 119.925 149.435 119.973C149.311 120.021 149.214 120.089 149.143 120.175C149.072 120.26 149.036 120.369 149.036 120.504C149.036 120.696 149.107 120.842 149.247 120.94C149.387 121.038 149.566 121.087 149.784 121.087ZM153.774 120.374L153.771 119.113H153.938L155.531 117.333H156.751L154.792 119.514H154.576L153.774 120.374ZM152.821 121.765V115.856H153.866V121.765H152.821ZM155.603 121.765L154.16 119.748L154.864 119.012L156.852 121.765H155.603ZM159.146 121.851C158.701 121.851 158.318 121.759 157.994 121.574C157.673 121.388 157.426 121.124 157.253 120.784C157.08 120.442 156.993 120.039 156.993 119.575C156.993 119.119 157.08 118.719 157.253 118.375C157.428 118.028 157.672 117.759 157.986 117.567C158.299 117.373 158.668 117.275 159.091 117.275C159.364 117.275 159.622 117.32 159.864 117.408C160.108 117.495 160.324 117.629 160.51 117.812C160.699 117.995 160.847 118.228 160.955 118.51C161.062 118.791 161.116 119.126 161.116 119.514V119.835H157.484V119.131H160.115C160.113 118.931 160.07 118.753 159.985 118.597C159.901 118.439 159.782 118.315 159.63 118.225C159.48 118.134 159.305 118.089 159.105 118.089C158.892 118.089 158.704 118.141 158.543 118.245C158.381 118.347 158.255 118.481 158.165 118.649C158.076 118.814 158.031 118.996 158.029 119.194V119.809C158.029 120.066 158.076 120.288 158.17 120.472C158.265 120.655 158.396 120.795 158.566 120.894C158.735 120.99 158.933 121.038 159.16 121.038C159.312 121.038 159.45 121.017 159.573 120.974C159.696 120.93 159.802 120.866 159.893 120.781C159.983 120.696 160.052 120.592 160.098 120.467L161.073 120.576C161.011 120.834 160.894 121.059 160.721 121.251C160.55 121.442 160.33 121.59 160.063 121.696C159.796 121.8 159.49 121.851 159.146 121.851ZM164.897 119.168V121.765H163.853V117.333H164.851V118.086H164.903C165.005 117.838 165.167 117.641 165.391 117.495C165.616 117.348 165.894 117.275 166.224 117.275C166.53 117.275 166.797 117.341 167.024 117.472C167.253 117.602 167.43 117.792 167.555 118.04C167.682 118.288 167.744 118.589 167.742 118.943V121.765H166.698V119.105C166.698 118.808 166.621 118.577 166.467 118.409C166.315 118.242 166.104 118.158 165.835 118.158C165.652 118.158 165.49 118.199 165.347 118.279C165.207 118.358 165.096 118.473 165.016 118.623C164.937 118.773 164.897 118.955 164.897 119.168ZM170.656 121.851C170.223 121.851 169.848 121.756 169.531 121.566C169.213 121.375 168.967 121.109 168.792 120.767C168.619 120.424 168.532 120.024 168.532 119.566C168.532 119.108 168.619 118.707 168.792 118.363C168.967 118.019 169.213 117.751 169.531 117.561C169.848 117.371 170.223 117.275 170.656 117.275C171.089 117.275 171.464 117.371 171.781 117.561C172.098 117.751 172.344 118.019 172.517 118.363C172.692 118.707 172.779 119.108 172.779 119.566C172.779 120.024 172.692 120.424 172.517 120.767C172.344 121.109 172.098 121.375 171.781 121.566C171.464 121.756 171.089 121.851 170.656 121.851ZM170.662 121.015C170.896 121.015 171.092 120.95 171.25 120.821C171.408 120.691 171.525 120.516 171.602 120.296C171.681 120.077 171.721 119.833 171.721 119.563C171.721 119.292 171.681 119.047 171.602 118.828C171.525 118.606 171.408 118.43 171.25 118.3C171.092 118.169 170.896 118.103 170.662 118.103C170.421 118.103 170.221 118.169 170.061 118.3C169.904 118.43 169.785 118.606 169.707 118.828C169.63 119.047 169.591 119.292 169.591 119.563C169.591 119.833 169.63 120.077 169.707 120.296C169.785 120.516 169.904 120.691 170.061 120.821C170.221 120.95 170.421 121.015 170.662 121.015ZM174.372 121.765L173.12 117.333H174.185L174.964 120.449H175.004L175.801 117.333H176.854L177.65 120.432H177.693L178.461 117.333H179.528L178.273 121.765H177.186L176.355 118.77H176.294L175.463 121.765H174.372Z" fill="#010412"/>
<g opacity="0.5">
<path d="M52.8901 -17.4484C41.4999 -20.0243 26.8719 -13.3383 20.2424 -2.50081C19.0165 -0.488998 18.1478 1.51906 17.6214 3.48951C16.4857 7.70868 16.9295 11.6947 18.7721 14.9211L21.3479 19.4336C19.5053 16.2072 19.0616 12.2211 20.201 7.99446C20.7312 6.03153 21.5924 4.01972 22.822 2.00415C29.4516 -8.83332 44.0795 -15.5155 55.4735 -12.9359C60.2756 -11.8416 63.7502 -9.30336 65.6868 -5.91525L63.1109 -10.4277C61.1743 -13.8158 57.6997 -16.3579 52.8901 -17.4521V-17.4484Z" stroke="#11998E" stroke-opacity="0.2" stroke-linecap="round" stroke-linejoin="round"/>
<path d="M20.1973 7.99829L17.6214 3.48958" stroke="#11998E" stroke-opacity="0.2" stroke-linecap="round" stroke-linejoin="round"/>
<path d="M55.4696 -12.9321C44.0756 -15.5155 29.4514 -8.82947 22.8218 2.008C21.5922 4.01981 20.7273 6.03162 20.1971 7.99455C17.8769 16.6359 22.1638 24.2846 31.482 26.4243C42.9437 29.049 57.5717 22.3668 64.2201 11.4767C65.4422 9.46863 66.3108 7.46433 66.8373 5.50516C69.165 -3.14751 64.8556 -10.8112 55.4734 -12.9358L55.4696 -12.9321Z" stroke="#11998E" stroke-opacity="0.2" stroke-linecap="round" stroke-linejoin="round"/>
</g>
</g>
<defs>
<linearGradient id="paint0_linear_1285_1174" x1="141.757" y1="37.3" x2="146.932" y2="66.8594" gradientUnits="userSpaceOnUse">
<stop stop-color="#38EF7D"/>
<stop offset="1" stop-color="#11998E"/>
</linearGradient>
<linearGradient id="paint1_linear_1285_1174" x1="144.241" y1="77.6261" x2="145.727" y2="92.3708" gradientUnits="userSpaceOnUse">
<stop stop-color="#38EF7D"/>
<stop offset="1" stop-color="#11998E"/>
</linearGradient>
<linearGradient id="paint2_linear_1285_1174" x1="128.209" y1="104.546" x2="140.208" y2="150.903" gradientUnits="userSpaceOnUse">
<stop stop-color="#38EF7D"/>
<stop offset="1" stop-color="#11998E"/>
</linearGradient>
<clipPath id="clip0_1285_1174">
<rect width="320" height="150" fill="white"/>
</clipPath>
</defs>
</svg>
