<svg width="256" height="256" viewBox="0 0 256 256" fill="none" xmlns="http://www.w3.org/2000/svg">
<path d="M117.66 170.34C118.403 171.083 118.993 171.965 119.396 172.936C119.799 173.908 120.006 174.949 120.006 176C120.006 177.051 119.799 178.092 119.396 179.064C118.993 180.035 118.403 180.917 117.66 181.66L85.6596 213.66C84.9166 214.404 84.0343 214.994 83.0631 215.396C82.0919 215.799 81.0509 216.006 79.9996 216.006C78.9482 216.006 77.9072 215.799 76.936 215.396C75.9649 214.994 75.0825 214.404 74.3396 213.66L42.3396 181.66C41.5963 180.917 41.0067 180.034 40.6044 179.063C40.2022 178.092 39.9951 177.051 39.9951 176C39.9951 174.949 40.2022 173.908 40.6044 172.937C41.0067 171.966 41.5963 171.083 42.3396 170.34C43.8407 168.839 45.8767 167.996 47.9996 167.996C49.0507 167.996 50.0916 168.203 51.0627 168.605C52.0339 169.007 52.9163 169.597 53.6596 170.34L71.9996 188.69V48C71.9996 45.8783 72.8424 43.8434 74.3427 42.3431C75.843 40.8429 77.8778 40 79.9996 40C82.1213 40 84.1561 40.8429 85.6564 42.3431C87.1567 43.8434 87.9996 45.8783 87.9996 48V188.69L106.34 170.34C107.083 169.596 107.965 169.006 108.936 168.604C109.907 168.201 110.948 167.994 112 167.994C113.051 167.994 114.092 168.201 115.063 168.604C116.034 169.006 116.917 169.596 117.66 170.34ZM213.66 74.34L181.66 42.34C180.917 41.5962 180.034 41.0061 179.063 40.6035C178.092 40.2009 177.051 39.9937 176 39.9937C174.948 39.9937 173.907 40.2009 172.936 40.6035C171.965 41.0061 171.083 41.5962 170.34 42.34L138.34 74.34C136.838 75.8411 135.995 77.8771 135.995 80C135.995 82.1229 136.838 84.1589 138.34 85.66C139.841 87.1611 141.877 88.0044 144 88.0044C146.122 88.0044 148.158 87.1611 149.66 85.66L168 67.31V208C168 210.122 168.842 212.157 170.343 213.657C171.843 215.157 173.878 216 176 216C178.121 216 180.156 215.157 181.656 213.657C183.157 212.157 184 210.122 184 208V67.31L202.34 85.66C203.841 87.1611 205.877 88.0044 208 88.0044C210.122 88.0044 212.158 87.1611 213.66 85.66C215.161 84.1589 216.004 82.1229 216.004 80C216.004 77.8771 215.161 75.8411 213.66 74.34Z" fill="black"/>
</svg>
